<svg width="1080" height="1080" viewBox="0 0 1080 1080" fill="none" xmlns="http://www.w3.org/2000/svg">
<g clip-path="url(#clip0_21_2382)">
<path d="M24.5001 0L24.5 1080M48.5001 0L48.5001 1080M72.5002 0L72.5001 1080M96.5002 0L96.5002 1080M120.5 0L120.5 1080M144.5 0L144.5 1080M168.5 0L168.5 1080M192.5 0L192.5 1080M216.5 0L216.5 1080M240.501 0L240.5 1080M264.501 0L264.501 1080M288.501 0L288.501 1080M312.501 0L312.501 1080M336.501 0L336.501 1080M360.501 0L360.501 1080M384.501 0L384.501 1080M408.501 0L408.501 1080M432.501 0L432.501 1080M456.501 0L456.501 1080M480.501 0L480.501 1080M504.501 0L504.501 1080M528.501 0L528.501 1080M552.501 0L552.501 1080M576.501 0L576.501 1080M600.501 0L600.501 1080M624.501 0L624.501 1080M648.502 0L648.501 1080M672.502 0L672.502 1080M696.502 0L696.502 1080M720.502 0L720.502 1080M744.502 0L744.502 1080M768.502 0L768.502 1080M792.502 0L792.502 1080M816.502 0L816.502 1080M840.502 0L840.502 1080M864.502 0L864.502 1080M888.502 0L888.502 1080M912.502 0L912.502 1080M936.502 0L936.502 1080M960.502 0L960.502 1080M984.502 0L984.502 1080M1008.5 0L1008.5 1080M1032.5 0V1080M1068 36.499L-11.999 36.4989M1068 60.4991L-11.999 60.499M1068 84.4991L-11.999 84.499M1068 108.499L-11.999 108.499M1068 132.499L-11.999 132.499M1068 156.499L-11.999 156.499M1068 180.499L-11.999 180.499M1068 204.499L-11.999 204.499M1068 228.499L-11.999 228.499M1068 252.499L-11.999 252.499M1068 276.5L-11.999 276.499M1068 300.5L-11.999 300.499M1068 324.5L-11.999 324.5M1068 348.5L-11.999 348.5M1068 372.5L-11.999 372.5M1068 396.5L-11.999 396.5M1068 420.5L-11.999 420.5M1068 444.5L-11.999 444.5M1068 468.5L-11.999 468.5M1068 492.5L-11.999 492.5M1068 516.5L-11.999 516.5M1068 540.5L-11.999 540.5M1068 564.5L-11.999 564.5M1068 588.5L-11.999 588.5M1068 612.5L-11.999 612.5M1068 636.5L-11.999 636.5M1068 660.5L-11.999 660.5M1068 684.5L-11.999 684.5M1068 708.501L-11.999 708.5M1068 732.501L-11.999 732.501M1068 756.501L-11.999 756.501M1068 780.501L-11.999 780.501M1068 804.501L-11.999 804.501M1068 828.501L-11.999 828.501M1068 852.501L-11.999 852.501M1068 876.501L-11.999 876.501M1068 900.501L-11.999 900.501M1068 924.501L-11.999 924.501M1068 948.501L-11.999 948.501M1068 972.501L-11.999 972.501M1068 996.501L-11.999 996.501M1068 1020.5L-11.999 1020.5M1068 1044.5L-11.999 1044.5" stroke="url(#paint0_linear_21_2382)" stroke-opacity="0.15"/>
<rect x="456" y="494" width="169" height="93" rx="21" stroke="white" stroke-width="6"/>
<path d="M494.592 559V553.24H502.656V534.904H496.032V529.144H501.216C502.176 529.144 502.656 528.664 502.656 527.704V525.4H508.656V553.24H516.24V559H494.592ZM540.845 559.48C538.573 559.48 536.605 559.032 534.941 558.136C533.309 557.208 532.029 556.008 531.101 554.536C530.173 553.032 529.613 551.4 529.421 549.64H535.421C535.645 550.888 536.269 551.912 537.293 552.712C538.317 553.48 539.517 553.864 540.893 553.864C542.493 553.864 543.773 553.352 544.733 552.328C545.725 551.272 546.221 549.864 546.221 548.104C546.221 546.408 545.709 545.032 544.685 543.976C543.661 542.888 542.365 542.344 540.797 542.344C539.837 542.344 538.925 542.552 538.061 542.968C537.229 543.384 536.557 543.96 536.045 544.696H529.949L531.869 525.4H550.349V531.16H536.909L536.141 538.408H536.381C537.757 537.416 539.565 536.92 541.805 536.92C543.821 536.92 545.613 537.4 547.181 538.36C548.781 539.288 550.013 540.6 550.877 542.296C551.773 543.992 552.221 545.912 552.221 548.056C552.221 550.296 551.741 552.28 550.781 554.008C549.853 555.736 548.525 557.08 546.797 558.04C545.101 559 543.117 559.48 540.845 559.48ZM579.131 553.144H573.947V544.408H565.883V539.464H573.947V530.68H579.131V539.464H587.147V544.408H579.131V553.144Z" fill="white"/>
</g>
<defs>
<linearGradient id="paint0_linear_21_2382" x1="528.001" y1="0" x2="528.001" y2="1080" gradientUnits="userSpaceOnUse">
<stop stop-color="white" stop-opacity="0"/>
<stop offset="1" stop-color="white"/>
</linearGradient>
<clipPath id="clip0_21_2382">
<rect width="1080" height="1080" fill="white"/>
</clipPath>
</defs>
</svg>
