<svg width="1080" height="1080" viewBox="0 0 1080 1080" fill="none" xmlns="http://www.w3.org/2000/svg">
<g clip-path="url(#clip0_21_2578)">
<path d="M24.4991 0L24.4991 1080M48.4992 0L48.4991 1080M72.4992 0L72.4992 1080M96.4993 0L96.4992 1080M120.499 0L120.499 1080M144.499 0L144.499 1080M168.499 0L168.499 1080M192.499 0L192.499 1080M216.499 0L216.499 1080M240.5 0L240.499 1080M264.5 0L264.5 1080M288.5 0L288.5 1080M312.5 0L312.5 1080M336.5 0L336.5 1080M360.5 0L360.5 1080M384.5 0L384.5 1080M408.5 0L408.5 1080M432.5 0L432.5 1080M456.5 0L456.5 1080M480.5 0L480.5 1080M504.5 0L504.5 1080M528.5 0L528.5 1080M552.5 0L552.5 1080M576.5 0L576.5 1080M600.5 0L600.5 1080M624.5 0L624.5 1080M648.501 0L648.5 1080M672.501 0L672.501 1080M696.501 0L696.501 1080M720.501 0L720.501 1080M744.501 0L744.501 1080M768.501 0L768.501 1080M792.501 0L792.501 1080M816.501 0L816.501 1080M840.501 0L840.501 1080M864.501 0L864.501 1080M888.501 0L888.501 1080M912.501 0L912.501 1080M936.501 0L936.501 1080M960.501 0L960.501 1080M984.501 0L984.501 1080M1008.5 0L1008.5 1080M1032.5 0V1080M1068 36.499L-12 36.4989M1068 60.4991L-12 60.499M1068 84.4991L-12 84.499M1068 108.499L-12 108.499M1068 132.499L-12 132.499M1068 156.499L-12 156.499M1068 180.499L-12 180.499M1068 204.499L-12 204.499M1068 228.499L-12 228.499M1068 252.499L-12 252.499M1068 276.5L-12 276.499M1068 300.5L-12 300.499M1068 324.5L-12 324.5M1068 348.5L-12 348.5M1068 372.5L-12 372.5M1068 396.5L-12 396.5M1068 420.5L-12 420.5M1068 444.5L-12 444.5M1068 468.5L-12 468.5M1068 492.5L-12 492.5M1068 516.5L-12 516.5M1068 540.5L-12 540.5M1068 564.5L-12 564.5M1068 588.5L-12 588.5M1068 612.5L-12 612.5M1068 636.5L-12 636.5M1068 660.5L-12 660.5M1068 684.5L-12 684.5M1068 708.501L-12 708.5M1068 732.501L-12 732.501M1068 756.501L-12 756.501M1068 780.501L-12 780.501M1068 804.501L-12 804.501M1068 828.501L-12 828.501M1068 852.501L-12 852.501M1068 876.501L-12 876.501M1068 900.501L-12 900.501M1068 924.501L-12 924.501M1068 948.501L-12 948.501M1068 972.501L-12 972.501M1068 996.501L-12 996.501M1068 1020.5L-12 1020.5M1068 1044.5L-12 1044.5" stroke="url(#paint0_linear_21_2578)" stroke-opacity="0.15"/>
<rect x="398.5" y="500" width="284" height="81" rx="21" stroke="white" stroke-width="6"/>
<path d="M448.491 527.998C449.245 526.602 450.054 525.438 451.278 524.412C453.533 522.521 456.362 521.774 459.263 522.059C462.268 522.353 464.947 523.899 466.852 526.238C468.925 528.783 469.767 532.056 469.427 535.307C468.694 542.306 463.305 547.401 458.176 551.603C455.112 554.227 451.793 556.611 448.547 559C447.853 558.575 447.189 558.082 446.526 557.609C441.633 554.116 434.729 548.848 431.144 543.985C429.454 541.691 428.132 538.997 427.674 536.161C427.146 532.894 427.813 529.429 429.758 526.724C431.612 524.145 434.335 522.61 437.427 522.111C438.858 521.967 440.341 522.019 441.736 522.39C444.841 523.215 446.929 525.261 448.491 527.998Z" fill="url(#paint1_linear_21_2578)"/>
<line x1="504.5" y1="497" x2="504.5" y2="584" stroke="white" stroke-width="6"/>
<g clip-path="url(#clip1_21_2578)">
<path fill-rule="evenodd" clip-rule="evenodd" d="M540.251 533.751L541.193 534.693L544.557 538.057L545.5 539L546.443 538.057L549.807 534.693L550.749 533.751L549.807 532.807L546.443 529.443L545.5 528.5L544.557 529.443L541.193 532.807L540.251 533.751ZM540.251 547.249L541.193 548.193L544.557 551.557L545.5 552.5L546.443 551.557L549.807 548.193L550.749 547.251L549.807 546.307L546.443 542.943L545.5 542L544.557 542.943L541.193 546.307L540.251 547.249ZM534.443 541.443L533.5 540.5L534.443 539.557L537.807 536.193L538.751 535.251L539.693 536.193L543.057 539.557L544 540.5L543.057 541.443L539.693 544.807L538.751 545.749L537.807 544.807L534.443 541.443ZM547 540.5L547.943 541.443L551.307 544.807L552.249 545.749L553.193 544.807L556.557 541.443L557.5 540.5L556.557 539.557L553.193 536.193L552.251 535.251L551.307 536.193L547.943 539.557L547 540.5Z" fill="white"/>
</g>
<g clip-path="url(#clip2_21_2578)">
<path fill-rule="evenodd" clip-rule="evenodd" d="M605.5 540.5L593.5 528.5L581.5 540.5L593.5 552.5L605.5 540.5ZM583.385 540.5L593.5 530.385L603.615 540.5L593.5 550.615L583.385 540.5Z" fill="white"/>
</g>
<g clip-path="url(#clip3_21_2578)">
<path fill-rule="evenodd" clip-rule="evenodd" d="M653.5 540.5L641.5 528.5L629.5 540.5L641.5 552.5L653.5 540.5Z" fill="white"/>
</g>
</g>
<defs>
<linearGradient id="paint0_linear_21_2578" x1="528" y1="0" x2="528" y2="1080" gradientUnits="userSpaceOnUse">
<stop stop-color="white" stop-opacity="0"/>
<stop offset="1" stop-color="white"/>
</linearGradient>
<linearGradient id="paint1_linear_21_2578" x1="448.5" y1="522" x2="448.5" y2="559" gradientUnits="userSpaceOnUse">
<stop stop-color="#FF0E41"/>
<stop offset="1" stop-color="#FF3862"/>
</linearGradient>
<clipPath id="clip0_21_2578">
<rect width="1080" height="1080" fill="white"/>
</clipPath>
<clipPath id="clip1_21_2578">
<rect width="24" height="24" fill="white" transform="translate(533.5 528.5)"/>
</clipPath>
<clipPath id="clip2_21_2578">
<rect width="24" height="24" fill="white" transform="translate(581.5 528.5)"/>
</clipPath>
<clipPath id="clip3_21_2578">
<rect width="24" height="24" fill="white" transform="translate(629.5 528.5)"/>
</clipPath>
</defs>
</svg>
