<svg width="1080" height="1080" viewBox="0 0 1080 1080" fill="none" xmlns="http://www.w3.org/2000/svg">
<g clip-path="url(#clip0_21_2684)">
<path d="M24.4991 0L24.4991 1080M48.4992 0L48.4991 1080M72.4992 0L72.4992 1080M96.4993 0L96.4992 1080M120.499 0L120.499 1080M144.499 0L144.499 1080M168.499 0L168.499 1080M192.499 0L192.499 1080M216.499 0L216.499 1080M240.5 0L240.499 1080M264.5 0L264.5 1080M288.5 0L288.5 1080M312.5 0L312.5 1080M336.5 0L336.5 1080M360.5 0L360.5 1080M384.5 0L384.5 1080M408.5 0L408.5 1080M432.5 0L432.5 1080M456.5 0L456.5 1080M480.5 0L480.5 1080M504.5 0L504.5 1080M528.5 0L528.5 1080M552.5 0L552.5 1080M576.5 0L576.5 1080M600.5 0L600.5 1080M624.5 0L624.5 1080M648.501 0L648.5 1080M672.501 0L672.501 1080M696.501 0L696.501 1080M720.501 0L720.501 1080M744.501 0L744.501 1080M768.501 0L768.501 1080M792.501 0L792.501 1080M816.501 0L816.501 1080M840.501 0L840.501 1080M864.501 0L864.501 1080M888.501 0L888.501 1080M912.501 0L912.501 1080M936.501 0L936.501 1080M960.501 0L960.501 1080M984.501 0L984.501 1080M1008.5 0L1008.5 1080M1032.5 0V1080M1068 36.499L-12 36.4989M1068 60.4991L-12 60.499M1068 84.4991L-12 84.499M1068 108.499L-12 108.499M1068 132.499L-12 132.499M1068 156.499L-12 156.499M1068 180.499L-12 180.499M1068 204.499L-12 204.499M1068 228.499L-12 228.499M1068 252.499L-12 252.499M1068 276.5L-12 276.499M1068 300.5L-12 300.499M1068 324.5L-12 324.5M1068 348.5L-12 348.5M1068 372.5L-12 372.5M1068 396.5L-12 396.5M1068 420.5L-12 420.5M1068 444.5L-12 444.5M1068 468.5L-12 468.5M1068 492.5L-12 492.5M1068 516.5L-12 516.5M1068 540.5L-12 540.5M1068 564.5L-12 564.5M1068 588.5L-12 588.5M1068 612.5L-12 612.5M1068 636.5L-12 636.5M1068 660.5L-12 660.5M1068 684.5L-12 684.5M1068 708.501L-12 708.5M1068 732.501L-12 732.501M1068 756.501L-12 756.501M1068 780.501L-12 780.501M1068 804.501L-12 804.501M1068 828.501L-12 828.501M1068 852.501L-12 852.501M1068 876.501L-12 876.501M1068 900.501L-12 900.501M1068 924.501L-12 924.501M1068 948.501L-12 948.501M1068 972.501L-12 972.501M1068 996.501L-12 996.501M1068 1020.5L-12 1020.5M1068 1044.5L-12 1044.5" stroke="url(#paint0_linear_21_2684)" stroke-opacity="0.15"/>
<rect x="318" y="500" width="445" height="81" rx="21" stroke="white" stroke-width="6"/>
<path d="M367.991 527.998C368.745 526.602 369.554 525.438 370.778 524.412C373.033 522.521 375.862 521.774 378.763 522.059C381.768 522.353 384.447 523.899 386.352 526.238C388.425 528.783 389.267 532.056 388.927 535.307C388.194 542.306 382.805 547.401 377.676 551.603C374.612 554.227 371.293 556.611 368.047 559C367.353 558.575 366.689 558.082 366.026 557.609C361.133 554.116 354.229 548.848 350.644 543.985C348.954 541.691 347.632 538.997 347.174 536.161C346.646 532.894 347.313 529.429 349.258 526.724C351.112 524.145 353.835 522.61 356.927 522.111C358.358 521.967 359.841 522.019 361.236 522.39C364.341 523.215 366.429 525.261 367.991 527.998Z" fill="url(#paint1_linear_21_2684)"/>
<line x1="424" y1="497" x2="424" y2="584" stroke="white" stroke-width="6"/>
<path d="M463.879 559H457.879V525.4H478.231V531.016H463.879V539.704H477.079V545.128H463.879V559ZM514.548 559H494.004V553.96H501.588V539.608H495.204V534.616H507.204V553.96H514.548V559ZM507.396 530.296H501.444V524.968H507.396V530.296ZM528.066 559V553.96H534.21V539.608H529.026V534.616H538.29L538.914 537.88H539.154C539.602 536.856 540.274 536.056 541.17 535.48C542.098 534.904 543.186 534.616 544.434 534.616H551.49V539.944H544.434C541.362 539.944 539.826 541.48 539.826 544.552V553.96H547.89V559H528.066ZM587.375 546.376C587.375 547.336 587.311 548.056 587.183 548.536H569.327C569.583 550.488 570.255 551.992 571.343 553.048C572.431 554.104 573.871 554.632 575.663 554.632C578.063 554.632 579.807 553.72 580.895 551.896H586.751C586.015 554.264 584.687 556.12 582.767 557.464C580.847 558.808 578.495 559.48 575.711 559.48C573.375 559.48 571.295 558.936 569.471 557.848C567.647 556.728 566.223 555.208 565.199 553.288C564.175 551.368 563.663 549.208 563.663 546.808C563.663 544.408 564.175 542.248 565.199 540.328C566.223 538.376 567.631 536.856 569.423 535.768C571.247 534.68 573.311 534.136 575.615 534.136C577.951 534.136 579.999 534.664 581.759 535.72C583.551 536.744 584.927 538.184 585.887 540.04C586.879 541.896 587.375 544.008 587.375 546.376ZM575.615 538.984C574.047 538.984 572.735 539.448 571.679 540.376C570.623 541.272 569.903 542.536 569.519 544.168H581.711C581.359 542.504 580.671 541.224 579.647 540.328C578.623 539.432 577.279 538.984 575.615 538.984ZM612.892 559.48C611.292 559.48 609.852 559.176 608.572 558.568C607.324 557.928 606.348 557.128 605.644 556.168H605.404L605.068 559H600.124V525.4H605.692V537.256H605.932C606.668 536.36 607.612 535.624 608.764 535.048C609.948 534.44 611.324 534.136 612.892 534.136C614.876 534.136 616.7 534.664 618.364 535.72C620.028 536.776 621.356 538.28 622.348 540.232C623.34 542.152 623.836 544.344 623.836 546.808C623.836 549.272 623.34 551.48 622.348 553.432C621.356 555.352 620.028 556.84 618.364 557.896C616.7 558.952 614.876 559.48 612.892 559.48ZM611.98 554.296C613.804 554.296 615.308 553.624 616.492 552.28C617.676 550.904 618.268 549.08 618.268 546.808C618.268 544.536 617.676 542.728 616.492 541.384C615.308 540.008 613.804 539.32 611.98 539.32C610.156 539.32 608.652 540.008 607.468 541.384C606.284 542.728 605.692 544.536 605.692 546.808C605.692 549.08 606.284 550.904 607.468 552.28C608.652 553.624 610.156 554.296 611.98 554.296ZM659.193 554.296V559H643.737C641.177 559 639.161 558.376 637.689 557.128C636.249 555.88 635.529 554.056 635.529 551.656C635.529 549.256 636.377 547.368 638.073 545.992C639.769 544.616 642.009 543.928 644.793 543.928H650.697V539.464H638.361V534.616H656.313V548.632C656.313 549.912 656.153 551.048 655.833 552.04C655.513 553 655.065 553.752 654.489 554.296H659.193ZM650.697 548.296H645.609C644.105 548.296 642.985 548.6 642.249 549.208C641.513 549.784 641.145 550.584 641.145 551.608C641.145 552.76 641.513 553.592 642.249 554.104C642.985 554.616 644.041 554.872 645.417 554.872C647.209 554.872 648.537 554.488 649.401 553.72C650.265 552.92 650.697 551.688 650.697 550.024V548.296ZM684.183 559.48C681.559 559.48 679.415 559.064 677.751 558.232C676.087 557.4 674.887 556.376 674.151 555.16C673.415 553.912 673.047 552.68 673.047 551.464H678.615C678.615 552.424 679.079 553.224 680.007 553.864C680.967 554.472 682.327 554.776 684.087 554.776C685.527 554.776 686.615 554.568 687.351 554.152C688.087 553.704 688.455 553.08 688.455 552.28C688.455 551.544 688.183 550.952 687.639 550.504C687.095 550.056 686.199 549.672 684.951 549.352L681.495 548.44C678.903 547.8 676.967 546.936 675.687 545.848C674.407 544.728 673.767 543.24 673.767 541.384C673.767 539.272 674.583 537.544 676.215 536.2C677.879 534.824 680.263 534.136 683.367 534.136C685.543 534.136 687.415 534.536 688.983 535.336C690.551 536.104 691.735 537.096 692.535 538.312C693.335 539.528 693.734 540.776 693.734 542.056H688.167C688.167 541.16 687.719 540.392 686.823 539.752C685.959 539.112 684.775 538.792 683.271 538.792C681.991 538.792 680.983 539.016 680.247 539.464C679.543 539.912 679.191 540.52 679.191 541.288C679.191 541.96 679.479 542.504 680.055 542.92C680.663 543.336 681.607 543.704 682.887 544.024L686.439 544.888C689.031 545.528 690.919 546.44 692.103 547.624C693.287 548.776 693.879 550.28 693.879 552.136C693.879 554.28 693.047 556.04 691.383 557.416C689.719 558.792 687.319 559.48 684.183 559.48ZM731.3 546.376C731.3 547.336 731.236 548.056 731.108 548.536H713.252C713.508 550.488 714.18 551.992 715.268 553.048C716.356 554.104 717.796 554.632 719.588 554.632C721.988 554.632 723.732 553.72 724.82 551.896H730.676C729.94 554.264 728.612 556.12 726.692 557.464C724.772 558.808 722.42 559.48 719.636 559.48C717.3 559.48 715.22 558.936 713.396 557.848C711.572 556.728 710.148 555.208 709.124 553.288C708.1 551.368 707.588 549.208 707.588 546.808C707.588 544.408 708.1 542.248 709.124 540.328C710.148 538.376 711.556 536.856 713.348 535.768C715.172 534.68 717.236 534.136 719.54 534.136C721.876 534.136 723.924 534.664 725.684 535.72C727.476 536.744 728.852 538.184 729.812 540.04C730.804 541.896 731.3 544.008 731.3 546.376ZM719.54 538.984C717.972 538.984 716.66 539.448 715.604 540.376C714.548 541.272 713.828 542.536 713.444 544.168H725.636C725.284 542.504 724.596 541.224 723.572 540.328C722.548 539.432 721.204 538.984 719.54 538.984Z" fill="white"/>
</g>
<defs>
<linearGradient id="paint0_linear_21_2684" x1="528" y1="0" x2="528" y2="1080" gradientUnits="userSpaceOnUse">
<stop stop-color="white" stop-opacity="0"/>
<stop offset="1" stop-color="white"/>
</linearGradient>
<linearGradient id="paint1_linear_21_2684" x1="368" y1="522" x2="368" y2="559" gradientUnits="userSpaceOnUse">
<stop stop-color="#FF0E41"/>
<stop offset="1" stop-color="#FF3862"/>
</linearGradient>
<clipPath id="clip0_21_2684">
<rect width="1080" height="1080" fill="white"/>
</clipPath>
</defs>
</svg>
