<svg width="1080" height="1080" viewBox="0 0 1080 1080" fill="none" xmlns="http://www.w3.org/2000/svg">
<g clip-path="url(#clip0_25_1402)">
<path d="M24.4991 0L24.4991 1080M48.4992 0L48.4991 1080M72.4992 0L72.4992 1080M96.4993 0L96.4992 1080M120.499 0L120.499 1080M144.499 0L144.499 1080M168.499 0L168.499 1080M192.499 0L192.499 1080M216.499 0L216.499 1080M240.5 0L240.499 1080M264.5 0L264.5 1080M288.5 0L288.5 1080M312.5 0L312.5 1080M336.5 0L336.5 1080M360.5 0L360.5 1080M384.5 0L384.5 1080M408.5 0L408.5 1080M432.5 0L432.5 1080M456.5 0L456.5 1080M480.5 0L480.5 1080M504.5 0L504.5 1080M528.5 0L528.5 1080M552.5 0L552.5 1080M576.5 0L576.5 1080M600.5 0L600.5 1080M624.5 0L624.5 1080M648.501 0L648.5 1080M672.501 0L672.501 1080M696.501 0L696.501 1080M720.501 0L720.501 1080M744.501 0L744.501 1080M768.501 0L768.501 1080M792.501 0L792.501 1080M816.501 0L816.501 1080M840.501 0L840.501 1080M864.501 0L864.501 1080M888.501 0L888.501 1080M912.501 0L912.501 1080M936.501 0L936.501 1080M960.501 0L960.501 1080M984.501 0L984.501 1080M1008.5 0L1008.5 1080M1032.5 0V1080M1068 36.499L-12 36.4989M1068 60.4991L-12 60.499M1068 84.4991L-12 84.499M1068 108.499L-12 108.499M1068 132.499L-12 132.499M1068 156.499L-12 156.499M1068 180.499L-12 180.499M1068 204.499L-12 204.499M1068 228.499L-12 228.499M1068 252.499L-12 252.499M1068 276.5L-12 276.499M1068 300.5L-12 300.499M1068 324.5L-12 324.5M1068 348.5L-12 348.5M1068 372.5L-12 372.5M1068 396.5L-12 396.5M1068 420.5L-12 420.5M1068 444.5L-12 444.5M1068 468.5L-12 468.5M1068 492.5L-12 492.5M1068 516.5L-12 516.5M1068 540.5L-12 540.5M1068 564.5L-12 564.5M1068 588.5L-12 588.5M1068 612.5L-12 612.5M1068 636.5L-12 636.5M1068 660.5L-12 660.5M1068 684.5L-12 684.5M1068 708.501L-12 708.5M1068 732.501L-12 732.501M1068 756.501L-12 756.501M1068 780.501L-12 780.501M1068 804.501L-12 804.501M1068 828.501L-12 828.501M1068 852.501L-12 852.501M1068 876.501L-12 876.501M1068 900.501L-12 900.501M1068 924.501L-12 924.501M1068 948.501L-12 948.501M1068 972.501L-12 972.501M1068 996.501L-12 996.501M1068 1020.5L-12 1020.5M1068 1044.5L-12 1044.5" stroke="url(#paint0_linear_25_1402)" stroke-opacity="0.15"/>
<g filter="url(#filter0_dddddd_25_1402)">
<path d="M540.48 505.13C542.114 502.075 543.868 499.527 546.519 497.281C551.406 493.142 557.535 491.505 563.82 492.128C570.331 492.773 576.135 496.158 580.263 501.278C584.755 506.848 586.578 514.014 585.841 521.132C584.254 536.454 572.577 547.609 561.465 556.807C554.826 562.552 547.634 567.769 540.601 573C539.099 572.071 537.659 570.99 536.223 569.954C525.622 562.307 510.662 550.776 502.896 540.129C499.233 535.107 496.368 529.209 495.377 523.002C494.234 515.848 495.678 508.264 499.892 502.341C503.908 496.697 509.809 493.335 516.509 492.244C519.609 491.927 522.822 492.042 525.844 492.853C532.573 494.661 537.097 499.139 540.48 505.13Z" fill="url(#paint1_linear_25_1402)"/>
</g>
<line x1="0.5" y1="444.5" x2="1080.5" y2="444.5" stroke="#00FFC4" stroke-width="2"/>
<line x1="0.5" y1="613.5" x2="1080.5" y2="613.5" stroke="#00FFC4" stroke-width="2"/>
<rect x="651" y="21" width="46" height="1078" fill="url(#paint2_linear_25_1402)" fill-opacity="0.12" stroke="url(#paint3_linear_25_1402)" stroke-width="2"/>
<rect x="386" y="21" width="46" height="1078" fill="url(#paint4_linear_25_1402)" fill-opacity="0.12" stroke="url(#paint5_linear_25_1402)" stroke-width="2"/>
<g filter="url(#filter1_d_25_1402)">
<path d="M634 647L627 615L656.5 631.5L642.5 634.5L634 647Z" fill="black"/>
<path d="M634 647L627 615L656.5 631.5L642.5 634.5L634 647Z" stroke="white" stroke-width="3"/>
</g>
<g filter="url(#filter2_d_25_1402)">
<rect x="666" y="647" width="100" height="37" rx="3" fill="black"/>
</g>
<path d="M684.832 674V671.716L690.892 665.776C691.472 665.19 691.955 664.67 692.341 664.216C692.727 663.761 693.017 663.321 693.21 662.895C693.403 662.469 693.5 662.014 693.5 661.531C693.5 660.98 693.375 660.509 693.125 660.116C692.875 659.719 692.531 659.412 692.094 659.196C691.656 658.98 691.159 658.872 690.602 658.872C690.028 658.872 689.526 658.991 689.094 659.23C688.662 659.463 688.327 659.795 688.088 660.227C687.855 660.659 687.739 661.173 687.739 661.77H684.73C684.73 660.662 684.983 659.699 685.489 658.881C685.994 658.062 686.69 657.429 687.577 656.98C688.469 656.531 689.491 656.307 690.645 656.307C691.815 656.307 692.844 656.526 693.73 656.963C694.616 657.401 695.304 658 695.793 658.761C696.287 659.523 696.534 660.392 696.534 661.369C696.534 662.023 696.409 662.665 696.159 663.295C695.909 663.926 695.469 664.625 694.838 665.392C694.213 666.159 693.335 667.088 692.205 668.179L689.196 671.239V671.358H696.798V674H684.832ZM697.848 670.761V668.247L705.255 656.545H707.351V660.125H706.073L701.087 668.026V668.162H711.425V670.761H697.848ZM706.175 674V669.994L706.209 668.869V656.545H709.192V674H706.175ZM717.735 678.909V660.909H720.769V663.074H720.948C721.107 662.756 721.332 662.418 721.622 662.06C721.911 661.696 722.303 661.386 722.798 661.131C723.292 660.869 723.923 660.739 724.69 660.739C725.701 660.739 726.613 660.997 727.426 661.514C728.244 662.026 728.891 662.784 729.369 663.79C729.852 664.79 730.093 666.017 730.093 667.472C730.093 668.909 729.857 670.131 729.386 671.136C728.914 672.142 728.272 672.909 727.46 673.438C726.647 673.966 725.727 674.23 724.698 674.23C723.948 674.23 723.326 674.105 722.832 673.855C722.338 673.605 721.94 673.304 721.639 672.952C721.343 672.594 721.113 672.256 720.948 671.938H720.82V678.909H717.735ZM720.761 667.455C720.761 668.301 720.88 669.043 721.119 669.679C721.363 670.315 721.713 670.812 722.167 671.17C722.627 671.523 723.184 671.699 723.838 671.699C724.519 671.699 725.09 671.517 725.551 671.153C726.011 670.784 726.357 670.281 726.59 669.645C726.829 669.003 726.948 668.273 726.948 667.455C726.948 666.642 726.832 665.92 726.599 665.29C726.366 664.659 726.019 664.165 725.559 663.807C725.099 663.449 724.525 663.27 723.838 663.27C723.178 663.27 722.619 663.443 722.159 663.79C721.698 664.136 721.349 664.622 721.11 665.247C720.877 665.872 720.761 666.608 720.761 667.455ZM733.566 660.909L736.208 665.741L738.892 660.909H742.157L738.211 667.455L742.225 674H738.978L736.208 669.287L733.463 674H730.191L734.179 667.455L730.293 660.909H733.566ZM745.244 674.188C744.727 674.188 744.283 674.006 743.914 673.642C743.545 673.278 743.363 672.835 743.369 672.312C743.363 671.801 743.545 671.364 743.914 671C744.283 670.636 744.727 670.455 745.244 670.455C745.744 670.455 746.178 670.636 746.548 671C746.923 671.364 747.113 671.801 747.119 672.312C747.113 672.659 747.022 672.974 746.846 673.259C746.675 673.543 746.448 673.77 746.164 673.94C745.886 674.105 745.579 674.188 745.244 674.188Z" fill="white"/>
</g>
<defs>
<filter id="filter0_dddddd_25_1402" x="437" y="472" width="207" height="197" filterUnits="userSpaceOnUse" color-interpolation-filters="sRGB">
<feFlood flood-opacity="0" result="BackgroundImageFix"/>
<feColorMatrix in="SourceAlpha" type="matrix" values="0 0 0 0 0 0 0 0 0 0 0 0 0 0 0 0 0 0 127 0" result="hardAlpha"/>
<feOffset dy="1.05156"/>
<feGaussianBlur stdDeviation="0.802504"/>
<feColorMatrix type="matrix" values="0 0 0 0 0 0 0 0 0 0 0 0 0 0 0 0 0 0 0.0646635 0"/>
<feBlend mode="normal" in2="BackgroundImageFix" result="effect1_dropShadow_25_1402"/>
<feColorMatrix in="SourceAlpha" type="matrix" values="0 0 0 0 0 0 0 0 0 0 0 0 0 0 0 0 0 0 127 0" result="hardAlpha"/>
<feOffset dy="2.52704"/>
<feGaussianBlur stdDeviation="1.92853"/>
<feColorMatrix type="matrix" values="0 0 0 0 0 0 0 0 0 0 0 0 0 0 0 0 0 0 0.0928953 0"/>
<feBlend mode="normal" in2="effect1_dropShadow_25_1402" result="effect2_dropShadow_25_1402"/>
<feColorMatrix in="SourceAlpha" type="matrix" values="0 0 0 0 0 0 0 0 0 0 0 0 0 0 0 0 0 0 127 0" result="hardAlpha"/>
<feOffset dy="4.75819"/>
<feGaussianBlur stdDeviation="3.63125"/>
<feColorMatrix type="matrix" values="0 0 0 0 0 0 0 0 0 0 0 0 0 0 0 0 0 0 0.115 0"/>
<feBlend mode="normal" in2="effect2_dropShadow_25_1402" result="effect3_dropShadow_25_1402"/>
<feColorMatrix in="SourceAlpha" type="matrix" values="0 0 0 0 0 0 0 0 0 0 0 0 0 0 0 0 0 0 127 0" result="hardAlpha"/>
<feOffset dy="8.4878"/>
<feGaussianBlur stdDeviation="6.47753"/>
<feColorMatrix type="matrix" values="0 0 0 0 0 0 0 0 0 0 0 0 0 0 0 0 0 0 0.137105 0"/>
<feBlend mode="normal" in2="effect3_dropShadow_25_1402" result="effect4_dropShadow_25_1402"/>
<feColorMatrix in="SourceAlpha" type="matrix" values="0 0 0 0 0 0 0 0 0 0 0 0 0 0 0 0 0 0 127 0" result="hardAlpha"/>
<feOffset dy="15.8755"/>
<feGaussianBlur stdDeviation="12.1155"/>
<feColorMatrix type="matrix" values="0 0 0 0 0 0 0 0 0 0 0 0 0 0 0 0 0 0 0.165337 0"/>
<feBlend mode="normal" in2="effect4_dropShadow_25_1402" result="effect5_dropShadow_25_1402"/>
<feColorMatrix in="SourceAlpha" type="matrix" values="0 0 0 0 0 0 0 0 0 0 0 0 0 0 0 0 0 0 127 0" result="hardAlpha"/>
<feOffset dy="38"/>
<feGaussianBlur stdDeviation="29"/>
<feColorMatrix type="matrix" values="0 0 0 0 0 0 0 0 0 0 0 0 0 0 0 0 0 0 0.23 0"/>
<feBlend mode="normal" in2="effect5_dropShadow_25_1402" result="effect6_dropShadow_25_1402"/>
<feBlend mode="normal" in="SourceGraphic" in2="effect6_dropShadow_25_1402" result="shape"/>
</filter>
<filter id="filter1_d_25_1402" x="622.322" y="611.563" width="40.8828" height="43.6636" filterUnits="userSpaceOnUse" color-interpolation-filters="sRGB">
<feFlood flood-opacity="0" result="BackgroundImageFix"/>
<feColorMatrix in="SourceAlpha" type="matrix" values="0 0 0 0 0 0 0 0 0 0 0 0 0 0 0 0 0 0 127 0" result="hardAlpha"/>
<feOffset dy="2"/>
<feGaussianBlur stdDeviation="1.25"/>
<feComposite in2="hardAlpha" operator="out"/>
<feColorMatrix type="matrix" values="0 0 0 0 0 0 0 0 0 0 0 0 0 0 0 0 0 0 0.19 0"/>
<feBlend mode="normal" in2="BackgroundImageFix" result="effect1_dropShadow_25_1402"/>
<feBlend mode="normal" in="SourceGraphic" in2="effect1_dropShadow_25_1402" result="shape"/>
</filter>
<filter id="filter2_d_25_1402" x="663.5" y="646.5" width="105" height="42" filterUnits="userSpaceOnUse" color-interpolation-filters="sRGB">
<feFlood flood-opacity="0" result="BackgroundImageFix"/>
<feColorMatrix in="SourceAlpha" type="matrix" values="0 0 0 0 0 0 0 0 0 0 0 0 0 0 0 0 0 0 127 0" result="hardAlpha"/>
<feOffset dy="2"/>
<feGaussianBlur stdDeviation="1.25"/>
<feComposite in2="hardAlpha" operator="out"/>
<feColorMatrix type="matrix" values="0 0 0 0 0 0 0 0 0 0 0 0 0 0 0 0 0 0 0.19 0"/>
<feBlend mode="normal" in2="BackgroundImageFix" result="effect1_dropShadow_25_1402"/>
<feBlend mode="normal" in="SourceGraphic" in2="effect1_dropShadow_25_1402" result="shape"/>
</filter>
<linearGradient id="paint0_linear_25_1402" x1="528" y1="0" x2="528" y2="1080" gradientUnits="userSpaceOnUse">
<stop stop-color="white" stop-opacity="0"/>
<stop offset="1" stop-color="white"/>
</linearGradient>
<linearGradient id="paint1_linear_25_1402" x1="540.5" y1="492" x2="540.5" y2="573" gradientUnits="userSpaceOnUse">
<stop stop-color="white"/>
<stop offset="0.421421" stop-color="#F0F0F0"/>
<stop offset="0.827347" stop-color="#BABCBD"/>
<stop offset="1" stop-color="#F2F2F2"/>
</linearGradient>
<linearGradient id="paint2_linear_25_1402" x1="674" y1="20" x2="674" y2="1100" gradientUnits="userSpaceOnUse">
<stop stop-color="#0EFFC7" stop-opacity="0"/>
<stop offset="1" stop-color="#0EFFC7"/>
</linearGradient>
<linearGradient id="paint3_linear_25_1402" x1="698" y1="20" x2="698" y2="1081.5" gradientUnits="userSpaceOnUse">
<stop stop-color="#0EFFC7" stop-opacity="0"/>
<stop offset="1" stop-color="#0EFFC7"/>
</linearGradient>
<linearGradient id="paint4_linear_25_1402" x1="409" y1="20" x2="409" y2="1100" gradientUnits="userSpaceOnUse">
<stop stop-color="#0EFFC7" stop-opacity="0"/>
<stop offset="1" stop-color="#0EFFC7"/>
</linearGradient>
<linearGradient id="paint5_linear_25_1402" x1="433" y1="20" x2="433" y2="1081.5" gradientUnits="userSpaceOnUse">
<stop stop-color="#0EFFC7" stop-opacity="0"/>
<stop offset="1" stop-color="#0EFFC7"/>
</linearGradient>
<clipPath id="clip0_25_1402">
<rect width="1080" height="1080" fill="white"/>
</clipPath>
</defs>
</svg>
