<svg width="1080" height="1080" viewBox="0 0 1080 1080" fill="none" xmlns="http://www.w3.org/2000/svg">
<g clip-path="url(#clip0_22_2874)">
<path d="M24.4991 0L24.4991 1080M48.4992 0L48.4991 1080M72.4992 0L72.4992 1080M96.4993 0L96.4992 1080M120.499 0L120.499 1080M144.499 0L144.499 1080M168.499 0L168.499 1080M192.499 0L192.499 1080M216.499 0L216.499 1080M240.5 0L240.499 1080M264.5 0L264.5 1080M288.5 0L288.5 1080M312.5 0L312.5 1080M336.5 0L336.5 1080M360.5 0L360.5 1080M384.5 0L384.5 1080M408.5 0L408.5 1080M432.5 0L432.5 1080M456.5 0L456.5 1080M480.5 0L480.5 1080M504.5 0L504.5 1080M528.5 0L528.5 1080M552.5 0L552.5 1080M576.5 0L576.5 1080M600.5 0L600.5 1080M624.5 0L624.5 1080M648.501 0L648.5 1080M672.501 0L672.501 1080M696.501 0L696.501 1080M720.501 0L720.501 1080M744.501 0L744.501 1080M768.501 0L768.501 1080M792.501 0L792.501 1080M816.501 0L816.501 1080M840.501 0L840.501 1080M864.501 0L864.501 1080M888.501 0L888.501 1080M912.501 0L912.501 1080M936.501 0L936.501 1080M960.501 0L960.501 1080M984.501 0L984.501 1080M1008.5 0L1008.5 1080M1032.5 0V1080M1068 36.499L-12 36.4989M1068 60.4991L-12 60.499M1068 84.4991L-12 84.499M1068 108.499L-12 108.499M1068 132.499L-12 132.499M1068 156.499L-12 156.499M1068 180.499L-12 180.499M1068 204.499L-12 204.499M1068 228.499L-12 228.499M1068 252.499L-12 252.499M1068 276.5L-12 276.499M1068 300.5L-12 300.499M1068 324.5L-12 324.5M1068 348.5L-12 348.5M1068 372.5L-12 372.5M1068 396.5L-12 396.5M1068 420.5L-12 420.5M1068 444.5L-12 444.5M1068 468.5L-12 468.5M1068 492.5L-12 492.5M1068 516.5L-12 516.5M1068 540.5L-12 540.5M1068 564.5L-12 564.5M1068 588.5L-12 588.5M1068 612.5L-12 612.5M1068 636.5L-12 636.5M1068 660.5L-12 660.5M1068 684.5L-12 684.5M1068 708.501L-12 708.5M1068 732.501L-12 732.501M1068 756.501L-12 756.501M1068 780.501L-12 780.501M1068 804.501L-12 804.501M1068 828.501L-12 828.501M1068 852.501L-12 852.501M1068 876.501L-12 876.501M1068 900.501L-12 900.501M1068 924.501L-12 924.501M1068 948.501L-12 948.501M1068 972.501L-12 972.501M1068 996.501L-12 996.501M1068 1020.5L-12 1020.5M1068 1044.5L-12 1044.5" stroke="url(#paint0_linear_22_2874)" stroke-opacity="0.15"/>
<rect x="456" y="444" width="169" height="169" rx="24" fill="url(#paint1_linear_22_2874)"/>
<path d="M482.127 511.844C481.014 512.051 480.135 512.215 479.49 512.335C478.893 512.385 478.133 512.375 477.211 512.305C476.757 512.147 476.152 511.988 475.394 511.826C474.625 511.606 473.892 511.41 473.193 511.237C472.494 511.065 471.998 511.006 471.705 511.06C471.294 511.137 470.72 511.636 469.983 512.56C469.293 513.414 468.42 513.939 467.366 514.136C465.842 514.419 464.689 514.089 463.907 513.145C463.115 512.143 462.588 510.941 462.327 509.538C462.088 508.251 461.934 507.1 461.867 506.085C461.788 505.011 461.805 503.798 461.918 502.446C461.601 495.851 461.046 489.119 460.254 482.25C459.509 475.311 458.512 468.48 457.262 461.756C456.946 460.061 456.636 458.395 456.332 456.758C456.028 455.12 455.665 453.494 455.243 451.879C454.967 450.721 455.166 449.837 455.841 449.227C456.516 448.618 457.322 448.226 458.26 448.052L459.051 447.905C460.34 447.665 461.484 447.785 462.483 448.264C463.482 448.744 464.25 449.781 464.789 451.374L465.67 456.11C466.3 459.501 466.872 462.903 467.386 466.316C467.899 469.729 468.485 473.37 469.144 477.24L469.408 477.191C471.3 473.996 473.531 471.161 476.103 468.687C478.674 466.213 481.747 464.643 485.322 463.978C488.076 463.466 490.863 463.614 493.68 464.42C496.546 465.158 499.04 466.509 501.164 468.473C503.276 470.378 504.605 472.793 505.148 475.716C505.877 479.633 505.851 483.57 505.071 487.526C504.28 491.423 502.837 495.079 500.744 498.492C498.65 501.906 496.038 504.812 492.906 507.209C489.764 509.547 486.171 511.092 482.127 511.844ZM480.382 502.46C482.668 502.035 484.879 501.049 487.017 499.503C489.155 497.956 491.016 496.067 492.602 493.837C494.188 491.606 495.355 489.242 496.103 486.744C496.91 484.235 497.096 481.811 496.661 479.472C496.313 477.601 495.319 476.002 493.677 474.674C492.083 473.276 490.29 472.763 488.298 473.134C486.188 473.526 484.347 474.382 482.773 475.703C481.259 477.013 479.915 478.594 478.744 480.445C477.62 482.226 476.641 484.132 475.806 486.163C474.971 488.193 474.202 490.09 473.499 491.854C473.263 492.866 472.931 494.017 472.504 495.306C472.135 496.584 472.049 497.749 472.244 498.802C472.44 499.854 473.019 500.684 473.981 501.292C474.942 501.899 476.018 502.304 477.208 502.506C478.445 502.639 479.503 502.624 480.382 502.46Z" fill="white"/>
<path d="M526.921 504.875C525.573 505.126 524.466 504.878 523.6 504.132C522.781 503.316 522.13 502.258 521.645 500.957C521.22 499.645 520.876 498.287 520.615 496.884C520.485 496.183 520.36 495.51 520.24 494.867C520.168 494.155 520.078 493.506 519.969 492.921C519.708 491.518 519.335 489.349 518.85 486.415C518.365 483.481 517.834 480.132 517.255 476.368C516.666 472.546 516.078 468.572 515.493 464.447C514.908 460.322 514.408 456.332 513.995 452.477C513.639 448.611 513.401 445.208 513.278 442.267C513.199 439.559 513.54 437.318 514.302 435.544C515.122 433.758 516.088 432.762 517.202 432.555C518.198 432.369 519.194 433.001 520.191 434.448C521.188 435.896 521.936 438.449 522.434 442.107C522.571 449.037 522.957 455.68 523.593 462.034C524.229 468.388 525.166 474.897 526.406 481.562C526.928 484.369 527.596 487.148 528.411 489.9C529.226 492.652 529.894 495.431 530.416 498.237C530.753 500.05 530.639 501.553 530.072 502.747C529.495 503.883 528.445 504.592 526.921 504.875Z" fill="white"/>
<path d="M558.099 499.532C555.403 500.033 552.769 499.888 550.196 499.096C547.624 498.304 545.356 497.032 543.394 495.28C541.42 493.469 539.954 491.292 538.996 488.748L538.164 484.275C537.555 481.001 537.527 477.589 538.079 474.038C538.632 470.488 539.731 467.108 541.378 463.898C543.013 460.63 545.168 457.87 547.841 455.619C550.504 453.309 553.623 451.822 557.197 451.157C558.663 450.885 559.971 450.914 561.124 451.244C562.336 451.563 563.435 451.933 564.423 452.354C565.458 452.706 566.426 452.859 567.327 452.812C567.35 450.328 567.701 448.629 568.381 447.717C569.049 446.746 570.086 446.129 571.493 445.868C573.192 445.552 574.438 445.895 575.231 446.897C576.071 447.829 576.644 449.114 576.948 450.751C577.546 453.967 578.045 457.14 578.446 460.272C578.905 463.392 579.438 466.589 580.047 469.864C580.526 472.436 581.167 475.069 581.971 477.762C582.775 480.456 583.416 483.089 583.894 485.661L584.237 487.503C584.476 488.789 584.435 490.037 584.114 491.246C583.841 492.386 582.855 493.113 581.155 493.429C579.573 493.724 578.343 493.468 577.466 492.664C576.637 491.79 575.98 490.702 575.495 489.401C575.059 488.03 574.649 486.806 574.267 485.728L573.85 485.442C572.227 487.801 570.777 489.946 569.499 491.877C568.279 493.797 566.824 495.429 565.134 496.772C563.433 498.056 561.088 498.976 558.099 499.532ZM555.573 490.837C557.624 490.456 559.443 489.482 561.032 487.917C562.668 486.282 564.034 484.334 565.129 482.074C566.214 479.755 566.96 477.409 567.367 475.034C567.774 472.66 567.799 470.508 567.44 468.579C567.168 467.117 566.691 465.693 566.009 464.308C565.316 462.864 564.374 461.709 563.182 460.842C562.048 459.964 560.603 459.688 558.845 460.015C556.911 460.375 555.131 461.401 553.506 463.095C551.939 464.777 550.619 466.807 549.545 469.184C548.461 471.503 547.691 473.884 547.236 476.328C546.77 478.713 546.706 480.812 547.043 482.624C547.314 484.086 547.791 485.51 548.473 486.895C549.214 488.269 550.175 489.361 551.356 490.17C552.526 490.92 553.932 491.142 555.573 490.837Z" fill="white"/>
<path d="M607.564 489.517C606.509 489.713 605.471 489.513 604.451 488.916C603.489 488.309 602.872 487.274 602.6 485.812C602.242 483.883 602.497 482.323 603.367 481.133C604.296 479.932 605.405 479.212 606.694 478.972C607.808 478.765 608.88 478.989 609.911 479.644C610.942 480.299 611.581 481.451 611.827 483.099C612.047 484.933 611.687 486.421 610.747 487.564C609.856 488.637 608.794 489.288 607.564 489.517Z" fill="white"/>
<path d="M633.231 484.744C632.176 484.94 631.139 484.74 630.118 484.143C629.157 483.535 628.54 482.501 628.268 481.039C627.909 479.11 628.165 477.55 629.035 476.36C629.964 475.159 631.073 474.439 632.362 474.199C633.475 473.992 634.548 474.216 635.579 474.871C636.61 475.526 637.249 476.678 637.495 478.325C637.714 480.16 637.355 481.648 636.415 482.791C635.523 483.864 634.462 484.515 633.231 484.744Z" fill="white"/>
<path d="M658.899 479.971C657.844 480.167 656.807 479.967 655.786 479.37C654.824 478.762 654.208 477.728 653.936 476.266C653.577 474.337 653.833 472.777 654.703 471.587C655.631 470.386 656.74 469.666 658.03 469.426C659.143 469.219 660.215 469.443 661.247 470.098C662.278 470.753 662.916 471.904 663.162 473.552C663.382 475.387 663.022 476.875 662.083 478.018C661.191 479.091 660.13 479.742 658.899 479.971Z" fill="white"/>
<path d="M505.255 618.212C504.583 618.337 504.053 618.436 503.664 618.508C503.304 618.538 502.846 618.531 502.289 618.487C502.015 618.391 501.65 618.293 501.192 618.194C500.728 618.06 500.286 617.94 499.864 617.834C499.442 617.728 499.142 617.692 498.966 617.725C498.718 617.771 498.372 618.074 497.928 618.636C497.513 619.155 496.987 619.473 496.351 619.592C495.432 619.763 494.736 619.561 494.263 618.986C493.784 618.375 493.465 617.643 493.306 616.789C493.16 616.006 493.067 615.306 493.025 614.687C492.977 614.034 492.986 613.296 493.052 612.473C492.854 608.46 492.513 604.363 492.028 600.182C491.572 595.959 490.963 591.801 490.202 587.709C490.01 586.676 489.822 585.662 489.637 584.666C489.451 583.669 489.231 582.679 488.975 581.696C488.807 580.991 488.926 580.453 489.333 580.083C489.739 579.713 490.226 579.475 490.791 579.37L491.268 579.281C492.046 579.137 492.736 579.211 493.339 579.504C493.942 579.797 494.407 580.428 494.734 581.398L495.27 584.281C495.654 586.345 496.002 588.416 496.315 590.493C496.629 592.57 496.986 594.787 497.387 597.142L497.546 597.112C498.685 595.17 500.028 593.448 501.577 591.945C503.126 590.441 504.979 589.489 507.135 589.089C508.797 588.78 510.478 588.872 512.179 589.366C513.908 589.817 515.415 590.642 516.698 591.839C517.974 593.001 518.778 594.471 519.109 596.251C519.552 598.635 519.541 601.031 519.074 603.437C518.601 605.808 517.734 608.031 516.474 610.106C515.214 612.181 513.641 613.947 511.754 615.402C509.86 616.822 507.694 617.759 505.255 618.212ZM504.193 612.5C505.571 612.244 506.905 611.646 508.193 610.707C509.481 609.768 510.603 608.62 511.557 607.265C512.512 605.909 513.214 604.471 513.663 602.952C514.147 601.426 514.257 599.951 513.992 598.528C513.78 597.389 513.178 596.415 512.187 595.605C511.224 594.753 510.141 594.439 508.94 594.662C507.667 594.899 506.557 595.418 505.609 596.221C504.696 597.016 503.887 597.977 503.182 599.102C502.506 600.185 501.917 601.344 501.415 602.579C500.913 603.813 500.451 604.967 500.029 606.04C499.888 606.655 499.689 607.355 499.432 608.139C499.211 608.916 499.16 609.625 499.279 610.266C499.398 610.906 499.748 611.412 500.329 611.783C500.91 612.153 501.56 612.401 502.277 612.525C503.024 612.607 503.663 612.599 504.193 612.5Z" fill="white"/>
<path d="M532.275 614.016C531.462 614.167 530.794 614.015 530.27 613.56C529.776 613.063 529.381 612.419 529.088 611.626C528.83 610.828 528.621 610.001 528.462 609.147C528.383 608.72 528.307 608.311 528.234 607.919C528.19 607.486 528.135 607.091 528.069 606.735C527.91 605.881 527.683 604.561 527.387 602.775C527.091 600.989 526.767 598.95 526.414 596.66C526.055 594.333 525.697 591.915 525.339 589.404C524.982 586.893 524.677 584.464 524.423 582.118C524.205 579.765 524.058 577.694 523.981 575.904C523.931 574.257 524.134 572.894 524.592 571.814C525.085 570.729 525.667 570.123 526.339 569.998C526.94 569.887 527.542 570.272 528.144 571.154C528.747 572.036 529.201 573.59 529.505 575.816C529.595 580.034 529.834 584.076 530.224 587.943C530.614 591.81 531.186 595.772 531.941 599.829C532.259 601.537 532.665 603.229 533.159 604.905C533.653 606.58 534.059 608.272 534.377 609.98C534.582 611.083 534.515 611.998 534.174 612.724C533.827 613.414 533.194 613.845 532.275 614.016Z" fill="white"/>
<path d="M551.081 610.795C549.455 611.098 547.865 611.006 546.313 610.522C544.76 610.038 543.39 609.261 542.204 608.193C541.011 607.09 540.125 605.763 539.544 604.214L539.038 601.492C538.667 599.499 538.647 597.422 538.977 595.262C539.306 593.102 539.966 591.047 540.957 589.095C541.94 587.108 543.238 585.431 544.848 584.064C546.453 582.661 548.333 581.759 550.489 581.358C551.373 581.194 552.163 581.212 552.858 581.414C553.59 581.61 554.253 581.836 554.85 582.094C555.475 582.309 556.059 582.402 556.603 582.375C556.614 580.863 556.824 579.83 557.233 579.275C557.635 578.685 558.261 578.311 559.109 578.153C560.134 577.963 560.886 578.173 561.365 578.783C561.873 579.351 562.22 580.134 562.405 581.13C562.769 583.088 563.074 585.019 563.318 586.925C563.598 588.825 563.924 590.771 564.294 592.764C564.585 594.33 564.975 595.932 565.463 597.572C565.951 599.212 566.34 600.815 566.631 602.381L566.84 603.502C566.985 604.285 566.962 605.044 566.769 605.779C566.606 606.472 566.011 606.914 564.986 607.105C564.032 607.282 563.29 607.126 562.76 606.635C562.258 606.103 561.861 605.44 561.567 604.648C561.302 603.813 561.054 603.068 560.822 602.412L560.57 602.237C559.594 603.671 558.721 604.975 557.952 606.149C557.218 607.316 556.342 608.307 555.323 609.123C554.298 609.902 552.884 610.46 551.081 610.795ZM549.548 605.502C550.785 605.272 551.882 604.681 552.839 603.73C553.825 602.737 554.647 601.553 555.305 600.179C555.958 598.769 556.405 597.342 556.649 595.897C556.892 594.453 556.905 593.144 556.686 591.969C556.521 591.08 556.232 590.213 555.819 589.369C555.399 588.49 554.829 587.786 554.109 587.257C553.425 586.722 552.552 586.552 551.492 586.75C550.325 586.967 549.252 587.589 548.274 588.618C547.33 589.641 546.535 590.875 545.89 592.32C545.238 593.73 544.776 595.178 544.504 596.665C544.225 598.116 544.188 599.393 544.393 600.496C544.559 601.386 544.848 602.252 545.261 603.096C545.709 603.933 546.29 604.598 547.003 605.092C547.71 605.549 548.558 605.686 549.548 605.502Z" fill="white"/>
<path d="M580.916 604.75C580.28 604.868 579.653 604.746 579.037 604.381C578.456 604.011 578.083 603.381 577.918 602.491C577.699 601.317 577.852 600.368 578.376 599.644C578.935 598.915 579.603 598.477 580.381 598.333C581.053 598.208 581.7 598.345 582.323 598.745C582.946 599.144 583.332 599.846 583.482 600.849C583.616 601.965 583.401 602.871 582.835 603.565C582.298 604.217 581.658 604.612 580.916 604.75Z" fill="white"/>
<path d="M596.398 601.871C595.762 601.989 595.136 601.867 594.519 601.503C593.938 601.132 593.565 600.502 593.4 599.612C593.181 598.438 593.334 597.489 593.858 596.765C594.417 596.036 595.085 595.598 595.863 595.454C596.535 595.329 597.182 595.466 597.805 595.866C598.428 596.265 598.814 596.967 598.964 597.97C599.098 599.086 598.883 599.992 598.317 600.686C597.78 601.338 597.14 601.733 596.398 601.871Z" fill="white"/>
<path d="M611.88 598.992C611.244 599.11 610.618 598.988 610.001 598.624C609.421 598.253 609.047 597.623 608.882 596.733C608.664 595.559 608.816 594.61 609.34 593.886C609.899 593.157 610.567 592.719 611.345 592.575C612.017 592.45 612.664 592.587 613.287 592.987C613.91 593.386 614.296 594.088 614.446 595.091C614.581 596.207 614.365 597.113 613.799 597.807C613.262 598.459 612.623 598.854 611.88 598.992Z" fill="white"/>
<path d="M511.902 562.874C510.97 562.723 510.235 562.605 509.695 562.517C509.213 562.39 508.619 562.169 507.915 561.857C507.603 561.607 507.172 561.314 506.623 560.976C506.082 560.59 505.561 560.232 505.061 559.902C504.561 559.573 504.188 559.388 503.943 559.348C503.599 559.293 503.009 559.521 502.172 560.033C501.391 560.504 500.559 560.668 499.677 560.525C498.402 560.319 497.59 559.74 497.24 558.788C496.899 557.787 496.822 556.705 497.01 555.541C497.183 554.474 497.384 553.536 497.616 552.728C497.855 551.871 498.208 550.932 498.674 549.913C500.272 544.697 501.722 539.308 503.023 533.746C504.381 528.143 505.511 522.553 506.412 516.976C506.639 515.569 506.863 514.187 507.082 512.829C507.302 511.471 507.472 510.105 507.593 508.732C507.701 507.754 508.105 507.122 508.805 506.837C509.505 506.552 510.248 506.473 511.032 506.6L511.694 506.707C512.773 506.881 513.637 507.295 514.287 507.947C514.936 508.599 515.249 509.62 515.226 511.01L514.591 514.938C514.136 517.751 513.633 520.556 513.08 523.353C512.528 526.15 511.968 529.145 511.402 532.338L511.623 532.374C514.001 530.419 516.546 528.84 519.257 527.635C521.967 526.431 524.818 526.071 527.809 526.554C530.114 526.927 532.259 527.821 534.244 529.236C536.286 530.611 537.866 532.359 538.982 534.481C540.106 536.553 540.473 538.802 540.081 541.227C539.556 544.476 538.433 547.53 536.714 550.387C535.002 553.196 532.847 555.634 530.248 557.702C527.65 559.771 524.786 561.298 521.658 562.286C518.537 563.225 515.285 563.421 511.902 562.874ZM513.16 555.09C515.072 555.399 517.084 555.252 519.194 554.647C521.304 554.043 523.294 553.095 525.163 551.805C527.032 550.514 528.61 549.003 529.896 547.27C531.232 545.545 532.056 543.712 532.369 541.772C532.62 540.22 532.288 538.699 531.371 537.207C530.512 535.675 529.249 534.774 527.581 534.504C525.816 534.219 524.131 534.37 522.527 534.957C520.971 535.551 519.475 536.404 518.037 537.516C516.657 538.586 515.355 539.794 514.131 541.139C512.907 542.484 511.773 543.744 510.728 544.919C510.259 545.639 509.676 546.441 508.98 547.324C508.333 548.214 507.939 549.096 507.798 549.969C507.657 550.842 507.879 551.649 508.463 552.391C509.048 553.132 509.779 553.748 510.656 554.238C511.589 554.687 512.424 554.971 513.16 555.09Z" fill="white"/>
<path d="M549.003 569.989C547.875 569.807 547.076 569.304 546.605 568.482C546.191 567.619 545.976 566.614 545.96 565.466C545.993 564.327 546.104 563.176 546.292 562.012C546.386 561.43 546.476 560.872 546.562 560.339C546.705 559.764 546.816 559.235 546.894 558.75C547.082 557.586 547.397 555.796 547.838 553.379C548.279 550.962 548.799 548.209 549.398 545.121C550.006 541.985 550.658 538.731 551.353 535.36C552.049 531.989 552.774 528.747 553.529 525.634C554.332 522.53 555.098 519.817 555.825 517.496C556.521 515.369 557.416 513.722 558.51 512.555C559.654 511.397 560.691 510.892 561.623 511.043C562.456 511.178 563.062 511.947 563.439 513.352C563.815 514.756 563.687 516.95 563.054 519.933C561.221 525.36 559.665 530.632 558.385 535.75C557.105 540.868 556.019 546.191 555.125 551.72C554.749 554.048 554.495 556.395 554.364 558.763C554.233 561.13 553.98 563.478 553.604 565.806C553.361 567.309 552.85 568.446 552.071 569.216C551.301 569.937 550.278 570.195 549.003 569.989Z" fill="white"/>
<path d="M574.964 574.557C572.708 574.193 570.682 573.343 568.885 572.008C567.088 570.672 565.665 569.049 564.615 567.137C563.573 565.178 563.032 563.075 562.993 560.829L563.592 557.119C564.031 554.403 564.964 551.742 566.392 549.136C567.819 546.53 569.628 544.21 571.819 542.176C574.017 540.092 576.48 538.55 579.209 537.547C581.945 536.497 584.808 536.213 587.8 536.696C589.026 536.894 590.045 537.283 590.857 537.862C591.718 538.449 592.477 539.044 593.134 539.648C593.848 540.212 594.565 540.601 595.285 540.817C595.999 538.892 596.75 537.67 597.538 537.15C598.334 536.582 599.321 536.393 600.498 536.583C601.92 536.813 602.802 537.429 603.143 538.429C603.542 539.389 603.631 540.548 603.412 541.906C602.981 544.574 602.484 547.181 601.921 549.727C601.408 552.282 600.932 554.917 600.493 557.633C600.148 559.767 599.914 561.993 599.791 564.312C599.668 566.631 599.434 568.857 599.089 570.991L598.842 572.519C598.67 573.586 598.288 574.544 597.698 575.395C597.165 576.204 596.187 576.494 594.765 576.264C593.441 576.05 592.548 575.508 592.084 574.637C591.678 573.725 591.467 572.696 591.451 571.549C591.492 570.361 591.514 569.294 591.515 568.349L591.268 568.011C589.335 569.39 587.596 570.652 586.053 571.796C584.558 572.948 582.96 573.809 581.257 574.38C579.563 574.902 577.465 574.962 574.964 574.557ZM575.416 567.091C577.132 567.369 578.833 567.121 580.517 566.348C582.259 565.535 583.876 564.403 585.368 562.952C586.869 561.452 588.111 559.837 589.095 558.105C590.079 556.373 590.701 554.707 590.96 553.106C591.155 551.894 591.18 550.654 591.032 549.386C590.893 548.069 590.477 546.907 589.784 545.9C589.141 544.9 588.083 544.281 586.612 544.044C584.994 543.782 583.31 544.082 581.561 544.944C579.86 545.814 578.256 547.023 576.748 548.57C575.248 550.07 573.977 551.706 572.936 553.478C571.903 555.202 571.264 556.816 571.022 558.319C570.826 559.532 570.801 560.772 570.949 562.04C571.145 563.316 571.593 564.433 572.294 565.392C573.002 566.303 574.043 566.869 575.416 567.091Z" fill="white"/>
<path d="M616.583 580.611C615.7 580.468 614.942 580.022 614.309 579.273C613.724 578.532 613.53 577.555 613.725 576.342C613.984 574.742 614.621 573.601 615.637 572.919C616.702 572.245 617.774 571.995 618.853 572.17C619.785 572.32 620.563 572.794 621.189 573.592C621.815 574.39 621.994 575.464 621.725 576.814C621.384 578.301 620.685 579.358 619.628 579.983C618.628 580.568 617.613 580.777 616.583 580.611Z" fill="white"/>
<path d="M638.061 584.082C637.178 583.939 636.42 583.493 635.786 582.744C635.202 582.002 635.007 581.025 635.203 579.813C635.462 578.213 636.099 577.071 637.115 576.39C638.18 575.716 639.252 575.466 640.331 575.64C641.262 575.791 642.041 576.265 642.667 577.063C643.293 577.861 643.472 578.935 643.203 580.285C642.862 581.772 642.163 582.829 641.106 583.454C640.106 584.039 639.091 584.248 638.061 584.082Z" fill="white"/>
<path d="M659.539 587.552C658.656 587.41 657.898 586.964 657.264 586.214C656.68 585.473 656.485 584.496 656.681 583.284C656.94 581.683 657.577 580.542 658.593 579.86C659.658 579.186 660.73 578.937 661.808 579.111C662.74 579.262 663.519 579.736 664.145 580.534C664.771 581.331 664.949 582.405 664.681 583.755C664.34 585.243 663.641 586.299 662.584 586.925C661.583 587.51 660.568 587.719 659.539 587.552Z" fill="white"/>
</g>
<defs>
<linearGradient id="paint0_linear_22_2874" x1="528" y1="0" x2="528" y2="1080" gradientUnits="userSpaceOnUse">
<stop stop-color="white" stop-opacity="0"/>
<stop offset="1" stop-color="white"/>
</linearGradient>
<linearGradient id="paint1_linear_22_2874" x1="540.5" y1="444" x2="540.5" y2="613" gradientUnits="userSpaceOnUse">
<stop stop-color="#FF0E41"/>
<stop offset="1" stop-color="#FF3862"/>
</linearGradient>
<clipPath id="clip0_22_2874">
<rect width="1080" height="1080" fill="white"/>
</clipPath>
</defs>
</svg>
