<svg width="1080" height="1080" viewBox="0 0 1080 1080" fill="none" xmlns="http://www.w3.org/2000/svg">
<g clip-path="url(#clip0_18_1283)">
<path d="M24.4991 0L24.4991 1080M48.4992 0L48.4991 1080M72.4992 0L72.4992 1080M96.4993 0L96.4992 1080M120.499 0L120.499 1080M144.499 0L144.499 1080M168.499 0L168.499 1080M192.499 0L192.499 1080M216.499 0L216.499 1080M240.5 0L240.499 1080M264.5 0L264.5 1080M288.5 0L288.5 1080M312.5 0L312.5 1080M336.5 0L336.5 1080M360.5 0L360.5 1080M384.5 0L384.5 1080M408.5 0L408.5 1080M432.5 0L432.5 1080M456.5 0L456.5 1080M480.5 0L480.5 1080M504.5 0L504.5 1080M528.5 0L528.5 1080M552.5 0L552.5 1080M576.5 0L576.5 1080M600.5 0L600.5 1080M624.5 0L624.5 1080M648.501 0L648.5 1080M672.501 0L672.501 1080M696.501 0L696.501 1080M720.501 0L720.501 1080M744.501 0L744.501 1080M768.501 0L768.501 1080M792.501 0L792.501 1080M816.501 0L816.501 1080M840.501 0L840.501 1080M864.501 0L864.501 1080M888.501 0L888.501 1080M912.501 0L912.501 1080M936.501 0L936.501 1080M960.501 0L960.501 1080M984.501 0L984.501 1080M1008.5 0L1008.5 1080M1032.5 0V1080M1068 36.499L-12 36.4989M1068 60.4991L-12 60.499M1068 84.4991L-12 84.499M1068 108.499L-12 108.499M1068 132.499L-12 132.499M1068 156.499L-12 156.499M1068 180.499L-12 180.499M1068 204.499L-12 204.499M1068 228.499L-12 228.499M1068 252.499L-12 252.499M1068 276.5L-12 276.499M1068 300.5L-12 300.499M1068 324.5L-12 324.5M1068 348.5L-12 348.5M1068 372.5L-12 372.5M1068 396.5L-12 396.5M1068 420.5L-12 420.5M1068 444.5L-12 444.5M1068 468.5L-12 468.5M1068 492.5L-12 492.5M1068 516.5L-12 516.5M1068 540.5L-12 540.5M1068 564.5L-12 564.5M1068 588.5L-12 588.5M1068 612.5L-12 612.5M1068 636.5L-12 636.5M1068 660.5L-12 660.5M1068 684.5L-12 684.5M1068 708.501L-12 708.5M1068 732.501L-12 732.501M1068 756.501L-12 756.501M1068 780.501L-12 780.501M1068 804.501L-12 804.501M1068 828.501L-12 828.501M1068 852.501L-12 852.501M1068 876.501L-12 876.501M1068 900.501L-12 900.501M1068 924.501L-12 924.501M1068 948.501L-12 948.501M1068 972.501L-12 972.501M1068 996.501L-12 996.501M1068 1020.5L-12 1020.5M1068 1044.5L-12 1044.5" stroke="url(#paint0_linear_18_1283)" stroke-opacity="0.15"/>
<rect x="456" y="444" width="169" height="169" rx="24" fill="url(#paint1_linear_18_1283)"/>
<path d="M482.127 511.844C481.014 512.051 480.135 512.215 479.49 512.335C478.893 512.385 478.133 512.375 477.211 512.305C476.757 512.147 476.152 511.988 475.394 511.826C474.625 511.606 473.892 511.41 473.193 511.237C472.494 511.065 471.998 511.006 471.705 511.06C471.294 511.137 470.72 511.636 469.983 512.56C469.293 513.414 468.42 513.939 467.366 514.136C465.842 514.419 464.689 514.089 463.907 513.145C463.115 512.143 462.588 510.941 462.327 509.538C462.088 508.251 461.934 507.1 461.867 506.085C461.788 505.011 461.805 503.798 461.918 502.446C461.601 495.851 461.046 489.119 460.254 482.25C459.509 475.311 458.512 468.48 457.262 461.756C456.946 460.061 456.636 458.395 456.332 456.758C456.028 455.12 455.665 453.494 455.243 451.879C454.967 450.721 455.166 449.837 455.841 449.227C456.516 448.618 457.322 448.226 458.26 448.052L459.051 447.905C460.34 447.665 461.484 447.785 462.483 448.264C463.482 448.744 464.25 449.781 464.789 451.374L465.67 456.11C466.3 459.501 466.872 462.903 467.386 466.316C467.899 469.729 468.485 473.37 469.144 477.24L469.408 477.191C471.3 473.996 473.531 471.161 476.103 468.687C478.674 466.213 481.747 464.643 485.322 463.978C488.076 463.466 490.863 463.614 493.68 464.42C496.546 465.158 499.04 466.509 501.164 468.473C503.276 470.378 504.605 472.793 505.148 475.716C505.877 479.633 505.851 483.57 505.071 487.526C504.28 491.423 502.837 495.079 500.744 498.492C498.65 501.906 496.038 504.812 492.906 507.209C489.764 509.547 486.171 511.092 482.127 511.844ZM480.382 502.46C482.668 502.035 484.879 501.049 487.017 499.503C489.155 497.956 491.016 496.067 492.602 493.837C494.188 491.606 495.355 489.242 496.103 486.744C496.91 484.235 497.096 481.811 496.661 479.472C496.313 477.601 495.319 476.002 493.677 474.674C492.083 473.276 490.29 472.763 488.298 473.134C486.188 473.526 484.347 474.382 482.773 475.703C481.259 477.013 479.915 478.594 478.744 480.445C477.62 482.226 476.641 484.132 475.806 486.163C474.971 488.193 474.202 490.09 473.499 491.854C473.263 492.866 472.931 494.017 472.504 495.306C472.135 496.584 472.049 497.749 472.244 498.802C472.44 499.854 473.019 500.684 473.981 501.292C474.942 501.899 476.018 502.304 477.208 502.506C478.445 502.639 479.503 502.624 480.382 502.46Z" fill="white"/>
<path d="M526.921 504.875C525.574 505.126 524.466 504.878 523.6 504.132C522.781 503.316 522.13 502.258 521.645 500.957C521.22 499.645 520.876 498.287 520.615 496.884C520.485 496.183 520.36 495.51 520.24 494.867C520.168 494.155 520.078 493.506 519.969 492.921C519.708 491.518 519.335 489.349 518.85 486.415C518.365 483.481 517.834 480.132 517.255 476.368C516.666 472.546 516.078 468.572 515.493 464.447C514.908 460.322 514.408 456.332 513.995 452.477C513.639 448.611 513.401 445.208 513.278 442.267C513.199 439.559 513.54 437.318 514.302 435.544C515.122 433.758 516.088 432.762 517.202 432.555C518.198 432.369 519.195 433.001 520.191 434.448C521.188 435.896 521.936 438.449 522.434 442.107C522.571 449.037 522.957 455.68 523.593 462.034C524.229 468.388 525.166 474.897 526.406 481.562C526.928 484.369 527.596 487.148 528.411 489.9C529.226 492.652 529.894 495.431 530.416 498.237C530.753 500.05 530.639 501.553 530.072 502.747C529.495 503.883 528.445 504.592 526.921 504.875Z" fill="white"/>
<path d="M558.099 499.532C555.403 500.033 552.769 499.888 550.196 499.096C547.624 498.304 545.356 497.032 543.394 495.28C541.42 493.469 539.954 491.292 538.996 488.748L538.164 484.275C537.555 481.001 537.527 477.589 538.079 474.038C538.632 470.488 539.731 467.108 541.378 463.898C543.013 460.63 545.168 457.87 547.841 455.619C550.504 453.309 553.623 451.822 557.197 451.157C558.663 450.885 559.971 450.914 561.124 451.244C562.336 451.563 563.435 451.933 564.423 452.354C565.458 452.706 566.426 452.859 567.327 452.812C567.35 450.328 567.701 448.629 568.381 447.717C569.049 446.746 570.086 446.129 571.493 445.868C573.192 445.552 574.438 445.895 575.231 446.897C576.071 447.829 576.644 449.114 576.948 450.751C577.546 453.967 578.045 457.14 578.446 460.272C578.905 463.392 579.438 466.589 580.047 469.864C580.526 472.436 581.167 475.069 581.971 477.762C582.775 480.456 583.416 483.089 583.894 485.661L584.237 487.503C584.476 488.789 584.435 490.037 584.114 491.246C583.841 492.386 582.855 493.113 581.155 493.429C579.573 493.724 578.343 493.468 577.466 492.664C576.637 491.79 575.98 490.702 575.495 489.401C575.059 488.03 574.649 486.806 574.267 485.728L573.85 485.442C572.227 487.801 570.777 489.946 569.499 491.877C568.279 493.797 566.824 495.429 565.134 496.772C563.433 498.056 561.088 498.976 558.099 499.532ZM555.573 490.837C557.624 490.456 559.443 489.482 561.032 487.917C562.668 486.282 564.034 484.334 565.129 482.074C566.214 479.755 566.96 477.409 567.367 475.034C567.774 472.66 567.799 470.508 567.44 468.579C567.168 467.117 566.691 465.693 566.009 464.308C565.316 462.864 564.374 461.709 563.182 460.842C562.048 459.964 560.603 459.688 558.845 460.015C556.911 460.375 555.131 461.401 553.506 463.095C551.939 464.777 550.619 466.807 549.545 469.184C548.461 471.503 547.691 473.884 547.236 476.328C546.77 478.713 546.706 480.812 547.043 482.624C547.314 484.086 547.791 485.51 548.473 486.895C549.214 488.269 550.175 489.361 551.356 490.17C552.526 490.92 553.932 491.142 555.573 490.837Z" fill="white"/>
<path d="M607.564 489.517C606.509 489.713 605.471 489.513 604.451 488.916C603.489 488.309 602.872 487.274 602.6 485.812C602.242 483.883 602.497 482.323 603.367 481.133C604.296 479.932 605.405 479.212 606.694 478.972C607.808 478.765 608.88 478.989 609.911 479.644C610.942 480.299 611.581 481.451 611.827 483.099C612.047 484.933 611.687 486.421 610.747 487.564C609.856 488.637 608.794 489.288 607.564 489.517Z" fill="white"/>
<path d="M633.231 484.744C632.176 484.94 631.139 484.74 630.118 484.143C629.157 483.535 628.54 482.501 628.268 481.039C627.909 479.11 628.165 477.55 629.035 476.36C629.964 475.159 631.073 474.439 632.362 474.199C633.475 473.992 634.548 474.216 635.579 474.871C636.61 475.526 637.249 476.678 637.495 478.325C637.714 480.16 637.355 481.648 636.415 482.791C635.523 483.864 634.462 484.515 633.231 484.744Z" fill="white"/>
<path d="M658.899 479.971C657.844 480.167 656.807 479.967 655.786 479.37C654.824 478.762 654.208 477.728 653.936 476.266C653.577 474.337 653.833 472.777 654.703 471.587C655.631 470.386 656.74 469.666 658.03 469.426C659.143 469.219 660.215 469.443 661.247 470.098C662.278 470.753 662.916 471.904 663.162 473.552C663.382 475.387 663.022 476.875 662.083 478.018C661.191 479.091 660.13 479.742 658.899 479.971Z" fill="white"/>
<path d="M492.469 584.819C491.541 584.991 490.808 585.127 490.271 585.227C489.774 585.27 489.141 585.263 488.372 585.206C487.995 585.076 487.49 584.945 486.859 584.812C486.219 584.632 485.608 584.47 485.026 584.329C484.444 584.187 484.031 584.139 483.787 584.185C483.445 584.248 482.966 584.662 482.35 585.426C481.774 586.133 481.047 586.568 480.168 586.731C478.898 586.967 477.938 586.696 477.288 585.918C476.629 585.091 476.192 584.098 475.976 582.939C475.779 581.876 475.652 580.925 475.597 580.086C475.533 579.198 475.549 578.196 475.645 577.079C475.389 571.63 474.936 566.068 474.285 560.393C473.673 554.66 472.851 549.016 471.819 543.462C471.558 542.061 471.302 540.685 471.051 539.333C470.799 537.98 470.499 536.637 470.15 535.303C469.921 534.346 470.089 533.615 470.652 533.111C471.215 532.606 471.887 532.281 472.668 532.136L473.327 532.014C474.402 531.814 475.355 531.911 476.186 532.306C477.017 532.702 477.656 533.557 478.103 534.873L478.831 538.785C479.352 541.587 479.824 544.397 480.247 547.216C480.67 550.036 481.154 553.044 481.698 556.241L481.918 556.2C483.498 553.558 485.361 551.212 487.506 549.165C489.651 547.117 492.214 545.816 495.193 545.262C497.488 544.835 499.809 544.953 502.155 545.616C504.541 546.222 506.618 547.335 508.384 548.955C510.142 550.527 511.245 552.52 511.694 554.935C512.296 558.171 512.269 561.424 511.614 564.694C510.95 567.915 509.744 570.938 507.995 573.762C506.247 576.585 504.066 578.989 501.455 580.974C498.834 582.911 495.838 584.192 492.469 584.819ZM491.027 577.067C492.932 576.713 494.776 575.895 496.558 574.614C498.341 573.333 499.895 571.77 501.219 569.925C502.543 568.08 503.518 566.124 504.145 564.059C504.82 561.985 504.978 559.982 504.619 558.05C504.331 556.504 503.505 555.184 502.139 554.089C500.813 552.936 499.32 552.514 497.66 552.823C495.902 553.15 494.366 553.86 493.054 554.954C491.79 556.038 490.669 557.346 489.691 558.877C488.752 560.351 487.934 561.927 487.236 563.606C486.537 565.285 485.894 566.853 485.307 568.312C485.108 569.148 484.831 570.099 484.473 571.165C484.164 572.222 484.091 573.185 484.252 574.054C484.414 574.924 484.895 575.609 485.696 576.109C486.496 576.61 487.392 576.943 488.382 577.109C489.413 577.217 490.295 577.203 491.027 577.067Z" fill="white"/>
<path d="M529.795 579.002C528.672 579.211 527.75 579.007 527.029 578.392C526.348 577.719 525.807 576.845 525.405 575.771C525.052 574.687 524.768 573.566 524.552 572.407C524.444 571.827 524.341 571.272 524.242 570.74C524.183 570.152 524.109 569.616 524.019 569.133C523.804 567.974 523.496 566.182 523.096 563.758C522.695 561.334 522.257 558.568 521.779 555.458C521.293 552.301 520.809 549.018 520.327 545.61C519.845 542.202 519.434 538.905 519.094 535.72C518.804 532.526 518.609 529.714 518.511 527.284C518.449 525.047 518.736 523.195 519.372 521.727C520.058 520.251 520.864 519.426 521.792 519.254C522.622 519.099 523.452 519.62 524.28 520.815C525.109 522.01 525.728 524.118 526.139 527.14C526.244 532.867 526.557 538.355 527.078 543.605C527.6 548.854 528.372 554.232 529.396 559.738C529.827 562.057 530.381 564.352 531.056 566.625C531.731 568.898 532.284 571.194 532.715 573.512C532.994 575.009 532.896 576.252 532.423 577.239C531.941 578.178 531.065 578.766 529.795 579.002Z" fill="white"/>
<path d="M555.776 574.545C553.529 574.963 551.335 574.847 549.193 574.196C547.051 573.545 545.164 572.496 543.531 571.051C541.889 569.558 540.67 567.76 539.875 565.66L539.188 561.965C538.685 559.26 538.666 556.44 539.131 553.506C539.596 550.571 540.516 547.777 541.892 545.122C543.259 542.42 545.058 540.137 547.288 538.273C549.509 536.361 552.109 535.128 555.088 534.574C556.309 534.347 557.399 534.369 558.359 534.64C559.368 534.902 560.284 535.206 561.106 535.553C561.968 535.843 562.774 535.968 563.525 535.928C563.547 533.875 563.842 532.471 564.409 531.716C564.967 530.913 565.832 530.402 567.004 530.184C568.42 529.921 569.458 530.203 570.117 531.029C570.816 531.799 571.291 532.86 571.543 534.212C572.037 536.869 572.448 539.49 572.778 542.077C573.156 544.655 573.597 547.297 574.1 550.001C574.495 552.127 575.026 554.301 575.692 556.526C576.358 558.751 576.889 560.925 577.284 563.051L577.567 564.572C577.765 565.635 577.729 566.666 577.46 567.665C577.231 568.607 576.408 569.21 574.992 569.473C573.674 569.718 572.649 569.509 571.92 568.845C571.23 568.124 570.684 567.226 570.282 566.152C569.92 565.02 569.58 564.008 569.263 563.118L568.916 562.883C567.561 564.834 566.35 566.608 565.283 568.205C564.265 569.794 563.051 571.144 561.64 572.256C560.221 573.319 558.267 574.082 555.776 574.545ZM553.683 567.364C555.392 567.047 556.909 566.24 558.235 564.944C559.6 563.591 560.74 561.98 561.656 560.111C562.562 558.193 563.187 556.253 563.529 554.291C563.872 552.328 563.895 550.55 563.598 548.956C563.374 547.749 562.978 546.573 562.412 545.429C561.836 544.237 561.053 543.283 560.061 542.568C559.118 541.844 557.914 541.618 556.449 541.891C554.837 542.191 553.353 543.041 551.997 544.443C550.69 545.835 549.587 547.514 548.69 549.48C547.783 551.397 547.139 553.366 546.756 555.386C546.365 557.357 546.309 559.092 546.587 560.589C546.812 561.796 547.207 562.972 547.774 564.116C548.389 565.251 549.188 566.152 550.171 566.818C551.145 567.437 552.315 567.619 553.683 567.364Z" fill="white"/>
<path d="M596.998 566.206C596.119 566.369 595.254 566.205 594.405 565.713C593.605 565.212 593.092 564.358 592.868 563.151C592.571 561.557 592.786 560.268 593.513 559.283C594.288 558.29 595.213 557.693 596.287 557.493C597.215 557.321 598.108 557.504 598.966 558.044C599.825 558.584 600.355 559.535 600.558 560.896C600.738 562.412 600.437 563.642 599.653 564.588C598.908 565.475 598.023 566.015 596.998 566.206Z" fill="white"/>
<path d="M618.387 562.228C617.508 562.391 616.644 562.227 615.795 561.736C614.994 561.235 614.482 560.381 614.257 559.173C613.961 557.58 614.176 556.29 614.902 555.306C615.678 554.312 616.602 553.715 617.677 553.516C618.605 553.343 619.498 553.527 620.356 554.067C621.214 554.607 621.745 555.557 621.947 556.919C622.128 558.434 621.826 559.665 621.042 560.61C620.298 561.498 619.413 562.037 618.387 562.228Z" fill="white"/>
<path d="M639.777 558.25C638.898 558.414 638.034 558.25 637.185 557.758C636.384 557.257 635.872 556.403 635.647 555.196C635.351 553.602 635.566 552.313 636.292 551.328C637.067 550.335 637.992 549.738 639.067 549.538C639.994 549.366 640.888 549.549 641.746 550.089C642.604 550.629 643.135 551.58 643.337 552.941C643.518 554.457 643.216 555.687 642.432 556.632C641.688 557.52 640.803 558.06 639.777 558.25Z" fill="white"/>
<path d="M498.721 642.419C498.05 642.544 497.519 642.642 497.131 642.715C496.77 642.745 496.312 642.738 495.755 642.694C495.481 642.598 495.116 642.5 494.659 642.401C494.195 642.267 493.752 642.146 493.33 642.041C492.908 641.935 492.609 641.899 492.432 641.932C492.184 641.978 491.839 642.281 491.394 642.843C490.979 643.362 490.453 643.68 489.817 643.799C488.898 643.97 488.202 643.768 487.729 643.193C487.25 642.582 486.931 641.85 486.772 640.996C486.627 640.213 486.533 639.512 486.491 638.894C486.443 638.241 486.452 637.502 486.518 636.68C486.321 632.667 485.979 628.57 485.494 624.389C485.038 620.166 484.43 616.008 483.669 611.915C483.477 610.883 483.288 609.869 483.103 608.873C482.917 607.876 482.697 606.886 482.441 605.903C482.273 605.198 482.393 604.66 482.799 604.29C483.206 603.92 483.692 603.682 484.257 603.577L484.735 603.488C485.512 603.344 486.203 603.418 486.806 603.711C487.409 604.003 487.874 604.635 488.2 605.605L488.736 608.488C489.12 610.552 489.469 612.623 489.782 614.7C490.095 616.777 490.452 618.993 490.854 621.349L491.013 621.319C492.151 619.377 493.494 617.655 495.044 616.151C496.593 614.648 498.445 613.696 500.601 613.295C502.263 612.986 503.944 613.079 505.645 613.573C507.374 614.024 508.881 614.849 510.164 616.046C511.441 617.208 512.244 618.678 512.575 620.458C513.019 622.842 513.007 625.237 512.54 627.644C512.067 630.015 511.2 632.238 509.94 634.313C508.681 636.388 507.107 638.153 505.22 639.609C503.327 641.029 501.16 641.965 498.721 642.419ZM497.659 636.707C499.038 636.451 500.371 635.853 501.659 634.914C502.947 633.975 504.069 632.827 505.024 631.472C505.978 630.116 506.68 628.678 507.129 627.159C507.613 625.633 507.723 624.158 507.458 622.735C507.246 621.596 506.645 620.622 505.653 619.812C504.69 618.96 503.608 618.646 502.406 618.869C501.133 619.106 500.023 619.625 499.075 620.428C498.163 621.223 497.354 622.184 496.649 623.309C495.972 624.392 495.383 625.551 494.882 626.785C494.38 628.02 493.918 629.174 493.495 630.246C493.354 630.862 493.155 631.562 492.898 632.346C492.677 633.123 492.626 633.832 492.745 634.473C492.865 635.113 493.215 635.619 493.795 635.99C494.376 636.36 495.026 636.608 495.744 636.732C496.49 636.814 497.129 636.806 497.659 636.707Z" fill="white"/>
<path d="M525.741 638.223C524.928 638.374 524.26 638.222 523.737 637.767C523.242 637.27 522.848 636.625 522.554 635.833C522.296 635.034 522.087 634.208 521.929 633.354C521.849 632.927 521.773 632.518 521.7 632.126C521.656 631.692 521.601 631.298 521.535 630.942C521.376 630.088 521.149 628.768 520.853 626.982C520.558 625.196 520.234 623.157 519.881 620.866C519.521 618.54 519.163 616.121 518.806 613.611C518.448 611.1 518.143 608.671 517.89 606.325C517.672 603.972 517.524 601.901 517.447 600.111C517.397 598.464 517.601 597.1 518.058 596.021C518.551 594.935 519.133 594.33 519.805 594.205C520.406 594.093 521.008 594.479 521.611 595.361C522.214 596.243 522.667 597.797 522.971 600.023C523.061 604.24 523.301 608.283 523.691 612.15C524.081 616.017 524.653 619.979 525.407 624.036C525.725 625.744 526.131 627.436 526.625 629.112C527.12 630.787 527.526 632.479 527.843 634.187C528.048 635.29 527.981 636.205 527.64 636.931C527.293 637.621 526.66 638.052 525.741 638.223Z" fill="white"/>
<path d="M544.547 635.002C542.921 635.304 541.332 635.213 539.779 634.729C538.226 634.245 536.856 633.468 535.67 632.4C534.478 631.296 533.591 629.97 533.011 628.421L532.504 625.699C532.134 623.706 532.113 621.629 532.443 619.469C532.773 617.309 533.433 615.254 534.423 613.302C535.407 611.315 536.704 609.638 538.315 608.271C539.919 606.868 541.799 605.966 543.955 605.565C544.839 605.401 545.629 605.419 546.325 605.621C547.056 605.817 547.72 606.043 548.316 606.3C548.941 606.516 549.525 606.609 550.069 606.582C550.08 605.07 550.29 604.037 550.699 603.482C551.102 602.892 551.727 602.518 552.575 602.36C553.6 602.17 554.352 602.38 554.832 602.99C555.34 603.558 555.686 604.341 555.872 605.337C556.236 607.295 556.54 609.226 556.785 611.132C557.065 613.031 557.39 614.978 557.761 616.971C558.052 618.536 558.441 620.139 558.929 621.779C559.417 623.419 559.806 625.022 560.097 626.588L560.306 627.709C560.451 628.492 560.428 629.251 560.236 629.986C560.072 630.679 559.478 631.121 558.453 631.312C557.498 631.489 556.756 631.333 556.226 630.842C555.725 630.309 555.327 629.647 555.033 628.855C554.769 628.02 554.52 627.275 554.288 626.618L554.037 626.444C553.06 627.878 552.187 629.182 551.418 630.355C550.684 631.523 549.808 632.514 548.789 633.33C547.764 634.109 546.35 634.667 544.547 635.002ZM543.014 629.709C544.252 629.479 545.349 628.888 546.305 627.937C547.291 626.944 548.113 625.76 548.772 624.386C549.424 622.976 549.872 621.549 550.115 620.104C550.358 618.66 550.371 617.351 550.152 616.176C549.987 615.286 549.698 614.42 549.285 613.576C548.865 612.697 548.296 611.993 547.576 611.464C546.891 610.928 546.018 610.759 544.958 610.957C543.791 611.173 542.719 611.796 541.74 612.825C540.796 613.847 540.002 615.081 539.356 616.527C538.704 617.937 538.242 619.385 537.97 620.872C537.691 622.323 537.654 623.6 537.86 624.703C538.025 625.593 538.314 626.459 538.727 627.303C539.175 628.14 539.756 628.805 540.47 629.299C541.176 629.756 542.025 629.893 543.014 629.709Z" fill="white"/>
<path d="M574.382 628.957C573.746 629.075 573.12 628.952 572.503 628.588C571.923 628.218 571.549 627.588 571.384 626.698C571.166 625.523 571.318 624.575 571.842 623.851C572.401 623.121 573.07 622.684 573.847 622.54C574.519 622.415 575.166 622.552 575.789 622.952C576.412 623.351 576.798 624.053 576.948 625.056C577.083 626.172 576.867 627.077 576.301 627.772C575.764 628.424 575.125 628.819 574.382 628.957Z" fill="white"/>
<path d="M589.864 626.078C589.228 626.196 588.602 626.073 587.986 625.709C587.405 625.339 587.032 624.709 586.866 623.819C586.648 622.645 586.8 621.696 587.324 620.972C587.883 620.242 588.552 619.805 589.329 619.661C590.001 619.536 590.648 619.673 591.271 620.073C591.894 620.472 592.28 621.174 592.43 622.177C592.565 623.293 592.349 624.198 591.783 624.893C591.246 625.545 590.607 625.94 589.864 626.078Z" fill="white"/>
<path d="M605.346 623.199C604.71 623.317 604.084 623.194 603.468 622.83C602.887 622.46 602.514 621.83 602.348 620.94C602.13 619.766 602.282 618.817 602.806 618.093C603.365 617.363 604.034 616.926 604.811 616.782C605.483 616.657 606.13 616.794 606.753 617.194C607.376 617.593 607.762 618.295 607.912 619.298C608.047 620.414 607.831 621.319 607.265 622.014C606.728 622.666 606.089 623.061 605.346 623.199Z" fill="white"/>
<line x1="1079.29" y1="1080.71" x2="-6.70709" y2="-5.29288" stroke="url(#paint2_linear_18_1283)" stroke-width="2"/>
<line x1="-6.70711" y1="1079.29" x2="1079.29" y2="-6.70709" stroke="url(#paint3_linear_18_1283)" stroke-width="2"/>
</g>
<defs>
<linearGradient id="paint0_linear_18_1283" x1="528" y1="0" x2="528" y2="1080" gradientUnits="userSpaceOnUse">
<stop stop-color="white" stop-opacity="0"/>
<stop offset="1" stop-color="white"/>
</linearGradient>
<linearGradient id="paint1_linear_18_1283" x1="540.5" y1="444" x2="540.5" y2="613" gradientUnits="userSpaceOnUse">
<stop stop-color="#FF0E41"/>
<stop offset="1" stop-color="#FF3862"/>
</linearGradient>
<linearGradient id="paint2_linear_18_1283" x1="-5.64643" y1="-6.35354" x2="1080.35" y2="1079.65" gradientUnits="userSpaceOnUse">
<stop stop-color="#990827" stop-opacity="0"/>
<stop offset="1" stop-color="#FF0E41"/>
</linearGradient>
<linearGradient id="paint3_linear_18_1283" x1="1080.35" y1="-5.64643" x2="-5.64645" y2="1080.35" gradientUnits="userSpaceOnUse">
<stop stop-color="#990827" stop-opacity="0"/>
<stop offset="1" stop-color="#FF0E41"/>
</linearGradient>
<clipPath id="clip0_18_1283">
<rect width="1080" height="1080" fill="white"/>
</clipPath>
</defs>
</svg>
