<svg width="1080" height="1080" viewBox="0 0 1080 1080" fill="none" xmlns="http://www.w3.org/2000/svg">
<g clip-path="url(#clip0_18_1316)">
<path d="M24.4991 0L24.4991 1080M48.4992 0L48.4991 1080M72.4992 0L72.4992 1080M96.4993 0L96.4992 1080M120.499 0L120.499 1080M144.499 0L144.499 1080M168.499 0L168.499 1080M192.499 0L192.499 1080M216.499 0L216.499 1080M240.5 0L240.499 1080M264.5 0L264.5 1080M288.5 0L288.5 1080M312.5 0L312.5 1080M336.5 0L336.5 1080M360.5 0L360.5 1080M384.5 0L384.5 1080M408.5 0L408.5 1080M432.5 0L432.5 1080M456.5 0L456.5 1080M480.5 0L480.5 1080M504.5 0L504.5 1080M528.5 0L528.5 1080M552.5 0L552.5 1080M576.5 0L576.5 1080M600.5 0L600.5 1080M624.5 0L624.5 1080M648.501 0L648.5 1080M672.501 0L672.501 1080M696.501 0L696.501 1080M720.501 0L720.501 1080M744.501 0L744.501 1080M768.501 0L768.501 1080M792.501 0L792.501 1080M816.501 0L816.501 1080M840.501 0L840.501 1080M864.501 0L864.501 1080M888.501 0L888.501 1080M912.501 0L912.501 1080M936.501 0L936.501 1080M960.501 0L960.501 1080M984.501 0L984.501 1080M1008.5 0L1008.5 1080M1032.5 0V1080M1068 36.499L-12 36.4989M1068 60.4991L-12 60.499M1068 84.4991L-12 84.499M1068 108.499L-12 108.499M1068 132.499L-12 132.499M1068 156.499L-12 156.499M1068 180.499L-12 180.499M1068 204.499L-12 204.499M1068 228.499L-12 228.499M1068 252.499L-12 252.499M1068 276.5L-12 276.499M1068 300.5L-12 300.499M1068 324.5L-12 324.5M1068 348.5L-12 348.5M1068 372.5L-12 372.5M1068 396.5L-12 396.5M1068 420.5L-12 420.5M1068 444.5L-12 444.5M1068 468.5L-12 468.5M1068 492.5L-12 492.5M1068 516.5L-12 516.5M1068 540.5L-12 540.5M1068 564.5L-12 564.5M1068 588.5L-12 588.5M1068 612.5L-12 612.5M1068 636.5L-12 636.5M1068 660.5L-12 660.5M1068 684.5L-12 684.5M1068 708.501L-12 708.5M1068 732.501L-12 732.501M1068 756.501L-12 756.501M1068 780.501L-12 780.501M1068 804.501L-12 804.501M1068 828.501L-12 828.501M1068 852.501L-12 852.501M1068 876.501L-12 876.501M1068 900.501L-12 900.501M1068 924.501L-12 924.501M1068 948.501L-12 948.501M1068 972.501L-12 972.501M1068 996.501L-12 996.501M1068 1020.5L-12 1020.5M1068 1044.5L-12 1044.5" stroke="url(#paint0_linear_18_1316)" stroke-opacity="0.15"/>
<rect x="456" y="444" width="169" height="169" rx="24" fill="url(#paint1_linear_18_1316)"/>
<g filter="url(#filter0_dddddd_18_1316)">
<path d="M541.001 563.167C522.13 563.167 506.834 547.87 506.834 529C506.834 510.13 522.13 494.833 541.001 494.833C559.871 494.833 575.167 510.13 575.167 529C575.167 547.87 559.871 563.167 541.001 563.167ZM552.774 522.057C551.597 520.066 549.935 518.404 547.943 517.226L529.227 535.943C530.405 537.934 532.066 539.596 534.058 540.774L552.774 522.057Z" fill="url(#paint2_linear_18_1316)"/>
</g>
<line x1="1079.29" y1="1080.71" x2="-6.70709" y2="-5.29288" stroke="url(#paint3_linear_18_1316)" stroke-width="2"/>
<line x1="-6.70711" y1="1079.29" x2="1079.29" y2="-6.70709" stroke="url(#paint4_linear_18_1316)" stroke-width="2"/>
</g>
<defs>
<filter id="filter0_dddddd_18_1316" x="442" y="468" width="198" height="198" filterUnits="userSpaceOnUse" color-interpolation-filters="sRGB">
<feFlood flood-opacity="0" result="BackgroundImageFix"/>
<feColorMatrix in="SourceAlpha" type="matrix" values="0 0 0 0 0 0 0 0 0 0 0 0 0 0 0 0 0 0 127 0" result="hardAlpha"/>
<feOffset dy="1.05156"/>
<feGaussianBlur stdDeviation="0.802504"/>
<feColorMatrix type="matrix" values="0 0 0 0 0 0 0 0 0 0 0 0 0 0 0 0 0 0 0.0646635 0"/>
<feBlend mode="normal" in2="BackgroundImageFix" result="effect1_dropShadow_18_1316"/>
<feColorMatrix in="SourceAlpha" type="matrix" values="0 0 0 0 0 0 0 0 0 0 0 0 0 0 0 0 0 0 127 0" result="hardAlpha"/>
<feOffset dy="2.52704"/>
<feGaussianBlur stdDeviation="1.92853"/>
<feColorMatrix type="matrix" values="0 0 0 0 0 0 0 0 0 0 0 0 0 0 0 0 0 0 0.0928953 0"/>
<feBlend mode="normal" in2="effect1_dropShadow_18_1316" result="effect2_dropShadow_18_1316"/>
<feColorMatrix in="SourceAlpha" type="matrix" values="0 0 0 0 0 0 0 0 0 0 0 0 0 0 0 0 0 0 127 0" result="hardAlpha"/>
<feOffset dy="4.75819"/>
<feGaussianBlur stdDeviation="3.63125"/>
<feColorMatrix type="matrix" values="0 0 0 0 0 0 0 0 0 0 0 0 0 0 0 0 0 0 0.115 0"/>
<feBlend mode="normal" in2="effect2_dropShadow_18_1316" result="effect3_dropShadow_18_1316"/>
<feColorMatrix in="SourceAlpha" type="matrix" values="0 0 0 0 0 0 0 0 0 0 0 0 0 0 0 0 0 0 127 0" result="hardAlpha"/>
<feOffset dy="8.4878"/>
<feGaussianBlur stdDeviation="6.47753"/>
<feColorMatrix type="matrix" values="0 0 0 0 0 0 0 0 0 0 0 0 0 0 0 0 0 0 0.137105 0"/>
<feBlend mode="normal" in2="effect3_dropShadow_18_1316" result="effect4_dropShadow_18_1316"/>
<feColorMatrix in="SourceAlpha" type="matrix" values="0 0 0 0 0 0 0 0 0 0 0 0 0 0 0 0 0 0 127 0" result="hardAlpha"/>
<feOffset dy="15.8755"/>
<feGaussianBlur stdDeviation="12.1155"/>
<feColorMatrix type="matrix" values="0 0 0 0 0 0 0 0 0 0 0 0 0 0 0 0 0 0 0.165337 0"/>
<feBlend mode="normal" in2="effect4_dropShadow_18_1316" result="effect5_dropShadow_18_1316"/>
<feColorMatrix in="SourceAlpha" type="matrix" values="0 0 0 0 0 0 0 0 0 0 0 0 0 0 0 0 0 0 127 0" result="hardAlpha"/>
<feOffset dy="38"/>
<feGaussianBlur stdDeviation="29"/>
<feColorMatrix type="matrix" values="0 0 0 0 0 0 0 0 0 0 0 0 0 0 0 0 0 0 0.23 0"/>
<feBlend mode="normal" in2="effect5_dropShadow_18_1316" result="effect6_dropShadow_18_1316"/>
<feBlend mode="normal" in="SourceGraphic" in2="effect6_dropShadow_18_1316" result="shape"/>
</filter>
<linearGradient id="paint0_linear_18_1316" x1="528" y1="0" x2="528" y2="1080" gradientUnits="userSpaceOnUse">
<stop stop-color="white" stop-opacity="0"/>
<stop offset="1" stop-color="white"/>
</linearGradient>
<linearGradient id="paint1_linear_18_1316" x1="540.5" y1="444" x2="540.5" y2="613" gradientUnits="userSpaceOnUse">
<stop stop-color="#5E00D5"/>
<stop offset="1" stop-color="#410083"/>
</linearGradient>
<linearGradient id="paint2_linear_18_1316" x1="541.001" y1="494.833" x2="541.001" y2="563.167" gradientUnits="userSpaceOnUse">
<stop stop-color="white"/>
<stop offset="0.421421" stop-color="#EFEBF1"/>
<stop offset="0.827347" stop-color="#B7A2C7"/>
<stop offset="1" stop-color="#CEAAEB"/>
</linearGradient>
<linearGradient id="paint3_linear_18_1316" x1="-5.64643" y1="-6.35354" x2="1080.35" y2="1079.65" gradientUnits="userSpaceOnUse">
<stop stop-color="#990827" stop-opacity="0"/>
<stop offset="1" stop-color="#FF0E41"/>
</linearGradient>
<linearGradient id="paint4_linear_18_1316" x1="1080.35" y1="-5.64643" x2="-5.64645" y2="1080.35" gradientUnits="userSpaceOnUse">
<stop stop-color="#990827" stop-opacity="0"/>
<stop offset="1" stop-color="#FF0E41"/>
</linearGradient>
<clipPath id="clip0_18_1316">
<rect width="1080" height="1080" fill="white"/>
</clipPath>
</defs>
</svg>
