<svg width="1080" height="1080" viewBox="0 0 1080 1080" fill="none" xmlns="http://www.w3.org/2000/svg">
<g clip-path="url(#clip0_37_2027)">
<path d="M24.4991 0L24.4991 1080M48.4992 0L48.4991 1080M72.4992 0L72.4992 1080M96.4993 0L96.4992 1080M120.499 0L120.499 1080M144.499 0L144.499 1080M168.499 0L168.499 1080M192.499 0L192.499 1080M216.499 0L216.499 1080M240.5 0L240.499 1080M264.5 0L264.5 1080M288.5 0L288.5 1080M312.5 0L312.5 1080M336.5 0L336.5 1080M360.5 0L360.5 1080M384.5 0L384.5 1080M408.5 0L408.5 1080M432.5 0L432.5 1080M456.5 0L456.5 1080M480.5 0L480.5 1080M504.5 0L504.5 1080M528.5 0L528.5 1080M552.5 0L552.5 1080M576.5 0L576.5 1080M600.5 0L600.5 1080M624.5 0L624.5 1080M648.501 0L648.5 1080M672.501 0L672.501 1080M696.501 0L696.501 1080M720.501 0L720.501 1080M744.501 0L744.501 1080M768.501 0L768.501 1080M792.501 0L792.501 1080M816.501 0L816.501 1080M840.501 0L840.501 1080M864.501 0L864.501 1080M888.501 0L888.501 1080M912.501 0L912.501 1080M936.501 0L936.501 1080M960.501 0L960.501 1080M984.501 0L984.501 1080M1008.5 0L1008.5 1080M1032.5 0V1080M1068 36.499L-12 36.4989M1068 60.4991L-12 60.499M1068 84.4991L-12 84.499M1068 108.499L-12 108.499M1068 132.499L-12 132.499M1068 156.499L-12 156.499M1068 180.499L-12 180.499M1068 204.499L-12 204.499M1068 228.499L-12 228.499M1068 252.499L-12 252.499M1068 276.5L-12 276.499M1068 300.5L-12 300.499M1068 324.5L-12 324.5M1068 348.5L-12 348.5M1068 372.5L-12 372.5M1068 396.5L-12 396.5M1068 420.5L-12 420.5M1068 444.5L-12 444.5M1068 468.5L-12 468.5M1068 492.5L-12 492.5M1068 516.5L-12 516.5M1068 540.5L-12 540.5M1068 564.5L-12 564.5M1068 588.5L-12 588.5M1068 612.5L-12 612.5M1068 636.5L-12 636.5M1068 660.5L-12 660.5M1068 684.5L-12 684.5M1068 708.501L-12 708.5M1068 732.501L-12 732.501M1068 756.501L-12 756.501M1068 780.501L-12 780.501M1068 804.501L-12 804.501M1068 828.501L-12 828.501M1068 852.501L-12 852.501M1068 876.501L-12 876.501M1068 900.501L-12 900.501M1068 924.501L-12 924.501M1068 948.501L-12 948.501M1068 972.501L-12 972.501M1068 996.501L-12 996.501M1068 1020.5L-12 1020.5M1068 1044.5L-12 1044.5" stroke="url(#paint0_linear_37_2027)" stroke-opacity="0.15"/>
<path d="M397.88 590.28C391.651 590.28 386.104 589.085 381.24 586.696C376.461 584.221 372.707 580.765 369.976 576.328C367.331 571.805 366.008 566.643 366.008 560.84H382.008C382.008 565.192 383.544 568.776 386.616 571.592C389.773 574.408 393.699 575.816 398.392 575.816C402.317 575.816 405.347 574.963 407.48 573.256C409.613 571.549 410.68 569.203 410.68 566.216C410.68 563.571 409.741 561.309 407.864 559.432C405.987 557.555 402.573 555.379 397.624 552.904L391.096 549.448C385.293 546.461 380.771 543.645 377.528 541C374.285 538.355 371.981 535.581 370.616 532.68C369.251 529.779 368.568 526.365 368.568 522.44C368.568 517.832 369.763 513.693 372.152 510.024C374.627 506.269 377.955 503.368 382.136 501.32C386.403 499.187 391.181 498.12 396.472 498.12C402.445 498.12 407.693 499.357 412.216 501.832C416.824 504.307 420.365 507.763 422.84 512.2C425.4 516.637 426.68 521.757 426.68 527.56H410.68C410.68 522.867 409.4 519.197 406.84 516.552C404.365 513.907 400.909 512.584 396.472 512.584C392.888 512.584 389.987 513.523 387.768 515.4C385.635 517.192 384.568 519.581 384.568 522.568C384.568 525.213 385.379 527.432 387 529.224C388.707 530.931 391.992 533.021 396.856 535.496L403 538.696C411.704 543.304 417.805 547.656 421.304 551.752C424.888 555.848 426.68 560.627 426.68 566.088C426.68 573.512 424.077 579.4 418.872 583.752C413.752 588.104 406.755 590.28 397.88 590.28ZM523.782 576.456V589H482.566C475.739 589 470.363 587.336 466.438 584.008C462.598 580.68 460.678 575.816 460.678 569.416C460.678 563.016 462.939 557.981 467.462 554.312C471.985 550.643 477.958 548.808 485.382 548.808H501.126V536.904H468.23V523.976H516.102V561.352C516.102 564.765 515.675 567.795 514.822 570.44C513.969 573 512.774 575.005 511.238 576.456H523.782ZM501.126 560.456H487.558C483.547 560.456 480.561 561.267 478.598 562.888C476.635 564.424 475.654 566.557 475.654 569.288C475.654 572.36 476.635 574.579 478.598 575.944C480.561 577.309 483.377 577.992 487.046 577.992C491.825 577.992 495.366 576.968 497.67 574.92C499.974 572.787 501.126 569.501 501.126 565.064V560.456ZM619.732 576.456V589H578.516C571.689 589 566.313 587.336 562.388 584.008C558.548 580.68 556.628 575.816 556.628 569.416C556.628 563.016 558.889 557.981 563.412 554.312C567.935 550.643 573.908 548.808 581.332 548.808H597.076V536.904H564.18V523.976H612.052V561.352C612.052 564.765 611.625 567.795 610.772 570.44C609.919 573 608.724 575.005 607.188 576.456H619.732ZM597.076 560.456H583.508C579.497 560.456 576.511 561.267 574.548 562.888C572.585 564.424 571.604 566.557 571.604 569.288C571.604 572.36 572.585 574.579 574.548 575.944C576.511 577.309 579.327 577.992 582.996 577.992C587.775 577.992 591.316 576.968 593.62 574.92C595.924 572.787 597.076 569.501 597.076 565.064V560.456ZM685.73 590.28C679.501 590.28 673.954 589.085 669.09 586.696C664.311 584.221 660.557 580.765 657.826 576.328C655.181 571.805 653.858 566.643 653.858 560.84H669.858C669.858 565.192 671.394 568.776 674.466 571.592C677.623 574.408 681.549 575.816 686.242 575.816C690.167 575.816 693.197 574.963 695.33 573.256C697.463 571.549 698.53 569.203 698.53 566.216C698.53 563.571 697.591 561.309 695.714 559.432C693.837 557.555 690.423 555.379 685.474 552.904L678.946 549.448C673.143 546.461 668.621 543.645 665.378 541C662.135 538.355 659.831 535.581 658.466 532.68C657.101 529.779 656.418 526.365 656.418 522.44C656.418 517.832 657.613 513.693 660.002 510.024C662.477 506.269 665.805 503.368 669.986 501.32C674.253 499.187 679.031 498.12 684.322 498.12C690.295 498.12 695.543 499.357 700.066 501.832C704.674 504.307 708.215 507.763 710.69 512.2C713.25 516.637 714.53 521.757 714.53 527.56H698.53C698.53 522.867 697.25 519.197 694.69 516.552C692.215 513.907 688.759 512.584 684.322 512.584C680.738 512.584 677.837 513.523 675.618 515.4C673.485 517.192 672.418 519.581 672.418 522.568C672.418 525.213 673.229 527.432 674.85 529.224C676.557 530.931 679.842 533.021 684.706 535.496L690.85 538.696C699.554 543.304 705.655 547.656 709.154 551.752C712.738 555.848 714.53 560.627 714.53 566.088C714.53 573.512 711.927 579.4 706.722 583.752C701.602 588.104 694.605 590.28 685.73 590.28Z" fill="white"/>
<line x1="365" y1="1080" x2="365" y2="4.37115e-08" stroke="url(#paint1_linear_37_2027)" stroke-width="2"/>
<line x1="716" y1="1080" x2="716" y2="4.37115e-08" stroke="url(#paint2_linear_37_2027)" stroke-width="2"/>
</g>
<defs>
<linearGradient id="paint0_linear_37_2027" x1="528" y1="0" x2="528" y2="1080" gradientUnits="userSpaceOnUse">
<stop stop-color="white" stop-opacity="0"/>
<stop offset="1" stop-color="white"/>
</linearGradient>
<linearGradient id="paint1_linear_37_2027" x1="366.5" y1="-2.18556e-08" x2="366.5" y2="1080" gradientUnits="userSpaceOnUse">
<stop stop-color="#1DCC2F" stop-opacity="0"/>
<stop offset="1" stop-color="#1DCC2F"/>
</linearGradient>
<linearGradient id="paint2_linear_37_2027" x1="717.5" y1="-2.18556e-08" x2="717.5" y2="1080" gradientUnits="userSpaceOnUse">
<stop stop-color="#1DCC2F" stop-opacity="0"/>
<stop offset="1" stop-color="#1DCC2F"/>
</linearGradient>
<clipPath id="clip0_37_2027">
<rect width="1080" height="1080" fill="white"/>
</clipPath>
</defs>
</svg>
