<svg width="1080" height="1080" viewBox="0 0 1080 1080" fill="none" xmlns="http://www.w3.org/2000/svg">
<g clip-path="url(#clip0_14_2379)">
<path d="M24.5001 0L24.5 1080M48.5001 0L48.5001 1080M72.5002 0L72.5001 1080M96.5002 0L96.5002 1080M120.5 0L120.5 1080M144.5 0L144.5 1080M168.5 0L168.5 1080M192.5 0L192.5 1080M216.5 0L216.5 1080M240.501 0L240.5 1080M264.501 0L264.501 1080M288.501 0L288.501 1080M312.501 0L312.501 1080M336.501 0L336.501 1080M360.501 0L360.501 1080M384.501 0L384.501 1080M408.501 0L408.501 1080M432.501 0L432.501 1080M456.501 0L456.501 1080M480.501 0L480.501 1080M504.501 0L504.501 1080M528.501 0L528.501 1080M552.501 0L552.501 1080M576.501 0L576.501 1080M600.501 0L600.501 1080M624.501 0L624.501 1080M648.502 0L648.501 1080M672.502 0L672.502 1080M696.502 0L696.502 1080M720.502 0L720.502 1080M744.502 0L744.502 1080M768.502 0L768.502 1080M792.502 0L792.502 1080M816.502 0L816.502 1080M840.502 0L840.502 1080M864.502 0L864.502 1080M888.502 0L888.502 1080M912.502 0L912.502 1080M936.502 0L936.502 1080M960.502 0L960.502 1080M984.502 0L984.502 1080M1008.5 0L1008.5 1080M1032.5 0V1080M1068 36.499L-11.999 36.4989M1068 60.4991L-11.999 60.499M1068 84.4991L-11.999 84.499M1068 108.499L-11.999 108.499M1068 132.499L-11.999 132.499M1068 156.499L-11.999 156.499M1068 180.499L-11.999 180.499M1068 204.499L-11.999 204.499M1068 228.499L-11.999 228.499M1068 252.499L-11.999 252.499M1068 276.5L-11.999 276.499M1068 300.5L-11.999 300.499M1068 324.5L-11.999 324.5M1068 348.5L-11.999 348.5M1068 372.5L-11.999 372.5M1068 396.5L-11.999 396.5M1068 420.5L-11.999 420.5M1068 444.5L-11.999 444.5M1068 468.5L-11.999 468.5M1068 492.5L-11.999 492.5M1068 516.5L-11.999 516.5M1068 540.5L-11.999 540.5M1068 564.5L-11.999 564.5M1068 588.5L-11.999 588.5M1068 612.5L-11.999 612.5M1068 636.5L-11.999 636.5M1068 660.5L-11.999 660.5M1068 684.5L-11.999 684.5M1068 708.501L-11.999 708.5M1068 732.501L-11.999 732.501M1068 756.501L-11.999 756.501M1068 780.501L-11.999 780.501M1068 804.501L-11.999 804.501M1068 828.501L-11.999 828.501M1068 852.501L-11.999 852.501M1068 876.501L-11.999 876.501M1068 900.501L-11.999 900.501M1068 924.501L-11.999 924.501M1068 948.501L-11.999 948.501M1068 972.501L-11.999 972.501M1068 996.501L-11.999 996.501M1068 1020.5L-11.999 1020.5M1068 1044.5L-11.999 1044.5" stroke="url(#paint0_linear_14_2379)" stroke-opacity="0.15"/>
<rect x="456" y="444" width="169" height="169" rx="24" fill="url(#paint1_linear_14_2379)"/>
<g filter="url(#filter0_dddddd_14_2379)">
<path d="M540.48 505.13C542.114 502.075 543.868 499.527 546.519 497.281C551.406 493.142 557.535 491.505 563.82 492.128C570.331 492.773 576.135 496.158 580.263 501.278C584.755 506.848 586.578 514.014 585.841 521.132C584.254 536.454 572.577 547.609 561.465 556.807C554.826 562.552 547.634 567.769 540.601 573C539.099 572.071 537.659 570.99 536.223 569.954C525.622 562.307 510.662 550.776 502.896 540.129C499.233 535.107 496.368 529.209 495.377 523.002C494.234 515.848 495.678 508.264 499.892 502.341C503.908 496.697 509.809 493.335 516.509 492.244C519.609 491.927 522.822 492.042 525.844 492.853C532.573 494.661 537.097 499.139 540.48 505.13Z" fill="url(#paint2_linear_14_2379)"/>
</g>
<line x1="456" y1="1080" x2="456" y2="4.37115e-08" stroke="url(#paint3_linear_14_2379)" stroke-width="2"/>
<line x1="0.5" y1="444.5" x2="1080.5" y2="444.5" stroke="#FF0E41" stroke-width="2"/>
<line x1="624" y1="1080" x2="624" y2="4.37115e-08" stroke="url(#paint4_linear_14_2379)" stroke-width="2"/>
<line x1="0.5" y1="613.5" x2="1080.5" y2="613.5" stroke="#FF0E41" stroke-width="2"/>
<g filter="url(#filter1_d_14_2379)">
<path d="M586.829 624.685C586.109 623.768 585.21 621.909 583.642 619.59C582.742 618.317 580.532 615.896 579.864 614.648C579.382 613.889 579.242 612.966 579.478 612.1C579.882 610.455 581.456 609.364 583.154 609.553C584.467 609.814 585.673 610.452 586.623 611.387C587.287 612.007 587.897 612.68 588.448 613.4C588.859 613.909 588.962 614.113 589.425 614.699C589.887 615.285 590.196 615.871 589.965 615.005C589.785 613.731 589.476 611.591 589.039 609.68C588.705 608.228 588.628 607.999 588.32 606.903C588.011 605.808 587.831 604.891 587.497 603.643C587.192 602.416 586.952 601.175 586.778 599.923C586.454 598.323 586.689 596.66 587.446 595.21C588.344 594.373 589.661 594.152 590.787 594.65C591.919 595.479 592.764 596.636 593.203 597.962C593.876 599.593 594.326 601.307 594.539 603.057C594.951 605.604 595.747 609.324 595.773 610.088C595.773 609.145 595.593 607.158 595.773 606.267C595.951 605.337 596.603 604.566 597.495 604.229C598.26 603.996 599.07 603.943 599.86 604.076C600.656 604.241 601.362 604.695 601.839 605.349C602.434 606.836 602.765 608.413 602.815 610.011C602.884 608.612 603.126 607.226 603.535 605.884C603.964 605.285 604.592 604.852 605.308 604.662C606.158 604.508 607.029 604.508 607.878 604.662C608.575 604.893 609.185 605.328 609.626 605.91C610.17 607.261 610.5 608.688 610.603 610.139C610.603 610.496 610.783 609.145 611.348 608.254C611.642 607.389 612.379 606.745 613.281 606.565C614.184 606.385 615.114 606.696 615.723 607.381C616.331 608.065 616.525 609.019 616.231 609.884C616.231 611.54 616.231 611.464 616.231 612.585C616.231 613.705 616.231 614.699 616.231 615.642C616.138 617.132 615.932 618.614 615.615 620.074C615.167 621.366 614.545 622.592 613.764 623.717C612.516 625.093 611.485 626.648 610.706 628.328C610.512 629.164 610.426 630.019 610.449 630.876C610.446 631.667 610.55 632.456 610.757 633.22C609.706 633.33 608.647 633.33 607.596 633.22C606.593 633.067 605.36 631.08 605.026 630.468C604.86 630.14 604.522 629.933 604.152 629.933C603.782 629.933 603.443 630.14 603.278 630.468C602.712 631.436 601.453 633.194 600.579 633.296C598.857 633.5 595.31 633.296 592.509 633.296C592.509 633.296 592.972 630.749 591.918 629.832C590.864 628.914 589.785 627.844 588.988 627.131L586.829 624.685Z" fill="white"/>
<path fill-rule="evenodd" clip-rule="evenodd" d="M586.829 624.685C586.109 623.768 585.21 621.909 583.642 619.59C582.742 618.317 580.532 615.896 579.864 614.648C579.382 613.889 579.242 612.966 579.478 612.1C579.882 610.455 581.456 609.364 583.154 609.553C584.467 609.814 585.673 610.452 586.623 611.387C587.287 612.007 587.897 612.68 588.448 613.4C588.859 613.909 588.962 614.113 589.425 614.699C589.887 615.285 590.196 615.871 589.965 615.005C589.785 613.731 589.476 611.591 589.039 609.68C588.705 608.228 588.628 607.999 588.32 606.903C588.011 605.808 587.831 604.891 587.497 603.643C587.192 602.416 586.952 601.175 586.778 599.923C586.454 598.323 586.689 596.66 587.446 595.21C588.344 594.373 589.661 594.152 590.787 594.65C591.919 595.479 592.764 596.636 593.203 597.962C593.876 599.593 594.326 601.307 594.539 603.057C594.951 605.604 595.747 609.324 595.773 610.088C595.773 609.145 595.593 607.158 595.773 606.267C595.951 605.337 596.603 604.566 597.495 604.229C598.26 603.996 599.07 603.943 599.86 604.076C600.656 604.241 601.362 604.695 601.839 605.349C602.434 606.836 602.765 608.413 602.815 610.011C602.884 608.612 603.126 607.226 603.535 605.884C603.964 605.285 604.592 604.852 605.308 604.662C606.158 604.508 607.029 604.508 607.878 604.662C608.575 604.893 609.185 605.328 609.626 605.91C610.17 607.261 610.5 608.688 610.603 610.139C610.603 610.496 610.783 609.145 611.348 608.254C611.642 607.389 612.379 606.745 613.281 606.565C614.184 606.385 615.114 606.696 615.723 607.381C616.331 608.065 616.525 609.019 616.231 609.884C616.231 611.54 616.231 611.464 616.231 612.585C616.231 613.705 616.231 614.699 616.231 615.642C616.138 617.132 615.932 618.614 615.615 620.074C615.167 621.366 614.545 622.592 613.764 623.717C612.516 625.093 611.485 626.648 610.706 628.328C610.512 629.164 610.426 630.019 610.449 630.876C610.446 631.667 610.55 632.456 610.757 633.22C609.706 633.33 608.647 633.33 607.596 633.22C606.593 633.067 605.36 631.08 605.026 630.468C604.86 630.14 604.522 629.933 604.152 629.933C603.782 629.933 603.443 630.14 603.278 630.468C602.712 631.436 601.453 633.194 600.579 633.296C598.857 633.5 595.31 633.296 592.509 633.296C592.509 633.296 592.972 630.749 591.918 629.832C590.864 628.914 589.785 627.844 588.988 627.131L586.829 624.685Z" stroke="black" stroke-width="0.75" stroke-linecap="round" stroke-linejoin="round"/>
<path d="M609.366 626.407V617.367C609.366 616.825 608.918 616.387 608.366 616.387C607.814 616.387 607.366 616.825 607.366 617.367V626.407C607.366 626.948 607.814 627.387 608.366 627.387C608.918 627.387 609.366 626.948 609.366 626.407Z" fill="black"/>
<path d="M603.366 626.404L603.34 617.359C603.339 616.819 603.119 616.384 602.85 616.387C602.581 616.39 602.365 616.83 602.366 617.37L602.392 626.415C602.394 626.955 602.613 627.39 602.882 627.387C603.151 627.384 603.368 626.944 603.366 626.404Z" fill="black"/>
<path d="M596.366 617.379L596.418 626.406C596.421 626.951 596.86 627.39 597.398 627.387C597.936 627.384 598.369 626.939 598.366 626.394L598.314 617.368C598.311 616.823 597.872 616.384 597.335 616.387C596.797 616.39 596.363 616.834 596.366 617.379Z" fill="black"/>
</g>
</g>
<defs>
<filter id="filter0_dddddd_14_2379" x="415" y="492" width="251" height="261" filterUnits="userSpaceOnUse" color-interpolation-filters="sRGB">
<feFlood flood-opacity="0" result="BackgroundImageFix"/>
<feColorMatrix in="SourceAlpha" type="matrix" values="0 0 0 0 0 0 0 0 0 0 0 0 0 0 0 0 0 0 127 0" result="hardAlpha"/>
<feOffset dy="2.76726"/>
<feGaussianBlur stdDeviation="1.1069"/>
<feColorMatrix type="matrix" values="0 0 0 0 0 0 0 0 0 0 0 0 0 0 0 0 0 0 0.0196802 0"/>
<feBlend mode="normal" in2="BackgroundImageFix" result="effect1_dropShadow_14_2379"/>
<feColorMatrix in="SourceAlpha" type="matrix" values="0 0 0 0 0 0 0 0 0 0 0 0 0 0 0 0 0 0 127 0" result="hardAlpha"/>
<feOffset dy="6.6501"/>
<feGaussianBlur stdDeviation="2.66004"/>
<feColorMatrix type="matrix" values="0 0 0 0 0 0 0 0 0 0 0 0 0 0 0 0 0 0 0.0282725 0"/>
<feBlend mode="normal" in2="effect1_dropShadow_14_2379" result="effect2_dropShadow_14_2379"/>
<feColorMatrix in="SourceAlpha" type="matrix" values="0 0 0 0 0 0 0 0 0 0 0 0 0 0 0 0 0 0 127 0" result="hardAlpha"/>
<feOffset dy="12.5216"/>
<feGaussianBlur stdDeviation="5.00862"/>
<feColorMatrix type="matrix" values="0 0 0 0 0 0 0 0 0 0 0 0 0 0 0 0 0 0 0.035 0"/>
<feBlend mode="normal" in2="effect2_dropShadow_14_2379" result="effect3_dropShadow_14_2379"/>
<feColorMatrix in="SourceAlpha" type="matrix" values="0 0 0 0 0 0 0 0 0 0 0 0 0 0 0 0 0 0 127 0" result="hardAlpha"/>
<feOffset dy="22.3363"/>
<feGaussianBlur stdDeviation="8.93452"/>
<feColorMatrix type="matrix" values="0 0 0 0 0 0 0 0 0 0 0 0 0 0 0 0 0 0 0.0417275 0"/>
<feBlend mode="normal" in2="effect3_dropShadow_14_2379" result="effect4_dropShadow_14_2379"/>
<feColorMatrix in="SourceAlpha" type="matrix" values="0 0 0 0 0 0 0 0 0 0 0 0 0 0 0 0 0 0 127 0" result="hardAlpha"/>
<feOffset dy="41.7776"/>
<feGaussianBlur stdDeviation="16.711"/>
<feColorMatrix type="matrix" values="0 0 0 0 0 0 0 0 0 0 0 0 0 0 0 0 0 0 0.0503198 0"/>
<feBlend mode="normal" in2="effect4_dropShadow_14_2379" result="effect5_dropShadow_14_2379"/>
<feColorMatrix in="SourceAlpha" type="matrix" values="0 0 0 0 0 0 0 0 0 0 0 0 0 0 0 0 0 0 127 0" result="hardAlpha"/>
<feOffset dy="100"/>
<feGaussianBlur stdDeviation="40"/>
<feColorMatrix type="matrix" values="0 0 0 0 0 0 0 0 0 0 0 0 0 0 0 0 0 0 0.07 0"/>
<feBlend mode="normal" in2="effect5_dropShadow_14_2379" result="effect6_dropShadow_14_2379"/>
<feBlend mode="normal" in="SourceGraphic" in2="effect6_dropShadow_14_2379" result="shape"/>
</filter>
<filter id="filter1_d_14_2379" x="511.2" y="528.2" width="148.6" height="148.6" filterUnits="userSpaceOnUse" color-interpolation-filters="sRGB">
<feFlood flood-opacity="0" result="BackgroundImageFix"/>
<feColorMatrix in="SourceAlpha" type="matrix" values="0 0 0 0 0 0 0 0 0 0 0 0 0 0 0 0 0 0 127 0" result="hardAlpha"/>
<feOffset dy="1"/>
<feGaussianBlur stdDeviation="0.9"/>
<feColorMatrix type="matrix" values="0 0 0 0 0 0 0 0 0 0 0 0 0 0 0 0 0 0 0.65 0"/>
<feBlend mode="normal" in2="BackgroundImageFix" result="effect1_dropShadow_14_2379"/>
<feBlend mode="normal" in="SourceGraphic" in2="effect1_dropShadow_14_2379" result="shape"/>
</filter>
<linearGradient id="paint0_linear_14_2379" x1="528.001" y1="0" x2="528.001" y2="1080" gradientUnits="userSpaceOnUse">
<stop stop-color="white" stop-opacity="0"/>
<stop offset="1" stop-color="white"/>
</linearGradient>
<linearGradient id="paint1_linear_14_2379" x1="540.5" y1="444" x2="540.5" y2="613" gradientUnits="userSpaceOnUse">
<stop stop-color="#FF0E41"/>
<stop offset="1" stop-color="#FF3862"/>
</linearGradient>
<linearGradient id="paint2_linear_14_2379" x1="540.5" y1="492" x2="540.5" y2="573" gradientUnits="userSpaceOnUse">
<stop offset="0.3" stop-color="white"/>
<stop offset="0.9" stop-color="#FEABBD"/>
<stop offset="0.95" stop-color="#FFC5D1"/>
<stop offset="1" stop-color="#FFE2E8"/>
</linearGradient>
<linearGradient id="paint3_linear_14_2379" x1="457.5" y1="-2.18556e-08" x2="457.5" y2="1080" gradientUnits="userSpaceOnUse">
<stop stop-color="#990827" stop-opacity="0"/>
<stop offset="1" stop-color="#FF0E41"/>
</linearGradient>
<linearGradient id="paint4_linear_14_2379" x1="625.5" y1="-2.18556e-08" x2="625.5" y2="1080" gradientUnits="userSpaceOnUse">
<stop stop-color="#990827" stop-opacity="0"/>
<stop offset="1" stop-color="#FF0E41"/>
</linearGradient>
<clipPath id="clip0_14_2379">
<rect width="1080" height="1080" fill="white"/>
</clipPath>
</defs>
</svg>
