<svg width="1080" height="1080" viewBox="0 0 1080 1080" fill="none" xmlns="http://www.w3.org/2000/svg">
<g clip-path="url(#clip0_20_1914)">
<path d="M24.5001 0L24.5 1080M48.5001 0L48.5001 1080M72.5002 0L72.5001 1080M96.5002 0L96.5002 1080M120.5 0L120.5 1080M144.5 0L144.5 1080M168.5 0L168.5 1080M192.5 0L192.5 1080M216.5 0L216.5 1080M240.501 0L240.5 1080M264.501 0L264.501 1080M288.501 0L288.501 1080M312.501 0L312.501 1080M336.501 0L336.501 1080M360.501 0L360.501 1080M384.501 0L384.501 1080M408.501 0L408.501 1080M432.501 0L432.501 1080M456.501 0L456.501 1080M480.501 0L480.501 1080M504.501 0L504.501 1080M528.501 0L528.501 1080M552.501 0L552.501 1080M576.501 0L576.501 1080M600.501 0L600.501 1080M624.501 0L624.501 1080M648.502 0L648.501 1080M672.502 0L672.502 1080M696.502 0L696.502 1080M720.502 0L720.502 1080M744.502 0L744.502 1080M768.502 0L768.502 1080M792.502 0L792.502 1080M816.502 0L816.502 1080M840.502 0L840.502 1080M864.502 0L864.502 1080M888.502 0L888.502 1080M912.502 0L912.502 1080M936.502 0L936.502 1080M960.502 0L960.502 1080M984.502 0L984.502 1080M1008.5 0L1008.5 1080M1032.5 0V1080M1068 36.499L-11.999 36.4989M1068 60.4991L-11.999 60.499M1068 84.4991L-11.999 84.499M1068 108.499L-11.999 108.499M1068 132.499L-11.999 132.499M1068 156.499L-11.999 156.499M1068 180.499L-11.999 180.499M1068 204.499L-11.999 204.499M1068 228.499L-11.999 228.499M1068 252.499L-11.999 252.499M1068 276.5L-11.999 276.499M1068 300.5L-11.999 300.499M1068 324.5L-11.999 324.5M1068 348.5L-11.999 348.5M1068 372.5L-11.999 372.5M1068 396.5L-11.999 396.5M1068 420.5L-11.999 420.5M1068 444.5L-11.999 444.5M1068 468.5L-11.999 468.5M1068 492.5L-11.999 492.5M1068 516.5L-11.999 516.5M1068 540.5L-11.999 540.5M1068 564.5L-11.999 564.5M1068 588.5L-11.999 588.5M1068 612.5L-11.999 612.5M1068 636.5L-11.999 636.5M1068 660.5L-11.999 660.5M1068 684.5L-11.999 684.5M1068 708.501L-11.999 708.5M1068 732.501L-11.999 732.501M1068 756.501L-11.999 756.501M1068 780.501L-11.999 780.501M1068 804.501L-11.999 804.501M1068 828.501L-11.999 828.501M1068 852.501L-11.999 852.501M1068 876.501L-11.999 876.501M1068 900.501L-11.999 900.501M1068 924.501L-11.999 924.501M1068 948.501L-11.999 948.501M1068 972.501L-11.999 972.501M1068 996.501L-11.999 996.501M1068 1020.5L-11.999 1020.5M1068 1044.5L-11.999 1044.5" stroke="url(#paint0_linear_20_1914)" stroke-opacity="0.15"/>
<path d="M461.363 467.236V493.661C461.537 499.859 466.738 504.737 472.98 504.564C478.991 504.392 483.817 499.601 483.961 493.661V467.236C483.961 461.124 478.962 456.161 472.807 456.161H472.778C466.594 456.046 461.479 460.952 461.363 467.092V467.236ZM469.455 493.661V467.236C469.426 465.572 470.784 464.166 472.46 464.166C472.576 464.166 472.662 464.166 472.778 464.166C474.425 464.137 475.812 465.428 475.841 467.092C475.841 467.15 475.841 467.207 475.841 467.236V493.661C475.812 495.354 474.454 496.703 472.749 496.731C470.986 496.817 469.484 495.44 469.397 493.69" fill="#6C6C6C"/>
<path d="M549.184 456.62H526.326V464.653H533.724V504.048H541.815V464.653H549.184V456.62Z" fill="#6C6C6C"/>
<path d="M572.996 456.62V493.661C573.054 495.383 571.696 496.789 569.962 496.846C568.228 496.903 566.812 495.555 566.754 493.833C566.754 493.776 566.754 493.719 566.754 493.633V456.62H558.432V493.661C558.721 499.916 564.067 504.765 570.366 504.478C576.262 504.22 581.001 499.514 581.261 493.661V456.62H572.996Z" fill="#6C6C6C"/>
<path d="M647.003 464.653V456.62H627.006V504.048H647.003V496.043H635.097V483.762H642.697V475.729H635.097V464.653H647.003Z" fill="#6C6C6C"/>
<path d="M518.726 504.048H510.172L504.22 481.639C504.22 481.639 509.45 480.692 509.45 475.27V467.953C509.508 466.174 508.063 464.682 506.271 464.653H503.035V504.048H494.943V456.62H506.156C512.282 456.562 517.339 461.383 517.57 467.465V475.011C517.57 479.717 515.894 483.016 513.062 485.398L518.726 504.048Z" fill="#6C6C6C"/>
<path d="M608.915 456.62V482.586L600.592 456.62H592.27V504.048H600.592V480.922L608.192 504.048H617.237V456.62H608.915Z" fill="#6C6C6C"/>
<path d="M442.552 457.337H434.72H433.998V504.765H442.552V484.451H450.412V476.446H442.552V465.371H454.949V457.337H442.552Z" fill="#6C6C6C"/>
<path d="M625.301 613.135C625.243 615.546 623.278 617.439 620.85 617.411H607.529C605.101 617.439 603.136 615.546 603.078 613.135V541.405C603.194 538.995 605.188 537.101 607.615 537.13H620.966C623.336 537.101 625.272 538.966 625.301 541.319C625.301 541.348 625.301 541.376 625.301 541.405V613.135ZM624.058 515.955H604.465C591.808 515.955 581.549 525.796 581.549 537.962V615.833C581.549 627.969 591.808 637.839 604.494 637.839H624.087C636.744 637.839 647.032 627.998 647.032 615.833V537.962C647.003 525.796 636.715 515.955 624.058 515.955ZM551.669 613.135C551.611 615.546 549.617 617.439 547.219 617.411H533.926C531.498 617.439 529.533 615.546 529.476 613.135V541.405C529.591 538.995 531.614 537.073 534.042 537.13H547.334C549.704 537.101 551.64 538.995 551.669 541.348V541.405V613.135ZM550.398 515.955H530.805C518.148 515.955 507.918 525.796 507.918 537.962V615.833C507.918 627.969 518.206 637.839 530.863 637.839H550.455C563.113 637.839 573.4 627.998 573.4 615.833V537.962C573.4 525.825 563.142 515.955 550.455 515.955H550.398ZM499.711 582.062C499.711 569.896 489.25 560.084 476.333 560.084H456.567V537.073H499.566V515.955H434.229V582.119H473.038C475.495 582.033 477.546 583.956 477.633 586.394V613.135C477.546 615.546 475.523 617.468 473.067 617.411H461.103C458.676 617.468 456.624 615.546 456.567 613.135V596.351H434.604V615.804C434.604 627.941 445.094 637.811 457.983 637.811H476.362C489.25 637.811 499.74 627.969 499.74 615.804L499.711 582.062Z" fill="white"/>
<line x1="648" y1="1080" x2="648" y2="4.37115e-08" stroke="url(#paint1_linear_20_1914)" stroke-width="2"/>
<line x1="432" y1="1080" x2="432" y2="4.37115e-08" stroke="url(#paint2_linear_20_1914)" stroke-width="2"/>
</g>
<defs>
<linearGradient id="paint0_linear_20_1914" x1="528.001" y1="0" x2="528.001" y2="1080" gradientUnits="userSpaceOnUse">
<stop stop-color="white" stop-opacity="0"/>
<stop offset="1" stop-color="white"/>
</linearGradient>
<linearGradient id="paint1_linear_20_1914" x1="649.5" y1="-2.18556e-08" x2="649.5" y2="1080" gradientUnits="userSpaceOnUse">
<stop stop-color="#1DCC2F" stop-opacity="0"/>
<stop offset="1" stop-color="#1DCC2F"/>
</linearGradient>
<linearGradient id="paint2_linear_20_1914" x1="433.5" y1="-2.18556e-08" x2="433.5" y2="1080" gradientUnits="userSpaceOnUse">
<stop stop-color="#1DCC2F" stop-opacity="0"/>
<stop offset="1" stop-color="#1DCC2F"/>
</linearGradient>
<clipPath id="clip0_20_1914">
<rect width="1080" height="1080" fill="white"/>
</clipPath>
</defs>
</svg>
