<svg width="1080" height="1080" viewBox="0 0 1080 1080" fill="none" xmlns="http://www.w3.org/2000/svg">
<g clip-path="url(#clip0_20_2010)">
<path d="M24.4991 0L24.4991 1080M48.4992 0L48.4991 1080M72.4992 0L72.4992 1080M96.4993 0L96.4992 1080M120.499 0L120.499 1080M144.499 0L144.499 1080M168.499 0L168.499 1080M192.499 0L192.499 1080M216.499 0L216.499 1080M240.5 0L240.499 1080M264.5 0L264.5 1080M288.5 0L288.5 1080M312.5 0L312.5 1080M336.5 0L336.5 1080M360.5 0L360.5 1080M384.5 0L384.5 1080M408.5 0L408.5 1080M432.5 0L432.5 1080M456.5 0L456.5 1080M480.5 0L480.5 1080M504.5 0L504.5 1080M528.5 0L528.5 1080M552.5 0L552.5 1080M576.5 0L576.5 1080M600.5 0L600.5 1080M624.5 0L624.5 1080M648.501 0L648.5 1080M672.501 0L672.501 1080M696.501 0L696.501 1080M720.501 0L720.501 1080M744.501 0L744.501 1080M768.501 0L768.501 1080M792.501 0L792.501 1080M816.501 0L816.501 1080M840.501 0L840.501 1080M864.501 0L864.501 1080M888.501 0L888.501 1080M912.501 0L912.501 1080M936.501 0L936.501 1080M960.501 0L960.501 1080M984.501 0L984.501 1080M1008.5 0L1008.5 1080M1032.5 0V1080M1068 36.499L-12 36.4989M1068 60.4991L-12 60.499M1068 84.4991L-12 84.499M1068 108.499L-12 108.499M1068 132.499L-12 132.499M1068 156.499L-12 156.499M1068 180.499L-12 180.499M1068 204.499L-12 204.499M1068 228.499L-12 228.499M1068 252.499L-12 252.499M1068 276.5L-12 276.499M1068 300.5L-12 300.499M1068 324.5L-12 324.5M1068 348.5L-12 348.5M1068 372.5L-12 372.5M1068 396.5L-12 396.5M1068 420.5L-12 420.5M1068 444.5L-12 444.5M1068 468.5L-12 468.5M1068 492.5L-12 492.5M1068 516.5L-12 516.5M1068 540.5L-12 540.5M1068 564.5L-12 564.5M1068 588.5L-12 588.5M1068 612.5L-12 612.5M1068 636.5L-12 636.5M1068 660.5L-12 660.5M1068 684.5L-12 684.5M1068 708.501L-12 708.5M1068 732.501L-12 732.501M1068 756.501L-12 756.501M1068 780.501L-12 780.501M1068 804.501L-12 804.501M1068 828.501L-12 828.501M1068 852.501L-12 852.501M1068 876.501L-12 876.501M1068 900.501L-12 900.501M1068 924.501L-12 924.501M1068 948.501L-12 948.501M1068 972.501L-12 972.501M1068 996.501L-12 996.501M1068 1020.5L-12 1020.5M1068 1044.5L-12 1044.5" stroke="url(#paint0_linear_20_2010)" stroke-opacity="0.15"/>
<path d="M781.729 550.364C781.729 536.362 772.18 528.203 759.594 528.203C756.564 528.094 753.545 528.613 750.726 529.728C747.907 530.842 745.35 532.529 743.215 534.681C741.08 536.833 739.414 539.403 738.321 542.231C737.229 545.059 736.734 548.082 736.867 551.11C736.736 554.15 737.23 557.185 738.32 560.025C739.41 562.866 741.072 565.453 743.203 567.625C745.334 569.797 747.888 571.508 750.708 572.652C753.527 573.796 756.552 574.348 759.594 574.275C764.229 574.337 768.799 573.184 772.849 570.929C774.929 569.741 776.752 568.151 778.21 566.25C779.669 564.35 780.734 562.178 781.343 559.861H772.103C769.838 563.928 765.797 565.91 760.083 565.91C752.361 565.91 746.622 559.861 746.622 554.096H781.626C781.729 552.449 781.729 551.419 781.729 550.364ZM746.519 545.963C747.146 543.112 748.773 540.579 751.105 538.823C753.437 537.067 756.32 536.203 759.233 536.388C765.848 536.388 771.279 540.352 772.103 545.963H746.647H746.519Z" fill="white"/>
<path d="M333.497 556.902C332.208 559.651 330.015 561.875 327.285 563.204C324.555 564.532 321.452 564.885 318.493 564.204C315.534 563.522 312.898 561.847 311.024 559.458C309.15 557.069 308.151 554.11 308.194 551.074C308.237 548.038 309.319 545.108 311.26 542.773C313.2 540.438 315.883 538.838 318.86 538.241C321.837 537.643 324.928 538.083 327.62 539.489C330.312 540.894 332.441 543.179 333.652 545.963H343.947C342.609 540.457 339.299 535.632 334.644 532.401C329.988 529.171 324.31 527.759 318.684 528.432C313.057 529.106 307.873 531.819 304.112 536.057C300.351 540.296 298.273 545.766 298.273 551.432C298.273 557.099 300.351 562.569 304.112 566.808C307.873 571.046 313.057 573.759 318.684 574.433C324.31 575.106 329.988 573.694 334.644 570.464C339.299 567.233 342.609 562.408 343.947 556.902H333.652H333.497Z" fill="white"/>
<path d="M380.625 530.159C377.728 528.802 374.557 528.132 371.359 528.203C368.043 528.239 364.808 529.231 362.042 531.06V529.773H352.57V572.73H362.093V552.14C361.949 549.338 362.148 546.529 362.685 543.775V543.569C362.965 542.654 363.423 541.803 364.032 541.065C364.642 540.328 365.391 539.718 366.237 539.271C367.775 538.29 369.561 537.769 371.385 537.769C373.209 537.769 374.995 538.29 376.533 539.271L380.625 530.159Z" fill="white"/>
<path d="M416.58 529.773V550.364C416.725 553.166 416.526 555.975 415.988 558.729V558.935C415.43 560.765 414.172 562.3 412.488 563.207C410.95 564.188 409.164 564.709 407.34 564.709C405.516 564.709 403.73 564.188 402.192 563.207C400.508 562.3 399.25 560.765 398.692 558.935V558.729C398.154 555.975 397.955 553.166 398.1 550.364V529.773H388.603V553.195C388.38 557.032 388.932 560.875 390.224 564.494C391.697 567.973 394.466 570.743 397.946 572.216C400.842 573.573 404.013 574.243 407.211 574.172C410.527 574.137 413.763 573.145 416.529 571.315V572.73H425.923V529.773H416.58Z" fill="white"/>
<path d="M447.157 572.731V552.14C447.027 549.327 447.243 546.509 447.8 543.749V543.544C448.358 541.714 449.616 540.178 451.301 539.271C452.839 538.29 454.624 537.769 456.448 537.769C458.272 537.769 460.058 538.29 461.596 539.271C463.28 540.178 464.538 541.714 465.096 543.544V543.749C465.619 546.514 465.801 549.332 465.637 552.14V572.731H475.083V549.309C475.33 545.477 474.805 541.635 473.538 538.01C472.065 534.531 469.296 531.761 465.817 530.288C462.921 528.931 459.749 528.261 456.551 528.332C453.235 528.367 450 529.36 447.234 531.189V529.902H437.711V572.731H447.157Z" fill="white"/>
<path d="M518.915 556.902C517.626 559.651 515.433 561.875 512.703 563.204C509.973 564.532 506.87 564.885 503.911 564.204C500.952 563.522 498.316 561.847 496.442 559.458C494.568 557.069 493.569 554.11 493.612 551.074C493.655 548.038 494.737 545.108 496.678 542.773C498.618 540.438 501.301 538.838 504.278 538.241C507.255 537.643 510.346 538.083 513.038 539.489C515.73 540.894 517.859 543.179 519.07 545.963H529.365C528.027 540.457 524.717 535.632 520.062 532.401C515.406 529.171 509.728 527.759 504.102 528.432C498.475 529.106 493.291 531.819 489.53 536.057C485.769 540.296 483.691 545.766 483.691 551.432C483.691 557.099 485.769 562.569 489.53 566.808C493.291 571.046 498.475 573.759 504.102 574.433C509.728 575.106 515.406 573.694 520.062 570.464C524.717 567.233 528.027 562.408 529.365 556.902H519.07H518.915Z" fill="white"/>
<path d="M547.51 572.731V552.14C547.366 549.338 547.564 546.529 548.102 543.775V543.569C548.382 542.654 548.839 541.803 549.449 541.065C550.059 540.328 550.808 539.718 551.654 539.271C553.192 538.29 554.978 537.769 556.802 537.769C558.626 537.769 560.412 538.29 561.949 539.271C563.634 540.178 564.892 541.714 565.45 543.543V543.749C565.988 546.503 566.187 549.312 566.042 552.114V572.705H575.488V549.283C575.71 545.446 575.159 541.604 573.866 537.984C572.393 534.505 569.624 531.736 566.145 530.263C563.248 528.905 560.077 528.235 556.879 528.306C553.563 528.342 550.328 529.334 547.562 531.163V506.403H538.064V572.731H547.51Z" fill="white"/>
<path d="M609.539 528.204H607.84C603.777 528.5 599.867 529.878 596.516 532.193V506.403H587.121V572.731H596.567V570.311C599.557 572.415 603.002 573.78 606.621 574.297C610.24 574.814 613.93 574.466 617.389 573.284C620.848 572.101 623.978 570.116 626.523 567.492C629.069 564.868 630.956 561.679 632.033 558.185C633.109 554.691 633.343 550.993 632.716 547.391C632.089 543.79 630.618 540.388 628.424 537.464C626.23 534.539 623.376 532.176 620.093 530.567C616.811 528.957 613.194 528.147 609.539 528.204ZM622.82 553.015V553.427C622.734 553.974 622.614 554.516 622.46 555.048C622.283 555.62 622.068 556.179 621.816 556.721V556.927C620.929 558.772 619.63 560.389 618.019 561.652C616.408 562.914 614.528 563.79 612.525 564.211L611.264 564.417H610.98C610.5 564.444 610.019 564.444 609.539 564.417C608.936 564.415 608.334 564.372 607.737 564.288H607.326C606.161 564.098 605.026 563.752 603.954 563.259H603.696C602.615 562.728 601.611 562.052 600.711 561.251C599.806 560.427 599.018 559.484 598.369 558.446C598.048 557.917 597.764 557.367 597.519 556.799C596.762 555.07 596.384 553.199 596.41 551.313C596.437 549.426 596.868 547.566 597.674 545.86C598.652 543.793 600.147 542.014 602.013 540.693C603.88 539.372 606.055 538.554 608.329 538.319C608.784 538.295 609.239 538.295 609.693 538.319C613.125 538.364 616.407 539.733 618.853 542.141C621.3 544.549 622.721 547.808 622.82 551.239C622.86 551.831 622.86 552.424 622.82 553.015Z" fill="white"/>
<path d="M729.223 542.617V542.411C729.223 535.41 723.843 528.281 711.849 528.152C699.856 528.023 694.656 535.204 694.502 542.102V542.617C694.759 546.658 697.076 551.805 706.033 553.916L714.011 555.718C716.071 556.181 719.571 557.339 719.854 559.964C719.854 563.594 715.195 565.498 711.849 565.498C707.989 565.498 703.845 563.362 703.845 559.939V559.733H694.502V559.862C694.502 566.862 699.881 573.992 711.875 574.12C723.869 574.249 729.248 566.888 729.248 559.862V559.733C729.043 555.64 726.829 550.416 717.718 548.305L709.739 546.503C707.989 546.117 703.896 544.933 703.896 542.334C703.896 538.267 708.04 536.826 711.901 536.826C715.762 536.826 719.906 538.962 719.906 542.385V542.617H729.248H729.223Z" fill="white"/>
<path d="M640.322 551.239C640.361 555.416 641.528 559.504 643.7 563.072C645.872 566.639 648.968 569.553 652.661 571.505C656.353 573.457 660.505 574.374 664.676 574.159C668.847 573.944 672.883 572.606 676.356 570.285V572.731H685.802V529.774H676.407V532.347C673.055 530.032 669.145 528.655 665.082 528.358H663.384C657.307 528.384 651.484 530.798 647.17 535.078C642.856 539.358 640.396 545.163 640.322 551.239ZM650.077 551.239C650.084 547.719 651.485 544.345 653.974 541.856C656.464 539.366 659.838 537.965 663.358 537.958C663.812 537.935 664.268 537.935 664.722 537.958C666.996 538.194 669.172 539.012 671.038 540.332C672.905 541.653 674.399 543.433 675.378 545.5C676.184 547.206 676.614 549.065 676.641 550.952C676.668 552.839 676.29 554.71 675.532 556.438C675.288 557.006 675.004 557.557 674.683 558.085C674.034 559.123 673.246 560.067 672.341 560.891C671.441 561.692 670.436 562.367 669.355 562.899H669.098C668.025 563.391 666.891 563.738 665.726 563.928H665.314C664.717 564.012 664.115 564.055 663.512 564.057C663.032 564.083 662.551 564.083 662.071 564.057H661.891L660.63 563.851C658.669 563.407 656.833 562.526 655.26 561.274C653.687 560.021 652.417 558.43 651.544 556.618V556.413C651.292 555.87 651.077 555.311 650.901 554.74C650.747 554.207 650.626 553.666 650.54 553.118V552.706C650.358 552.227 650.203 551.737 650.077 551.239Z" fill="white"/>
<line x1="784" y1="1080" x2="784" y2="4.37115e-08" stroke="url(#paint1_linear_20_2010)" stroke-width="2"/>
<line x1="298" y1="1080" x2="298" y2="4.37115e-08" stroke="url(#paint2_linear_20_2010)" stroke-width="2"/>
</g>
<defs>
<linearGradient id="paint0_linear_20_2010" x1="528" y1="0" x2="528" y2="1080" gradientUnits="userSpaceOnUse">
<stop stop-color="white" stop-opacity="0"/>
<stop offset="1" stop-color="white"/>
</linearGradient>
<linearGradient id="paint1_linear_20_2010" x1="785.5" y1="-2.18556e-08" x2="785.5" y2="1080" gradientUnits="userSpaceOnUse">
<stop stop-color="#1DCC2F" stop-opacity="0"/>
<stop offset="1" stop-color="#1DCC2F"/>
</linearGradient>
<linearGradient id="paint2_linear_20_2010" x1="299.5" y1="-2.18556e-08" x2="299.5" y2="1080" gradientUnits="userSpaceOnUse">
<stop stop-color="#1DCC2F" stop-opacity="0"/>
<stop offset="1" stop-color="#1DCC2F"/>
</linearGradient>
<clipPath id="clip0_20_2010">
<rect width="1080" height="1080" fill="white"/>
</clipPath>
</defs>
</svg>
