<svg width="1080" height="1080" viewBox="0 0 1080 1080" fill="none" xmlns="http://www.w3.org/2000/svg">
<g clip-path="url(#clip0_20_2257)">
<path d="M24.4991 0L24.4991 1080M48.4992 0L48.4991 1080M72.4992 0L72.4992 1080M96.4993 0L96.4992 1080M120.499 0L120.499 1080M144.499 0L144.499 1080M168.499 0L168.499 1080M192.499 0L192.499 1080M216.499 0L216.499 1080M240.5 0L240.499 1080M264.5 0L264.5 1080M288.5 0L288.5 1080M312.5 0L312.5 1080M336.5 0L336.5 1080M360.5 0L360.5 1080M384.5 0L384.5 1080M408.5 0L408.5 1080M432.5 0L432.5 1080M456.5 0L456.5 1080M480.5 0L480.5 1080M504.5 0L504.5 1080M528.5 0L528.5 1080M552.5 0L552.5 1080M576.5 0L576.5 1080M600.5 0L600.5 1080M624.5 0L624.5 1080M648.501 0L648.5 1080M672.501 0L672.501 1080M696.501 0L696.501 1080M720.501 0L720.501 1080M744.501 0L744.501 1080M768.501 0L768.501 1080M792.501 0L792.501 1080M816.501 0L816.501 1080M840.501 0L840.501 1080M864.501 0L864.501 1080M888.501 0L888.501 1080M912.501 0L912.501 1080M936.501 0L936.501 1080M960.501 0L960.501 1080M984.501 0L984.501 1080M1008.5 0L1008.5 1080M1032.5 0V1080M1068 36.499L-12 36.4989M1068 60.4991L-12 60.499M1068 84.4991L-12 84.499M1068 108.499L-12 108.499M1068 132.499L-12 132.499M1068 156.499L-12 156.499M1068 180.499L-12 180.499M1068 204.499L-12 204.499M1068 228.499L-12 228.499M1068 252.499L-12 252.499M1068 276.5L-12 276.499M1068 300.5L-12 300.499M1068 324.5L-12 324.5M1068 348.5L-12 348.5M1068 372.5L-12 372.5M1068 396.5L-12 396.5M1068 420.5L-12 420.5M1068 444.5L-12 444.5M1068 468.5L-12 468.5M1068 492.5L-12 492.5M1068 516.5L-12 516.5M1068 540.5L-12 540.5M1068 564.5L-12 564.5M1068 588.5L-12 588.5M1068 612.5L-12 612.5M1068 636.5L-12 636.5M1068 660.5L-12 660.5M1068 684.5L-12 684.5M1068 708.501L-12 708.5M1068 732.501L-12 732.501M1068 756.501L-12 756.501M1068 780.501L-12 780.501M1068 804.501L-12 804.501M1068 828.501L-12 828.501M1068 852.501L-12 852.501M1068 876.501L-12 876.501M1068 900.501L-12 900.501M1068 924.501L-12 924.501M1068 948.501L-12 948.501M1068 972.501L-12 972.501M1068 996.501L-12 996.501M1068 1020.5L-12 1020.5M1068 1044.5L-12 1044.5" stroke="url(#paint0_linear_20_2257)" stroke-opacity="0.15"/>
<line x1="807" y1="1080" x2="807" y2="4.37115e-08" stroke="url(#paint1_linear_20_2257)" stroke-width="2"/>
<line x1="275" y1="1080" x2="275" y2="4.37115e-08" stroke="url(#paint2_linear_20_2257)" stroke-width="2"/>
<path fill-rule="evenodd" clip-rule="evenodd" d="M275.381 494.614L293.12 495.206L293.627 520.311L311.704 520.987L311.113 496.136L328.852 496.389L330.373 563.843H312.38L311.789 536.625L294.049 535.779V561.222L275.719 559.447L275.381 494.614Z" fill="white" stroke="white" stroke-width="0.319612"/>
<path fill-rule="evenodd" clip-rule="evenodd" d="M360.364 491.413L345.58 500.027L346.422 547.615L362.984 558.172L383.429 558.429L399.734 548.621L398.447 500.963L382.821 491.483L360.364 491.413ZM368.902 504.334H375.406L380.716 507.283L381.558 541.365L376.832 544.314L369.487 544.244L364.411 541.365L363.826 506.955L368.902 504.334Z" fill="white" stroke="white" stroke-width="0.319612"/>
<path fill-rule="evenodd" clip-rule="evenodd" d="M430.643 493.938L414.086 492.417L415.522 556.405L461.898 558.856V548.797L432.586 547.022L430.643 493.938Z" fill="white" stroke="white" stroke-width="0.319612"/>
<path fill-rule="evenodd" clip-rule="evenodd" d="M480.397 498.503L464.178 497.066L465.614 558.856L511.736 564.451L511.483 552.77L482.17 550.403L480.397 498.503Z" fill="white" stroke="white" stroke-width="0.319612"/>
<path fill-rule="evenodd" clip-rule="evenodd" d="M516.297 565.364L529.898 569.76H535.473L534.882 548.797L548.735 504.166L532.516 502.645L524.491 529.271L514.439 501.123L497.629 499.686L515.368 547.022L516.297 565.364Z" fill="white" stroke="white" stroke-width="0.319612"/>
<path fill-rule="evenodd" clip-rule="evenodd" d="M579.821 555.813L589.029 579.988L598.152 580.326L607.106 516L594.097 515.408L590.803 539.668L582.187 514.563L573.401 513.887L571.29 538.231L566.306 513.633L550.256 512.196L563.011 578.044L573.064 578.889L579.821 555.813Z" fill="white" stroke="white" stroke-width="0.319612"/>
<path fill-rule="evenodd" clip-rule="evenodd" d="M630.245 519.221L616.303 527.742L618.759 573.644L634.385 583.358L653.052 583.967L667.836 575.33L665.731 529.521L650.362 519.713L630.245 519.221ZM637.684 531.885H644.444L648.912 534.858L650.947 567.98L646.479 570.601L639.719 570.344L634.736 567.137L633.216 534.015L637.684 531.885Z" fill="white" stroke="white" stroke-width="0.319612"/>
<path fill-rule="evenodd" clip-rule="evenodd" d="M691.416 523.528L678.41 532.142L680.515 578.045L695.884 588.016L716.493 588.601L729.499 580.081L726.646 534.764L711.511 525.049L691.416 523.528ZM698.855 536.87L705.358 537.128L710.341 539.843L712.704 573.574L708.563 575.587L701.803 575.329L696.727 571.795L694.364 539.234L698.855 536.87Z" fill="white" stroke="white" stroke-width="0.319612"/>
<path fill-rule="evenodd" clip-rule="evenodd" d="M751.559 519.221L755.114 584.225L790.32 585.137L805.619 575.587L802.741 528.842L786.437 519.713L751.559 519.221ZM769.29 532.4L780.519 532.493L785.595 535.443L787.63 569.08L783.489 571.795L771.653 571.444L769.29 532.4Z" fill="white" stroke="white" stroke-width="0.319612"/>
</g>
<defs>
<linearGradient id="paint0_linear_20_2257" x1="528" y1="0" x2="528" y2="1080" gradientUnits="userSpaceOnUse">
<stop stop-color="white" stop-opacity="0"/>
<stop offset="1" stop-color="white"/>
</linearGradient>
<linearGradient id="paint1_linear_20_2257" x1="808.5" y1="-2.18556e-08" x2="808.5" y2="1080" gradientUnits="userSpaceOnUse">
<stop stop-color="#1DCC2F" stop-opacity="0"/>
<stop offset="1" stop-color="#1DCC2F"/>
</linearGradient>
<linearGradient id="paint2_linear_20_2257" x1="276.5" y1="-2.18556e-08" x2="276.5" y2="1080" gradientUnits="userSpaceOnUse">
<stop stop-color="#1DCC2F" stop-opacity="0"/>
<stop offset="1" stop-color="#1DCC2F"/>
</linearGradient>
<clipPath id="clip0_20_2257">
<rect width="1080" height="1080" fill="white"/>
</clipPath>
</defs>
</svg>
