<svg width="1080" height="1080" viewBox="0 0 1080 1080" fill="none" xmlns="http://www.w3.org/2000/svg">
<g clip-path="url(#clip0_39_2159)">
<path d="M36.4991 0L36.4991 1080M60.4992 0L60.4991 1080M84.4992 0L84.4992 1080M108.499 0L108.499 1080M132.499 0L132.499 1080M156.499 0L156.499 1080M180.499 0L180.499 1080M204.499 0L204.499 1080M228.499 0L228.499 1080M252.5 0L252.499 1080M276.5 0L276.5 1080M300.5 0L300.5 1080M324.5 0L324.5 1080M348.5 0L348.5 1080M372.5 0L372.5 1080M396.5 0L396.5 1080M420.5 0L420.5 1080M444.5 0L444.5 1080M468.5 0L468.5 1080M492.5 0L492.5 1080M516.5 0L516.5 1080M540.5 0L540.5 1080M564.5 0L564.5 1080M588.5 0L588.5 1080M612.5 0L612.5 1080M636.5 0L636.5 1080M660.501 0L660.5 1080M684.501 0L684.501 1080M708.501 0L708.501 1080M732.501 0L732.501 1080M756.501 0L756.501 1080M780.501 0L780.501 1080M804.501 0L804.501 1080M828.501 0L828.501 1080M852.501 0L852.501 1080M876.501 0L876.501 1080M900.501 0L900.501 1080M924.501 0L924.501 1080M948.501 0L948.501 1080M972.501 0L972.501 1080M996.501 0L996.501 1080M1020.5 0L1020.5 1080M1044.5 0V1080M1080 36.499L4.40612e-05 36.4989M1080 60.4991L4.30121e-05 60.499M1080 84.4991L4.1963e-05 84.499M1080 108.499L4.0914e-05 108.499M1080 132.499L3.98649e-05 132.499M1080 156.499L3.88158e-05 156.499M1080 180.499L3.77667e-05 180.499M1080 204.499L3.67177e-05 204.499M1080 228.499L3.56686e-05 228.499M1080 252.499L3.46195e-05 252.499M1080 276.5L3.35704e-05 276.499M1080 300.5L3.25213e-05 300.499M1080 324.5L3.14723e-05 324.5M1080 348.5L3.04232e-05 348.5M1080 372.5L2.93741e-05 372.5M1080 396.5L2.8325e-05 396.5M1080 420.5L2.7276e-05 420.5M1080 444.5L2.62269e-05 444.5M1080 468.5L2.51778e-05 468.5M1080 492.5L2.41287e-05 492.5M1080 516.5L2.30797e-05 516.5M1080 540.5L2.20306e-05 540.5M1080 564.5L2.09815e-05 564.5M1080 588.5L1.99324e-05 588.5M1080 612.5L1.88834e-05 612.5M1080 636.5L1.78343e-05 636.5M1080 660.5L1.67852e-05 660.5M1080 684.5L1.57361e-05 684.5M1080 708.501L1.46871e-05 708.5M1080 732.501L1.3638e-05 732.501M1080 756.501L1.25889e-05 756.501M1080 780.501L1.15398e-05 780.501M1080 804.501L1.04908e-05 804.501M1080 828.501L9.44168e-06 828.501M1080 852.501L8.3926e-06 852.501M1080 876.501L7.34353e-06 876.501M1080 900.501L6.29445e-06 900.501M1080 924.501L5.24538e-06 924.501M1080 948.501L4.1963e-06 948.501M1080 972.501L3.14722e-06 972.501M1080 996.501L2.09815e-06 996.501M1080 1020.5L1.04907e-06 1020.5M1080 1044.5L0 1044.5" stroke="url(#paint0_linear_39_2159)" stroke-opacity="0.15"/>
<rect width="1080" height="1080" fill="url(#paint1_radial_39_2159)"/>
<g filter="url(#filter0_dddddd_39_2159)">
<rect x="456" y="444" width="169" height="169" rx="24" fill="url(#paint2_linear_39_2159)"/>
<rect x="456.5" y="444.5" width="168" height="168" rx="23.5" stroke="#EA0F3D"/>
<g filter="url(#filter1_dddddd_39_2159)">
<path d="M494.282 565V553.24H510.746V515.804H497.222V504.044H507.806C509.766 504.044 510.746 503.064 510.746 501.104V496.4H522.996V553.24H538.48V565H494.282ZM567.156 565.98C562.517 565.98 558.499 565.065 555.102 563.236C551.77 561.341 549.157 558.891 547.262 555.886C545.367 552.815 544.224 549.483 543.832 545.89H556.082C556.539 548.438 557.813 550.529 559.904 552.162C561.995 553.73 564.445 554.514 567.254 554.514C570.521 554.514 573.134 553.469 575.094 551.378C577.119 549.222 578.132 546.347 578.132 542.754C578.132 539.291 577.087 536.482 574.996 534.326C572.905 532.105 570.259 530.994 567.058 530.994C565.098 530.994 563.236 531.419 561.472 532.268C559.773 533.117 558.401 534.293 557.356 535.796H544.91L548.83 496.4H586.56V508.16H559.12L557.552 522.958H558.042C560.851 520.933 564.543 519.92 569.116 519.92C573.232 519.92 576.891 520.9 580.092 522.86C583.359 524.755 585.874 527.433 587.638 530.896C589.467 534.359 590.382 538.279 590.382 542.656C590.382 547.229 589.402 551.28 587.442 554.808C585.547 558.336 582.836 561.08 579.308 563.04C575.845 565 571.795 565.98 567.156 565.98Z" fill="url(#paint3_linear_39_2159)"/>
</g>
</g>
<g filter="url(#filter2_dddddd_39_2159)">
<path d="M669.048 466.864H658.464V449.028H642V438.934H658.464V421H669.048V438.934H685.414V449.028H669.048V466.864Z" fill="url(#paint4_linear_39_2159)"/>
</g>
</g>
<defs>
<filter id="filter0_dddddd_39_2159" x="376" y="444" width="329" height="349" filterUnits="userSpaceOnUse" color-interpolation-filters="sRGB">
<feFlood flood-opacity="0" result="BackgroundImageFix"/>
<feColorMatrix in="SourceAlpha" type="matrix" values="0 0 0 0 0 0 0 0 0 0 0 0 0 0 0 0 0 0 127 0" result="hardAlpha"/>
<feOffset dy="2.76726"/>
<feGaussianBlur stdDeviation="1.1069"/>
<feColorMatrix type="matrix" values="0 0 0 0 0 0 0 0 0 0 0 0 0 0 0 0 0 0 0.08 0"/>
<feBlend mode="normal" in2="BackgroundImageFix" result="effect1_dropShadow_39_2159"/>
<feColorMatrix in="SourceAlpha" type="matrix" values="0 0 0 0 0 0 0 0 0 0 0 0 0 0 0 0 0 0 127 0" result="hardAlpha"/>
<feOffset dy="6.6501"/>
<feGaussianBlur stdDeviation="2.66004"/>
<feColorMatrix type="matrix" values="0 0 0 0 0 0 0 0 0 0 0 0 0 0 0 0 0 0 0.0575083 0"/>
<feBlend mode="normal" in2="effect1_dropShadow_39_2159" result="effect2_dropShadow_39_2159"/>
<feColorMatrix in="SourceAlpha" type="matrix" values="0 0 0 0 0 0 0 0 0 0 0 0 0 0 0 0 0 0 127 0" result="hardAlpha"/>
<feOffset dy="12.5216"/>
<feGaussianBlur stdDeviation="5.00862"/>
<feColorMatrix type="matrix" values="0 0 0 0 0 0 0 0 0 0 0 0 0 0 0 0 0 0 0.0476886 0"/>
<feBlend mode="normal" in2="effect2_dropShadow_39_2159" result="effect3_dropShadow_39_2159"/>
<feColorMatrix in="SourceAlpha" type="matrix" values="0 0 0 0 0 0 0 0 0 0 0 0 0 0 0 0 0 0 127 0" result="hardAlpha"/>
<feOffset dy="22.3363"/>
<feGaussianBlur stdDeviation="8.93452"/>
<feColorMatrix type="matrix" values="0 0 0 0 0 0 0 0 0 0 0 0 0 0 0 0 0 0 0.04 0"/>
<feBlend mode="normal" in2="effect3_dropShadow_39_2159" result="effect4_dropShadow_39_2159"/>
<feColorMatrix in="SourceAlpha" type="matrix" values="0 0 0 0 0 0 0 0 0 0 0 0 0 0 0 0 0 0 127 0" result="hardAlpha"/>
<feOffset dy="41.7776"/>
<feGaussianBlur stdDeviation="16.711"/>
<feColorMatrix type="matrix" values="0 0 0 0 0 0 0 0 0 0 0 0 0 0 0 0 0 0 0.0323114 0"/>
<feBlend mode="normal" in2="effect4_dropShadow_39_2159" result="effect5_dropShadow_39_2159"/>
<feColorMatrix in="SourceAlpha" type="matrix" values="0 0 0 0 0 0 0 0 0 0 0 0 0 0 0 0 0 0 127 0" result="hardAlpha"/>
<feOffset dy="100"/>
<feGaussianBlur stdDeviation="40"/>
<feColorMatrix type="matrix" values="0 0 0 0 0 0 0 0 0 0 0 0 0 0 0 0 0 0 0.0224916 0"/>
<feBlend mode="normal" in2="effect5_dropShadow_39_2159" result="effect6_dropShadow_39_2159"/>
<feBlend mode="normal" in="SourceGraphic" in2="effect6_dropShadow_39_2159" result="shape"/>
</filter>
<filter id="filter1_dddddd_39_2159" x="436.283" y="476.4" width="212.1" height="185.58" filterUnits="userSpaceOnUse" color-interpolation-filters="sRGB">
<feFlood flood-opacity="0" result="BackgroundImageFix"/>
<feColorMatrix in="SourceAlpha" type="matrix" values="0 0 0 0 0 0 0 0 0 0 0 0 0 0 0 0 0 0 127 0" result="hardAlpha"/>
<feOffset dy="1.05156"/>
<feGaussianBlur stdDeviation="0.802504"/>
<feColorMatrix type="matrix" values="0 0 0 0 0 0 0 0 0 0 0 0 0 0 0 0 0 0 0.0646635 0"/>
<feBlend mode="normal" in2="BackgroundImageFix" result="effect1_dropShadow_39_2159"/>
<feColorMatrix in="SourceAlpha" type="matrix" values="0 0 0 0 0 0 0 0 0 0 0 0 0 0 0 0 0 0 127 0" result="hardAlpha"/>
<feOffset dy="2.52704"/>
<feGaussianBlur stdDeviation="1.92853"/>
<feColorMatrix type="matrix" values="0 0 0 0 0 0 0 0 0 0 0 0 0 0 0 0 0 0 0.0928953 0"/>
<feBlend mode="normal" in2="effect1_dropShadow_39_2159" result="effect2_dropShadow_39_2159"/>
<feColorMatrix in="SourceAlpha" type="matrix" values="0 0 0 0 0 0 0 0 0 0 0 0 0 0 0 0 0 0 127 0" result="hardAlpha"/>
<feOffset dy="4.75819"/>
<feGaussianBlur stdDeviation="3.63125"/>
<feColorMatrix type="matrix" values="0 0 0 0 0 0 0 0 0 0 0 0 0 0 0 0 0 0 0.115 0"/>
<feBlend mode="normal" in2="effect2_dropShadow_39_2159" result="effect3_dropShadow_39_2159"/>
<feColorMatrix in="SourceAlpha" type="matrix" values="0 0 0 0 0 0 0 0 0 0 0 0 0 0 0 0 0 0 127 0" result="hardAlpha"/>
<feOffset dy="8.4878"/>
<feGaussianBlur stdDeviation="6.47753"/>
<feColorMatrix type="matrix" values="0 0 0 0 0 0 0 0 0 0 0 0 0 0 0 0 0 0 0.137105 0"/>
<feBlend mode="normal" in2="effect3_dropShadow_39_2159" result="effect4_dropShadow_39_2159"/>
<feColorMatrix in="SourceAlpha" type="matrix" values="0 0 0 0 0 0 0 0 0 0 0 0 0 0 0 0 0 0 127 0" result="hardAlpha"/>
<feOffset dy="15.8755"/>
<feGaussianBlur stdDeviation="12.1155"/>
<feColorMatrix type="matrix" values="0 0 0 0 0 0 0 0 0 0 0 0 0 0 0 0 0 0 0.165337 0"/>
<feBlend mode="normal" in2="effect4_dropShadow_39_2159" result="effect5_dropShadow_39_2159"/>
<feColorMatrix in="SourceAlpha" type="matrix" values="0 0 0 0 0 0 0 0 0 0 0 0 0 0 0 0 0 0 127 0" result="hardAlpha"/>
<feOffset dy="38"/>
<feGaussianBlur stdDeviation="29"/>
<feColorMatrix type="matrix" values="0 0 0 0 0 0 0 0 0 0 0 0 0 0 0 0 0 0 0.23 0"/>
<feBlend mode="normal" in2="effect5_dropShadow_39_2159" result="effect6_dropShadow_39_2159"/>
<feBlend mode="normal" in="SourceGraphic" in2="effect6_dropShadow_39_2159" result="shape"/>
</filter>
<filter id="filter2_dddddd_39_2159" x="584" y="401" width="159.414" height="161.864" filterUnits="userSpaceOnUse" color-interpolation-filters="sRGB">
<feFlood flood-opacity="0" result="BackgroundImageFix"/>
<feColorMatrix in="SourceAlpha" type="matrix" values="0 0 0 0 0 0 0 0 0 0 0 0 0 0 0 0 0 0 127 0" result="hardAlpha"/>
<feOffset dy="1.05156"/>
<feGaussianBlur stdDeviation="0.802504"/>
<feColorMatrix type="matrix" values="0 0 0 0 0 0 0 0 0 0 0 0 0 0 0 0 0 0 0.0646635 0"/>
<feBlend mode="normal" in2="BackgroundImageFix" result="effect1_dropShadow_39_2159"/>
<feColorMatrix in="SourceAlpha" type="matrix" values="0 0 0 0 0 0 0 0 0 0 0 0 0 0 0 0 0 0 127 0" result="hardAlpha"/>
<feOffset dy="2.52704"/>
<feGaussianBlur stdDeviation="1.92853"/>
<feColorMatrix type="matrix" values="0 0 0 0 0 0 0 0 0 0 0 0 0 0 0 0 0 0 0.0928953 0"/>
<feBlend mode="normal" in2="effect1_dropShadow_39_2159" result="effect2_dropShadow_39_2159"/>
<feColorMatrix in="SourceAlpha" type="matrix" values="0 0 0 0 0 0 0 0 0 0 0 0 0 0 0 0 0 0 127 0" result="hardAlpha"/>
<feOffset dy="4.75819"/>
<feGaussianBlur stdDeviation="3.63125"/>
<feColorMatrix type="matrix" values="0 0 0 0 0 0 0 0 0 0 0 0 0 0 0 0 0 0 0.115 0"/>
<feBlend mode="normal" in2="effect2_dropShadow_39_2159" result="effect3_dropShadow_39_2159"/>
<feColorMatrix in="SourceAlpha" type="matrix" values="0 0 0 0 0 0 0 0 0 0 0 0 0 0 0 0 0 0 127 0" result="hardAlpha"/>
<feOffset dy="8.4878"/>
<feGaussianBlur stdDeviation="6.47753"/>
<feColorMatrix type="matrix" values="0 0 0 0 0 0 0 0 0 0 0 0 0 0 0 0 0 0 0.137105 0"/>
<feBlend mode="normal" in2="effect3_dropShadow_39_2159" result="effect4_dropShadow_39_2159"/>
<feColorMatrix in="SourceAlpha" type="matrix" values="0 0 0 0 0 0 0 0 0 0 0 0 0 0 0 0 0 0 127 0" result="hardAlpha"/>
<feOffset dy="15.8755"/>
<feGaussianBlur stdDeviation="12.1155"/>
<feColorMatrix type="matrix" values="0 0 0 0 0 0 0 0 0 0 0 0 0 0 0 0 0 0 0.165337 0"/>
<feBlend mode="normal" in2="effect4_dropShadow_39_2159" result="effect5_dropShadow_39_2159"/>
<feColorMatrix in="SourceAlpha" type="matrix" values="0 0 0 0 0 0 0 0 0 0 0 0 0 0 0 0 0 0 127 0" result="hardAlpha"/>
<feOffset dy="38"/>
<feGaussianBlur stdDeviation="29"/>
<feColorMatrix type="matrix" values="0 0 0 0 0 0 0 0 0 0 0 0 0 0 0 0 0 0 0.23 0"/>
<feBlend mode="normal" in2="effect5_dropShadow_39_2159" result="effect6_dropShadow_39_2159"/>
<feBlend mode="normal" in="SourceGraphic" in2="effect6_dropShadow_39_2159" result="shape"/>
</filter>
<linearGradient id="paint0_linear_39_2159" x1="13" y1="-46" x2="1093.5" y2="1080" gradientUnits="userSpaceOnUse">
<stop offset="0.289749" stop-color="white" stop-opacity="0"/>
<stop offset="1" stop-color="white"/>
</linearGradient>
<radialGradient id="paint1_radial_39_2159" cx="0" cy="0" r="1" gradientUnits="userSpaceOnUse" gradientTransform="translate(1080 1103.5) rotate(-133.316) scale(1683.48)">
<stop stop-color="#F6355E" stop-opacity="0.25"/>
<stop offset="0.602101" stop-color="#F6355E" stop-opacity="0"/>
</radialGradient>
<linearGradient id="paint2_linear_39_2159" x1="540.5" y1="444" x2="540.5" y2="613" gradientUnits="userSpaceOnUse">
<stop stop-color="#FF0E41"/>
<stop offset="1" stop-color="#FF3862"/>
</linearGradient>
<linearGradient id="paint3_linear_39_2159" x1="540.5" y1="464" x2="540.5" y2="593" gradientUnits="userSpaceOnUse">
<stop stop-color="white"/>
<stop offset="0.421421" stop-color="#F0F0F0"/>
<stop offset="0.827347" stop-color="#BABCBD"/>
<stop offset="1" stop-color="#F2F2F2"/>
</linearGradient>
<linearGradient id="paint4_linear_39_2159" x1="663.707" y1="421" x2="663.707" y2="466.864" gradientUnits="userSpaceOnUse">
<stop stop-color="white"/>
<stop offset="0.421421" stop-color="#F0F0F0"/>
<stop offset="0.827347" stop-color="#BABCBD"/>
<stop offset="1" stop-color="#F2F2F2"/>
</linearGradient>
<clipPath id="clip0_39_2159">
<rect width="1080" height="1080" fill="white"/>
</clipPath>
</defs>
</svg>
