<svg width="1080" height="1080" viewBox="0 0 1080 1080" fill="none" xmlns="http://www.w3.org/2000/svg">
<g clip-path="url(#clip0_21_2478)">
<path d="M24.5001 0L24.5 1080M48.5001 0L48.5001 1080M72.5002 0L72.5001 1080M96.5002 0L96.5002 1080M120.5 0L120.5 1080M144.5 0L144.5 1080M168.5 0L168.5 1080M192.5 0L192.5 1080M216.5 0L216.5 1080M240.501 0L240.5 1080M264.501 0L264.501 1080M288.501 0L288.501 1080M312.501 0L312.501 1080M336.501 0L336.501 1080M360.501 0L360.501 1080M384.501 0L384.501 1080M408.501 0L408.501 1080M432.501 0L432.501 1080M456.501 0L456.501 1080M480.501 0L480.501 1080M504.501 0L504.501 1080M528.501 0L528.501 1080M552.501 0L552.501 1080M576.501 0L576.501 1080M600.501 0L600.501 1080M624.501 0L624.501 1080M648.502 0L648.501 1080M672.502 0L672.502 1080M696.502 0L696.502 1080M720.502 0L720.502 1080M744.502 0L744.502 1080M768.502 0L768.502 1080M792.502 0L792.502 1080M816.502 0L816.502 1080M840.502 0L840.502 1080M864.502 0L864.502 1080M888.502 0L888.502 1080M912.502 0L912.502 1080M936.502 0L936.502 1080M960.502 0L960.502 1080M984.502 0L984.502 1080M1008.5 0L1008.5 1080M1032.5 0V1080M1068 36.499L-11.999 36.4989M1068 60.4991L-11.999 60.499M1068 84.4991L-11.999 84.499M1068 108.499L-11.999 108.499M1068 132.499L-11.999 132.499M1068 156.499L-11.999 156.499M1068 180.499L-11.999 180.499M1068 204.499L-11.999 204.499M1068 228.499L-11.999 228.499M1068 252.499L-11.999 252.499M1068 276.5L-11.999 276.499M1068 300.5L-11.999 300.499M1068 324.5L-11.999 324.5M1068 348.5L-11.999 348.5M1068 372.5L-11.999 372.5M1068 396.5L-11.999 396.5M1068 420.5L-11.999 420.5M1068 444.5L-11.999 444.5M1068 468.5L-11.999 468.5M1068 492.5L-11.999 492.5M1068 516.5L-11.999 516.5M1068 540.5L-11.999 540.5M1068 564.5L-11.999 564.5M1068 588.5L-11.999 588.5M1068 612.5L-11.999 612.5M1068 636.5L-11.999 636.5M1068 660.5L-11.999 660.5M1068 684.5L-11.999 684.5M1068 708.501L-11.999 708.5M1068 732.501L-11.999 732.501M1068 756.501L-11.999 756.501M1068 780.501L-11.999 780.501M1068 804.501L-11.999 804.501M1068 828.501L-11.999 828.501M1068 852.501L-11.999 852.501M1068 876.501L-11.999 876.501M1068 900.501L-11.999 900.501M1068 924.501L-11.999 924.501M1068 948.501L-11.999 948.501M1068 972.501L-11.999 972.501M1068 996.501L-11.999 996.501M1068 1020.5L-11.999 1020.5M1068 1044.5L-11.999 1044.5" stroke="url(#paint0_linear_21_2478)" stroke-opacity="0.15"/>
<rect x="282" y="500" width="517" height="81" rx="21" stroke="white" stroke-width="6"/>
<path d="M331.991 527.998C332.745 526.602 333.554 525.438 334.778 524.412C337.033 522.521 339.862 521.774 342.763 522.059C345.768 522.353 348.447 523.899 350.352 526.238C352.425 528.783 353.267 532.056 352.927 535.307C352.194 542.306 346.805 547.401 341.676 551.603C338.612 554.227 335.293 556.611 332.047 559C331.353 558.575 330.689 558.082 330.026 557.609C325.133 554.116 318.229 548.848 314.644 543.985C312.954 541.691 311.632 538.997 311.174 536.161C310.646 532.894 311.313 529.429 313.258 526.724C315.112 524.145 317.835 522.61 320.927 522.111C322.358 521.967 323.841 522.019 325.236 522.39C328.341 523.215 330.429 525.261 331.991 527.998Z" fill="url(#paint1_linear_21_2478)"/>
<line x1="388" y1="497" x2="388" y2="584" stroke="white" stroke-width="6"/>
<path d="M441.722 547.432V553.288L420.842 544.6V539.176L441.722 530.488V536.344L427.514 541.864L441.722 547.432ZM469.639 549.112H465.511L464.455 539.944V525.4H470.695V539.944L469.639 549.112ZM470.695 559H464.455V552.76H470.695V559ZM492.084 559V525.4H500.484C503.492 525.4 506.164 526.12 508.5 527.56C510.836 529 512.644 531 513.924 533.56C515.236 536.088 515.892 538.968 515.892 542.2C515.892 545.432 515.236 548.328 513.924 550.888C512.644 553.416 510.836 555.4 508.5 556.84C506.164 558.28 503.492 559 500.484 559H492.084ZM500.484 553.24C503.428 553.24 505.732 552.232 507.396 550.216C509.06 548.2 509.892 545.528 509.892 542.2C509.892 538.872 509.06 536.2 507.396 534.184C505.732 532.168 503.428 531.16 500.484 531.16H498.084V553.24H500.484ZM539.538 559.48C537.106 559.48 534.93 558.744 533.01 557.272C531.122 555.768 529.634 553.704 528.546 551.08C527.49 548.456 526.962 545.496 526.962 542.2C526.962 538.904 527.49 535.944 528.546 533.32C529.634 530.696 531.122 528.648 533.01 527.176C534.93 525.672 537.106 524.92 539.538 524.92C541.97 524.92 544.13 525.672 546.018 527.176C547.938 528.648 549.426 530.696 550.482 533.32C551.57 535.944 552.114 538.904 552.114 542.2C552.114 545.496 551.57 548.456 550.482 551.08C549.426 553.704 547.938 555.768 546.018 557.272C544.13 558.744 541.97 559.48 539.538 559.48ZM539.538 553.72C541.554 553.72 543.154 552.68 544.338 550.6C545.522 548.488 546.114 545.688 546.114 542.2C546.114 538.712 545.522 535.928 544.338 533.848C543.154 531.736 541.554 530.68 539.538 530.68C537.522 530.68 535.922 531.736 534.738 533.848C533.554 535.928 532.962 538.712 532.962 542.2C532.962 545.688 533.554 548.488 534.738 550.6C535.922 552.68 537.522 553.72 539.538 553.72ZM575.663 559.48C573.231 559.48 571.055 558.744 569.135 557.272C567.215 555.8 565.711 553.752 564.623 551.128C563.535 548.504 562.991 545.528 562.991 542.2C562.991 538.872 563.535 535.896 564.623 533.272C565.711 530.648 567.215 528.6 569.135 527.128C571.055 525.656 573.231 524.92 575.663 524.92C578.927 524.92 581.663 526.04 583.871 528.28C586.079 530.488 587.487 533.48 588.095 537.256H582.095C581.615 535.144 580.815 533.528 579.695 532.408C578.607 531.256 577.263 530.68 575.663 530.68C573.647 530.68 572.031 531.72 570.815 533.8C569.599 535.88 568.991 538.68 568.991 542.2C568.991 545.72 569.599 548.52 570.815 550.6C572.031 552.68 573.647 553.72 575.663 553.72C577.295 553.72 578.655 553.144 579.743 551.992C580.831 550.808 581.615 549.112 582.095 546.904H588.095C587.423 550.776 585.983 553.848 583.775 556.12C581.567 558.36 578.863 559.48 575.663 559.48ZM620.812 559H602.188V553.384H608.572V531.016H603.628V538.888H598.108V525.4H624.892V538.888H619.372V531.016H614.428V553.384H620.812V559ZM656.409 559H638.601V553.24H644.505V546.136L635.145 525.4H641.385L647.289 538.936H647.769L653.577 525.4H659.817L650.505 546.136V553.24H656.409V559ZM673.095 559V525.4H684.423C686.535 525.4 688.391 525.864 689.991 526.792C691.623 527.72 692.887 529.032 693.783 530.728C694.711 532.392 695.175 534.344 695.175 536.584C695.175 538.824 694.711 540.792 693.783 542.488C692.887 544.152 691.623 545.448 689.991 546.376C688.391 547.304 686.535 547.768 684.423 547.768H679.095V559H673.095ZM683.991 542.008C685.559 542.008 686.807 541.528 687.735 540.568C688.695 539.576 689.175 538.248 689.175 536.584C689.175 534.92 688.695 533.608 687.735 532.648C686.807 531.656 685.559 531.16 683.991 531.16H679.095V542.008H683.991ZM729.86 559H709.268V525.4H729.86V531.016H715.268V539.464H728.756V544.888H715.268V553.384H729.86V559ZM766.177 544.6L745.297 553.288V547.432L759.505 541.864L745.297 536.344V530.488L766.177 539.176V544.6Z" fill="white"/>
</g>
<defs>
<linearGradient id="paint0_linear_21_2478" x1="528.001" y1="0" x2="528.001" y2="1080" gradientUnits="userSpaceOnUse">
<stop stop-color="white" stop-opacity="0"/>
<stop offset="1" stop-color="white"/>
</linearGradient>
<linearGradient id="paint1_linear_21_2478" x1="332" y1="522" x2="332" y2="559" gradientUnits="userSpaceOnUse">
<stop stop-color="#FF0E41"/>
<stop offset="1" stop-color="#FF3862"/>
</linearGradient>
<clipPath id="clip0_21_2478">
<rect width="1080" height="1080" fill="white"/>
</clipPath>
</defs>
</svg>
