<svg width="1080" height="1080" viewBox="0 0 1080 1080" fill="none" xmlns="http://www.w3.org/2000/svg">
<g clip-path="url(#clip0_25_1272)">
<path d="M24.5001 0L24.5 1080M48.5001 0L48.5001 1080M72.5002 0L72.5001 1080M96.5002 0L96.5002 1080M120.5 0L120.5 1080M144.5 0L144.5 1080M168.5 0L168.5 1080M192.5 0L192.5 1080M216.5 0L216.5 1080M240.501 0L240.5 1080M264.501 0L264.501 1080M288.501 0L288.501 1080M312.501 0L312.501 1080M336.501 0L336.501 1080M360.501 0L360.501 1080M384.501 0L384.501 1080M408.501 0L408.501 1080M432.501 0L432.501 1080M456.501 0L456.501 1080M480.501 0L480.501 1080M504.501 0L504.501 1080M528.501 0L528.501 1080M552.501 0L552.501 1080M576.501 0L576.501 1080M600.501 0L600.501 1080M624.501 0L624.501 1080M648.502 0L648.501 1080M672.502 0L672.502 1080M696.502 0L696.502 1080M720.502 0L720.502 1080M744.502 0L744.502 1080M768.502 0L768.502 1080M792.502 0L792.502 1080M816.502 0L816.502 1080M840.502 0L840.502 1080M864.502 0L864.502 1080M888.502 0L888.502 1080M912.502 0L912.502 1080M936.502 0L936.502 1080M960.502 0L960.502 1080M984.502 0L984.502 1080M1008.5 0L1008.5 1080M1032.5 0V1080M1068 36.499L-11.999 36.4989M1068 60.4991L-11.999 60.499M1068 84.4991L-11.999 84.499M1068 108.499L-11.999 108.499M1068 132.499L-11.999 132.499M1068 156.499L-11.999 156.499M1068 180.499L-11.999 180.499M1068 204.499L-11.999 204.499M1068 228.499L-11.999 228.499M1068 252.499L-11.999 252.499M1068 276.5L-11.999 276.499M1068 300.5L-11.999 300.499M1068 324.5L-11.999 324.5M1068 348.5L-11.999 348.5M1068 372.5L-11.999 372.5M1068 396.5L-11.999 396.5M1068 420.5L-11.999 420.5M1068 444.5L-11.999 444.5M1068 468.5L-11.999 468.5M1068 492.5L-11.999 492.5M1068 516.5L-11.999 516.5M1068 540.5L-11.999 540.5M1068 564.5L-11.999 564.5M1068 588.5L-11.999 588.5M1068 612.5L-11.999 612.5M1068 636.5L-11.999 636.5M1068 660.5L-11.999 660.5M1068 684.5L-11.999 684.5M1068 708.501L-11.999 708.5M1068 732.501L-11.999 732.501M1068 756.501L-11.999 756.501M1068 780.501L-11.999 780.501M1068 804.501L-11.999 804.501M1068 828.501L-11.999 828.501M1068 852.501L-11.999 852.501M1068 876.501L-11.999 876.501M1068 900.501L-11.999 900.501M1068 924.501L-11.999 924.501M1068 948.501L-11.999 948.501M1068 972.501L-11.999 972.501M1068 996.501L-11.999 996.501M1068 1020.5L-11.999 1020.5M1068 1044.5L-11.999 1044.5" stroke="url(#paint0_linear_25_1272)" stroke-opacity="0.15"/>
<rect x="459" y="447" width="163" height="163" rx="21" stroke="white" stroke-width="6"/>
<g filter="url(#filter0_dddddd_25_1272)">
<path fill-rule="evenodd" clip-rule="evenodd" d="M510.993 495.159C506.5 499.648 506.5 506.878 506.5 521.333V536.667C506.5 551.122 506.5 558.352 510.993 562.84C515.485 567.329 522.711 567.333 537.167 567.333H544.833C559.289 567.333 566.518 567.333 571.007 562.84C575.496 558.348 575.5 551.122 575.5 536.667V521.333C575.5 506.878 575.5 499.648 571.007 495.159C566.515 490.67 559.289 490.667 544.833 490.667H537.167C522.711 490.667 515.481 490.667 510.993 495.159ZM525.667 518.458C524.904 518.458 524.173 518.761 523.634 519.3C523.095 519.839 522.792 520.571 522.792 521.333C522.792 522.096 523.095 522.827 523.634 523.366C524.173 523.905 524.904 524.208 525.667 524.208H556.333C557.096 524.208 557.827 523.905 558.366 523.366C558.905 522.827 559.208 522.096 559.208 521.333C559.208 520.571 558.905 519.839 558.366 519.3C557.827 518.761 557.096 518.458 556.333 518.458H525.667ZM525.667 533.792C524.904 533.792 524.173 534.094 523.634 534.634C523.095 535.173 522.792 535.904 522.792 536.667C522.792 537.429 523.095 538.16 523.634 538.699C524.173 539.239 524.904 539.542 525.667 539.542H544.833C545.596 539.542 546.327 539.239 546.866 538.699C547.405 538.16 547.708 537.429 547.708 536.667C547.708 535.904 547.405 535.173 546.866 534.634C546.327 534.094 545.596 533.792 544.833 533.792H525.667Z" fill="url(#paint1_linear_25_1272)"/>
</g>
<line x1="456" y1="1080" x2="456" y2="4.37115e-08" stroke="url(#paint2_linear_25_1272)" stroke-width="2"/>
<line x1="624" y1="1080" x2="624" y2="4.37115e-08" stroke="url(#paint3_linear_25_1272)" stroke-width="2"/>
</g>
<defs>
<filter id="filter0_dddddd_25_1272" x="415" y="483" width="252" height="272" filterUnits="userSpaceOnUse" color-interpolation-filters="sRGB">
<feFlood flood-opacity="0" result="BackgroundImageFix"/>
<feColorMatrix in="SourceAlpha" type="matrix" values="0 0 0 0 0 0 0 0 0 0 0 0 0 0 0 0 0 0 127 0" result="hardAlpha"/>
<feOffset dy="2.76726"/>
<feGaussianBlur stdDeviation="1.1069"/>
<feColorMatrix type="matrix" values="0 0 0 0 0 0 0 0 0 0 0 0 0 0 0 0 0 0 0.07 0"/>
<feBlend mode="normal" in2="BackgroundImageFix" result="effect1_dropShadow_25_1272"/>
<feColorMatrix in="SourceAlpha" type="matrix" values="0 0 0 0 0 0 0 0 0 0 0 0 0 0 0 0 0 0 127 0" result="hardAlpha"/>
<feOffset dy="6.6501"/>
<feGaussianBlur stdDeviation="2.66004"/>
<feColorMatrix type="matrix" values="0 0 0 0 0 0 0 0 0 0 0 0 0 0 0 0 0 0 0.0503198 0"/>
<feBlend mode="normal" in2="effect1_dropShadow_25_1272" result="effect2_dropShadow_25_1272"/>
<feColorMatrix in="SourceAlpha" type="matrix" values="0 0 0 0 0 0 0 0 0 0 0 0 0 0 0 0 0 0 127 0" result="hardAlpha"/>
<feOffset dy="12.5216"/>
<feGaussianBlur stdDeviation="5.00862"/>
<feColorMatrix type="matrix" values="0 0 0 0 0 0 0 0 0 0 0 0 0 0 0 0 0 0 0.0417275 0"/>
<feBlend mode="normal" in2="effect2_dropShadow_25_1272" result="effect3_dropShadow_25_1272"/>
<feColorMatrix in="SourceAlpha" type="matrix" values="0 0 0 0 0 0 0 0 0 0 0 0 0 0 0 0 0 0 127 0" result="hardAlpha"/>
<feOffset dy="22.3363"/>
<feGaussianBlur stdDeviation="8.93452"/>
<feColorMatrix type="matrix" values="0 0 0 0 0 0 0 0 0 0 0 0 0 0 0 0 0 0 0.035 0"/>
<feBlend mode="normal" in2="effect3_dropShadow_25_1272" result="effect4_dropShadow_25_1272"/>
<feColorMatrix in="SourceAlpha" type="matrix" values="0 0 0 0 0 0 0 0 0 0 0 0 0 0 0 0 0 0 127 0" result="hardAlpha"/>
<feOffset dy="41.7776"/>
<feGaussianBlur stdDeviation="16.711"/>
<feColorMatrix type="matrix" values="0 0 0 0 0 0 0 0 0 0 0 0 0 0 0 0 0 0 0.0282725 0"/>
<feBlend mode="normal" in2="effect4_dropShadow_25_1272" result="effect5_dropShadow_25_1272"/>
<feColorMatrix in="SourceAlpha" type="matrix" values="0 0 0 0 0 0 0 0 0 0 0 0 0 0 0 0 0 0 127 0" result="hardAlpha"/>
<feOffset dy="100"/>
<feGaussianBlur stdDeviation="40"/>
<feColorMatrix type="matrix" values="0 0 0 0 0 0 0 0 0 0 0 0 0 0 0 0 0 0 0.0196802 0"/>
<feBlend mode="normal" in2="effect5_dropShadow_25_1272" result="effect6_dropShadow_25_1272"/>
<feBlend mode="normal" in="SourceGraphic" in2="effect6_dropShadow_25_1272" result="shape"/>
</filter>
<linearGradient id="paint0_linear_25_1272" x1="528.001" y1="0" x2="528.001" y2="1080" gradientUnits="userSpaceOnUse">
<stop stop-color="white" stop-opacity="0"/>
<stop offset="1" stop-color="white"/>
</linearGradient>
<linearGradient id="paint1_linear_25_1272" x1="541" y1="490.667" x2="541" y2="567.333" gradientUnits="userSpaceOnUse">
<stop stop-color="white"/>
<stop offset="0.421421" stop-color="#F0F0F0"/>
<stop offset="0.827347" stop-color="#BABCBD"/>
<stop offset="1" stop-color="#F2F2F2"/>
</linearGradient>
<linearGradient id="paint2_linear_25_1272" x1="457.5" y1="-2.18556e-08" x2="457.5" y2="1080" gradientUnits="userSpaceOnUse">
<stop stop-color="#0EFFC7" stop-opacity="0"/>
<stop offset="1" stop-color="#0EFFC7"/>
</linearGradient>
<linearGradient id="paint3_linear_25_1272" x1="625.5" y1="-2.18556e-08" x2="625.5" y2="1080" gradientUnits="userSpaceOnUse">
<stop stop-color="#0EFFC7" stop-opacity="0"/>
<stop offset="1" stop-color="#0EFFC7"/>
</linearGradient>
<clipPath id="clip0_25_1272">
<rect width="1080" height="1080" fill="white"/>
</clipPath>
</defs>
</svg>
