<svg width="1080" height="1080" viewBox="0 0 1080 1080" fill="none" xmlns="http://www.w3.org/2000/svg">
<g clip-path="url(#clip0_25_1418)">
<path d="M24.4991 0L24.4991 1080M48.4992 0L48.4991 1080M72.4992 0L72.4992 1080M96.4993 0L96.4992 1080M120.499 0L120.499 1080M144.499 0L144.499 1080M168.499 0L168.499 1080M192.499 0L192.499 1080M216.499 0L216.499 1080M240.5 0L240.499 1080M264.5 0L264.5 1080M288.5 0L288.5 1080M312.5 0L312.5 1080M336.5 0L336.5 1080M360.5 0L360.5 1080M384.5 0L384.5 1080M408.5 0L408.5 1080M432.5 0L432.5 1080M456.5 0L456.5 1080M480.5 0L480.5 1080M504.5 0L504.5 1080M528.5 0L528.5 1080M552.5 0L552.5 1080M576.5 0L576.5 1080M600.5 0L600.5 1080M624.5 0L624.5 1080M648.501 0L648.5 1080M672.501 0L672.501 1080M696.501 0L696.501 1080M720.501 0L720.501 1080M744.501 0L744.501 1080M768.501 0L768.501 1080M792.501 0L792.501 1080M816.501 0L816.501 1080M840.501 0L840.501 1080M864.501 0L864.501 1080M888.501 0L888.501 1080M912.501 0L912.501 1080M936.501 0L936.501 1080M960.501 0L960.501 1080M984.501 0L984.501 1080M1008.5 0L1008.5 1080M1032.5 0V1080M1068 36.499L-12 36.4989M1068 60.4991L-12 60.499M1068 84.4991L-12 84.499M1068 108.499L-12 108.499M1068 132.499L-12 132.499M1068 156.499L-12 156.499M1068 180.499L-12 180.499M1068 204.499L-12 204.499M1068 228.499L-12 228.499M1068 252.499L-12 252.499M1068 276.5L-12 276.499M1068 300.5L-12 300.499M1068 324.5L-12 324.5M1068 348.5L-12 348.5M1068 372.5L-12 372.5M1068 396.5L-12 396.5M1068 420.5L-12 420.5M1068 444.5L-12 444.5M1068 468.5L-12 468.5M1068 492.5L-12 492.5M1068 516.5L-12 516.5M1068 540.5L-12 540.5M1068 564.5L-12 564.5M1068 588.5L-12 588.5M1068 612.5L-12 612.5M1068 636.5L-12 636.5M1068 660.5L-12 660.5M1068 684.5L-12 684.5M1068 708.501L-12 708.5M1068 732.501L-12 732.501M1068 756.501L-12 756.501M1068 780.501L-12 780.501M1068 804.501L-12 804.501M1068 828.501L-12 828.501M1068 852.501L-12 852.501M1068 876.501L-12 876.501M1068 900.501L-12 900.501M1068 924.501L-12 924.501M1068 948.501L-12 948.501M1068 972.501L-12 972.501M1068 996.501L-12 996.501M1068 1020.5L-12 1020.5M1068 1044.5L-12 1044.5" stroke="url(#paint0_linear_25_1418)" stroke-opacity="0.15"/>
<rect x="459" y="447" width="163" height="163" rx="21" stroke="white" stroke-width="6"/>
<path fill-rule="evenodd" clip-rule="evenodd" d="M578.667 528.333C578.667 549.505 561.505 566.667 540.333 566.667C534.2 566.667 528.404 565.225 523.267 562.665C521.911 561.962 520.344 561.781 518.863 562.155L510.33 564.44C509.485 564.665 508.596 564.664 507.752 564.437C506.908 564.21 506.138 563.766 505.52 563.147C504.902 562.529 504.458 561.759 504.232 560.915C504.005 560.07 504.005 559.181 504.231 558.337L506.512 549.804C506.884 548.323 506.701 546.758 505.998 545.403C503.359 540.1 501.991 534.256 502 528.333C502 507.162 519.162 490 540.333 490C561.505 490 578.667 507.162 578.667 528.333ZM553.865 518.635C554.403 519.174 554.706 519.905 554.706 520.667C554.706 521.429 554.403 522.159 553.865 522.698L538.532 538.032C538 538.564 537.28 538.867 536.528 538.875C535.775 538.883 535.05 538.595 534.507 538.074L526.84 530.714C526.29 530.185 525.973 529.46 525.957 528.697C525.95 528.319 526.017 527.944 526.155 527.592C526.292 527.24 526.498 526.919 526.76 526.647C527.021 526.374 527.334 526.156 527.68 526.005C528.026 525.853 528.399 525.772 528.776 525.764C529.539 525.749 530.277 526.037 530.827 526.566L536.462 531.975L549.802 518.635C550.341 518.097 551.072 517.794 551.833 517.794C552.595 517.794 553.326 518.097 553.865 518.635Z" fill="url(#paint1_linear_25_1418)"/>
<line x1="456" y1="1080" x2="456" y2="4.37115e-08" stroke="url(#paint2_linear_25_1418)" stroke-width="2"/>
<line x1="624" y1="1080" x2="624" y2="4.37115e-08" stroke="url(#paint3_linear_25_1418)" stroke-width="2"/>
<g filter="url(#filter0_d_25_1418)">
<path d="M634 647L627 615L656.5 631.5L642.5 634.5L634 647Z" fill="black"/>
<path d="M634 647L627 615L656.5 631.5L642.5 634.5L634 647Z" stroke="white" stroke-width="3"/>
</g>
<g filter="url(#filter1_d_25_1418)">
<rect x="656" y="647" width="120" height="37" rx="3" fill="black"/>
</g>
<path d="M680.02 662.435H676.832C676.741 661.912 676.574 661.449 676.329 661.045C676.085 660.636 675.781 660.29 675.417 660.006C675.054 659.722 674.639 659.509 674.173 659.366C673.713 659.219 673.216 659.145 672.682 659.145C671.733 659.145 670.892 659.384 670.159 659.861C669.426 660.332 668.852 661.026 668.437 661.94C668.023 662.849 667.815 663.96 667.815 665.273C667.815 666.608 668.023 667.733 668.437 668.648C668.858 669.557 669.432 670.244 670.159 670.71C670.892 671.17 671.73 671.401 672.673 671.401C673.196 671.401 673.685 671.332 674.139 671.196C674.599 671.054 675.011 670.847 675.375 670.574C675.744 670.301 676.054 669.966 676.304 669.568C676.56 669.17 676.736 668.716 676.832 668.205L680.02 668.222C679.9 669.051 679.642 669.83 679.244 670.557C678.852 671.284 678.338 671.926 677.702 672.483C677.065 673.034 676.321 673.466 675.469 673.778C674.616 674.085 673.67 674.239 672.631 674.239C671.096 674.239 669.727 673.884 668.523 673.173C667.318 672.463 666.369 671.438 665.676 670.097C664.983 668.756 664.636 667.148 664.636 665.273C664.636 663.392 664.986 661.784 665.685 660.449C666.383 659.108 667.335 658.082 668.54 657.372C669.744 656.662 671.108 656.307 672.631 656.307C673.602 656.307 674.506 656.443 675.341 656.716C676.176 656.989 676.92 657.389 677.574 657.918C678.227 658.44 678.764 659.082 679.185 659.844C679.611 660.599 679.889 661.463 680.02 662.435ZM687.289 674.256C686.011 674.256 684.903 673.974 683.965 673.412C683.028 672.849 682.301 672.062 681.784 671.051C681.272 670.04 681.016 668.858 681.016 667.506C681.016 666.153 681.272 664.969 681.784 663.952C682.301 662.935 683.028 662.145 683.965 661.582C684.903 661.02 686.011 660.739 687.289 660.739C688.568 660.739 689.676 661.02 690.613 661.582C691.551 662.145 692.275 662.935 692.786 663.952C693.303 664.969 693.562 666.153 693.562 667.506C693.562 668.858 693.303 670.04 692.786 671.051C692.275 672.062 691.551 672.849 690.613 673.412C689.676 673.974 688.568 674.256 687.289 674.256ZM687.306 671.784C687.999 671.784 688.579 671.594 689.045 671.213C689.511 670.827 689.857 670.31 690.085 669.662C690.318 669.014 690.434 668.293 690.434 667.497C690.434 666.696 690.318 665.972 690.085 665.324C689.857 664.67 689.511 664.151 689.045 663.764C688.579 663.378 687.999 663.185 687.306 663.185C686.596 663.185 686.005 663.378 685.534 663.764C685.068 664.151 684.718 664.67 684.485 665.324C684.258 665.972 684.144 666.696 684.144 667.497C684.144 668.293 684.258 669.014 684.485 669.662C684.718 670.31 685.068 670.827 685.534 671.213C686.005 671.594 686.596 671.784 687.306 671.784ZM694.981 674V660.909H697.929V663.134H698.083C698.356 662.384 698.807 661.798 699.438 661.378C700.069 660.952 700.821 660.739 701.696 660.739C702.583 660.739 703.33 660.955 703.938 661.386C704.552 661.812 704.983 662.395 705.233 663.134H705.37C705.66 662.406 706.148 661.827 706.836 661.395C707.529 660.957 708.35 660.739 709.299 660.739C710.503 660.739 711.486 661.119 712.248 661.881C713.009 662.642 713.39 663.753 713.39 665.213V674H710.296V665.69C710.296 664.878 710.08 664.284 709.648 663.909C709.216 663.528 708.688 663.338 708.063 663.338C707.319 663.338 706.736 663.571 706.316 664.037C705.901 664.497 705.694 665.097 705.694 665.835V674H702.668V665.562C702.668 664.886 702.463 664.347 702.054 663.943C701.651 663.54 701.123 663.338 700.469 663.338C700.026 663.338 699.623 663.452 699.259 663.679C698.895 663.901 698.606 664.216 698.39 664.625C698.174 665.028 698.066 665.5 698.066 666.04V674H694.981ZM715.32 674V660.909H718.268V663.134H718.422C718.695 662.384 719.146 661.798 719.777 661.378C720.408 660.952 721.161 660.739 722.036 660.739C722.922 660.739 723.669 660.955 724.277 661.386C724.891 661.812 725.322 662.395 725.572 663.134H725.709C725.999 662.406 726.487 661.827 727.175 661.395C727.868 660.957 728.689 660.739 729.638 660.739C730.842 660.739 731.825 661.119 732.587 661.881C733.348 662.642 733.729 663.753 733.729 665.213V674H730.635V665.69C730.635 664.878 730.419 664.284 729.987 663.909C729.555 663.528 729.027 663.338 728.402 663.338C727.658 663.338 727.075 663.571 726.655 664.037C726.24 664.497 726.033 665.097 726.033 665.835V674H723.007V665.562C723.007 664.886 722.803 664.347 722.393 663.943C721.99 663.54 721.462 663.338 720.808 663.338C720.365 663.338 719.962 663.452 719.598 663.679C719.234 663.901 718.945 664.216 718.729 664.625C718.513 665.028 718.405 665.5 718.405 666.04V674H715.32ZM741.454 674.256C740.142 674.256 739.008 673.983 738.054 673.438C737.105 672.886 736.375 672.108 735.863 671.102C735.352 670.091 735.096 668.901 735.096 667.531C735.096 666.185 735.352 665.003 735.863 663.986C736.38 662.963 737.102 662.168 738.028 661.599C738.954 661.026 740.042 660.739 741.292 660.739C742.099 660.739 742.86 660.869 743.576 661.131C744.298 661.386 744.934 661.784 745.485 662.324C746.042 662.864 746.48 663.551 746.798 664.386C747.116 665.216 747.275 666.205 747.275 667.352V668.298H736.545V666.219H744.318C744.312 665.628 744.184 665.102 743.934 664.642C743.684 664.176 743.335 663.81 742.886 663.543C742.443 663.276 741.926 663.142 741.335 663.142C740.704 663.142 740.15 663.295 739.673 663.602C739.196 663.903 738.823 664.301 738.556 664.795C738.295 665.284 738.162 665.821 738.156 666.406V668.222C738.156 668.983 738.295 669.636 738.573 670.182C738.852 670.722 739.241 671.136 739.741 671.426C740.241 671.71 740.826 671.852 741.497 671.852C741.946 671.852 742.352 671.79 742.715 671.665C743.079 671.534 743.394 671.344 743.662 671.094C743.929 670.844 744.13 670.534 744.267 670.165L747.147 670.489C746.965 671.25 746.619 671.915 746.108 672.483C745.602 673.045 744.954 673.483 744.164 673.795C743.375 674.102 742.471 674.256 741.454 674.256ZM751.77 666.33V674H748.685V660.909H751.634V663.134H751.787C752.089 662.401 752.569 661.818 753.228 661.386C753.893 660.955 754.714 660.739 755.691 660.739C756.594 660.739 757.381 660.932 758.052 661.318C758.728 661.705 759.251 662.264 759.62 662.997C759.995 663.73 760.18 664.619 760.174 665.665V674H757.089V666.142C757.089 665.267 756.861 664.582 756.407 664.088C755.958 663.594 755.336 663.347 754.54 663.347C754.001 663.347 753.52 663.466 753.1 663.705C752.685 663.937 752.359 664.276 752.12 664.719C751.887 665.162 751.77 665.699 751.77 666.33ZM768.647 660.909V663.295H761.122V660.909H768.647ZM762.98 657.773H766.065V670.062C766.065 670.477 766.127 670.795 766.252 671.017C766.383 671.233 766.553 671.381 766.764 671.46C766.974 671.54 767.207 671.58 767.463 671.58C767.656 671.58 767.832 671.565 767.991 671.537C768.156 671.509 768.281 671.483 768.366 671.46L768.886 673.872C768.721 673.929 768.485 673.991 768.178 674.06C767.877 674.128 767.508 674.168 767.07 674.179C766.298 674.202 765.602 674.085 764.982 673.83C764.363 673.568 763.872 673.165 763.508 672.619C763.15 672.074 762.974 671.392 762.98 670.574V657.773Z" fill="white"/>
</g>
<defs>
<filter id="filter0_d_25_1418" x="622.322" y="611.563" width="40.8828" height="43.6636" filterUnits="userSpaceOnUse" color-interpolation-filters="sRGB">
<feFlood flood-opacity="0" result="BackgroundImageFix"/>
<feColorMatrix in="SourceAlpha" type="matrix" values="0 0 0 0 0 0 0 0 0 0 0 0 0 0 0 0 0 0 127 0" result="hardAlpha"/>
<feOffset dy="2"/>
<feGaussianBlur stdDeviation="1.25"/>
<feComposite in2="hardAlpha" operator="out"/>
<feColorMatrix type="matrix" values="0 0 0 0 0 0 0 0 0 0 0 0 0 0 0 0 0 0 0.19 0"/>
<feBlend mode="normal" in2="BackgroundImageFix" result="effect1_dropShadow_25_1418"/>
<feBlend mode="normal" in="SourceGraphic" in2="effect1_dropShadow_25_1418" result="shape"/>
</filter>
<filter id="filter1_d_25_1418" x="653.5" y="646.5" width="125" height="42" filterUnits="userSpaceOnUse" color-interpolation-filters="sRGB">
<feFlood flood-opacity="0" result="BackgroundImageFix"/>
<feColorMatrix in="SourceAlpha" type="matrix" values="0 0 0 0 0 0 0 0 0 0 0 0 0 0 0 0 0 0 127 0" result="hardAlpha"/>
<feOffset dy="2"/>
<feGaussianBlur stdDeviation="1.25"/>
<feComposite in2="hardAlpha" operator="out"/>
<feColorMatrix type="matrix" values="0 0 0 0 0 0 0 0 0 0 0 0 0 0 0 0 0 0 0.19 0"/>
<feBlend mode="normal" in2="BackgroundImageFix" result="effect1_dropShadow_25_1418"/>
<feBlend mode="normal" in="SourceGraphic" in2="effect1_dropShadow_25_1418" result="shape"/>
</filter>
<linearGradient id="paint0_linear_25_1418" x1="528" y1="0" x2="528" y2="1080" gradientUnits="userSpaceOnUse">
<stop stop-color="white" stop-opacity="0"/>
<stop offset="1" stop-color="white"/>
</linearGradient>
<linearGradient id="paint1_linear_25_1418" x1="540.333" y1="490" x2="540.333" y2="566.667" gradientUnits="userSpaceOnUse">
<stop stop-color="white"/>
<stop offset="0.421421" stop-color="#F0F0F0"/>
<stop offset="0.827347" stop-color="#BABCBD"/>
<stop offset="1" stop-color="#F2F2F2"/>
</linearGradient>
<linearGradient id="paint2_linear_25_1418" x1="457.5" y1="-2.18556e-08" x2="457.5" y2="1080" gradientUnits="userSpaceOnUse">
<stop stop-color="#0EFFC7" stop-opacity="0"/>
<stop offset="1" stop-color="#0EFFC7"/>
</linearGradient>
<linearGradient id="paint3_linear_25_1418" x1="625.5" y1="-2.18556e-08" x2="625.5" y2="1080" gradientUnits="userSpaceOnUse">
<stop stop-color="#0EFFC7" stop-opacity="0"/>
<stop offset="1" stop-color="#0EFFC7"/>
</linearGradient>
<clipPath id="clip0_25_1418">
<rect width="1080" height="1080" fill="white"/>
</clipPath>
</defs>
</svg>
