<svg width="1080" height="1080" viewBox="0 0 1080 1080" fill="none" xmlns="http://www.w3.org/2000/svg">
<g clip-path="url(#clip0_30_2057)">
<path d="M36.4991 0L36.4991 1080M60.4992 0L60.4991 1080M84.4992 0L84.4992 1080M108.499 0L108.499 1080M132.499 0L132.499 1080M156.499 0L156.499 1080M180.499 0L180.499 1080M204.499 0L204.499 1080M228.499 0L228.499 1080M252.5 0L252.499 1080M276.5 0L276.5 1080M300.5 0L300.5 1080M324.5 0L324.5 1080M348.5 0L348.5 1080M372.5 0L372.5 1080M396.5 0L396.5 1080M420.5 0L420.5 1080M444.5 0L444.5 1080M468.5 0L468.5 1080M492.5 0L492.5 1080M516.5 0L516.5 1080M540.5 0L540.5 1080M564.5 0L564.5 1080M588.5 0L588.5 1080M612.5 0L612.5 1080M636.5 0L636.5 1080M660.501 0L660.5 1080M684.501 0L684.501 1080M708.501 0L708.501 1080M732.501 0L732.501 1080M756.501 0L756.501 1080M780.501 0L780.501 1080M804.501 0L804.501 1080M828.501 0L828.501 1080M852.501 0L852.501 1080M876.501 0L876.501 1080M900.501 0L900.501 1080M924.501 0L924.501 1080M948.501 0L948.501 1080M972.501 0L972.501 1080M996.501 0L996.501 1080M1020.5 0L1020.5 1080M1044.5 0V1080M1080 36.499L4.40612e-05 36.4989M1080 60.4991L4.30121e-05 60.499M1080 84.4991L4.1963e-05 84.499M1080 108.499L4.0914e-05 108.499M1080 132.499L3.98649e-05 132.499M1080 156.499L3.88158e-05 156.499M1080 180.499L3.77667e-05 180.499M1080 204.499L3.67177e-05 204.499M1080 228.499L3.56686e-05 228.499M1080 252.499L3.46195e-05 252.499M1080 276.5L3.35704e-05 276.499M1080 300.5L3.25213e-05 300.499M1080 324.5L3.14723e-05 324.5M1080 348.5L3.04232e-05 348.5M1080 372.5L2.93741e-05 372.5M1080 396.5L2.8325e-05 396.5M1080 420.5L2.7276e-05 420.5M1080 444.5L2.62269e-05 444.5M1080 468.5L2.51778e-05 468.5M1080 492.5L2.41287e-05 492.5M1080 516.5L2.30797e-05 516.5M1080 540.5L2.20306e-05 540.5M1080 564.5L2.09815e-05 564.5M1080 588.5L1.99324e-05 588.5M1080 612.5L1.88834e-05 612.5M1080 636.5L1.78343e-05 636.5M1080 660.5L1.67852e-05 660.5M1080 684.5L1.57361e-05 684.5M1080 708.501L1.46871e-05 708.5M1080 732.501L1.3638e-05 732.501M1080 756.501L1.25889e-05 756.501M1080 780.501L1.15398e-05 780.501M1080 804.501L1.04908e-05 804.501M1080 828.501L9.44168e-06 828.501M1080 852.501L8.3926e-06 852.501M1080 876.501L7.34353e-06 876.501M1080 900.501L6.29445e-06 900.501M1080 924.501L5.24538e-06 924.501M1080 948.501L4.1963e-06 948.501M1080 972.501L3.14722e-06 972.501M1080 996.501L2.09815e-06 996.501M1080 1020.5L1.04907e-06 1020.5M1080 1044.5L0 1044.5" stroke="url(#paint0_linear_30_2057)" stroke-opacity="0.15"/>
<rect width="1080" height="1080" fill="url(#paint1_radial_30_2057)"/>
<rect x="348" y="348" width="384" height="384" rx="8" fill="#1DCC2F"/>
<path d="M388.436 408.68C389.247 409.313 390.361 409.63 391.78 409.63C393.199 409.63 394.313 409.313 395.124 408.68C395.935 408.047 396.34 407.16 396.34 406.02C396.34 404.88 395.935 403.993 395.124 403.36C394.313 402.727 393.199 402.41 391.78 402.41C390.361 402.41 389.247 402.727 388.436 403.36C387.625 403.993 387.22 404.88 387.22 406.02C387.22 407.16 387.625 408.047 388.436 408.68ZM399.38 412.176C397.607 413.645 395.073 414.38 391.78 414.38C388.487 414.38 385.953 413.645 384.18 412.176C382.407 410.707 381.52 408.781 381.52 406.4C381.52 405.032 381.913 403.803 382.698 402.714C383.509 401.625 384.509 400.827 385.7 400.32C384.737 399.788 383.889 399.015 383.154 398.002C382.445 396.989 382.09 395.861 382.09 394.62C382.09 392.289 382.977 390.44 384.75 389.072C386.549 387.704 388.892 387.02 391.78 387.02C394.668 387.02 396.999 387.704 398.772 389.072C400.571 390.44 401.47 392.289 401.47 394.62C401.47 395.861 401.103 396.989 400.368 398.002C399.659 399.015 398.823 399.788 397.86 400.32C399.051 400.827 400.039 401.625 400.824 402.714C401.635 403.803 402.04 405.032 402.04 406.4C402.04 408.781 401.153 410.707 399.38 412.176ZM388.816 397.356C389.5 397.939 390.488 398.23 391.78 398.23C393.072 398.23 394.06 397.939 394.744 397.356C395.428 396.773 395.77 395.988 395.77 395C395.77 394.012 395.428 393.227 394.744 392.644C394.06 392.061 393.072 391.77 391.78 391.77C390.488 391.77 389.5 392.061 388.816 392.644C388.132 393.227 387.79 394.012 387.79 395C387.79 395.988 388.132 396.773 388.816 397.356ZM405.844 421.6V393.86H410.404L410.974 396.14H411.164C412.684 394.367 414.584 393.48 416.864 393.48C419.499 393.48 421.614 394.392 423.21 396.216C424.806 398.015 425.604 400.586 425.604 403.93C425.604 407.274 424.806 409.858 423.21 411.682C421.614 413.481 419.499 414.38 416.864 414.38C414.508 414.38 412.672 413.557 411.354 411.91H411.164V421.6H405.844ZM412.456 408.224C413.318 409.161 414.407 409.63 415.724 409.63C417.042 409.63 418.131 409.161 418.992 408.224C419.854 407.261 420.284 405.83 420.284 403.93C420.284 402.03 419.854 400.611 418.992 399.674C418.131 398.711 417.042 398.23 415.724 398.23C414.407 398.23 413.318 398.711 412.456 399.674C411.595 400.611 411.164 402.03 411.164 403.93C411.164 405.83 411.595 407.261 412.456 408.224ZM426.192 414L432.652 403.55L426.572 393.86H432.462L436.072 400.13L439.682 393.86H445.572L439.492 403.55L445.952 414H440.062L436.072 407.16L432.082 414H426.192Z" fill="white"/>
<path d="M388.76 447.24C386.472 447.24 384.64 446.488 383.264 444.984C381.888 443.48 381.2 441.352 381.2 438.6C381.2 435.848 381.888 433.72 383.264 432.216C384.64 430.712 386.472 429.96 388.76 429.96C392.12 429.96 394.4 431.52 395.6 434.64H393.44C392.544 432.72 390.984 431.76 388.76 431.76C387.096 431.76 385.76 432.36 384.752 433.56C383.744 434.744 383.24 436.424 383.24 438.6C383.24 440.776 383.744 442.464 384.752 443.664C385.76 444.848 387.096 445.44 388.76 445.44C390.344 445.44 391.6 444.92 392.528 443.88C393.456 442.84 393.92 441.64 393.92 440.28H388.76V438.48H395.96V439.44C395.96 441.84 395.312 443.744 394.016 445.152C392.736 446.544 390.984 447.24 388.76 447.24ZM398.836 447V434.52H400.276L400.516 436.2H400.636C401.308 435.08 402.428 434.52 403.996 434.52H405.316V436.2H403.996C403.036 436.2 402.236 436.496 401.596 437.088C400.956 437.68 400.636 438.424 400.636 439.32V447H398.836ZM407.368 447V434.52H409.168V447H407.368ZM409.168 432.36C408.928 432.6 408.632 432.72 408.28 432.72C407.928 432.72 407.624 432.6 407.368 432.36C407.128 432.12 407.008 431.824 407.008 431.472C407.008 431.12 407.128 430.824 407.368 430.584C407.624 430.328 407.928 430.2 408.28 430.2C408.632 430.2 408.928 430.328 409.168 430.584C409.408 430.824 409.528 431.12 409.528 431.472C409.528 431.808 409.408 432.104 409.168 432.36ZM414.756 444.312C415.46 445.144 416.396 445.56 417.564 445.56C418.732 445.56 419.66 445.144 420.348 444.312C421.052 443.48 421.404 442.296 421.404 440.76C421.404 439.224 421.052 438.04 420.348 437.208C419.66 436.376 418.732 435.96 417.564 435.96C416.396 435.96 415.46 436.376 414.756 437.208C414.068 438.04 413.724 439.224 413.724 440.76C413.724 442.296 414.068 443.48 414.756 444.312ZM417.324 447.24C415.724 447.24 414.42 446.672 413.412 445.536C412.42 444.4 411.924 442.808 411.924 440.76C411.924 438.712 412.42 437.12 413.412 435.984C414.42 434.848 415.724 434.28 417.324 434.28C419.036 434.28 420.356 434.88 421.284 436.08H421.404V430.2H423.204V447H421.764L421.524 445.32H421.404C420.508 446.6 419.148 447.24 417.324 447.24Z" fill="#EAEAEA"/>
<g opacity="0.5">
<line x1="379.5" y1="731" x2="379.5" y2="484" stroke="white"/>
<line x1="408.5" y1="731" x2="408.5" y2="484" stroke="white"/>
<line x1="437.5" y1="731" x2="437.5" y2="484" stroke="white"/>
<line x1="466.5" y1="731" x2="466.5" y2="484" stroke="white"/>
<line x1="495.5" y1="731" x2="495.5" y2="484" stroke="white"/>
<line x1="524.5" y1="731" x2="524.5" y2="484" stroke="white"/>
<line x1="553.5" y1="731" x2="553.5" y2="484" stroke="white"/>
<line x1="582.5" y1="731" x2="582.5" y2="484" stroke="white"/>
<line x1="611.5" y1="731" x2="611.5" y2="484" stroke="white"/>
<line x1="640.5" y1="731" x2="640.5" y2="484" stroke="white"/>
<line x1="669.5" y1="731" x2="669.5" y2="484" stroke="white"/>
<line x1="698.5" y1="731" x2="698.5" y2="484" stroke="white"/>
</g>
<g opacity="0.5">
<line x1="380" y1="502.5" x2="699" y2="502.5" stroke="white"/>
<line x1="380" y1="531.5" x2="699" y2="531.5" stroke="white"/>
<line x1="380" y1="560.5" x2="699" y2="560.5" stroke="white"/>
<line x1="380" y1="589.5" x2="699" y2="589.5" stroke="white"/>
<line x1="380" y1="618.5" x2="699" y2="618.5" stroke="white"/>
<line x1="380" y1="647.5" x2="699" y2="647.5" stroke="white"/>
<line x1="380" y1="676.5" x2="699" y2="676.5" stroke="white"/>
<line x1="380" y1="705.5" x2="699" y2="705.5" stroke="white"/>
</g>
<rect x="349" y="483" width="383" height="248" fill="url(#paint2_linear_30_2057)"/>
<g opacity="0.2">
<rect x="496" y="648" width="29" height="29" fill="white"/>
</g>
</g>
<defs>
<linearGradient id="paint0_linear_30_2057" x1="13" y1="-46" x2="1093.5" y2="1080" gradientUnits="userSpaceOnUse">
<stop offset="0.289749" stop-color="white" stop-opacity="0"/>
<stop offset="1" stop-color="white"/>
</linearGradient>
<radialGradient id="paint1_radial_30_2057" cx="0" cy="0" r="1" gradientUnits="userSpaceOnUse" gradientTransform="translate(1080 1103.5) rotate(-133.316) scale(1683.48)">
<stop stop-color="#1DCC2F" stop-opacity="0.25"/>
<stop offset="0.602101" stop-color="#1DCC2F" stop-opacity="0"/>
</radialGradient>
<linearGradient id="paint2_linear_30_2057" x1="540.5" y1="483" x2="540.5" y2="731" gradientUnits="userSpaceOnUse">
<stop stop-color="#1DCC2F"/>
<stop offset="1" stop-color="#1DCC2F" stop-opacity="0"/>
</linearGradient>
<clipPath id="clip0_30_2057">
<rect width="1080" height="1080" fill="white"/>
</clipPath>
</defs>
</svg>
