<svg width="1080" height="1080" viewBox="0 0 1080 1080" fill="none" xmlns="http://www.w3.org/2000/svg">
<g clip-path="url(#clip0_31_2516)">
<path d="M36.4991 0L36.4991 1080M60.4992 0L60.4991 1080M84.4992 0L84.4992 1080M108.499 0L108.499 1080M132.499 0L132.499 1080M156.499 0L156.499 1080M180.499 0L180.499 1080M204.499 0L204.499 1080M228.499 0L228.499 1080M252.5 0L252.499 1080M276.5 0L276.5 1080M300.5 0L300.5 1080M324.5 0L324.5 1080M348.5 0L348.5 1080M372.5 0L372.5 1080M396.5 0L396.5 1080M420.5 0L420.5 1080M444.5 0L444.5 1080M468.5 0L468.5 1080M492.5 0L492.5 1080M516.5 0L516.5 1080M540.5 0L540.5 1080M564.5 0L564.5 1080M588.5 0L588.5 1080M612.5 0L612.5 1080M636.5 0L636.5 1080M660.501 0L660.5 1080M684.501 0L684.501 1080M708.501 0L708.501 1080M732.501 0L732.501 1080M756.501 0L756.501 1080M780.501 0L780.501 1080M804.501 0L804.501 1080M828.501 0L828.501 1080M852.501 0L852.501 1080M876.501 0L876.501 1080M900.501 0L900.501 1080M924.501 0L924.501 1080M948.501 0L948.501 1080M972.501 0L972.501 1080M996.501 0L996.501 1080M1020.5 0L1020.5 1080M1044.5 0V1080M1080 36.499L4.40612e-05 36.4989M1080 60.4991L4.30121e-05 60.499M1080 84.4991L4.1963e-05 84.499M1080 108.499L4.0914e-05 108.499M1080 132.499L3.98649e-05 132.499M1080 156.499L3.88158e-05 156.499M1080 180.499L3.77667e-05 180.499M1080 204.499L3.67177e-05 204.499M1080 228.499L3.56686e-05 228.499M1080 252.499L3.46195e-05 252.499M1080 276.5L3.35704e-05 276.499M1080 300.5L3.25213e-05 300.499M1080 324.5L3.14723e-05 324.5M1080 348.5L3.04232e-05 348.5M1080 372.5L2.93741e-05 372.5M1080 396.5L2.8325e-05 396.5M1080 420.5L2.7276e-05 420.5M1080 444.5L2.62269e-05 444.5M1080 468.5L2.51778e-05 468.5M1080 492.5L2.41287e-05 492.5M1080 516.5L2.30797e-05 516.5M1080 540.5L2.20306e-05 540.5M1080 564.5L2.09815e-05 564.5M1080 588.5L1.99324e-05 588.5M1080 612.5L1.88834e-05 612.5M1080 636.5L1.78343e-05 636.5M1080 660.5L1.67852e-05 660.5M1080 684.5L1.57361e-05 684.5M1080 708.501L1.46871e-05 708.5M1080 732.501L1.3638e-05 732.501M1080 756.501L1.25889e-05 756.501M1080 780.501L1.15398e-05 780.501M1080 804.501L1.04908e-05 804.501M1080 828.501L9.44168e-06 828.501M1080 852.501L8.3926e-06 852.501M1080 876.501L7.34353e-06 876.501M1080 900.501L6.29445e-06 900.501M1080 924.501L5.24538e-06 924.501M1080 948.501L4.1963e-06 948.501M1080 972.501L3.14722e-06 972.501M1080 996.501L2.09815e-06 996.501M1080 1020.5L1.04907e-06 1020.5M1080 1044.5L0 1044.5" stroke="url(#paint0_linear_31_2516)" stroke-opacity="0.15"/>
<rect width="1080" height="1080" fill="url(#paint1_radial_31_2516)"/>
<rect x="348.5" y="348.5" width="383" height="383" rx="7.5" fill="url(#paint2_linear_31_2516)" stroke="url(#paint3_linear_31_2516)"/>
<path d="M386.65 414V395.57H381.33V390.44H385.13C386.143 390.44 386.65 389.933 386.65 388.92V387.4H392.35V414H386.65ZM396.322 414V408.87L407.912 398.61C409.179 397.521 409.812 396.444 409.812 395.38C409.812 393.227 408.546 392.15 406.012 392.15C404.948 392.15 404.062 392.429 403.352 392.986C402.643 393.543 402.2 394.341 402.022 395.38H396.322C396.626 392.897 397.576 390.883 399.172 389.338C400.768 387.793 403.048 387.02 406.012 387.02C409.204 387.02 411.611 387.755 413.232 389.224C414.879 390.668 415.702 392.593 415.702 395C415.702 397.432 414.499 399.712 412.092 401.84L404.112 408.87H416.082V414H396.322ZM437.56 414.38C434.494 414.38 432.075 413.468 430.302 411.644C428.554 409.795 427.68 407.223 427.68 403.93C427.68 400.637 428.554 398.078 430.302 396.254C432.075 394.405 434.494 393.48 437.56 393.48C440.22 393.48 442.297 394.151 443.792 395.494C445.312 396.837 446.338 398.572 446.87 400.7H441.55C440.739 399.053 439.409 398.23 437.56 398.23C436.192 398.23 435.09 398.724 434.254 399.712C433.418 400.675 433 402.081 433 403.93C433 405.779 433.418 407.198 434.254 408.186C435.09 409.149 436.192 409.63 437.56 409.63C439.409 409.63 440.739 408.807 441.55 407.16H446.87C446.338 409.288 445.312 411.023 443.792 412.366C442.297 413.709 440.22 414.38 437.56 414.38ZM466.451 411.644C464.703 413.468 462.297 414.38 459.231 414.38C456.166 414.38 453.747 413.468 451.973 411.644C450.225 409.795 449.351 407.223 449.351 403.93C449.351 400.637 450.225 398.078 451.973 396.254C453.747 394.405 456.166 393.48 459.231 393.48C462.297 393.48 464.703 394.405 466.451 396.254C468.225 398.078 469.111 400.637 469.111 403.93C469.111 407.223 468.225 409.795 466.451 411.644ZM455.963 408.224C456.825 409.161 457.914 409.63 459.231 409.63C460.549 409.63 461.638 409.161 462.499 408.224C463.361 407.261 463.791 405.83 463.791 403.93C463.791 402.03 463.361 400.611 462.499 399.674C461.638 398.711 460.549 398.23 459.231 398.23C457.914 398.23 456.825 398.711 455.963 399.674C455.102 400.611 454.671 402.03 454.671 403.93C454.671 405.83 455.102 407.261 455.963 408.224ZM472.906 414V387.4H478.226V414H472.906ZM487.214 413.316C486.631 413.899 485.909 414.19 485.048 414.19C484.186 414.19 483.464 413.899 482.882 413.316C482.299 412.733 482.008 412.011 482.008 411.15C482.008 410.289 482.299 409.567 482.882 408.984C483.464 408.401 484.186 408.11 485.048 408.11C485.909 408.11 486.631 408.401 487.214 408.984C487.796 409.567 488.088 410.289 488.088 411.15C488.088 412.011 487.796 412.733 487.214 413.316Z" fill="white"/>
<path d="M386.6 447.24C385.064 447.24 383.76 446.832 382.688 446.016C381.632 445.184 381.016 444.032 380.84 442.56H382.88C382.992 443.392 383.4 444.08 384.104 444.624C384.808 445.168 385.64 445.44 386.6 445.44C387.768 445.44 388.68 445.16 389.336 444.6C389.992 444.024 390.32 443.304 390.32 442.44C390.32 441.576 389.992 440.864 389.336 440.304C388.68 439.728 387.768 439.44 386.6 439.44H385.4V437.76H386.6C387.704 437.76 388.56 437.48 389.168 436.92C389.776 436.36 390.08 435.64 390.08 434.76C390.08 433.88 389.776 433.16 389.168 432.6C388.56 432.04 387.704 431.76 386.6 431.76C385.704 431.76 384.928 432.032 384.272 432.576C383.632 433.104 383.248 433.792 383.12 434.64H381.08C381.32 433.168 381.936 432.024 382.928 431.208C383.92 430.376 385.144 429.96 386.6 429.96C388.312 429.96 389.656 430.408 390.632 431.304C391.624 432.2 392.12 433.352 392.12 434.76C392.12 436.648 391.28 437.888 389.6 438.48C390.48 438.768 391.16 439.272 391.64 439.992C392.12 440.696 392.36 441.512 392.36 442.44C392.36 443.816 391.848 444.96 390.824 445.872C389.8 446.784 388.392 447.24 386.6 447.24ZM404.601 447.24C403.369 447.24 402.321 446.92 401.457 446.28C400.593 445.64 400.041 444.8 399.801 443.76H401.721C401.897 444.336 402.249 444.784 402.777 445.104C403.305 445.408 403.913 445.56 404.601 445.56C405.577 445.56 406.321 445.384 406.833 445.032C407.345 444.68 407.601 444.216 407.601 443.64C407.601 443.16 407.417 442.776 407.049 442.488C406.681 442.184 406.217 441.976 405.657 441.864C405.113 441.736 404.521 441.584 403.881 441.408C403.241 441.232 402.641 441.04 402.081 440.832C401.537 440.624 401.081 440.256 400.713 439.728C400.345 439.2 400.161 438.544 400.161 437.76C400.161 436.816 400.569 436 401.385 435.312C402.201 434.624 403.273 434.28 404.601 434.28C405.721 434.28 406.697 434.552 407.529 435.096C408.377 435.64 408.921 436.408 409.161 437.4H407.241C406.825 436.44 405.945 435.96 404.601 435.96C403.721 435.96 403.057 436.12 402.609 436.44C402.177 436.76 401.961 437.2 401.961 437.76C401.961 438.352 402.217 438.816 402.729 439.152C403.241 439.472 403.857 439.712 404.577 439.872C405.313 440.032 406.041 440.216 406.761 440.424C407.497 440.616 408.121 440.984 408.633 441.528C409.145 442.056 409.401 442.76 409.401 443.64C409.401 444.632 408.961 445.48 408.081 446.184C407.217 446.888 406.057 447.24 404.601 447.24ZM411.914 447V434.52H413.714V447H411.914ZM413.714 432.36C413.474 432.6 413.178 432.72 412.826 432.72C412.474 432.72 412.17 432.6 411.914 432.36C411.674 432.12 411.554 431.824 411.554 431.472C411.554 431.12 411.674 430.824 411.914 430.584C412.17 430.328 412.474 430.2 412.826 430.2C413.178 430.2 413.474 430.328 413.714 430.584C413.954 430.824 414.074 431.12 414.074 431.472C414.074 431.808 413.954 432.104 413.714 432.36ZM419.303 444.312C420.007 445.144 420.943 445.56 422.111 445.56C423.279 445.56 424.207 445.144 424.895 444.312C425.599 443.48 425.951 442.296 425.951 440.76C425.951 439.224 425.599 438.04 424.895 437.208C424.207 436.376 423.279 435.96 422.111 435.96C420.943 435.96 420.007 436.376 419.303 437.208C418.615 438.04 418.271 439.224 418.271 440.76C418.271 442.296 418.615 443.48 419.303 444.312ZM421.871 447.24C420.271 447.24 418.967 446.672 417.959 445.536C416.967 444.4 416.471 442.808 416.471 440.76C416.471 438.712 416.967 437.12 417.959 435.984C418.967 434.848 420.271 434.28 421.871 434.28C423.583 434.28 424.903 434.88 425.831 436.08H425.951V430.2H427.751V447H426.311L426.071 445.32H425.951C425.055 446.6 423.695 447.24 421.871 447.24ZM436.387 447.24C434.659 447.24 433.267 446.672 432.211 445.536C431.155 444.4 430.627 442.808 430.627 440.76C430.627 438.712 431.147 437.12 432.187 435.984C433.243 434.848 434.603 434.28 436.267 434.28C437.179 434.28 438.003 434.464 438.739 434.832C439.491 435.184 440.091 435.648 440.539 436.224C440.987 436.8 441.323 437.416 441.547 438.072C441.787 438.728 441.907 439.384 441.907 440.04L441.787 441.24H432.427C432.491 442.632 432.883 443.704 433.603 444.456C434.339 445.192 435.267 445.56 436.387 445.56C437.827 445.56 438.907 444.96 439.627 443.76H441.547C441.131 444.88 440.467 445.744 439.555 446.352C438.659 446.944 437.603 447.24 436.387 447.24ZM432.427 439.68H440.107C439.995 438.512 439.587 437.6 438.883 436.944C438.179 436.288 437.307 435.96 436.267 435.96C435.227 435.96 434.355 436.288 433.651 436.944C432.947 437.6 432.539 438.512 432.427 439.68ZM448.617 447.24C447.385 447.24 446.337 446.92 445.473 446.28C444.609 445.64 444.057 444.8 443.817 443.76H445.737C445.913 444.336 446.265 444.784 446.793 445.104C447.321 445.408 447.929 445.56 448.617 445.56C449.593 445.56 450.337 445.384 450.849 445.032C451.361 444.68 451.617 444.216 451.617 443.64C451.617 443.16 451.433 442.776 451.065 442.488C450.697 442.184 450.233 441.976 449.673 441.864C449.129 441.736 448.537 441.584 447.897 441.408C447.257 441.232 446.657 441.04 446.097 440.832C445.553 440.624 445.097 440.256 444.729 439.728C444.361 439.2 444.177 438.544 444.177 437.76C444.177 436.816 444.585 436 445.401 435.312C446.217 434.624 447.289 434.28 448.617 434.28C449.737 434.28 450.713 434.552 451.545 435.096C452.393 435.64 452.937 436.408 453.177 437.4H451.257C450.841 436.44 449.961 435.96 448.617 435.96C447.737 435.96 447.073 436.12 446.625 436.44C446.193 436.76 445.977 437.2 445.977 437.76C445.977 438.352 446.233 438.816 446.745 439.152C447.257 439.472 447.873 439.712 448.593 439.872C449.329 440.032 450.057 440.216 450.777 440.424C451.513 440.616 452.137 440.984 452.649 441.528C453.161 442.056 453.417 442.76 453.417 443.64C453.417 444.632 452.977 445.48 452.097 446.184C451.233 446.888 450.073 447.24 448.617 447.24Z" fill="white"/>
<line x1="379.5" y1="731" x2="379.5" y2="484" stroke="#EAEAEA"/>
<line x1="408.5" y1="731" x2="408.5" y2="484" stroke="#EAEAEA"/>
<line x1="437.5" y1="731" x2="437.5" y2="484" stroke="#EAEAEA"/>
<line x1="466.5" y1="731" x2="466.5" y2="484" stroke="white"/>
<line x1="495.5" y1="731" x2="495.5" y2="484" stroke="white"/>
<line x1="524.5" y1="731" x2="524.5" y2="484" stroke="white"/>
<line x1="553.5" y1="731" x2="553.5" y2="484" stroke="white"/>
<line x1="582.5" y1="731" x2="582.5" y2="484" stroke="white"/>
<line x1="611.5" y1="731" x2="611.5" y2="484" stroke="white"/>
<line x1="640.5" y1="731" x2="640.5" y2="484" stroke="#EAEAEA"/>
<line x1="669.5" y1="731" x2="669.5" y2="484" stroke="#EAEAEA"/>
<line x1="698.5" y1="731" x2="698.5" y2="484" stroke="#EAEAEA"/>
<rect x="349" y="483" width="383" height="248" fill="url(#paint4_linear_31_2516)"/>
</g>
<defs>
<linearGradient id="paint0_linear_31_2516" x1="13" y1="-46" x2="1093.5" y2="1080" gradientUnits="userSpaceOnUse">
<stop offset="0.289749" stop-color="white" stop-opacity="0"/>
<stop offset="1" stop-color="white"/>
</linearGradient>
<radialGradient id="paint1_radial_31_2516" cx="0" cy="0" r="1" gradientUnits="userSpaceOnUse" gradientTransform="translate(1080 1103.5) rotate(-133.316) scale(1683.48)">
<stop stop-color="#F6355E" stop-opacity="0.25"/>
<stop offset="0.602101" stop-color="#F6355E" stop-opacity="0"/>
</radialGradient>
<linearGradient id="paint2_linear_31_2516" x1="540" y1="348" x2="540" y2="732" gradientUnits="userSpaceOnUse">
<stop stop-color="#FF0E41"/>
<stop offset="1" stop-color="#FF3862"/>
</linearGradient>
<linearGradient id="paint3_linear_31_2516" x1="540" y1="348" x2="540" y2="732" gradientUnits="userSpaceOnUse">
<stop stop-color="#FF0E41"/>
<stop offset="1" stop-color="#FF3862"/>
</linearGradient>
<linearGradient id="paint4_linear_31_2516" x1="540.5" y1="483" x2="540.5" y2="731" gradientUnits="userSpaceOnUse">
<stop stop-color="#FF1345"/>
<stop offset="1" stop-color="#FF1345" stop-opacity="0"/>
</linearGradient>
<clipPath id="clip0_31_2516">
<rect width="1080" height="1080" fill="white"/>
</clipPath>
</defs>
</svg>
