<svg width="1080" height="1080" viewBox="0 0 1080 1080" fill="none" xmlns="http://www.w3.org/2000/svg">
<g clip-path="url(#clip0_32_1594)">
<path d="M36.4991 0L36.4991 1080M60.4992 0L60.4991 1080M84.4992 0L84.4992 1080M108.499 0L108.499 1080M132.499 0L132.499 1080M156.499 0L156.499 1080M180.499 0L180.499 1080M204.499 0L204.499 1080M228.499 0L228.499 1080M252.5 0L252.499 1080M276.5 0L276.5 1080M300.5 0L300.5 1080M324.5 0L324.5 1080M348.5 0L348.5 1080M372.5 0L372.5 1080M396.5 0L396.5 1080M420.5 0L420.5 1080M444.5 0L444.5 1080M468.5 0L468.5 1080M492.5 0L492.5 1080M516.5 0L516.5 1080M540.5 0L540.5 1080M564.5 0L564.5 1080M588.5 0L588.5 1080M612.5 0L612.5 1080M636.5 0L636.5 1080M660.501 0L660.5 1080M684.501 0L684.501 1080M708.501 0L708.501 1080M732.501 0L732.501 1080M756.501 0L756.501 1080M780.501 0L780.501 1080M804.501 0L804.501 1080M828.501 0L828.501 1080M852.501 0L852.501 1080M876.501 0L876.501 1080M900.501 0L900.501 1080M924.501 0L924.501 1080M948.501 0L948.501 1080M972.501 0L972.501 1080M996.501 0L996.501 1080M1020.5 0L1020.5 1080M1044.5 0V1080M1080 36.499L4.40612e-05 36.4989M1080 60.4991L4.30121e-05 60.499M1080 84.4991L4.1963e-05 84.499M1080 108.499L4.0914e-05 108.499M1080 132.499L3.98649e-05 132.499M1080 156.499L3.88158e-05 156.499M1080 180.499L3.77667e-05 180.499M1080 204.499L3.67177e-05 204.499M1080 228.499L3.56686e-05 228.499M1080 252.499L3.46195e-05 252.499M1080 276.5L3.35704e-05 276.499M1080 300.5L3.25213e-05 300.499M1080 324.5L3.14723e-05 324.5M1080 348.5L3.04232e-05 348.5M1080 372.5L2.93741e-05 372.5M1080 396.5L2.8325e-05 396.5M1080 420.5L2.7276e-05 420.5M1080 444.5L2.62269e-05 444.5M1080 468.5L2.51778e-05 468.5M1080 492.5L2.41287e-05 492.5M1080 516.5L2.30797e-05 516.5M1080 540.5L2.20306e-05 540.5M1080 564.5L2.09815e-05 564.5M1080 588.5L1.99324e-05 588.5M1080 612.5L1.88834e-05 612.5M1080 636.5L1.78343e-05 636.5M1080 660.5L1.67852e-05 660.5M1080 684.5L1.57361e-05 684.5M1080 708.501L1.46871e-05 708.5M1080 732.501L1.3638e-05 732.501M1080 756.501L1.25889e-05 756.501M1080 780.501L1.15398e-05 780.501M1080 804.501L1.04908e-05 804.501M1080 828.501L9.44168e-06 828.501M1080 852.501L8.3926e-06 852.501M1080 876.501L7.34353e-06 876.501M1080 900.501L6.29445e-06 900.501M1080 924.501L5.24538e-06 924.501M1080 948.501L4.1963e-06 948.501M1080 972.501L3.14722e-06 972.501M1080 996.501L2.09815e-06 996.501M1080 1020.5L1.04907e-06 1020.5M1080 1044.5L0 1044.5" stroke="url(#paint0_linear_32_1594)" stroke-opacity="0.15"/>
<rect width="1080" height="1080" fill="url(#paint1_radial_32_1594)"/>
<rect x="348.5" y="348.5" width="383" height="383" rx="7.5" fill="white" stroke="#EAEAEA"/>
<path d="M388.55 414V392.53H380.57V387.4H402.23V392.53H394.25V414H388.55ZM411.335 414V392.53H403.355V387.4H425.015V392.53H417.035V414H411.335ZM435.838 414V387.4H441.538V414H435.838ZM446.479 414V393.86H451.039L451.609 396.14H451.799C453.167 394.367 454.941 393.48 457.119 393.48C459.349 393.48 461.135 394.215 462.477 395.684C463.845 397.128 464.529 399.117 464.529 401.65V414H459.209V402.41C459.209 401.093 458.893 400.067 458.259 399.332C457.626 398.597 456.739 398.23 455.599 398.23C454.459 398.23 453.535 398.623 452.825 399.408C452.141 400.168 451.799 401.169 451.799 402.41V414H446.479ZM476.873 414C472.693 414 470.603 412.037 470.603 408.11V398.8H467.373V393.86H470.603L471.363 388.54H475.923V393.86H480.673V398.8H475.923V407.16C475.923 407.717 476.088 408.173 476.417 408.528C476.772 408.883 477.241 409.06 477.823 409.06H480.673V414H476.873ZM493.038 414.38C489.973 414.38 487.553 413.468 485.78 411.644C484.032 409.795 483.158 407.223 483.158 403.93C483.158 400.637 484.032 398.078 485.78 396.254C487.553 394.405 489.973 393.48 493.038 393.48C495.951 393.48 498.295 394.417 500.068 396.292C501.841 398.167 502.728 400.586 502.728 403.55L502.538 405.64H488.668C489.124 408.3 490.581 409.63 493.038 409.63C494.001 409.63 494.735 409.478 495.242 409.174C495.749 408.87 496.217 408.389 496.648 407.73H502.348C501.816 409.655 500.79 411.251 499.27 412.518C497.75 413.759 495.673 414.38 493.038 414.38ZM488.668 401.65H497.218C497.015 400.687 496.547 399.877 495.812 399.218C495.103 398.559 494.178 398.23 493.038 398.23C490.809 398.23 489.352 399.37 488.668 401.65ZM506.337 414V393.86H510.897L511.467 396.14H511.657C512.67 394.62 514.253 393.86 516.407 393.86H518.877V398.99H516.787C515.191 398.99 513.937 399.433 513.025 400.32C512.113 401.207 511.657 402.41 511.657 403.93V414H506.337ZM523.447 414V398.8H520.217V393.86H523.447V392.15C523.447 388.223 525.537 386.26 529.717 386.26H533.517V391.01H530.667C530.084 391.01 529.616 391.187 529.261 391.542C528.932 391.871 528.767 392.327 528.767 392.91V393.86H533.517V398.8H528.767V414H523.447ZM543.764 410.01C545.005 410.01 546.006 409.668 546.766 408.984C547.551 408.275 547.944 407.35 547.944 406.21V405.64H543.384C542.497 405.64 541.826 405.843 541.37 406.248C540.939 406.628 540.724 407.122 540.724 407.73C540.724 408.414 540.977 408.971 541.484 409.402C541.99 409.807 542.75 410.01 543.764 410.01ZM542.434 414.38C540.28 414.38 538.57 413.797 537.304 412.632C536.037 411.467 535.404 409.959 535.404 408.11C535.404 406.235 536.075 404.728 537.418 403.588C538.786 402.423 540.711 401.84 543.194 401.84H547.944V400.89C547.944 399.953 547.64 399.243 547.032 398.762C546.424 398.281 545.588 398.04 544.524 398.04C543.789 398.04 543.143 398.205 542.586 398.534C542.054 398.863 541.686 399.269 541.484 399.75H536.164C536.594 397.951 537.519 396.457 538.938 395.266C540.382 394.075 542.307 393.48 544.714 393.48C547.399 393.48 549.489 394.139 550.984 395.456C552.504 396.773 553.264 398.648 553.264 401.08V414H548.704L548.134 411.72H547.944C546.753 413.493 544.916 414.38 542.434 414.38ZM566.552 414.38C563.486 414.38 561.067 413.468 559.294 411.644C557.546 409.795 556.672 407.223 556.672 403.93C556.672 400.637 557.546 398.078 559.294 396.254C561.067 394.405 563.486 393.48 566.552 393.48C569.212 393.48 571.289 394.151 572.784 395.494C574.304 396.837 575.33 398.572 575.862 400.7H570.542C569.731 399.053 568.401 398.23 566.552 398.23C565.184 398.23 564.082 398.724 563.246 399.712C562.41 400.675 561.992 402.081 561.992 403.93C561.992 405.779 562.41 407.198 563.246 408.186C564.082 409.149 565.184 409.63 566.552 409.63C568.401 409.63 569.731 408.807 570.542 407.16H575.862C575.33 409.288 574.304 411.023 572.784 412.366C571.289 413.709 569.212 414.38 566.552 414.38ZM588.224 414.38C585.158 414.38 582.739 413.468 580.966 411.644C579.218 409.795 578.344 407.223 578.344 403.93C578.344 400.637 579.218 398.078 580.966 396.254C582.739 394.405 585.158 393.48 588.224 393.48C591.137 393.48 593.48 394.417 595.254 396.292C597.027 398.167 597.914 400.586 597.914 403.55L597.724 405.64H583.854C584.31 408.3 585.766 409.63 588.224 409.63C589.186 409.63 589.921 409.478 590.428 409.174C590.934 408.87 591.403 408.389 591.834 407.73H597.534C597.002 409.655 595.976 411.251 594.456 412.518C592.936 413.759 590.858 414.38 588.224 414.38ZM583.854 401.65H592.404C592.201 400.687 591.732 399.877 590.998 399.218C590.288 398.559 589.364 398.23 588.224 398.23C585.994 398.23 584.538 399.37 583.854 401.65ZM608.932 414.38C606.171 414.38 604.068 413.772 602.624 412.556C601.18 411.315 600.306 409.706 600.002 407.73H605.702C605.804 408.237 606.146 408.68 606.728 409.06C607.311 409.44 608.046 409.63 608.932 409.63C611.212 409.63 612.352 409.123 612.352 408.11C612.352 407.654 612.061 407.287 611.478 407.008C610.921 406.729 610.212 406.539 609.35 406.438C608.489 406.311 607.552 406.109 606.538 405.83C605.55 405.551 604.626 405.222 603.764 404.842C602.903 404.437 602.181 403.791 601.598 402.904C601.041 401.992 600.762 400.877 600.762 399.56C600.762 397.787 601.472 396.33 602.89 395.19C604.334 394.05 606.348 393.48 608.932 393.48C611.618 393.48 613.67 394.063 615.088 395.228C616.507 396.368 617.368 397.875 617.672 399.75H611.972C611.719 398.737 610.706 398.23 608.932 398.23C608.096 398.23 607.438 398.357 606.956 398.61C606.5 398.863 606.272 399.18 606.272 399.56C606.272 400.016 606.551 400.383 607.108 400.662C607.691 400.941 608.413 401.143 609.274 401.27C610.136 401.371 611.06 401.561 612.048 401.84C613.062 402.119 613.999 402.461 614.86 402.866C615.722 403.246 616.431 403.892 616.988 404.804C617.571 405.691 617.862 406.793 617.862 408.11C617.862 409.934 617.166 411.441 615.772 412.632C614.379 413.797 612.099 414.38 608.932 414.38Z" fill="#0E0E0E"/>
<path d="M384.08 445.2H389.24C390.152 445.2 390.88 444.944 391.424 444.432C391.968 443.92 392.24 443.216 392.24 442.32C392.24 441.424 391.968 440.72 391.424 440.208C390.88 439.696 390.152 439.44 389.24 439.44H384.08V445.2ZM382.04 447V430.2H389.12C390.672 430.2 391.88 430.616 392.744 431.448C393.608 432.28 394.04 433.424 394.04 434.88C394.04 435.664 393.84 436.384 393.44 437.04C393.056 437.696 392.536 438.176 391.88 438.48C392.552 438.72 393.12 439.2 393.584 439.92C394.048 440.64 394.28 441.44 394.28 442.32C394.28 443.776 393.848 444.92 392.984 445.752C392.12 446.584 390.912 447 389.36 447H382.04ZM384.08 437.76H389C389.912 437.76 390.64 437.504 391.184 436.992C391.728 436.48 392 435.776 392 434.88C392 433.984 391.728 433.28 391.184 432.768C390.64 432.256 389.912 432 389 432H384.08V437.76ZM406.625 445.536C405.569 446.672 404.177 447.24 402.449 447.24C400.721 447.24 399.329 446.672 398.273 445.536C397.217 444.4 396.689 442.808 396.689 440.76C396.689 438.712 397.217 437.12 398.273 435.984C399.329 434.848 400.721 434.28 402.449 434.28C404.177 434.28 405.569 434.848 406.625 435.984C407.681 437.12 408.209 438.712 408.209 440.76C408.209 442.808 407.681 444.4 406.625 445.536ZM399.569 444.312C400.305 445.144 401.265 445.56 402.449 445.56C403.633 445.56 404.585 445.144 405.305 444.312C406.041 443.464 406.409 442.28 406.409 440.76C406.409 439.24 406.041 438.064 405.305 437.232C404.585 436.384 403.633 435.96 402.449 435.96C401.265 435.96 400.305 436.384 399.569 437.232C398.849 438.064 398.489 439.24 398.489 440.76C398.489 442.28 398.849 443.464 399.569 444.312ZM411.097 447V430.2H412.897V447H411.097ZM418.6 444.312C419.304 445.144 420.24 445.56 421.408 445.56C422.576 445.56 423.504 445.144 424.192 444.312C424.896 443.48 425.248 442.296 425.248 440.76C425.248 439.224 424.896 438.04 424.192 437.208C423.504 436.376 422.576 435.96 421.408 435.96C420.24 435.96 419.304 436.376 418.6 437.208C417.912 438.04 417.568 439.224 417.568 440.76C417.568 442.296 417.912 443.48 418.6 444.312ZM421.168 447.24C419.568 447.24 418.264 446.672 417.256 445.536C416.264 444.4 415.768 442.808 415.768 440.76C415.768 438.712 416.264 437.12 417.256 435.984C418.264 434.848 419.568 434.28 421.168 434.28C422.88 434.28 424.2 434.88 425.128 436.08H425.248V430.2H427.048V447H425.608L425.368 445.32H425.248C424.352 446.6 422.992 447.24 421.168 447.24Z" fill="#A3A3A3"/>
<g opacity="0.25">
<path d="M380 488H400V484H380V488Z" fill="#A3A3A3"/>
<path d="M390.073 508C388.444 508 387.067 507.583 385.942 506.749C384.817 505.915 384.109 504.829 383.818 503.491H386.873C387.261 504.752 388.327 505.382 390.073 505.382C391.178 505.382 392.012 505.207 392.575 504.858C393.137 504.49 393.418 504.034 393.418 503.491C393.418 502.967 393.195 502.55 392.749 502.24C392.303 501.93 391.741 501.716 391.062 501.6C390.402 501.464 389.685 501.29 388.909 501.076C388.133 500.863 387.406 500.621 386.727 500.349C386.068 500.078 385.515 499.612 385.069 498.953C384.623 498.293 384.4 497.479 384.4 496.509C384.4 495.229 384.895 494.162 385.884 493.309C386.892 492.436 388.24 492 389.927 492C391.498 492 392.836 492.388 393.942 493.164C395.047 493.939 395.745 494.958 396.036 496.218H392.982C392.439 495.152 391.421 494.618 389.927 494.618C388.085 494.618 387.164 495.248 387.164 496.509C387.164 497.033 387.387 497.459 387.833 497.789C388.279 498.099 388.832 498.322 389.491 498.458C390.17 498.575 390.897 498.749 391.673 498.982C392.448 499.195 393.166 499.438 393.825 499.709C394.504 499.981 395.067 500.446 395.513 501.105C395.959 501.745 396.182 502.541 396.182 503.491C396.182 504.771 395.639 505.847 394.553 506.72C393.467 507.573 391.973 508 390.073 508Z" fill="#A3A3A3"/>
<path d="M380 512H400V516H380V512Z" fill="#A3A3A3"/>
</g>
<rect x="380" y="486" width="20" height="2" fill="white"/>
<rect x="380" y="486" width="20" height="2" fill="white"/>
<rect x="380" y="486" width="20" height="2" fill="white"/>
<rect x="380" y="512" width="20" height="2" fill="white"/>
<rect x="380" y="512" width="20" height="2" fill="white"/>
<rect x="380" y="512" width="20" height="2" fill="white"/>
<path d="M412.6 509.24C411.064 509.24 409.76 508.832 408.688 508.016C407.632 507.184 407.016 506.032 406.84 504.56H408.88C408.992 505.392 409.4 506.08 410.104 506.624C410.808 507.168 411.64 507.44 412.6 507.44C413.768 507.44 414.68 507.16 415.336 506.6C415.992 506.024 416.32 505.304 416.32 504.44C416.32 503.576 415.992 502.864 415.336 502.304C414.68 501.728 413.768 501.44 412.6 501.44H411.4V499.76H412.6C413.704 499.76 414.56 499.48 415.168 498.92C415.776 498.36 416.08 497.64 416.08 496.76C416.08 495.88 415.776 495.16 415.168 494.6C414.56 494.04 413.704 493.76 412.6 493.76C411.704 493.76 410.928 494.032 410.272 494.576C409.632 495.104 409.248 495.792 409.12 496.64H407.08C407.32 495.168 407.936 494.024 408.928 493.208C409.92 492.376 411.144 491.96 412.6 491.96C414.312 491.96 415.656 492.408 416.632 493.304C417.624 494.2 418.12 495.352 418.12 496.76C418.12 498.648 417.28 499.888 415.6 500.48C416.48 500.768 417.16 501.272 417.64 501.992C418.12 502.696 418.36 503.512 418.36 504.44C418.36 505.816 417.848 506.96 416.824 507.872C415.8 508.784 414.392 509.24 412.6 509.24ZM424.056 506.576C424.744 507.152 425.648 507.44 426.768 507.44C427.888 507.44 428.784 507.152 429.456 506.576C430.144 505.984 430.488 505.232 430.488 504.32C430.488 503.408 430.144 502.664 429.456 502.088C428.784 501.496 427.888 501.2 426.768 501.2C425.648 501.2 424.744 501.496 424.056 502.088C423.384 502.664 423.048 503.408 423.048 504.32C423.048 505.232 423.384 505.984 424.056 506.576ZM430.968 507.848C429.928 508.776 428.528 509.24 426.768 509.24C425.008 509.24 423.608 508.776 422.568 507.848C421.528 506.92 421.008 505.744 421.008 504.32C421.008 503.456 421.272 502.664 421.8 501.944C422.344 501.208 423 500.68 423.768 500.36C423.096 500.024 422.528 499.528 422.064 498.872C421.6 498.216 421.368 497.472 421.368 496.64C421.368 495.28 421.856 494.16 422.832 493.28C423.808 492.4 425.12 491.96 426.768 491.96C428.416 491.96 429.728 492.4 430.704 493.28C431.68 494.16 432.168 495.28 432.168 496.64C432.168 497.472 431.936 498.216 431.472 498.872C431.008 499.528 430.44 500.024 429.768 500.36C430.536 500.68 431.184 501.208 431.712 501.944C432.256 502.664 432.528 503.456 432.528 504.32C432.528 505.744 432.008 506.92 430.968 507.848ZM424.32 498.728C424.944 499.256 425.76 499.52 426.768 499.52C427.776 499.52 428.584 499.256 429.192 498.728C429.816 498.184 430.128 497.488 430.128 496.64C430.128 495.792 429.816 495.104 429.192 494.576C428.584 494.032 427.776 493.76 426.768 493.76C425.76 493.76 424.944 494.032 424.32 494.576C423.712 495.104 423.408 495.792 423.408 496.64C423.408 497.488 423.712 498.184 424.32 498.728Z" fill="#5C5C5C"/>
<g opacity="0.25">
<path d="M466 488H486V484H466V488Z" fill="#A3A3A3"/>
<path d="M475.345 505.527C476.625 505.527 477.644 505.178 478.4 504.48C479.176 503.762 479.564 502.851 479.564 501.745V500.873H475.491C474.482 500.873 473.716 501.086 473.193 501.513C472.688 501.92 472.436 502.482 472.436 503.2C472.436 503.918 472.688 504.49 473.193 504.916C473.716 505.324 474.434 505.527 475.345 505.527ZM474.909 508C473.358 508 472.097 507.535 471.127 506.604C470.158 505.673 469.673 504.538 469.673 503.2C469.673 501.823 470.187 500.679 471.215 499.767C472.242 498.856 473.668 498.4 475.491 498.4H479.564V497.673C479.564 496.722 479.263 495.976 478.662 495.433C478.061 494.89 477.246 494.618 476.218 494.618C475.384 494.618 474.705 494.802 474.182 495.171C473.658 495.52 473.319 495.966 473.164 496.509H470.255C470.545 495.229 471.234 494.162 472.32 493.309C473.425 492.436 474.725 492 476.218 492C478.138 492 479.632 492.524 480.698 493.571C481.784 494.599 482.327 495.966 482.327 497.673V507.709H480L479.709 505.818H479.564C479.234 506.381 478.642 506.885 477.789 507.331C476.955 507.777 475.995 508 474.909 508Z" fill="#A3A3A3"/>
<path d="M466 512H486V516H466V512Z" fill="#A3A3A3"/>
</g>
<rect x="466" y="512" width="20" height="2" fill="white"/>
<rect x="466" y="486" width="20" height="2" fill="white"/>
<path d="M500.52 509V505.04H492.48V503.24L499.68 492.2H502.56V503.24H504.72V505.04H502.56V509H500.52ZM494.64 503.24H500.52V494.36H500.4L494.64 503.24ZM518.297 507.008C517.049 508.496 515.401 509.24 513.353 509.24C511.305 509.24 509.649 508.496 508.385 507.008C507.137 505.52 506.513 503.384 506.513 500.6C506.513 497.816 507.137 495.68 508.385 494.192C509.649 492.704 511.305 491.96 513.353 491.96C515.401 491.96 517.049 492.704 518.297 494.192C519.561 495.68 520.193 497.816 520.193 500.6C520.193 503.384 519.561 505.52 518.297 507.008ZM509.897 505.712C510.793 506.864 511.945 507.44 513.353 507.44C514.761 507.44 515.913 506.864 516.809 505.712C517.705 504.544 518.153 502.84 518.153 500.6C518.153 498.36 517.705 496.664 516.809 495.512C515.913 494.344 514.761 493.76 513.353 493.76C511.945 493.76 510.793 494.344 509.897 495.512C509.001 496.664 508.553 498.36 508.553 500.6C508.553 502.84 509.001 504.544 509.897 505.712Z" fill="#5C5C5C"/>
<g opacity="0.25">
<path d="M554 516V484H558V516H554Z" fill="#A3A3A3"/>
<path d="M567.673 505.527C568.953 505.527 569.971 505.178 570.727 504.48C571.503 503.762 571.891 502.851 571.891 501.745V500.873H567.818C566.81 500.873 566.044 501.086 565.52 501.513C565.016 501.92 564.764 502.482 564.764 503.2C564.764 503.918 565.016 504.49 565.52 504.916C566.044 505.324 566.761 505.527 567.673 505.527ZM567.236 508C565.685 508 564.424 507.535 563.455 506.604C562.485 505.673 562 504.538 562 503.2C562 501.823 562.514 500.679 563.542 499.767C564.57 498.856 565.995 498.4 567.818 498.4H571.891V497.673C571.891 496.722 571.59 495.976 570.989 495.433C570.388 494.89 569.573 494.618 568.545 494.618C567.712 494.618 567.033 494.802 566.509 495.171C565.985 495.52 565.646 495.966 565.491 496.509H562.582C562.873 495.229 563.561 494.162 564.647 493.309C565.753 492.436 567.052 492 568.545 492C570.465 492 571.959 492.524 573.025 493.571C574.112 494.599 574.655 495.966 574.655 497.673V507.709H572.327L572.036 505.818H571.891C571.561 506.381 570.97 506.885 570.116 507.331C569.282 507.777 568.322 508 567.236 508Z" fill="#A3A3A3"/>
<path d="M578 516V484H582V516H578Z" fill="#A3A3A3"/>
</g>
<rect x="578" y="484" width="2" height="32" fill="white"/>
<rect x="578" y="484" width="2" height="32" fill="white"/>
<rect x="578" y="484" width="2" height="32" fill="white"/>
<rect x="556" y="484" width="2" height="32" fill="white"/>
<rect x="556" y="484" width="2" height="32" fill="white"/>
<rect x="556" y="484" width="2" height="32" fill="white"/>
<path d="M600.984 507.008C599.736 508.496 598.088 509.24 596.04 509.24C593.992 509.24 592.336 508.496 591.072 507.008C589.824 505.52 589.2 503.384 589.2 500.6C589.2 497.816 589.824 495.68 591.072 494.192C592.336 492.704 593.992 491.96 596.04 491.96C598.088 491.96 599.736 492.704 600.984 494.192C602.248 495.68 602.88 497.816 602.88 500.6C602.88 503.384 602.248 505.52 600.984 507.008ZM592.584 505.712C593.48 506.864 594.632 507.44 596.04 507.44C597.448 507.44 598.6 506.864 599.496 505.712C600.392 504.544 600.84 502.84 600.84 500.6C600.84 498.36 600.392 496.664 599.496 495.512C598.6 494.344 597.448 493.76 596.04 493.76C594.632 493.76 593.48 494.344 592.584 495.512C591.688 496.664 591.24 498.36 591.24 500.6C591.24 502.84 591.688 504.544 592.584 505.712Z" fill="#5C5C5C"/>
<path d="M577.58 686V593.6H596.06V623.3H596.72C601.736 617.58 607.676 614.72 614.54 614.72C622.284 614.72 628.488 617.272 633.152 622.376C637.904 627.392 640.28 634.3 640.28 643.1V686H621.8V645.74C621.8 641.164 620.7 637.6 618.5 635.048C616.3 632.496 613.22 631.22 609.26 631.22C605.3 631.22 602.088 632.584 599.624 635.312C597.248 637.952 596.06 641.428 596.06 645.74V686H577.58ZM670.604 686V621.98H652.124V604.16H665.324C668.844 604.16 670.604 602.4 670.604 598.88V593.6H690.404V686H670.604Z" fill="#0E0E0E"/>
<rect x="781.5" y="348.5" width="383" height="383" rx="7.5" fill="white" stroke="#EAEAEA"/>
<path d="M821.55 414V392.53H813.57V387.4H835.23V392.53H827.25V414H821.55ZM844.335 414V392.53H836.355V387.4H858.015V392.53H850.035V414H844.335ZM868.838 414V387.4H874.538V414H868.838ZM879.479 414V393.86H884.039L884.609 396.14H884.799C886.167 394.367 887.941 393.48 890.119 393.48C892.349 393.48 894.135 394.215 895.477 395.684C896.845 397.128 897.529 399.117 897.529 401.65V414H892.209V402.41C892.209 401.093 891.893 400.067 891.259 399.332C890.626 398.597 889.739 398.23 888.599 398.23C887.459 398.23 886.535 398.623 885.825 399.408C885.141 400.168 884.799 401.169 884.799 402.41V414H879.479ZM909.873 414C905.693 414 903.603 412.037 903.603 408.11V398.8H900.373V393.86H903.603L904.363 388.54H908.923V393.86H913.673V398.8H908.923V407.16C908.923 407.717 909.088 408.173 909.417 408.528C909.772 408.883 910.241 409.06 910.823 409.06H913.673V414H909.873ZM926.038 414.38C922.973 414.38 920.553 413.468 918.78 411.644C917.032 409.795 916.158 407.223 916.158 403.93C916.158 400.637 917.032 398.078 918.78 396.254C920.553 394.405 922.973 393.48 926.038 393.48C928.951 393.48 931.295 394.417 933.068 396.292C934.841 398.167 935.728 400.586 935.728 403.55L935.538 405.64H921.668C922.124 408.3 923.581 409.63 926.038 409.63C927.001 409.63 927.735 409.478 928.242 409.174C928.749 408.87 929.217 408.389 929.648 407.73H935.348C934.816 409.655 933.79 411.251 932.27 412.518C930.75 413.759 928.673 414.38 926.038 414.38ZM921.668 401.65H930.218C930.015 400.687 929.547 399.877 928.812 399.218C928.103 398.559 927.178 398.23 926.038 398.23C923.809 398.23 922.352 399.37 921.668 401.65ZM939.337 414V393.86H943.897L944.467 396.14H944.657C945.67 394.62 947.253 393.86 949.407 393.86H951.877V398.99H949.787C948.191 398.99 946.937 399.433 946.025 400.32C945.113 401.207 944.657 402.41 944.657 403.93V414H939.337ZM956.447 414V398.8H953.217V393.86H956.447V392.15C956.447 388.223 958.537 386.26 962.717 386.26H966.517V391.01H963.667C963.084 391.01 962.616 391.187 962.261 391.542C961.932 391.871 961.767 392.327 961.767 392.91V393.86H966.517V398.8H961.767V414H956.447ZM976.764 410.01C978.005 410.01 979.006 409.668 979.766 408.984C980.551 408.275 980.944 407.35 980.944 406.21V405.64H976.384C975.497 405.64 974.826 405.843 974.37 406.248C973.939 406.628 973.724 407.122 973.724 407.73C973.724 408.414 973.977 408.971 974.484 409.402C974.99 409.807 975.75 410.01 976.764 410.01ZM975.434 414.38C973.28 414.38 971.57 413.797 970.304 412.632C969.037 411.467 968.404 409.959 968.404 408.11C968.404 406.235 969.075 404.728 970.418 403.588C971.786 402.423 973.711 401.84 976.194 401.84H980.944V400.89C980.944 399.953 980.64 399.243 980.032 398.762C979.424 398.281 978.588 398.04 977.524 398.04C976.789 398.04 976.143 398.205 975.586 398.534C975.054 398.863 974.686 399.269 974.484 399.75H969.164C969.594 397.951 970.519 396.457 971.938 395.266C973.382 394.075 975.307 393.48 977.714 393.48C980.399 393.48 982.489 394.139 983.984 395.456C985.504 396.773 986.264 398.648 986.264 401.08V414H981.704L981.134 411.72H980.944C979.753 413.493 977.916 414.38 975.434 414.38ZM999.552 414.38C996.486 414.38 994.067 413.468 992.294 411.644C990.546 409.795 989.672 407.223 989.672 403.93C989.672 400.637 990.546 398.078 992.294 396.254C994.067 394.405 996.486 393.48 999.552 393.48C1002.21 393.48 1004.29 394.151 1005.78 395.494C1007.3 396.837 1008.33 398.572 1008.86 400.7H1003.54C1002.73 399.053 1001.4 398.23 999.552 398.23C998.184 398.23 997.082 398.724 996.246 399.712C995.41 400.675 994.992 402.081 994.992 403.93C994.992 405.779 995.41 407.198 996.246 408.186C997.082 409.149 998.184 409.63 999.552 409.63C1001.4 409.63 1002.73 408.807 1003.54 407.16H1008.86C1008.33 409.288 1007.3 411.023 1005.78 412.366C1004.29 413.709 1002.21 414.38 999.552 414.38ZM1021.22 414.38C1018.16 414.38 1015.74 413.468 1013.97 411.644C1012.22 409.795 1011.34 407.223 1011.34 403.93C1011.34 400.637 1012.22 398.078 1013.97 396.254C1015.74 394.405 1018.16 393.48 1021.22 393.48C1024.14 393.48 1026.48 394.417 1028.25 396.292C1030.03 398.167 1030.91 400.586 1030.91 403.55L1030.72 405.64H1016.85C1017.31 408.3 1018.77 409.63 1021.22 409.63C1022.19 409.63 1022.92 409.478 1023.43 409.174C1023.93 408.87 1024.4 408.389 1024.83 407.73H1030.53C1030 409.655 1028.98 411.251 1027.46 412.518C1025.94 413.759 1023.86 414.38 1021.22 414.38ZM1016.85 401.65H1025.4C1025.2 400.687 1024.73 399.877 1024 399.218C1023.29 398.559 1022.36 398.23 1021.22 398.23C1018.99 398.23 1017.54 399.37 1016.85 401.65ZM1041.93 414.38C1039.17 414.38 1037.07 413.772 1035.62 412.556C1034.18 411.315 1033.31 409.706 1033 407.73H1038.7C1038.8 408.237 1039.15 408.68 1039.73 409.06C1040.31 409.44 1041.05 409.63 1041.93 409.63C1044.21 409.63 1045.35 409.123 1045.35 408.11C1045.35 407.654 1045.06 407.287 1044.48 407.008C1043.92 406.729 1043.21 406.539 1042.35 406.438C1041.49 406.311 1040.55 406.109 1039.54 405.83C1038.55 405.551 1037.63 405.222 1036.76 404.842C1035.9 404.437 1035.18 403.791 1034.6 402.904C1034.04 401.992 1033.76 400.877 1033.76 399.56C1033.76 397.787 1034.47 396.33 1035.89 395.19C1037.33 394.05 1039.35 393.48 1041.93 393.48C1044.62 393.48 1046.67 394.063 1048.09 395.228C1049.51 396.368 1050.37 397.875 1050.67 399.75H1044.97C1044.72 398.737 1043.71 398.23 1041.93 398.23C1041.1 398.23 1040.44 398.357 1039.96 398.61C1039.5 398.863 1039.27 399.18 1039.27 399.56C1039.27 400.016 1039.55 400.383 1040.11 400.662C1040.69 400.941 1041.41 401.143 1042.27 401.27C1043.14 401.371 1044.06 401.561 1045.05 401.84C1046.06 402.119 1047 402.461 1047.86 402.866C1048.72 403.246 1049.43 403.892 1049.99 404.804C1050.57 405.691 1050.86 406.793 1050.86 408.11C1050.86 409.934 1050.17 411.441 1048.77 412.632C1047.38 413.797 1045.1 414.38 1041.93 414.38Z" fill="#0E0E0E"/>
<path d="M817.08 445.2H822.24C823.152 445.2 823.88 444.944 824.424 444.432C824.968 443.92 825.24 443.216 825.24 442.32C825.24 441.424 824.968 440.72 824.424 440.208C823.88 439.696 823.152 439.44 822.24 439.44H817.08V445.2ZM815.04 447V430.2H822.12C823.672 430.2 824.88 430.616 825.744 431.448C826.608 432.28 827.04 433.424 827.04 434.88C827.04 435.664 826.84 436.384 826.44 437.04C826.056 437.696 825.536 438.176 824.88 438.48C825.552 438.72 826.12 439.2 826.584 439.92C827.048 440.64 827.28 441.44 827.28 442.32C827.28 443.776 826.848 444.92 825.984 445.752C825.12 446.584 823.912 447 822.36 447H815.04ZM817.08 437.76H822C822.912 437.76 823.64 437.504 824.184 436.992C824.728 436.48 825 435.776 825 434.88C825 433.984 824.728 433.28 824.184 432.768C823.64 432.256 822.912 432 822 432H817.08V437.76ZM839.625 445.536C838.569 446.672 837.177 447.24 835.449 447.24C833.721 447.24 832.329 446.672 831.273 445.536C830.217 444.4 829.689 442.808 829.689 440.76C829.689 438.712 830.217 437.12 831.273 435.984C832.329 434.848 833.721 434.28 835.449 434.28C837.177 434.28 838.569 434.848 839.625 435.984C840.681 437.12 841.209 438.712 841.209 440.76C841.209 442.808 840.681 444.4 839.625 445.536ZM832.569 444.312C833.305 445.144 834.265 445.56 835.449 445.56C836.633 445.56 837.585 445.144 838.305 444.312C839.041 443.464 839.409 442.28 839.409 440.76C839.409 439.24 839.041 438.064 838.305 437.232C837.585 436.384 836.633 435.96 835.449 435.96C834.265 435.96 833.305 436.384 832.569 437.232C831.849 438.064 831.489 439.24 831.489 440.76C831.489 442.28 831.849 443.464 832.569 444.312ZM844.097 447V430.2H845.897V447H844.097ZM851.6 444.312C852.304 445.144 853.24 445.56 854.408 445.56C855.576 445.56 856.504 445.144 857.192 444.312C857.896 443.48 858.248 442.296 858.248 440.76C858.248 439.224 857.896 438.04 857.192 437.208C856.504 436.376 855.576 435.96 854.408 435.96C853.24 435.96 852.304 436.376 851.6 437.208C850.912 438.04 850.568 439.224 850.568 440.76C850.568 442.296 850.912 443.48 851.6 444.312ZM854.168 447.24C852.568 447.24 851.264 446.672 850.256 445.536C849.264 444.4 848.768 442.808 848.768 440.76C848.768 438.712 849.264 437.12 850.256 435.984C851.264 434.848 852.568 434.28 854.168 434.28C855.88 434.28 857.2 434.88 858.128 436.08H858.248V430.2H860.048V447H858.608L858.368 445.32H858.248C857.352 446.6 855.992 447.24 854.168 447.24Z" fill="#A3A3A3"/>
<g opacity="0.25">
<path d="M813 488H833V484H813V488Z" fill="#A3A3A3"/>
<path d="M823.073 508C821.444 508 820.067 507.583 818.942 506.749C817.817 505.915 817.109 504.829 816.818 503.491H819.873C820.261 504.752 821.327 505.382 823.073 505.382C824.178 505.382 825.012 505.207 825.575 504.858C826.137 504.49 826.418 504.034 826.418 503.491C826.418 502.967 826.195 502.55 825.749 502.24C825.303 501.93 824.741 501.716 824.062 501.6C823.402 501.464 822.685 501.29 821.909 501.076C821.133 500.863 820.406 500.621 819.727 500.349C819.068 500.078 818.515 499.612 818.069 498.953C817.623 498.293 817.4 497.479 817.4 496.509C817.4 495.229 817.895 494.162 818.884 493.309C819.892 492.436 821.24 492 822.927 492C824.498 492 825.836 492.388 826.942 493.164C828.047 493.939 828.745 494.958 829.036 496.218H825.982C825.439 495.152 824.421 494.618 822.927 494.618C821.085 494.618 820.164 495.248 820.164 496.509C820.164 497.033 820.387 497.459 820.833 497.789C821.279 498.099 821.832 498.322 822.491 498.458C823.17 498.575 823.897 498.749 824.673 498.982C825.448 499.195 826.166 499.438 826.825 499.709C827.504 499.981 828.067 500.446 828.513 501.105C828.959 501.745 829.182 502.541 829.182 503.491C829.182 504.771 828.639 505.847 827.553 506.72C826.467 507.573 824.973 508 823.073 508Z" fill="#A3A3A3"/>
<path d="M813 512H833V516H813V512Z" fill="#A3A3A3"/>
</g>
<rect x="813" y="486" width="20" height="2" fill="white"/>
<rect x="813" y="486" width="20" height="2" fill="white"/>
<rect x="813" y="486" width="20" height="2" fill="white"/>
<rect x="813" y="512" width="20" height="2" fill="white"/>
<rect x="813" y="512" width="20" height="2" fill="white"/>
<rect x="813" y="512" width="20" height="2" fill="white"/>
<path d="M840.08 509V507.2L847.64 499.52C848.6 498.56 849.08 497.64 849.08 496.76C849.08 495.8 848.784 495.064 848.192 494.552C847.616 494.024 846.792 493.76 845.72 493.76C844.744 493.76 843.928 494.04 843.272 494.6C842.632 495.144 842.248 495.824 842.12 496.64H840.08C840.336 495.216 840.944 494.08 841.904 493.232C842.88 492.384 844.152 491.96 845.72 491.96C847.384 491.96 848.696 492.4 849.656 493.28C850.632 494.144 851.12 495.304 851.12 496.76C851.12 498.04 850.44 499.36 849.08 500.72L842.72 507.2H851.36V509H840.08ZM860.129 509V505.04H852.089V503.24L859.289 492.2H862.169V503.24H864.329V505.04H862.169V509H860.129ZM854.249 503.24H860.129V494.36H860.009L854.249 503.24Z" fill="#5C5C5C"/>
<g opacity="0.25">
<path d="M897 488H917V484H897V488Z" fill="#A3A3A3"/>
<path d="M906.345 505.527C907.625 505.527 908.644 505.178 909.4 504.48C910.176 503.762 910.564 502.851 910.564 501.745V500.873H906.491C905.482 500.873 904.716 501.086 904.193 501.513C903.688 501.92 903.436 502.482 903.436 503.2C903.436 503.918 903.688 504.49 904.193 504.916C904.716 505.324 905.434 505.527 906.345 505.527ZM905.909 508C904.358 508 903.097 507.535 902.127 506.604C901.158 505.673 900.673 504.538 900.673 503.2C900.673 501.823 901.187 500.679 902.215 499.767C903.242 498.856 904.668 498.4 906.491 498.4H910.564V497.673C910.564 496.722 910.263 495.976 909.662 495.433C909.061 494.89 908.246 494.618 907.218 494.618C906.384 494.618 905.705 494.802 905.182 495.171C904.658 495.52 904.319 495.966 904.164 496.509H901.255C901.545 495.229 902.234 494.162 903.32 493.309C904.425 492.436 905.725 492 907.218 492C909.138 492 910.632 492.524 911.698 493.571C912.784 494.599 913.327 495.966 913.327 497.673V507.709H911L910.709 505.818H910.564C910.234 506.381 909.642 506.885 908.789 507.331C907.955 507.777 906.995 508 905.909 508Z" fill="#A3A3A3"/>
<path d="M897 512H917V516H897V512Z" fill="#A3A3A3"/>
</g>
<rect x="897" y="512" width="20" height="2" fill="white"/>
<rect x="897" y="486" width="20" height="2" fill="white"/>
<path d="M929.6 509.24C928.064 509.24 926.76 508.832 925.688 508.016C924.632 507.184 924.016 506.032 923.84 504.56H925.88C925.992 505.392 926.4 506.08 927.104 506.624C927.808 507.168 928.64 507.44 929.6 507.44C930.768 507.44 931.68 507.16 932.336 506.6C932.992 506.024 933.32 505.304 933.32 504.44C933.32 503.576 932.992 502.864 932.336 502.304C931.68 501.728 930.768 501.44 929.6 501.44H928.4V499.76H929.6C930.704 499.76 931.56 499.48 932.168 498.92C932.776 498.36 933.08 497.64 933.08 496.76C933.08 495.88 932.776 495.16 932.168 494.6C931.56 494.04 930.704 493.76 929.6 493.76C928.704 493.76 927.928 494.032 927.272 494.576C926.632 495.104 926.248 495.792 926.12 496.64H924.08C924.32 495.168 924.936 494.024 925.928 493.208C926.92 492.376 928.144 491.96 929.6 491.96C931.312 491.96 932.656 492.408 933.632 493.304C934.624 494.2 935.12 495.352 935.12 496.76C935.12 498.648 934.28 499.888 932.6 500.48C933.48 500.768 934.16 501.272 934.64 501.992C935.12 502.696 935.36 503.512 935.36 504.44C935.36 505.816 934.848 506.96 933.824 507.872C932.8 508.784 931.392 509.24 929.6 509.24ZM941.056 506.576C941.744 507.152 942.648 507.44 943.768 507.44C944.888 507.44 945.784 507.152 946.456 506.576C947.144 505.984 947.488 505.232 947.488 504.32C947.488 503.408 947.144 502.664 946.456 502.088C945.784 501.496 944.888 501.2 943.768 501.2C942.648 501.2 941.744 501.496 941.056 502.088C940.384 502.664 940.048 503.408 940.048 504.32C940.048 505.232 940.384 505.984 941.056 506.576ZM947.968 507.848C946.928 508.776 945.528 509.24 943.768 509.24C942.008 509.24 940.608 508.776 939.568 507.848C938.528 506.92 938.008 505.744 938.008 504.32C938.008 503.456 938.272 502.664 938.8 501.944C939.344 501.208 940 500.68 940.768 500.36C940.096 500.024 939.528 499.528 939.064 498.872C938.6 498.216 938.368 497.472 938.368 496.64C938.368 495.28 938.856 494.16 939.832 493.28C940.808 492.4 942.12 491.96 943.768 491.96C945.416 491.96 946.728 492.4 947.704 493.28C948.68 494.16 949.168 495.28 949.168 496.64C949.168 497.472 948.936 498.216 948.472 498.872C948.008 499.528 947.44 500.024 946.768 500.36C947.536 500.68 948.184 501.208 948.712 501.944C949.256 502.664 949.528 503.456 949.528 504.32C949.528 505.744 949.008 506.92 947.968 507.848ZM941.32 498.728C941.944 499.256 942.76 499.52 943.768 499.52C944.776 499.52 945.584 499.256 946.192 498.728C946.816 498.184 947.128 497.488 947.128 496.64C947.128 495.792 946.816 495.104 946.192 494.576C945.584 494.032 944.776 493.76 943.768 493.76C942.76 493.76 941.944 494.032 941.32 494.576C940.712 495.104 940.408 495.792 940.408 496.64C940.408 497.488 940.712 498.184 941.32 498.728Z" fill="#5C5C5C"/>
<g opacity="0.25">
<path d="M983 516V484H987V516H983Z" fill="#A3A3A3"/>
<path d="M996.673 505.527C997.953 505.527 998.971 505.178 999.727 504.48C1000.5 503.762 1000.89 502.851 1000.89 501.745V500.873H996.818C995.81 500.873 995.044 501.086 994.52 501.513C994.016 501.92 993.764 502.482 993.764 503.2C993.764 503.918 994.016 504.49 994.52 504.916C995.044 505.324 995.761 505.527 996.673 505.527ZM996.236 508C994.685 508 993.424 507.535 992.455 506.604C991.485 505.673 991 504.538 991 503.2C991 501.823 991.514 500.679 992.542 499.767C993.57 498.856 994.995 498.4 996.818 498.4H1000.89V497.673C1000.89 496.722 1000.59 495.976 999.989 495.433C999.388 494.89 998.573 494.618 997.545 494.618C996.712 494.618 996.033 494.802 995.509 495.171C994.985 495.52 994.646 495.966 994.491 496.509H991.582C991.873 495.229 992.561 494.162 993.647 493.309C994.753 492.436 996.052 492 997.545 492C999.465 492 1000.96 492.524 1002.03 493.571C1003.11 494.599 1003.65 495.966 1003.65 497.673V507.709H1001.33L1001.04 505.818H1000.89C1000.56 506.381 999.97 506.885 999.116 507.331C998.282 507.777 997.322 508 996.236 508Z" fill="#A3A3A3"/>
<path d="M1007 516V484H1011V516H1007Z" fill="#A3A3A3"/>
</g>
<rect x="1007" y="484" width="2" height="32" fill="white"/>
<rect x="1007" y="484" width="2" height="32" fill="white"/>
<rect x="1007" y="484" width="2" height="32" fill="white"/>
<rect x="985" y="484" width="2" height="32" fill="white"/>
<rect x="985" y="484" width="2" height="32" fill="white"/>
<rect x="985" y="484" width="2" height="32" fill="white"/>
<path d="M1029.98 507.008C1028.74 508.496 1027.09 509.24 1025.04 509.24C1022.99 509.24 1021.34 508.496 1020.07 507.008C1018.82 505.52 1018.2 503.384 1018.2 500.6C1018.2 497.816 1018.82 495.68 1020.07 494.192C1021.34 492.704 1022.99 491.96 1025.04 491.96C1027.09 491.96 1028.74 492.704 1029.98 494.192C1031.25 495.68 1031.88 497.816 1031.88 500.6C1031.88 503.384 1031.25 505.52 1029.98 507.008ZM1021.58 505.712C1022.48 506.864 1023.63 507.44 1025.04 507.44C1026.45 507.44 1027.6 506.864 1028.5 505.712C1029.39 504.544 1029.84 502.84 1029.84 500.6C1029.84 498.36 1029.39 496.664 1028.5 495.512C1027.6 494.344 1026.45 493.76 1025.04 493.76C1023.63 493.76 1022.48 494.344 1021.58 495.512C1020.69 496.664 1020.24 498.36 1020.24 500.6C1020.24 502.84 1020.69 504.544 1021.58 505.712Z" fill="#5C5C5C"/>
<path d="M983.58 686V593.6H1002.06V623.3H1002.72C1007.74 617.58 1013.68 614.72 1020.54 614.72C1028.28 614.72 1034.49 617.272 1039.15 622.376C1043.9 627.392 1046.28 634.3 1046.28 643.1V686H1027.8V645.74C1027.8 641.164 1026.7 637.6 1024.5 635.048C1022.3 632.496 1019.22 631.22 1015.26 631.22C1011.3 631.22 1008.09 632.584 1005.62 635.312C1003.25 637.952 1002.06 641.428 1002.06 645.74V686H983.58ZM1058.12 686V668.18L1098.38 632.54C1102.78 628.756 1104.98 625.016 1104.98 621.32C1104.98 613.84 1100.58 610.1 1091.78 610.1C1088.09 610.1 1085.01 611.068 1082.54 613.004C1080.08 614.94 1078.54 617.712 1077.92 621.32H1058.12C1059.18 612.696 1062.48 605.7 1068.02 600.332C1073.57 594.964 1081.49 592.28 1091.78 592.28C1102.87 592.28 1111.23 594.832 1116.86 599.936C1122.58 604.952 1125.44 611.64 1125.44 620C1125.44 628.448 1121.26 636.368 1112.9 643.76L1085.18 668.18H1126.76V686H1058.12Z" fill="#0E0E0E"/>
<rect x="781.5" y="781.5" width="383" height="383" rx="7.5" fill="white" stroke="#EAEAEA"/>
<path d="M821.55 847V825.53H813.57V820.4H835.23V825.53H827.25V847H821.55ZM844.335 847V825.53H836.355V820.4H858.015V825.53H850.035V847H844.335ZM868.838 847V820.4H874.538V847H868.838ZM879.479 847V826.86H884.039L884.609 829.14H884.799C886.167 827.367 887.941 826.48 890.119 826.48C892.349 826.48 894.135 827.215 895.477 828.684C896.845 830.128 897.529 832.117 897.529 834.65V847H892.209V835.41C892.209 834.093 891.893 833.067 891.259 832.332C890.626 831.597 889.739 831.23 888.599 831.23C887.459 831.23 886.535 831.623 885.825 832.408C885.141 833.168 884.799 834.169 884.799 835.41V847H879.479ZM909.873 847C905.693 847 903.603 845.037 903.603 841.11V831.8H900.373V826.86H903.603L904.363 821.54H908.923V826.86H913.673V831.8H908.923V840.16C908.923 840.717 909.088 841.173 909.417 841.528C909.772 841.883 910.241 842.06 910.823 842.06H913.673V847H909.873ZM926.038 847.38C922.973 847.38 920.553 846.468 918.78 844.644C917.032 842.795 916.158 840.223 916.158 836.93C916.158 833.637 917.032 831.078 918.78 829.254C920.553 827.405 922.973 826.48 926.038 826.48C928.951 826.48 931.295 827.417 933.068 829.292C934.841 831.167 935.728 833.586 935.728 836.55L935.538 838.64H921.668C922.124 841.3 923.581 842.63 926.038 842.63C927.001 842.63 927.735 842.478 928.242 842.174C928.749 841.87 929.217 841.389 929.648 840.73H935.348C934.816 842.655 933.79 844.251 932.27 845.518C930.75 846.759 928.673 847.38 926.038 847.38ZM921.668 834.65H930.218C930.015 833.687 929.547 832.877 928.812 832.218C928.103 831.559 927.178 831.23 926.038 831.23C923.809 831.23 922.352 832.37 921.668 834.65ZM939.337 847V826.86H943.897L944.467 829.14H944.657C945.67 827.62 947.253 826.86 949.407 826.86H951.877V831.99H949.787C948.191 831.99 946.937 832.433 946.025 833.32C945.113 834.207 944.657 835.41 944.657 836.93V847H939.337ZM956.447 847V831.8H953.217V826.86H956.447V825.15C956.447 821.223 958.537 819.26 962.717 819.26H966.517V824.01H963.667C963.084 824.01 962.616 824.187 962.261 824.542C961.932 824.871 961.767 825.327 961.767 825.91V826.86H966.517V831.8H961.767V847H956.447ZM976.764 843.01C978.005 843.01 979.006 842.668 979.766 841.984C980.551 841.275 980.944 840.35 980.944 839.21V838.64H976.384C975.497 838.64 974.826 838.843 974.37 839.248C973.939 839.628 973.724 840.122 973.724 840.73C973.724 841.414 973.977 841.971 974.484 842.402C974.99 842.807 975.75 843.01 976.764 843.01ZM975.434 847.38C973.28 847.38 971.57 846.797 970.304 845.632C969.037 844.467 968.404 842.959 968.404 841.11C968.404 839.235 969.075 837.728 970.418 836.588C971.786 835.423 973.711 834.84 976.194 834.84H980.944V833.89C980.944 832.953 980.64 832.243 980.032 831.762C979.424 831.281 978.588 831.04 977.524 831.04C976.789 831.04 976.143 831.205 975.586 831.534C975.054 831.863 974.686 832.269 974.484 832.75H969.164C969.594 830.951 970.519 829.457 971.938 828.266C973.382 827.075 975.307 826.48 977.714 826.48C980.399 826.48 982.489 827.139 983.984 828.456C985.504 829.773 986.264 831.648 986.264 834.08V847H981.704L981.134 844.72H980.944C979.753 846.493 977.916 847.38 975.434 847.38ZM999.552 847.38C996.486 847.38 994.067 846.468 992.294 844.644C990.546 842.795 989.672 840.223 989.672 836.93C989.672 833.637 990.546 831.078 992.294 829.254C994.067 827.405 996.486 826.48 999.552 826.48C1002.21 826.48 1004.29 827.151 1005.78 828.494C1007.3 829.837 1008.33 831.572 1008.86 833.7H1003.54C1002.73 832.053 1001.4 831.23 999.552 831.23C998.184 831.23 997.082 831.724 996.246 832.712C995.41 833.675 994.992 835.081 994.992 836.93C994.992 838.779 995.41 840.198 996.246 841.186C997.082 842.149 998.184 842.63 999.552 842.63C1001.4 842.63 1002.73 841.807 1003.54 840.16H1008.86C1008.33 842.288 1007.3 844.023 1005.78 845.366C1004.29 846.709 1002.21 847.38 999.552 847.38ZM1021.22 847.38C1018.16 847.38 1015.74 846.468 1013.97 844.644C1012.22 842.795 1011.34 840.223 1011.34 836.93C1011.34 833.637 1012.22 831.078 1013.97 829.254C1015.74 827.405 1018.16 826.48 1021.22 826.48C1024.14 826.48 1026.48 827.417 1028.25 829.292C1030.03 831.167 1030.91 833.586 1030.91 836.55L1030.72 838.64H1016.85C1017.31 841.3 1018.77 842.63 1021.22 842.63C1022.19 842.63 1022.92 842.478 1023.43 842.174C1023.93 841.87 1024.4 841.389 1024.83 840.73H1030.53C1030 842.655 1028.98 844.251 1027.46 845.518C1025.94 846.759 1023.86 847.38 1021.22 847.38ZM1016.85 834.65H1025.4C1025.2 833.687 1024.73 832.877 1024 832.218C1023.29 831.559 1022.36 831.23 1021.22 831.23C1018.99 831.23 1017.54 832.37 1016.85 834.65ZM1041.93 847.38C1039.17 847.38 1037.07 846.772 1035.62 845.556C1034.18 844.315 1033.31 842.706 1033 840.73H1038.7C1038.8 841.237 1039.15 841.68 1039.73 842.06C1040.31 842.44 1041.05 842.63 1041.93 842.63C1044.21 842.63 1045.35 842.123 1045.35 841.11C1045.35 840.654 1045.06 840.287 1044.48 840.008C1043.92 839.729 1043.21 839.539 1042.35 839.438C1041.49 839.311 1040.55 839.109 1039.54 838.83C1038.55 838.551 1037.63 838.222 1036.76 837.842C1035.9 837.437 1035.18 836.791 1034.6 835.904C1034.04 834.992 1033.76 833.877 1033.76 832.56C1033.76 830.787 1034.47 829.33 1035.89 828.19C1037.33 827.05 1039.35 826.48 1041.93 826.48C1044.62 826.48 1046.67 827.063 1048.09 828.228C1049.51 829.368 1050.37 830.875 1050.67 832.75H1044.97C1044.72 831.737 1043.71 831.23 1041.93 831.23C1041.1 831.23 1040.44 831.357 1039.96 831.61C1039.5 831.863 1039.27 832.18 1039.27 832.56C1039.27 833.016 1039.55 833.383 1040.11 833.662C1040.69 833.941 1041.41 834.143 1042.27 834.27C1043.14 834.371 1044.06 834.561 1045.05 834.84C1046.06 835.119 1047 835.461 1047.86 835.866C1048.72 836.246 1049.43 836.892 1049.99 837.804C1050.57 838.691 1050.86 839.793 1050.86 841.11C1050.86 842.934 1050.17 844.441 1048.77 845.632C1047.38 846.797 1045.1 847.38 1041.93 847.38Z" fill="#0E0E0E"/>
<path d="M815.04 880V863.2H821.52C823.136 863.2 824.416 863.664 825.36 864.592C826.32 865.52 826.8 866.736 826.8 868.24C826.8 869.776 826.336 870.968 825.408 871.816C824.496 872.648 823.44 873.136 822.24 873.28L827.04 880H824.76L819.96 873.28H817.08V880H815.04ZM817.08 871.48H821.4C822.456 871.48 823.28 871.184 823.872 870.592C824.464 870 824.76 869.216 824.76 868.24C824.76 867.264 824.464 866.48 823.872 865.888C823.28 865.296 822.456 865 821.4 865H817.08V871.48ZM834.606 880.24C832.878 880.24 831.486 879.672 830.43 878.536C829.374 877.4 828.846 875.808 828.846 873.76C828.846 871.712 829.366 870.12 830.406 868.984C831.462 867.848 832.822 867.28 834.486 867.28C835.398 867.28 836.222 867.464 836.958 867.832C837.71 868.184 838.31 868.648 838.758 869.224C839.206 869.8 839.542 870.416 839.766 871.072C840.006 871.728 840.126 872.384 840.126 873.04L840.006 874.24H830.646C830.71 875.632 831.102 876.704 831.822 877.456C832.558 878.192 833.486 878.56 834.606 878.56C836.046 878.56 837.126 877.96 837.846 876.76H839.766C839.35 877.88 838.686 878.744 837.774 879.352C836.878 879.944 835.822 880.24 834.606 880.24ZM830.646 872.68H838.326C838.214 871.512 837.806 870.6 837.102 869.944C836.398 869.288 835.526 868.96 834.486 868.96C833.446 868.96 832.574 869.288 831.87 869.944C831.166 870.6 830.758 871.512 830.646 872.68ZM848.035 884.8C846.723 884.8 845.571 884.48 844.579 883.84C843.603 883.216 842.915 882.296 842.515 881.08H844.435C845.059 882.44 846.259 883.12 848.035 883.12C849.155 883.12 850.051 882.832 850.723 882.256C851.411 881.696 851.755 880.864 851.755 879.76V877.6H851.635C850.771 878.72 849.451 879.28 847.675 879.28C846.075 879.28 844.771 878.752 843.763 877.696C842.771 876.624 842.275 875.152 842.275 873.28C842.275 871.408 842.771 869.944 843.763 868.888C844.771 867.816 846.075 867.28 847.675 867.28C849.467 867.28 850.827 867.88 851.755 869.08H851.875L852.115 867.52H853.555V879.76C853.555 881.344 853.051 882.576 852.043 883.456C851.035 884.352 849.699 884.8 848.035 884.8ZM845.107 876.472C845.811 877.224 846.747 877.6 847.915 877.6C849.083 877.6 850.011 877.224 850.699 876.472C851.403 875.704 851.755 874.64 851.755 873.28C851.755 871.92 851.403 870.864 850.699 870.112C850.011 869.344 849.083 868.96 847.915 868.96C846.747 868.96 845.811 869.344 845.107 870.112C844.419 870.864 844.075 871.92 844.075 873.28C844.075 874.64 844.419 875.704 845.107 876.472ZM861.594 880.24C860.25 880.24 859.13 879.784 858.234 878.872C857.354 877.944 856.914 876.72 856.914 875.2V867.52H858.714V875.2C858.714 876.256 859.002 877.08 859.578 877.672C860.154 878.264 860.906 878.56 861.834 878.56C862.778 878.56 863.57 878.232 864.21 877.576C864.866 876.904 865.194 876.112 865.194 875.2V867.52H866.994V880H865.554L865.314 878.32H865.194C864.442 879.6 863.242 880.24 861.594 880.24ZM870.464 880V863.2H872.264V880H870.464ZM879.335 878.56C880.503 878.56 881.431 878.232 882.119 877.576C882.823 876.904 883.175 876.072 883.175 875.08V874.24H879.695C878.751 874.24 878.031 874.432 877.535 874.816C877.055 875.2 876.815 875.728 876.815 876.4C876.815 877.056 877.039 877.584 877.487 877.984C877.935 878.368 878.551 878.56 879.335 878.56ZM879.335 880.24C878.039 880.24 876.991 879.88 876.191 879.16C875.407 878.424 875.015 877.504 875.015 876.4C875.015 875.28 875.431 874.36 876.263 873.64C877.095 872.92 878.239 872.56 879.695 872.56H883.175V871.72C883.175 870.888 882.895 870.224 882.335 869.728C881.791 869.216 881.071 868.96 880.175 868.96C878.655 868.96 877.695 869.56 877.295 870.76H875.375C875.663 869.64 876.231 868.784 877.079 868.192C877.927 867.584 878.959 867.28 880.175 867.28C881.663 867.28 882.831 867.688 883.679 868.504C884.543 869.304 884.975 870.376 884.975 871.72V880H883.535L883.295 878.32H883.175C882.903 878.8 882.415 879.24 881.711 879.64C881.007 880.04 880.215 880.24 879.335 880.24ZM888.203 880V867.52H889.643L889.883 869.2H890.003C890.675 868.08 891.795 867.52 893.363 867.52H894.683V869.2H893.363C892.403 869.2 891.603 869.496 890.963 870.088C890.323 870.68 890.003 871.424 890.003 872.32V880H888.203Z" fill="#A3A3A3"/>
<g opacity="0.25">
<path d="M813 921H833V917H813V921Z" fill="#A3A3A3"/>
<path d="M823.073 941C821.444 941 820.067 940.583 818.942 939.749C817.817 938.915 817.109 937.829 816.818 936.491H819.873C820.261 937.752 821.327 938.382 823.073 938.382C824.178 938.382 825.012 938.207 825.575 937.858C826.137 937.49 826.418 937.034 826.418 936.491C826.418 935.967 826.195 935.55 825.749 935.24C825.303 934.93 824.741 934.716 824.062 934.6C823.402 934.464 822.685 934.29 821.909 934.076C821.133 933.863 820.406 933.621 819.727 933.349C819.068 933.078 818.515 932.612 818.069 931.953C817.623 931.293 817.4 930.479 817.4 929.509C817.4 928.229 817.895 927.162 818.884 926.309C819.892 925.436 821.24 925 822.927 925C824.498 925 825.836 925.388 826.942 926.164C828.047 926.939 828.745 927.958 829.036 929.218H825.982C825.439 928.152 824.421 927.618 822.927 927.618C821.085 927.618 820.164 928.248 820.164 929.509C820.164 930.033 820.387 930.459 820.833 930.789C821.279 931.099 821.832 931.322 822.491 931.458C823.17 931.575 823.897 931.749 824.673 931.982C825.448 932.195 826.166 932.438 826.825 932.709C827.504 932.981 828.067 933.446 828.513 934.105C828.959 934.745 829.182 935.541 829.182 936.491C829.182 937.771 828.639 938.847 827.553 939.72C826.467 940.573 824.973 941 823.073 941Z" fill="#A3A3A3"/>
<path d="M813 945H833V949H813V945Z" fill="#A3A3A3"/>
</g>
<rect x="813" y="919" width="20" height="2" fill="white"/>
<rect x="813" y="919" width="20" height="2" fill="white"/>
<rect x="813" y="919" width="20" height="2" fill="white"/>
<rect x="813" y="945" width="20" height="2" fill="white"/>
<rect x="813" y="945" width="20" height="2" fill="white"/>
<rect x="813" y="945" width="20" height="2" fill="white"/>
<path d="M842.96 942V929.16H839.72V927.36H842C842.64 927.36 842.96 927.04 842.96 926.4V925.2H845V942H842.96ZM855.559 942V938.04H847.519V936.24L854.719 925.2H857.599V936.24H859.759V938.04H857.599V942H855.559ZM849.679 936.24H855.559V927.36H855.439L849.679 936.24Z" fill="#5C5C5C"/>
<g opacity="0.25">
<path d="M893 921H913V917H893V921Z" fill="#A3A3A3"/>
<path d="M902.345 938.527C903.625 938.527 904.644 938.178 905.4 937.48C906.176 936.762 906.564 935.851 906.564 934.745V933.873H902.491C901.482 933.873 900.716 934.086 900.193 934.513C899.688 934.92 899.436 935.482 899.436 936.2C899.436 936.918 899.688 937.49 900.193 937.916C900.716 938.324 901.434 938.527 902.345 938.527ZM901.909 941C900.358 941 899.097 940.535 898.127 939.604C897.158 938.673 896.673 937.538 896.673 936.2C896.673 934.823 897.187 933.679 898.215 932.767C899.242 931.856 900.668 931.4 902.491 931.4H906.564V930.673C906.564 929.722 906.263 928.976 905.662 928.433C905.061 927.89 904.246 927.618 903.218 927.618C902.384 927.618 901.705 927.802 901.182 928.171C900.658 928.52 900.319 928.966 900.164 929.509H897.255C897.545 928.229 898.234 927.162 899.32 926.309C900.425 925.436 901.725 925 903.218 925C905.138 925 906.632 925.524 907.698 926.571C908.784 927.599 909.327 928.966 909.327 930.673V940.709H907L906.709 938.818H906.564C906.234 939.381 905.642 939.885 904.789 940.331C903.955 940.777 902.995 941 901.909 941Z" fill="#A3A3A3"/>
<path d="M893 945H913V949H893V945Z" fill="#A3A3A3"/>
</g>
<rect x="893" y="945" width="20" height="2" fill="white"/>
<rect x="893" y="919" width="20" height="2" fill="white"/>
<path d="M920.08 942V940.2L927.64 932.52C928.6 931.56 929.08 930.64 929.08 929.76C929.08 928.8 928.784 928.064 928.192 927.552C927.616 927.024 926.792 926.76 925.72 926.76C924.744 926.76 923.928 927.04 923.272 927.6C922.632 928.144 922.248 928.824 922.12 929.64H920.08C920.336 928.216 920.944 927.08 921.904 926.232C922.88 925.384 924.152 924.96 925.72 924.96C927.384 924.96 928.696 925.4 929.656 926.28C930.632 927.144 931.12 928.304 931.12 929.76C931.12 931.04 930.44 932.36 929.08 933.72L922.72 940.2H931.36V942H920.08ZM945.086 940.008C943.838 941.496 942.19 942.24 940.142 942.24C938.094 942.24 936.438 941.496 935.174 940.008C933.926 938.52 933.302 936.384 933.302 933.6C933.302 930.816 933.926 928.68 935.174 927.192C936.438 925.704 938.094 924.96 940.142 924.96C942.19 924.96 943.838 925.704 945.086 927.192C946.35 928.68 946.982 930.816 946.982 933.6C946.982 936.384 946.35 938.52 945.086 940.008ZM936.686 938.712C937.582 939.864 938.734 940.44 940.142 940.44C941.55 940.44 942.702 939.864 943.598 938.712C944.494 937.544 944.942 935.84 944.942 933.6C944.942 931.36 944.494 929.664 943.598 928.512C942.702 927.344 941.55 926.76 940.142 926.76C938.734 926.76 937.582 927.344 936.686 928.512C935.79 929.664 935.342 931.36 935.342 933.6C935.342 935.84 935.79 937.544 936.686 938.712Z" fill="#5C5C5C"/>
<g opacity="0.25">
<path d="M981 949V917H985V949H981Z" fill="#A3A3A3"/>
<path d="M994.673 938.527C995.953 938.527 996.971 938.178 997.727 937.48C998.503 936.762 998.891 935.851 998.891 934.745V933.873H994.818C993.81 933.873 993.044 934.086 992.52 934.513C992.016 934.92 991.764 935.482 991.764 936.2C991.764 936.918 992.016 937.49 992.52 937.916C993.044 938.324 993.761 938.527 994.673 938.527ZM994.236 941C992.685 941 991.424 940.535 990.455 939.604C989.485 938.673 989 937.538 989 936.2C989 934.823 989.514 933.679 990.542 932.767C991.57 931.856 992.995 931.4 994.818 931.4H998.891V930.673C998.891 929.722 998.59 928.976 997.989 928.433C997.388 927.89 996.573 927.618 995.545 927.618C994.712 927.618 994.033 927.802 993.509 928.171C992.985 928.52 992.646 928.966 992.491 929.509H989.582C989.873 928.229 990.561 927.162 991.647 926.309C992.753 925.436 994.052 925 995.545 925C997.465 925 998.959 925.524 1000.03 926.571C1001.11 927.599 1001.65 928.966 1001.65 930.673V940.709H999.327L999.036 938.818H998.891C998.561 939.381 997.97 939.885 997.116 940.331C996.282 940.777 995.322 941 994.236 941Z" fill="#A3A3A3"/>
<path d="M1005 949V917H1009V949H1005Z" fill="#A3A3A3"/>
</g>
<rect x="1005" y="917" width="2" height="32" fill="white"/>
<rect x="1005" y="917" width="2" height="32" fill="white"/>
<rect x="1005" y="917" width="2" height="32" fill="white"/>
<rect x="983" y="917" width="2" height="32" fill="white"/>
<rect x="983" y="917" width="2" height="32" fill="white"/>
<rect x="983" y="917" width="2" height="32" fill="white"/>
<path d="M1027.98 940.008C1026.74 941.496 1025.09 942.24 1023.04 942.24C1020.99 942.24 1019.34 941.496 1018.07 940.008C1016.82 938.52 1016.2 936.384 1016.2 933.6C1016.2 930.816 1016.82 928.68 1018.07 927.192C1019.34 925.704 1020.99 924.96 1023.04 924.96C1025.09 924.96 1026.74 925.704 1027.98 927.192C1029.25 928.68 1029.88 930.816 1029.88 933.6C1029.88 936.384 1029.25 938.52 1027.98 940.008ZM1019.58 938.712C1020.48 939.864 1021.63 940.44 1023.04 940.44C1024.45 940.44 1025.6 939.864 1026.5 938.712C1027.39 937.544 1027.84 935.84 1027.84 933.6C1027.84 931.36 1027.39 929.664 1026.5 928.512C1025.6 927.344 1024.45 926.76 1023.04 926.76C1021.63 926.76 1020.48 927.344 1019.58 928.512C1018.69 929.664 1018.24 931.36 1018.24 933.6C1018.24 935.84 1018.69 937.544 1019.58 938.712Z" fill="#5C5C5C"/>
<path d="M1058.92 1145.4V1049.04H1074.76L1076.74 1056.96H1077.4C1082.68 1050.8 1089.28 1047.72 1097.2 1047.72C1106.35 1047.72 1113.7 1050.89 1119.24 1057.22C1124.79 1063.47 1127.56 1072.4 1127.56 1084.02C1127.56 1095.64 1124.79 1104.61 1119.24 1110.95C1113.7 1117.2 1106.35 1120.32 1097.2 1120.32C1089.02 1120.32 1082.64 1117.46 1078.06 1111.74H1077.4V1145.4H1058.92ZM1081.89 1098.94C1084.88 1102.19 1088.66 1103.82 1093.24 1103.82C1097.82 1103.82 1101.6 1102.19 1104.59 1098.94C1107.58 1095.59 1109.08 1090.62 1109.08 1084.02C1109.08 1077.42 1107.58 1072.49 1104.59 1069.24C1101.6 1065.89 1097.82 1064.22 1093.24 1064.22C1088.66 1064.22 1084.88 1065.89 1081.89 1069.24C1078.9 1072.49 1077.4 1077.42 1077.4 1084.02C1077.4 1090.62 1078.9 1095.59 1081.89 1098.94Z" fill="#0E0E0E"/>
</g>
<defs>
<linearGradient id="paint0_linear_32_1594" x1="13" y1="-46" x2="1093.5" y2="1080" gradientUnits="userSpaceOnUse">
<stop offset="0.289749" stop-color="white" stop-opacity="0"/>
<stop offset="1" stop-color="white"/>
</linearGradient>
<radialGradient id="paint1_radial_32_1594" cx="0" cy="0" r="1" gradientUnits="userSpaceOnUse" gradientTransform="translate(1080 1103.5) rotate(-133.316) scale(1683.48)">
<stop stop-color="#00FFC4" stop-opacity="0.25"/>
<stop offset="0.602101" stop-color="#00FFC4" stop-opacity="0"/>
</radialGradient>
<clipPath id="clip0_32_1594">
<rect width="1080" height="1080" fill="white"/>
</clipPath>
</defs>
</svg>
