<svg width="1080" height="1080" viewBox="0 0 1080 1080" fill="none" xmlns="http://www.w3.org/2000/svg">
<g clip-path="url(#clip0_33_2472)">
<path d="M36.4991 0L36.4991 1080M60.4992 0L60.4991 1080M84.4992 0L84.4992 1080M108.499 0L108.499 1080M132.499 0L132.499 1080M156.499 0L156.499 1080M180.499 0L180.499 1080M204.499 0L204.499 1080M228.499 0L228.499 1080M252.5 0L252.499 1080M276.5 0L276.5 1080M300.5 0L300.5 1080M324.5 0L324.5 1080M348.5 0L348.5 1080M372.5 0L372.5 1080M396.5 0L396.5 1080M420.5 0L420.5 1080M444.5 0L444.5 1080M468.5 0L468.5 1080M492.5 0L492.5 1080M516.5 0L516.5 1080M540.5 0L540.5 1080M564.5 0L564.5 1080M588.5 0L588.5 1080M612.5 0L612.5 1080M636.5 0L636.5 1080M660.501 0L660.5 1080M684.501 0L684.501 1080M708.501 0L708.501 1080M732.501 0L732.501 1080M756.501 0L756.501 1080M780.501 0L780.501 1080M804.501 0L804.501 1080M828.501 0L828.501 1080M852.501 0L852.501 1080M876.501 0L876.501 1080M900.501 0L900.501 1080M924.501 0L924.501 1080M948.501 0L948.501 1080M972.501 0L972.501 1080M996.501 0L996.501 1080M1020.5 0L1020.5 1080M1044.5 0V1080M1080 36.499L4.40612e-05 36.4989M1080 60.4991L4.30121e-05 60.499M1080 84.4991L4.1963e-05 84.499M1080 108.499L4.0914e-05 108.499M1080 132.499L3.98649e-05 132.499M1080 156.499L3.88158e-05 156.499M1080 180.499L3.77667e-05 180.499M1080 204.499L3.67177e-05 204.499M1080 228.499L3.56686e-05 228.499M1080 252.499L3.46195e-05 252.499M1080 276.5L3.35704e-05 276.499M1080 300.5L3.25213e-05 300.499M1080 324.5L3.14723e-05 324.5M1080 348.5L3.04232e-05 348.5M1080 372.5L2.93741e-05 372.5M1080 396.5L2.8325e-05 396.5M1080 420.5L2.7276e-05 420.5M1080 444.5L2.62269e-05 444.5M1080 468.5L2.51778e-05 468.5M1080 492.5L2.41287e-05 492.5M1080 516.5L2.30797e-05 516.5M1080 540.5L2.20306e-05 540.5M1080 564.5L2.09815e-05 564.5M1080 588.5L1.99324e-05 588.5M1080 612.5L1.88834e-05 612.5M1080 636.5L1.78343e-05 636.5M1080 660.5L1.67852e-05 660.5M1080 684.5L1.57361e-05 684.5M1080 708.501L1.46871e-05 708.5M1080 732.501L1.3638e-05 732.501M1080 756.501L1.25889e-05 756.501M1080 780.501L1.15398e-05 780.501M1080 804.501L1.04908e-05 804.501M1080 828.501L9.44168e-06 828.501M1080 852.501L8.3926e-06 852.501M1080 876.501L7.34353e-06 876.501M1080 900.501L6.29445e-06 900.501M1080 924.501L5.24538e-06 924.501M1080 948.501L4.1963e-06 948.501M1080 972.501L3.14722e-06 972.501M1080 996.501L2.09815e-06 996.501M1080 1020.5L1.04907e-06 1020.5M1080 1044.5L0 1044.5" stroke="url(#paint0_linear_33_2472)" stroke-opacity="0.15"/>
<rect x="456" y="444" width="169" height="169" rx="24" fill="url(#paint1_linear_33_2472)"/>
<rect x="456.5" y="444.5" width="168" height="168" rx="23.5" stroke="white" stroke-opacity="0.25"/>
<rect width="1080" height="1080" fill="url(#paint2_radial_33_2472)"/>
<g filter="url(#filter0_dddddd_33_2472)">
<path d="M477 552.319V504.681H495.586C498.96 504.681 501.957 505.361 504.576 506.722C507.195 508.038 509.235 509.944 510.696 512.439C512.156 514.889 512.887 517.747 512.887 521.014C512.887 524.281 512.156 527.162 510.696 529.657C509.235 532.107 507.195 534.012 504.576 535.374C501.957 536.689 498.96 537.347 495.586 537.347H487.955V552.319H477ZM494.679 527.819C496.895 527.819 498.658 527.207 499.968 525.982C501.277 524.757 501.932 523.101 501.932 521.014C501.932 518.927 501.277 517.271 499.968 516.046C498.658 514.821 496.895 514.208 494.679 514.208H487.955V527.819H494.679Z" fill="url(#paint3_linear_33_2472)"/>
<path d="M560.454 552.319H547.233L534.918 536.326H532.878V552.319H521.923V504.681H540.509C543.732 504.681 546.629 505.361 549.197 506.722C551.766 508.083 553.781 509.989 555.241 512.439C556.702 514.889 557.432 517.679 557.432 520.81C557.432 524.303 556.425 527.343 554.41 529.929C552.396 532.515 549.802 534.239 546.629 535.101L560.454 552.319ZM532.878 527.479H539.225C541.39 527.479 543.128 526.844 544.438 525.574C545.797 524.303 546.477 522.67 546.477 520.674C546.477 518.677 545.797 517.044 544.438 515.774C543.128 514.503 541.39 513.868 539.225 513.868H532.878V527.479Z" fill="url(#paint4_linear_33_2472)"/>
<path d="M584.601 553C580.673 553 577.147 551.956 574.024 549.869C570.952 547.737 568.534 544.811 566.771 541.09C565.059 537.37 564.202 533.173 564.202 528.5C564.202 523.827 565.059 519.63 566.771 515.91C568.534 512.189 570.952 509.286 574.024 507.199C577.147 505.066 580.673 504 584.601 504C588.53 504 592.03 505.066 595.103 507.199C598.226 509.286 600.643 512.189 602.356 515.91C604.119 519.63 605 523.827 605 528.5C605 533.173 604.119 537.37 602.356 541.09C600.643 544.811 598.226 547.737 595.103 549.869C592.03 551.956 588.53 553 584.601 553ZM584.601 543.472C587.573 543.472 589.89 542.134 591.552 539.457C593.214 536.735 594.045 533.082 594.045 528.5C594.045 523.918 593.214 520.288 591.552 517.611C589.89 514.889 587.573 513.528 584.601 513.528C581.63 513.528 579.313 514.889 577.651 517.611C575.988 520.288 575.157 523.918 575.157 528.5C575.157 533.082 575.988 536.735 577.651 539.457C579.313 542.134 581.63 543.472 584.601 543.472Z" fill="url(#paint5_linear_33_2472)"/>
</g>
<g filter="url(#filter1_d_33_2472)">
<path d="M589 576L582 544L611.5 560.5L597.5 563.5L589 576Z" fill="black"/>
<path d="M589 576L582 544L611.5 560.5L597.5 563.5L589 576Z" stroke="white" stroke-width="3"/>
</g>
<g filter="url(#filter2_d_33_2472)">
<rect x="603" y="576" width="136" height="37" rx="3" fill="black"/>
</g>
<path d="M614.777 589.909H617.862V603.75C617.862 604.693 617.683 605.472 617.325 606.085C616.967 606.699 616.45 607.156 615.774 607.457C615.098 607.759 614.277 607.909 613.311 607.909C613.197 607.909 613.092 607.906 612.995 607.901C612.899 607.901 612.794 607.898 612.68 607.892V605.378C612.765 605.384 612.842 605.386 612.91 605.386C612.978 605.392 613.049 605.395 613.123 605.395C613.714 605.395 614.137 605.25 614.393 604.96C614.649 604.676 614.777 604.259 614.777 603.707V589.909ZM616.311 588.051C615.816 588.051 615.393 587.889 615.041 587.565C614.694 587.236 614.521 586.841 614.521 586.381C614.521 585.915 614.694 585.52 615.041 585.196C615.393 584.866 615.816 584.702 616.311 584.702C616.799 584.702 617.217 584.866 617.564 585.196C617.916 585.52 618.092 585.915 618.092 586.381C618.092 586.841 617.916 587.236 617.564 587.565C617.217 587.889 616.799 588.051 616.311 588.051ZM625.545 603.256C624.266 603.256 623.158 602.974 622.221 602.412C621.283 601.849 620.556 601.062 620.039 600.051C619.528 599.04 619.272 597.858 619.272 596.506C619.272 595.153 619.528 593.969 620.039 592.952C620.556 591.935 621.283 591.145 622.221 590.582C623.158 590.02 624.266 589.739 625.545 589.739C626.823 589.739 627.931 590.02 628.869 590.582C629.806 591.145 630.53 591.935 631.042 592.952C631.559 593.969 631.817 595.153 631.817 596.506C631.817 597.858 631.559 599.04 631.042 600.051C630.53 601.062 629.806 601.849 628.869 602.412C627.931 602.974 626.823 603.256 625.545 603.256ZM625.562 600.784C626.255 600.784 626.834 600.594 627.3 600.213C627.766 599.827 628.113 599.31 628.34 598.662C628.573 598.014 628.69 597.293 628.69 596.497C628.69 595.696 628.573 594.972 628.34 594.324C628.113 593.67 627.766 593.151 627.3 592.764C626.834 592.378 626.255 592.185 625.562 592.185C624.851 592.185 624.261 592.378 623.789 592.764C623.323 593.151 622.974 593.67 622.741 594.324C622.513 594.972 622.4 595.696 622.4 596.497C622.4 597.293 622.513 598.014 622.741 598.662C622.974 599.31 623.323 599.827 623.789 600.213C624.261 600.594 624.851 600.784 625.562 600.784ZM636.321 595.33V603H633.236V585.545H636.253V592.134H636.406C636.713 591.395 637.188 590.812 637.83 590.386C638.477 589.955 639.301 589.739 640.301 589.739C641.21 589.739 642.003 589.929 642.679 590.31C643.355 590.69 643.878 591.247 644.247 591.98C644.622 592.713 644.81 593.608 644.81 594.665V603H641.725V595.142C641.725 594.261 641.497 593.577 641.043 593.088C640.594 592.594 639.963 592.347 639.151 592.347C638.605 592.347 638.117 592.466 637.685 592.705C637.259 592.937 636.924 593.276 636.679 593.719C636.441 594.162 636.321 594.699 636.321 595.33ZM649.84 595.33V603H646.755V589.909H649.704V592.134H649.857C650.158 591.401 650.638 590.818 651.297 590.386C651.962 589.955 652.783 589.739 653.76 589.739C654.664 589.739 655.451 589.932 656.121 590.318C656.797 590.705 657.32 591.264 657.689 591.997C658.064 592.73 658.249 593.619 658.243 594.665V603H655.158V595.142C655.158 594.267 654.931 593.582 654.476 593.088C654.027 592.594 653.405 592.347 652.61 592.347C652.07 592.347 651.59 592.466 651.17 592.705C650.755 592.937 650.428 593.276 650.189 593.719C649.956 594.162 649.84 594.699 649.84 595.33ZM663.265 585.545V603H660.18V585.545H663.265ZM669.005 603.264C668.175 603.264 667.428 603.116 666.763 602.821C666.104 602.52 665.581 602.077 665.195 601.491C664.814 600.906 664.624 600.185 664.624 599.327C664.624 598.588 664.76 597.977 665.033 597.494C665.306 597.011 665.678 596.625 666.15 596.335C666.621 596.045 667.152 595.827 667.743 595.679C668.34 595.526 668.956 595.415 669.593 595.347C670.36 595.267 670.982 595.196 671.459 595.134C671.936 595.065 672.283 594.963 672.499 594.827C672.721 594.685 672.831 594.466 672.831 594.17V594.119C672.831 593.477 672.641 592.98 672.26 592.628C671.88 592.276 671.331 592.099 670.615 592.099C669.86 592.099 669.26 592.264 668.817 592.594C668.38 592.923 668.084 593.312 667.931 593.761L665.05 593.352C665.277 592.557 665.652 591.892 666.175 591.358C666.698 590.818 667.337 590.415 668.093 590.148C668.848 589.875 669.684 589.739 670.598 589.739C671.229 589.739 671.857 589.812 672.482 589.96C673.107 590.108 673.678 590.352 674.195 590.693C674.712 591.028 675.127 591.486 675.439 592.065C675.757 592.645 675.917 593.369 675.917 594.239V603H672.951V601.202H672.848C672.661 601.565 672.397 601.906 672.056 602.224C671.721 602.537 671.297 602.79 670.786 602.983C670.28 603.17 669.686 603.264 669.005 603.264ZM669.806 600.997C670.425 600.997 670.962 600.875 671.417 600.631C671.871 600.381 672.221 600.051 672.465 599.642C672.715 599.233 672.84 598.787 672.84 598.304V596.761C672.743 596.841 672.578 596.915 672.346 596.983C672.118 597.051 671.863 597.111 671.578 597.162C671.294 597.213 671.013 597.259 670.735 597.298C670.456 597.338 670.215 597.372 670.01 597.401C669.55 597.463 669.138 597.565 668.775 597.707C668.411 597.849 668.124 598.048 667.914 598.304C667.703 598.554 667.598 598.878 667.598 599.276C667.598 599.844 667.806 600.273 668.221 600.562C668.635 600.852 669.164 600.997 669.806 600.997ZM677.819 603V589.909H680.81V592.091H680.947C681.185 591.335 681.594 590.753 682.174 590.344C682.759 589.929 683.427 589.722 684.177 589.722C684.347 589.722 684.538 589.73 684.748 589.747C684.964 589.759 685.143 589.778 685.285 589.807V592.645C685.154 592.599 684.947 592.56 684.663 592.526C684.384 592.486 684.114 592.466 683.853 592.466C683.29 592.466 682.785 592.588 682.336 592.832C681.893 593.071 681.543 593.403 681.288 593.83C681.032 594.256 680.904 594.747 680.904 595.304V603H677.819ZM691.306 603.256C689.999 603.256 688.877 602.969 687.939 602.395C687.007 601.821 686.289 601.028 685.783 600.017C685.283 599 685.033 597.83 685.033 596.506C685.033 595.176 685.289 594.003 685.8 592.986C686.311 591.963 687.033 591.168 687.965 590.599C688.902 590.026 690.01 589.739 691.289 589.739C692.351 589.739 693.291 589.935 694.11 590.327C694.933 590.713 695.59 591.261 696.078 591.972C696.567 592.676 696.845 593.5 696.914 594.443H693.965C693.845 593.812 693.561 593.287 693.112 592.866C692.669 592.44 692.075 592.227 691.331 592.227C690.7 592.227 690.147 592.398 689.669 592.739C689.192 593.074 688.82 593.557 688.553 594.188C688.291 594.818 688.161 595.574 688.161 596.455C688.161 597.347 688.291 598.114 688.553 598.756C688.814 599.392 689.181 599.884 689.652 600.23C690.129 600.571 690.689 600.741 691.331 600.741C691.786 600.741 692.192 600.656 692.55 600.486C692.914 600.31 693.218 600.057 693.462 599.727C693.706 599.398 693.874 598.997 693.965 598.526H696.914C696.84 599.452 696.567 600.273 696.095 600.989C695.624 601.699 694.982 602.256 694.169 602.659C693.357 603.057 692.402 603.256 691.306 603.256ZM701.059 598.892L701.051 595.168H701.545L706.25 589.909H709.855L704.068 596.352H703.429L701.059 598.892ZM698.247 603V585.545H701.332V603H698.247ZM706.463 603L702.201 597.043L704.281 594.869L710.153 603H706.463ZM710.711 603V589.909H713.796V603H710.711ZM712.262 588.051C711.774 588.051 711.353 587.889 711.001 587.565C710.649 587.236 710.472 586.841 710.472 586.381C710.472 585.915 710.649 585.52 711.001 585.196C711.353 584.866 711.774 584.702 712.262 584.702C712.756 584.702 713.177 584.866 713.524 585.196C713.876 585.52 714.052 585.915 714.052 586.381C714.052 586.841 713.876 587.236 713.524 587.565C713.177 587.889 712.756 588.051 712.262 588.051ZM718.854 595.33V603H715.769V589.909H718.718V592.134H718.871C719.172 591.401 719.652 590.818 720.311 590.386C720.976 589.955 721.797 589.739 722.775 589.739C723.678 589.739 724.465 589.932 725.135 590.318C725.811 590.705 726.334 591.264 726.703 591.997C727.078 592.73 727.263 593.619 727.257 594.665V603H724.172V595.142C724.172 594.267 723.945 593.582 723.49 593.088C723.042 592.594 722.419 592.347 721.624 592.347C721.084 592.347 720.604 592.466 720.184 592.705C719.769 592.937 719.442 593.276 719.203 593.719C718.971 594.162 718.854 594.699 718.854 595.33Z" fill="white"/>
<g filter="url(#filter3_d_33_2472)">
<path d="M480 512L487 480L457.5 496.5L471.5 499.5L480 512Z" fill="#FF0E41"/>
<path d="M480 512L487 480L457.5 496.5L471.5 499.5L480 512Z" stroke="white" stroke-width="3"/>
</g>
<g filter="url(#filter4_d_33_2472)">
<rect width="112" height="37" rx="3" transform="matrix(-1 0 0 1 454 512)" fill="#FF0E41"/>
</g>
<path d="M357.573 539.23C356.544 539.23 355.624 538.966 354.812 538.438C353.999 537.909 353.357 537.142 352.885 536.136C352.414 535.131 352.178 533.909 352.178 532.472C352.178 531.017 352.417 529.79 352.894 528.79C353.377 527.784 354.027 527.026 354.846 526.514C355.664 525.997 356.576 525.739 357.581 525.739C358.348 525.739 358.979 525.869 359.473 526.131C359.968 526.386 360.36 526.696 360.65 527.06C360.939 527.418 361.164 527.756 361.323 528.074H361.451V521.545H364.544V539H361.51V536.938H361.323C361.164 537.256 360.934 537.594 360.633 537.952C360.331 538.304 359.934 538.605 359.439 538.855C358.945 539.105 358.323 539.23 357.573 539.23ZM358.434 536.699C359.087 536.699 359.644 536.523 360.104 536.17C360.564 535.812 360.914 535.315 361.152 534.679C361.391 534.043 361.51 533.301 361.51 532.455C361.51 531.608 361.391 530.872 361.152 530.247C360.919 529.622 360.573 529.136 360.113 528.79C359.658 528.443 359.098 528.27 358.434 528.27C357.746 528.27 357.172 528.449 356.712 528.807C356.252 529.165 355.905 529.659 355.672 530.29C355.439 530.92 355.323 531.642 355.323 532.455C355.323 533.273 355.439 534.003 355.672 534.645C355.911 535.281 356.26 535.784 356.721 536.153C357.187 536.517 357.758 536.699 358.434 536.699ZM372.428 539.256C371.115 539.256 369.982 538.983 369.027 538.438C368.078 537.886 367.348 537.108 366.837 536.102C366.325 535.091 366.07 533.901 366.07 532.531C366.07 531.185 366.325 530.003 366.837 528.986C367.354 527.963 368.075 527.168 369.001 526.599C369.928 526.026 371.016 525.739 372.266 525.739C373.072 525.739 373.834 525.869 374.55 526.131C375.271 526.386 375.908 526.784 376.459 527.324C377.016 527.864 377.453 528.551 377.771 529.386C378.089 530.216 378.249 531.205 378.249 532.352V533.298H367.518V531.219H375.291C375.286 530.628 375.158 530.102 374.908 529.642C374.658 529.176 374.308 528.81 373.859 528.543C373.416 528.276 372.899 528.142 372.308 528.142C371.678 528.142 371.124 528.295 370.646 528.602C370.169 528.903 369.797 529.301 369.53 529.795C369.268 530.284 369.135 530.821 369.129 531.406V533.222C369.129 533.983 369.268 534.636 369.547 535.182C369.825 535.722 370.214 536.136 370.714 536.426C371.214 536.71 371.8 536.852 372.47 536.852C372.919 536.852 373.325 536.79 373.689 536.665C374.053 536.534 374.368 536.344 374.635 536.094C374.902 535.844 375.104 535.534 375.24 535.165L378.121 535.489C377.939 536.25 377.592 536.915 377.081 537.483C376.575 538.045 375.928 538.483 375.138 538.795C374.348 539.102 373.445 539.256 372.428 539.256ZM390.005 529.369L387.193 529.676C387.113 529.392 386.974 529.125 386.775 528.875C386.582 528.625 386.321 528.423 385.991 528.27C385.662 528.116 385.258 528.04 384.781 528.04C384.139 528.04 383.599 528.179 383.162 528.457C382.73 528.736 382.517 529.097 382.522 529.54C382.517 529.92 382.656 530.23 382.94 530.469C383.23 530.707 383.707 530.903 384.372 531.057L386.605 531.534C387.843 531.801 388.764 532.224 389.366 532.804C389.974 533.384 390.281 534.142 390.287 535.08C390.281 535.903 390.039 536.631 389.562 537.261C389.09 537.886 388.434 538.375 387.593 538.727C386.752 539.08 385.787 539.256 384.696 539.256C383.093 539.256 381.804 538.92 380.826 538.25C379.849 537.574 379.267 536.634 379.079 535.429L382.088 535.139C382.224 535.73 382.514 536.176 382.957 536.477C383.4 536.778 383.977 536.929 384.687 536.929C385.42 536.929 386.008 536.778 386.451 536.477C386.9 536.176 387.125 535.804 387.125 535.361C387.125 534.986 386.98 534.676 386.69 534.432C386.406 534.187 385.963 534 385.36 533.869L383.127 533.401C381.872 533.139 380.943 532.699 380.34 532.08C379.738 531.455 379.44 530.665 379.446 529.71C379.44 528.903 379.659 528.205 380.102 527.614C380.551 527.017 381.173 526.557 381.968 526.233C382.769 525.903 383.693 525.739 384.738 525.739C386.272 525.739 387.48 526.065 388.36 526.719C389.247 527.372 389.795 528.256 390.005 529.369ZM391.631 539V525.909H394.716V539H391.631ZM393.182 524.051C392.693 524.051 392.273 523.889 391.92 523.565C391.568 523.236 391.392 522.841 391.392 522.381C391.392 521.915 391.568 521.52 391.92 521.196C392.273 520.866 392.693 520.702 393.182 520.702C393.676 520.702 394.096 520.866 394.443 521.196C394.795 521.52 394.971 521.915 394.971 522.381C394.971 522.841 394.795 523.236 394.443 523.565C394.096 523.889 393.676 524.051 393.182 524.051ZM402.382 544.182C401.274 544.182 400.322 544.031 399.526 543.73C398.731 543.435 398.092 543.037 397.609 542.537C397.126 542.037 396.791 541.483 396.603 540.875L399.382 540.202C399.507 540.457 399.688 540.71 399.927 540.96C400.166 541.216 400.487 541.426 400.89 541.591C401.299 541.761 401.813 541.847 402.433 541.847C403.308 541.847 404.032 541.634 404.606 541.207C405.18 540.787 405.467 540.094 405.467 539.128V536.648H405.313C405.154 536.966 404.921 537.293 404.614 537.628C404.313 537.963 403.913 538.244 403.413 538.472C402.918 538.699 402.296 538.812 401.546 538.812C400.541 538.812 399.629 538.577 398.811 538.105C397.998 537.628 397.35 536.918 396.867 535.974C396.39 535.026 396.151 533.838 396.151 532.412C396.151 530.974 396.39 529.761 396.867 528.773C397.35 527.778 398.001 527.026 398.819 526.514C399.637 525.997 400.549 525.739 401.555 525.739C402.322 525.739 402.953 525.869 403.447 526.131C403.947 526.386 404.345 526.696 404.64 527.06C404.936 527.418 405.16 527.756 405.313 528.074H405.484V525.909H408.526V539.213C408.526 540.332 408.259 541.259 407.725 541.991C407.191 542.724 406.461 543.273 405.535 543.636C404.609 544 403.558 544.182 402.382 544.182ZM402.407 536.392C403.061 536.392 403.617 536.233 404.078 535.915C404.538 535.597 404.887 535.139 405.126 534.543C405.364 533.946 405.484 533.23 405.484 532.395C405.484 531.571 405.364 530.849 405.126 530.23C404.893 529.611 404.546 529.131 404.086 528.79C403.632 528.443 403.072 528.27 402.407 528.27C401.72 528.27 401.146 528.449 400.686 528.807C400.225 529.165 399.879 529.656 399.646 530.281C399.413 530.901 399.296 531.605 399.296 532.395C399.296 533.196 399.413 533.898 399.646 534.5C399.884 535.097 400.234 535.562 400.694 535.898C401.16 536.227 401.731 536.392 402.407 536.392ZM413.574 531.33V539H410.488V525.909H413.437V528.134H413.591C413.892 527.401 414.372 526.818 415.031 526.386C415.696 525.955 416.517 525.739 417.494 525.739C418.397 525.739 419.184 525.932 419.855 526.318C420.531 526.705 421.054 527.264 421.423 527.997C421.798 528.73 421.983 529.619 421.977 530.665V539H418.892V531.142C418.892 530.267 418.664 529.582 418.21 529.088C417.761 528.594 417.139 528.347 416.343 528.347C415.804 528.347 415.324 528.466 414.903 528.705C414.488 528.937 414.162 529.276 413.923 529.719C413.69 530.162 413.574 530.699 413.574 531.33ZM429.709 539.256C428.396 539.256 427.263 538.983 426.308 538.438C425.359 537.886 424.629 537.108 424.118 536.102C423.607 535.091 423.351 533.901 423.351 532.531C423.351 531.185 423.607 530.003 424.118 528.986C424.635 527.963 425.357 527.168 426.283 526.599C427.209 526.026 428.297 525.739 429.547 525.739C430.354 525.739 431.115 525.869 431.831 526.131C432.553 526.386 433.189 526.784 433.74 527.324C434.297 527.864 434.734 528.551 435.053 529.386C435.371 530.216 435.53 531.205 435.53 532.352V533.298H424.8V531.219H432.572C432.567 530.628 432.439 530.102 432.189 529.642C431.939 529.176 431.589 528.81 431.141 528.543C430.697 528.276 430.18 528.142 429.589 528.142C428.959 528.142 428.405 528.295 427.928 528.602C427.45 528.903 427.078 529.301 426.811 529.795C426.55 530.284 426.416 530.821 426.411 531.406V533.222C426.411 533.983 426.55 534.636 426.828 535.182C427.107 535.722 427.496 536.136 427.996 536.426C428.496 536.71 429.081 536.852 429.751 536.852C430.2 536.852 430.607 536.79 430.97 536.665C431.334 536.534 431.649 536.344 431.916 536.094C432.183 535.844 432.385 535.534 432.521 535.165L435.402 535.489C435.22 536.25 434.874 536.915 434.362 537.483C433.857 538.045 433.209 538.483 432.419 538.795C431.629 539.102 430.726 539.256 429.709 539.256ZM436.94 539V525.909H439.931V528.091H440.068C440.306 527.335 440.715 526.753 441.295 526.344C441.88 525.929 442.548 525.722 443.298 525.722C443.468 525.722 443.659 525.73 443.869 525.747C444.085 525.759 444.264 525.778 444.406 525.807V528.645C444.275 528.599 444.068 528.56 443.784 528.526C443.505 528.486 443.235 528.466 442.974 528.466C442.412 528.466 441.906 528.588 441.457 528.832C441.014 529.071 440.664 529.403 440.409 529.83C440.153 530.256 440.025 530.747 440.025 531.304V539H436.94Z" fill="white"/>
</g>
<defs>
<filter id="filter0_dddddd_33_2472" x="419" y="484" width="244" height="165" filterUnits="userSpaceOnUse" color-interpolation-filters="sRGB">
<feFlood flood-opacity="0" result="BackgroundImageFix"/>
<feColorMatrix in="SourceAlpha" type="matrix" values="0 0 0 0 0 0 0 0 0 0 0 0 0 0 0 0 0 0 127 0" result="hardAlpha"/>
<feOffset dy="1.05156"/>
<feGaussianBlur stdDeviation="0.802504"/>
<feColorMatrix type="matrix" values="0 0 0 0 0 0 0 0 0 0 0 0 0 0 0 0 0 0 0.0646635 0"/>
<feBlend mode="normal" in2="BackgroundImageFix" result="effect1_dropShadow_33_2472"/>
<feColorMatrix in="SourceAlpha" type="matrix" values="0 0 0 0 0 0 0 0 0 0 0 0 0 0 0 0 0 0 127 0" result="hardAlpha"/>
<feOffset dy="2.52704"/>
<feGaussianBlur stdDeviation="1.92853"/>
<feColorMatrix type="matrix" values="0 0 0 0 0 0 0 0 0 0 0 0 0 0 0 0 0 0 0.0928953 0"/>
<feBlend mode="normal" in2="effect1_dropShadow_33_2472" result="effect2_dropShadow_33_2472"/>
<feColorMatrix in="SourceAlpha" type="matrix" values="0 0 0 0 0 0 0 0 0 0 0 0 0 0 0 0 0 0 127 0" result="hardAlpha"/>
<feOffset dy="4.75819"/>
<feGaussianBlur stdDeviation="3.63125"/>
<feColorMatrix type="matrix" values="0 0 0 0 0 0 0 0 0 0 0 0 0 0 0 0 0 0 0.115 0"/>
<feBlend mode="normal" in2="effect2_dropShadow_33_2472" result="effect3_dropShadow_33_2472"/>
<feColorMatrix in="SourceAlpha" type="matrix" values="0 0 0 0 0 0 0 0 0 0 0 0 0 0 0 0 0 0 127 0" result="hardAlpha"/>
<feOffset dy="8.4878"/>
<feGaussianBlur stdDeviation="6.47753"/>
<feColorMatrix type="matrix" values="0 0 0 0 0 0 0 0 0 0 0 0 0 0 0 0 0 0 0.137105 0"/>
<feBlend mode="normal" in2="effect3_dropShadow_33_2472" result="effect4_dropShadow_33_2472"/>
<feColorMatrix in="SourceAlpha" type="matrix" values="0 0 0 0 0 0 0 0 0 0 0 0 0 0 0 0 0 0 127 0" result="hardAlpha"/>
<feOffset dy="15.8755"/>
<feGaussianBlur stdDeviation="12.1155"/>
<feColorMatrix type="matrix" values="0 0 0 0 0 0 0 0 0 0 0 0 0 0 0 0 0 0 0.165337 0"/>
<feBlend mode="normal" in2="effect4_dropShadow_33_2472" result="effect5_dropShadow_33_2472"/>
<feColorMatrix in="SourceAlpha" type="matrix" values="0 0 0 0 0 0 0 0 0 0 0 0 0 0 0 0 0 0 127 0" result="hardAlpha"/>
<feOffset dy="38"/>
<feGaussianBlur stdDeviation="29"/>
<feColorMatrix type="matrix" values="0 0 0 0 0 0 0 0 0 0 0 0 0 0 0 0 0 0 0.23 0"/>
<feBlend mode="normal" in2="effect5_dropShadow_33_2472" result="effect6_dropShadow_33_2472"/>
<feBlend mode="normal" in="SourceGraphic" in2="effect6_dropShadow_33_2472" result="shape"/>
</filter>
<filter id="filter1_d_33_2472" x="577.322" y="540.563" width="40.8828" height="43.6637" filterUnits="userSpaceOnUse" color-interpolation-filters="sRGB">
<feFlood flood-opacity="0" result="BackgroundImageFix"/>
<feColorMatrix in="SourceAlpha" type="matrix" values="0 0 0 0 0 0 0 0 0 0 0 0 0 0 0 0 0 0 127 0" result="hardAlpha"/>
<feOffset dy="2"/>
<feGaussianBlur stdDeviation="1.25"/>
<feComposite in2="hardAlpha" operator="out"/>
<feColorMatrix type="matrix" values="0 0 0 0 0 0 0 0 0 0 0 0 0 0 0 0 0 0 0.19 0"/>
<feBlend mode="normal" in2="BackgroundImageFix" result="effect1_dropShadow_33_2472"/>
<feBlend mode="normal" in="SourceGraphic" in2="effect1_dropShadow_33_2472" result="shape"/>
</filter>
<filter id="filter2_d_33_2472" x="600.5" y="575.5" width="141" height="42" filterUnits="userSpaceOnUse" color-interpolation-filters="sRGB">
<feFlood flood-opacity="0" result="BackgroundImageFix"/>
<feColorMatrix in="SourceAlpha" type="matrix" values="0 0 0 0 0 0 0 0 0 0 0 0 0 0 0 0 0 0 127 0" result="hardAlpha"/>
<feOffset dy="2"/>
<feGaussianBlur stdDeviation="1.25"/>
<feComposite in2="hardAlpha" operator="out"/>
<feColorMatrix type="matrix" values="0 0 0 0 0 0 0 0 0 0 0 0 0 0 0 0 0 0 0.19 0"/>
<feBlend mode="normal" in2="BackgroundImageFix" result="effect1_dropShadow_33_2472"/>
<feBlend mode="normal" in="SourceGraphic" in2="effect1_dropShadow_33_2472" result="shape"/>
</filter>
<filter id="filter3_d_33_2472" x="450.795" y="476.563" width="40.8828" height="43.6637" filterUnits="userSpaceOnUse" color-interpolation-filters="sRGB">
<feFlood flood-opacity="0" result="BackgroundImageFix"/>
<feColorMatrix in="SourceAlpha" type="matrix" values="0 0 0 0 0 0 0 0 0 0 0 0 0 0 0 0 0 0 127 0" result="hardAlpha"/>
<feOffset dy="2"/>
<feGaussianBlur stdDeviation="1.25"/>
<feComposite in2="hardAlpha" operator="out"/>
<feColorMatrix type="matrix" values="0 0 0 0 0 0 0 0 0 0 0 0 0 0 0 0 0 0 0.19 0"/>
<feBlend mode="normal" in2="BackgroundImageFix" result="effect1_dropShadow_33_2472"/>
<feBlend mode="normal" in="SourceGraphic" in2="effect1_dropShadow_33_2472" result="shape"/>
</filter>
<filter id="filter4_d_33_2472" x="339.5" y="511.5" width="117" height="42" filterUnits="userSpaceOnUse" color-interpolation-filters="sRGB">
<feFlood flood-opacity="0" result="BackgroundImageFix"/>
<feColorMatrix in="SourceAlpha" type="matrix" values="0 0 0 0 0 0 0 0 0 0 0 0 0 0 0 0 0 0 127 0" result="hardAlpha"/>
<feOffset dy="2"/>
<feGaussianBlur stdDeviation="1.25"/>
<feComposite in2="hardAlpha" operator="out"/>
<feColorMatrix type="matrix" values="0 0 0 0 0 0 0 0 0 0 0 0 0 0 0 0 0 0 0.19 0"/>
<feBlend mode="normal" in2="BackgroundImageFix" result="effect1_dropShadow_33_2472"/>
<feBlend mode="normal" in="SourceGraphic" in2="effect1_dropShadow_33_2472" result="shape"/>
</filter>
<linearGradient id="paint0_linear_33_2472" x1="13" y1="-46" x2="1093.5" y2="1080" gradientUnits="userSpaceOnUse">
<stop offset="0.289749" stop-color="white" stop-opacity="0"/>
<stop offset="1" stop-color="white"/>
</linearGradient>
<linearGradient id="paint1_linear_33_2472" x1="540.5" y1="444" x2="540.5" y2="613" gradientUnits="userSpaceOnUse">
<stop stop-color="#00C236"/>
<stop offset="1" stop-color="#01D13B"/>
</linearGradient>
<radialGradient id="paint2_radial_33_2472" cx="0" cy="0" r="1" gradientUnits="userSpaceOnUse" gradientTransform="translate(1080 1103.5) rotate(-133.316) scale(1683.48)">
<stop stop-color="#1DCC2F" stop-opacity="0.25"/>
<stop offset="0.602101" stop-color="#1DCC2F" stop-opacity="0"/>
</radialGradient>
<linearGradient id="paint3_linear_33_2472" x1="541" y1="504" x2="541" y2="553" gradientUnits="userSpaceOnUse">
<stop stop-color="white"/>
<stop offset="0.421421" stop-color="#F0F0F0"/>
<stop offset="0.827347" stop-color="#BABCBD"/>
<stop offset="1" stop-color="#F2F2F2"/>
</linearGradient>
<linearGradient id="paint4_linear_33_2472" x1="541" y1="504" x2="541" y2="553" gradientUnits="userSpaceOnUse">
<stop stop-color="white"/>
<stop offset="0.421421" stop-color="#F0F0F0"/>
<stop offset="0.827347" stop-color="#BABCBD"/>
<stop offset="1" stop-color="#F2F2F2"/>
</linearGradient>
<linearGradient id="paint5_linear_33_2472" x1="541" y1="504" x2="541" y2="553" gradientUnits="userSpaceOnUse">
<stop stop-color="white"/>
<stop offset="0.421421" stop-color="#F0F0F0"/>
<stop offset="0.827347" stop-color="#BABCBD"/>
<stop offset="1" stop-color="#F2F2F2"/>
</linearGradient>
<clipPath id="clip0_33_2472">
<rect width="1080" height="1080" fill="white"/>
</clipPath>
</defs>
</svg>
