<svg width="1080" height="1080" viewBox="0 0 1080 1080" fill="none" xmlns="http://www.w3.org/2000/svg">
<g clip-path="url(#clip0_19_1212)">
<path d="M24.5001 0L24.5 1080M48.5001 0L48.5001 1080M72.5002 0L72.5001 1080M96.5002 0L96.5002 1080M120.5 0L120.5 1080M144.5 0L144.5 1080M168.5 0L168.5 1080M192.5 0L192.5 1080M216.5 0L216.5 1080M240.501 0L240.5 1080M264.501 0L264.501 1080M288.501 0L288.501 1080M312.501 0L312.501 1080M336.501 0L336.501 1080M360.501 0L360.501 1080M384.501 0L384.501 1080M408.501 0L408.501 1080M432.501 0L432.501 1080M456.501 0L456.501 1080M480.501 0L480.501 1080M504.501 0L504.501 1080M528.501 0L528.501 1080M552.501 0L552.501 1080M576.501 0L576.501 1080M600.501 0L600.501 1080M624.501 0L624.501 1080M648.502 0L648.501 1080M672.502 0L672.502 1080M696.502 0L696.502 1080M720.502 0L720.502 1080M744.502 0L744.502 1080M768.502 0L768.502 1080M792.502 0L792.502 1080M816.502 0L816.502 1080M840.502 0L840.502 1080M864.502 0L864.502 1080M888.502 0L888.502 1080M912.502 0L912.502 1080M936.502 0L936.502 1080M960.502 0L960.502 1080M984.502 0L984.502 1080M1008.5 0L1008.5 1080M1032.5 0V1080M1068 36.499L-11.999 36.4989M1068 60.4991L-11.999 60.499M1068 84.4991L-11.999 84.499M1068 108.499L-11.999 108.499M1068 132.499L-11.999 132.499M1068 156.499L-11.999 156.499M1068 180.499L-11.999 180.499M1068 204.499L-11.999 204.499M1068 228.499L-11.999 228.499M1068 252.499L-11.999 252.499M1068 276.5L-11.999 276.499M1068 300.5L-11.999 300.499M1068 324.5L-11.999 324.5M1068 348.5L-11.999 348.5M1068 372.5L-11.999 372.5M1068 396.5L-11.999 396.5M1068 420.5L-11.999 420.5M1068 444.5L-11.999 444.5M1068 468.5L-11.999 468.5M1068 492.5L-11.999 492.5M1068 516.5L-11.999 516.5M1068 540.5L-11.999 540.5M1068 564.5L-11.999 564.5M1068 588.5L-11.999 588.5M1068 612.5L-11.999 612.5M1068 636.5L-11.999 636.5M1068 660.5L-11.999 660.5M1068 684.5L-11.999 684.5M1068 708.501L-11.999 708.5M1068 732.501L-11.999 732.501M1068 756.501L-11.999 756.501M1068 780.501L-11.999 780.501M1068 804.501L-11.999 804.501M1068 828.501L-11.999 828.501M1068 852.501L-11.999 852.501M1068 876.501L-11.999 876.501M1068 900.501L-11.999 900.501M1068 924.501L-11.999 924.501M1068 948.501L-11.999 948.501M1068 972.501L-11.999 972.501M1068 996.501L-11.999 996.501M1068 1020.5L-11.999 1020.5M1068 1044.5L-11.999 1044.5" stroke="url(#paint0_linear_19_1212)" stroke-opacity="0.15"/>
<rect x="459.5" y="494" width="162" height="92" rx="21" stroke="white" stroke-width="6"/>
<path d="M513.236 538.56C515.38 543.808 518.708 548.176 523.22 551.664C527.764 555.12 533.348 557.488 539.972 558.768C539.748 559.024 539.476 559.328 539.156 559.68C538.868 560.064 538.596 560.448 538.34 560.832C538.084 561.248 537.876 561.632 537.716 561.984C533.204 560.96 529.172 559.44 525.62 557.424C522.068 555.408 519.012 552.896 516.452 549.888C513.892 546.88 511.796 543.424 510.164 539.52L513.236 538.56ZM530.372 537.216H531.092L531.764 537.024L534.212 538.176C533.156 541.536 531.716 544.512 529.892 547.104C528.068 549.696 525.956 551.952 523.556 553.872C521.188 555.792 518.612 557.408 515.828 558.72C513.044 560.032 510.148 561.104 507.14 561.936C506.948 561.488 506.66 560.944 506.276 560.304C505.924 559.696 505.572 559.216 505.22 558.864C508.036 558.192 510.756 557.264 513.38 556.08C516.004 554.864 518.42 553.392 520.628 551.664C522.868 549.904 524.82 547.888 526.484 545.616C528.148 543.312 529.444 540.72 530.372 537.84V537.216ZM512.18 537.216H530.948V540.672H511.124L512.18 537.216ZM515.444 517.488L519.476 518.16C518.836 522.704 517.988 526.96 516.932 530.928C515.876 534.864 514.5 538.496 512.804 541.824C511.108 545.152 509.028 548.176 506.564 550.896C504.132 553.584 501.22 555.968 497.828 558.048C497.668 557.792 497.428 557.488 497.108 557.136C496.788 556.752 496.452 556.4 496.1 556.08C495.78 555.728 495.46 555.456 495.14 555.264C499.396 552.672 502.884 549.536 505.604 545.856C508.356 542.144 510.516 537.92 512.084 533.184C513.652 528.416 514.772 523.184 515.444 517.488ZM526.004 520.08L528.788 518.352C529.492 519.056 530.228 519.84 530.996 520.704C531.796 521.536 532.548 522.352 533.252 523.152C533.956 523.952 534.532 524.64 534.98 525.216L532.148 527.184C531.7 526.576 531.124 525.856 530.42 525.024C529.716 524.192 528.98 523.344 528.212 522.48C527.444 521.616 526.708 520.816 526.004 520.08ZM500.612 532.896C500.548 532.608 500.436 532.256 500.276 531.84C500.148 531.424 500.004 531.008 499.844 530.592C499.716 530.144 499.572 529.776 499.412 529.488C499.764 529.392 500.068 529.184 500.324 528.864C500.612 528.544 500.9 528.112 501.188 527.568C501.38 527.248 501.668 526.656 502.052 525.792C502.468 524.896 502.9 523.856 503.348 522.672C503.796 521.456 504.148 520.24 504.404 519.024L508.244 519.744C507.86 521.088 507.396 522.448 506.852 523.824C506.34 525.168 505.796 526.432 505.22 527.616C504.644 528.8 504.084 529.84 503.54 530.736V530.832C503.54 530.832 503.396 530.896 503.108 531.024C502.82 531.152 502.468 531.328 502.052 531.552C501.668 531.744 501.332 531.968 501.044 532.224C500.756 532.448 500.612 532.672 500.612 532.896ZM500.612 532.896V530.064L503.06 528.624H538.388L538.34 532.08H505.748C504.212 532.08 503.028 532.16 502.196 532.32C501.396 532.448 500.868 532.64 500.612 532.896ZM554.564 536.736H584.852V540H554.564V536.736ZM556.148 526.848H583.412V530.064H556.148V526.848ZM567.476 528.288H571.028V535.488C571.028 536.992 570.868 538.592 570.548 540.288C570.26 541.952 569.652 543.648 568.724 545.376C567.796 547.104 566.42 548.768 564.596 550.368C562.772 551.968 560.34 553.456 557.3 554.832C557.172 554.544 556.964 554.24 556.676 553.92C556.388 553.6 556.084 553.28 555.764 552.96C555.476 552.64 555.188 552.384 554.9 552.192C557.844 551.008 560.164 549.712 561.86 548.304C563.556 546.864 564.788 545.408 565.556 543.936C566.356 542.432 566.868 540.96 567.092 539.52C567.348 538.08 567.476 536.72 567.476 535.44V528.288ZM572.036 538.848C572.964 542.176 574.484 544.96 576.596 547.2C578.74 549.408 581.524 551.008 584.948 552C584.692 552.224 584.42 552.528 584.132 552.912C583.844 553.264 583.572 553.632 583.316 554.016C583.06 554.368 582.836 554.704 582.644 555.024C579.028 553.776 576.1 551.856 573.86 549.264C571.652 546.672 570.004 543.408 568.916 539.472L572.036 538.848ZM551.876 536.64V553.632H548.372V540H541.652V536.64H551.876ZM551.876 552.048C553.028 553.808 554.628 555.12 556.676 555.984C558.724 556.848 561.14 557.328 563.924 557.424C565.236 557.488 566.82 557.536 568.676 557.568C570.564 557.568 572.532 557.552 574.58 557.52C576.66 557.488 578.66 557.44 580.58 557.376C582.5 557.312 584.18 557.232 585.62 557.136C585.46 557.392 585.3 557.744 585.14 558.192C584.98 558.64 584.836 559.088 584.708 559.536C584.58 560.016 584.484 560.432 584.42 560.784C583.108 560.848 581.556 560.896 579.764 560.928C577.972 560.96 576.116 560.976 574.196 560.976C572.276 561.008 570.404 561.008 568.58 560.976C566.788 560.976 565.236 560.96 563.924 560.928C560.788 560.8 558.1 560.288 555.86 559.392C553.652 558.496 551.78 557.088 550.244 555.168C549.092 556.192 547.908 557.216 546.692 558.24C545.476 559.296 544.212 560.368 542.9 561.456L541.028 557.76C542.18 556.992 543.412 556.112 544.724 555.12C546.068 554.096 547.364 553.072 548.612 552.048H551.876ZM542.18 520.992L544.82 518.832C545.876 519.504 546.948 520.288 548.036 521.184C549.124 522.048 550.132 522.928 551.06 523.824C551.988 524.72 552.724 525.552 553.268 526.32L550.388 528.72C549.908 527.952 549.204 527.104 548.276 526.176C547.38 525.248 546.388 524.336 545.3 523.44C544.244 522.512 543.204 521.696 542.18 520.992ZM577.124 517.68L580.82 518.88C579.988 520.256 579.108 521.68 578.18 523.152C577.252 524.592 576.388 525.824 575.588 526.848L572.66 525.744C573.172 525.008 573.7 524.176 574.244 523.248C574.82 522.288 575.364 521.328 575.876 520.368C576.388 519.376 576.804 518.48 577.124 517.68ZM558.02 519.072L561.044 517.824C562.004 519.008 562.9 520.32 563.732 521.76C564.596 523.168 565.188 524.416 565.508 525.504L562.244 526.992C561.956 525.904 561.412 524.624 560.612 523.152C559.812 521.648 558.948 520.288 558.02 519.072Z" fill="white"/>
</g>
<defs>
<linearGradient id="paint0_linear_19_1212" x1="528.001" y1="0" x2="528.001" y2="1080" gradientUnits="userSpaceOnUse">
<stop stop-color="white" stop-opacity="0"/>
<stop offset="1" stop-color="white"/>
</linearGradient>
<clipPath id="clip0_19_1212">
<rect width="1080" height="1080" fill="white"/>
</clipPath>
</defs>
</svg>
