<svg width="1080" height="1080" viewBox="0 0 1080 1080" fill="none" xmlns="http://www.w3.org/2000/svg">
<g clip-path="url(#clip0_19_1691)">
<path d="M24.4991 0L24.4991 1080M48.4992 0L48.4991 1080M72.4992 0L72.4992 1080M96.4993 0L96.4992 1080M120.499 0L120.499 1080M144.499 0L144.499 1080M168.499 0L168.499 1080M192.499 0L192.499 1080M216.499 0L216.499 1080M240.5 0L240.499 1080M264.5 0L264.5 1080M288.5 0L288.5 1080M312.5 0L312.5 1080M336.5 0L336.5 1080M360.5 0L360.5 1080M384.5 0L384.5 1080M408.5 0L408.5 1080M432.5 0L432.5 1080M456.5 0L456.5 1080M480.5 0L480.5 1080M504.5 0L504.5 1080M528.5 0L528.5 1080M552.5 0L552.5 1080M576.5 0L576.5 1080M600.5 0L600.5 1080M624.5 0L624.5 1080M648.501 0L648.5 1080M672.501 0L672.501 1080M696.501 0L696.501 1080M720.501 0L720.501 1080M744.501 0L744.501 1080M768.501 0L768.501 1080M792.501 0L792.501 1080M816.501 0L816.501 1080M840.501 0L840.501 1080M864.501 0L864.501 1080M888.501 0L888.501 1080M912.501 0L912.501 1080M936.501 0L936.501 1080M960.501 0L960.501 1080M984.501 0L984.501 1080M1008.5 0L1008.5 1080M1032.5 0V1080M1068 36.499L-12 36.4989M1068 60.4991L-12 60.499M1068 84.4991L-12 84.499M1068 108.499L-12 108.499M1068 132.499L-12 132.499M1068 156.499L-12 156.499M1068 180.499L-12 180.499M1068 204.499L-12 204.499M1068 228.499L-12 228.499M1068 252.499L-12 252.499M1068 276.5L-12 276.499M1068 300.5L-12 300.499M1068 324.5L-12 324.5M1068 348.5L-12 348.5M1068 372.5L-12 372.5M1068 396.5L-12 396.5M1068 420.5L-12 420.5M1068 444.5L-12 444.5M1068 468.5L-12 468.5M1068 492.5L-12 492.5M1068 516.5L-12 516.5M1068 540.5L-12 540.5M1068 564.5L-12 564.5M1068 588.5L-12 588.5M1068 612.5L-12 612.5M1068 636.5L-12 636.5M1068 660.5L-12 660.5M1068 684.5L-12 684.5M1068 708.501L-12 708.5M1068 732.501L-12 732.501M1068 756.501L-12 756.501M1068 780.501L-12 780.501M1068 804.501L-12 804.501M1068 828.501L-12 828.501M1068 852.501L-12 852.501M1068 876.501L-12 876.501M1068 900.501L-12 900.501M1068 924.501L-12 924.501M1068 948.501L-12 948.501M1068 972.501L-12 972.501M1068 996.501L-12 996.501M1068 1020.5L-12 1020.5M1068 1044.5L-12 1044.5" stroke="url(#paint0_linear_19_1691)" stroke-opacity="0.15"/>
<rect x="317" y="400" width="449" height="281" rx="27" stroke="#CC00FF" stroke-width="6" stroke-dasharray="12 12"/>
<rect x="-188" y="400" width="449" height="281" rx="27" stroke="#CC00FF" stroke-width="6" stroke-dasharray="12 12"/>
<rect x="820" y="400" width="449" height="281" rx="27" stroke="#CC00FF" stroke-width="6" stroke-dasharray="12 12"/>
<g clip-path="url(#clip1_19_1691)">
<path fill-rule="evenodd" clip-rule="evenodd" d="M336 368L324 356L312 368L324 380L336 368Z" fill="#CC00FF"/>
</g>
<g clip-path="url(#clip2_19_1691)">
<path fill-rule="evenodd" clip-rule="evenodd" d="M839 368L827 356L815 368L827 380L839 368Z" fill="#CC00FF"/>
</g>
<rect x="456.5" y="491" width="168" height="98" rx="24" fill="white"/>
<path d="M513.236 538.56C515.38 543.808 518.708 548.176 523.22 551.664C527.764 555.12 533.348 557.488 539.972 558.768C539.748 559.024 539.476 559.328 539.156 559.68C538.868 560.064 538.596 560.448 538.34 560.832C538.084 561.248 537.876 561.632 537.716 561.984C533.204 560.96 529.172 559.44 525.62 557.424C522.068 555.408 519.012 552.896 516.452 549.888C513.892 546.88 511.796 543.424 510.164 539.52L513.236 538.56ZM530.372 537.216H531.092L531.764 537.024L534.212 538.176C533.156 541.536 531.716 544.512 529.892 547.104C528.068 549.696 525.956 551.952 523.556 553.872C521.188 555.792 518.612 557.408 515.828 558.72C513.044 560.032 510.148 561.104 507.14 561.936C506.948 561.488 506.66 560.944 506.276 560.304C505.924 559.696 505.572 559.216 505.22 558.864C508.036 558.192 510.756 557.264 513.38 556.08C516.004 554.864 518.42 553.392 520.628 551.664C522.868 549.904 524.82 547.888 526.484 545.616C528.148 543.312 529.444 540.72 530.372 537.84V537.216ZM512.18 537.216H530.948V540.672H511.124L512.18 537.216ZM515.444 517.488L519.476 518.16C518.836 522.704 517.988 526.96 516.932 530.928C515.876 534.864 514.5 538.496 512.804 541.824C511.108 545.152 509.028 548.176 506.564 550.896C504.132 553.584 501.22 555.968 497.828 558.048C497.668 557.792 497.428 557.488 497.108 557.136C496.788 556.752 496.452 556.4 496.1 556.08C495.78 555.728 495.46 555.456 495.14 555.264C499.396 552.672 502.884 549.536 505.604 545.856C508.356 542.144 510.516 537.92 512.084 533.184C513.652 528.416 514.772 523.184 515.444 517.488ZM526.004 520.08L528.788 518.352C529.492 519.056 530.228 519.84 530.996 520.704C531.796 521.536 532.548 522.352 533.252 523.152C533.956 523.952 534.532 524.64 534.98 525.216L532.148 527.184C531.7 526.576 531.124 525.856 530.42 525.024C529.716 524.192 528.98 523.344 528.212 522.48C527.444 521.616 526.708 520.816 526.004 520.08ZM500.612 532.896C500.548 532.608 500.436 532.256 500.276 531.84C500.148 531.424 500.004 531.008 499.844 530.592C499.716 530.144 499.572 529.776 499.412 529.488C499.764 529.392 500.068 529.184 500.324 528.864C500.612 528.544 500.9 528.112 501.188 527.568C501.38 527.248 501.668 526.656 502.052 525.792C502.468 524.896 502.9 523.856 503.348 522.672C503.796 521.456 504.148 520.24 504.404 519.024L508.244 519.744C507.86 521.088 507.396 522.448 506.852 523.824C506.34 525.168 505.796 526.432 505.22 527.616C504.644 528.8 504.084 529.84 503.54 530.736V530.832C503.54 530.832 503.396 530.896 503.108 531.024C502.82 531.152 502.468 531.328 502.052 531.552C501.668 531.744 501.332 531.968 501.044 532.224C500.756 532.448 500.612 532.672 500.612 532.896ZM500.612 532.896V530.064L503.06 528.624H538.388L538.34 532.08H505.748C504.212 532.08 503.028 532.16 502.196 532.32C501.396 532.448 500.868 532.64 500.612 532.896ZM554.564 536.736H584.852V540H554.564V536.736ZM556.148 526.848H583.412V530.064H556.148V526.848ZM567.476 528.288H571.028V535.488C571.028 536.992 570.868 538.592 570.548 540.288C570.26 541.952 569.652 543.648 568.724 545.376C567.796 547.104 566.42 548.768 564.596 550.368C562.772 551.968 560.34 553.456 557.3 554.832C557.172 554.544 556.964 554.24 556.676 553.92C556.388 553.6 556.084 553.28 555.764 552.96C555.476 552.64 555.188 552.384 554.9 552.192C557.844 551.008 560.164 549.712 561.86 548.304C563.556 546.864 564.788 545.408 565.556 543.936C566.356 542.432 566.868 540.96 567.092 539.52C567.348 538.08 567.476 536.72 567.476 535.44V528.288ZM572.036 538.848C572.964 542.176 574.484 544.96 576.596 547.2C578.74 549.408 581.524 551.008 584.948 552C584.692 552.224 584.42 552.528 584.132 552.912C583.844 553.264 583.572 553.632 583.316 554.016C583.06 554.368 582.836 554.704 582.644 555.024C579.028 553.776 576.1 551.856 573.86 549.264C571.652 546.672 570.004 543.408 568.916 539.472L572.036 538.848ZM551.876 536.64V553.632H548.372V540H541.652V536.64H551.876ZM551.876 552.048C553.028 553.808 554.628 555.12 556.676 555.984C558.724 556.848 561.14 557.328 563.924 557.424C565.236 557.488 566.82 557.536 568.676 557.568C570.564 557.568 572.532 557.552 574.58 557.52C576.66 557.488 578.66 557.44 580.58 557.376C582.5 557.312 584.18 557.232 585.62 557.136C585.46 557.392 585.3 557.744 585.14 558.192C584.98 558.64 584.836 559.088 584.708 559.536C584.58 560.016 584.484 560.432 584.42 560.784C583.108 560.848 581.556 560.896 579.764 560.928C577.972 560.96 576.116 560.976 574.196 560.976C572.276 561.008 570.404 561.008 568.58 560.976C566.788 560.976 565.236 560.96 563.924 560.928C560.788 560.8 558.1 560.288 555.86 559.392C553.652 558.496 551.78 557.088 550.244 555.168C549.092 556.192 547.908 557.216 546.692 558.24C545.476 559.296 544.212 560.368 542.9 561.456L541.028 557.76C542.18 556.992 543.412 556.112 544.724 555.12C546.068 554.096 547.364 553.072 548.612 552.048H551.876ZM542.18 520.992L544.82 518.832C545.876 519.504 546.948 520.288 548.036 521.184C549.124 522.048 550.132 522.928 551.06 523.824C551.988 524.72 552.724 525.552 553.268 526.32L550.388 528.72C549.908 527.952 549.204 527.104 548.276 526.176C547.38 525.248 546.388 524.336 545.3 523.44C544.244 522.512 543.204 521.696 542.18 520.992ZM577.124 517.68L580.82 518.88C579.988 520.256 579.108 521.68 578.18 523.152C577.252 524.592 576.388 525.824 575.588 526.848L572.66 525.744C573.172 525.008 573.7 524.176 574.244 523.248C574.82 522.288 575.364 521.328 575.876 520.368C576.388 519.376 576.804 518.48 577.124 517.68ZM558.02 519.072L561.044 517.824C562.004 519.008 562.9 520.32 563.732 521.76C564.596 523.168 565.188 524.416 565.508 525.504L562.244 526.992C561.956 525.904 561.412 524.624 560.612 523.152C559.812 521.648 558.948 520.288 558.02 519.072Z" fill="black"/>
<rect x="-48.5" y="491" width="168" height="98" rx="24" fill="url(#paint1_linear_19_1691)"/>
<path d="M3.964 536.736H34.252V540H3.964V536.736ZM5.548 526.848H32.812V530.064H5.548V526.848ZM16.876 528.288H20.428V535.488C20.428 536.992 20.268 538.592 19.948 540.288C19.66 541.952 19.052 543.648 18.124 545.376C17.196 547.104 15.82 548.768 13.996 550.368C12.172 551.968 9.74 553.456 6.7 554.832C6.572 554.544 6.364 554.24 6.076 553.92C5.788 553.6 5.484 553.28 5.164 552.96C4.876 552.64 4.588 552.384 4.3 552.192C7.244 551.008 9.564 549.712 11.26 548.304C12.956 546.864 14.188 545.408 14.956 543.936C15.756 542.432 16.268 540.96 16.492 539.52C16.748 538.08 16.876 536.72 16.876 535.44V528.288ZM21.436 538.848C22.364 542.176 23.884 544.96 25.996 547.2C28.14 549.408 30.924 551.008 34.348 552C34.092 552.224 33.82 552.528 33.532 552.912C33.244 553.264 32.972 553.632 32.716 554.016C32.46 554.368 32.236 554.704 32.044 555.024C28.428 553.776 25.5 551.856 23.26 549.264C21.052 546.672 19.404 543.408 18.316 539.472L21.436 538.848ZM1.276 536.64V553.632H-2.228V540H-8.948V536.64H1.276ZM1.276 552.048C2.428 553.808 4.028 555.12 6.076 555.984C8.124 556.848 10.54 557.328 13.324 557.424C14.636 557.488 16.22 557.536 18.076 557.568C19.964 557.568 21.932 557.552 23.98 557.52C26.06 557.488 28.06 557.44 29.98 557.376C31.9 557.312 33.58 557.232 35.02 557.136C34.86 557.392 34.7 557.744 34.54 558.192C34.38 558.64 34.236 559.088 34.108 559.536C33.98 560.016 33.884 560.432 33.82 560.784C32.508 560.848 30.956 560.896 29.164 560.928C27.372 560.96 25.516 560.976 23.596 560.976C21.676 561.008 19.804 561.008 17.98 560.976C16.188 560.976 14.636 560.96 13.324 560.928C10.188 560.8 7.5 560.288 5.26 559.392C3.052 558.496 1.18 557.088 -0.355999 555.168C-1.508 556.192 -2.692 557.216 -3.908 558.24C-5.124 559.296 -6.388 560.368 -7.7 561.456L-9.572 557.76C-8.42 556.992 -7.188 556.112 -5.876 555.12C-4.532 554.096 -3.236 553.072 -1.988 552.048H1.276ZM-8.42 520.992L-5.78 518.832C-4.724 519.504 -3.652 520.288 -2.564 521.184C-1.476 522.048 -0.467999 522.928 0.460001 523.824C1.388 524.72 2.124 525.552 2.668 526.32L-0.211999 528.72C-0.691999 527.952 -1.396 527.104 -2.324 526.176C-3.22 525.248 -4.212 524.336 -5.3 523.44C-6.356 522.512 -7.396 521.696 -8.42 520.992ZM26.524 517.68L30.22 518.88C29.388 520.256 28.508 521.68 27.58 523.152C26.652 524.592 25.788 525.824 24.988 526.848L22.06 525.744C22.572 525.008 23.1 524.176 23.644 523.248C24.22 522.288 24.764 521.328 25.276 520.368C25.788 519.376 26.204 518.48 26.524 517.68ZM7.42 519.072L10.444 517.824C11.404 519.008 12.3 520.32 13.132 521.76C13.996 523.168 14.588 524.416 14.908 525.504L11.644 526.992C11.356 525.904 10.812 524.624 10.012 523.152C9.212 521.648 8.348 520.288 7.42 519.072ZM53.74 519.936H75.916V522.912H53.74V519.936ZM53.164 533.28H76.78V536.256H53.164V533.28ZM53.164 539.952H76.684V542.928H53.164V539.952ZM54.556 556.56H75.34V559.584H54.556V556.56ZM49.228 526.608H80.476V529.632H49.228V526.608ZM52.684 546.624H77.212V561.696H73.612V549.552H56.14V561.84H52.684V546.624ZM47.596 517.824L50.956 518.88C49.868 521.568 48.588 524.224 47.116 526.848C45.676 529.472 44.108 531.936 42.412 534.24C40.748 536.544 39.036 538.592 37.276 540.384C37.148 540.096 36.956 539.728 36.7 539.28C36.476 538.832 36.236 538.384 35.98 537.936C35.724 537.488 35.484 537.12 35.26 536.832C36.86 535.296 38.428 533.52 39.964 531.504C41.5 529.456 42.924 527.28 44.236 524.976C45.548 522.64 46.668 520.256 47.596 517.824ZM42.604 530.208L45.964 526.8L46.06 526.848V561.696H42.604V530.208Z" fill="white"/>
<rect x="954" y="491" width="179" height="98" rx="24" fill="black"/>
<path d="M992.717 558.048C992.717 557.28 992.781 556.464 992.909 555.6C993.069 554.704 993.293 553.76 993.581 552.768C993.901 551.744 994.285 550.672 994.733 549.552L998.189 550.896C997.869 551.792 997.581 552.64 997.325 553.44C997.101 554.24 996.925 554.992 996.797 555.696C996.701 556.4 996.653 557.072 996.653 557.712C996.653 559.248 997.053 560.576 997.853 561.696C998.685 562.816 999.821 563.68 1001.26 564.288C1002.7 564.896 1004.38 565.2 1006.3 565.2C1008.64 565.2 1010.56 564.864 1012.06 564.192C1013.6 563.52 1014.78 562.496 1015.61 561.12C1016.48 559.744 1017.05 558 1017.34 555.888C1017.63 553.744 1017.72 551.232 1017.63 548.352L1016.72 523.728H1020.7L1021.52 549.36C1021.58 551.504 1021.48 553.568 1021.23 555.552C1021 557.504 1020.56 559.296 1019.88 560.928C1019.21 562.592 1018.28 564.032 1017.1 565.248C1015.92 566.496 1014.43 567.456 1012.64 568.128C1010.84 568.8 1008.68 569.136 1006.16 569.136C1004.46 569.136 1002.81 568.912 1001.21 568.464C999.613 568.016 998.173 567.344 996.893 566.448C995.613 565.552 994.589 564.4 993.821 562.992C993.085 561.616 992.717 559.968 992.717 558.048ZM1036.22 558.24C1033.66 558.24 1031.69 557.952 1030.32 557.376C1028.97 556.8 1028.04 555.904 1027.53 554.688C1027.02 553.472 1026.73 551.904 1026.67 549.984L1025.71 523.728H1029.64L1030.6 548.448C1030.67 550.016 1030.81 551.232 1031.04 552.096C1031.29 552.928 1031.84 553.504 1032.67 553.824C1033.53 554.144 1034.88 554.304 1036.7 554.304C1037.37 554.304 1037.85 554.496 1038.14 554.88C1038.46 555.232 1038.62 555.664 1038.62 556.176C1038.62 556.688 1038.4 557.168 1037.95 557.616C1037.5 558.032 1036.92 558.24 1036.22 558.24ZM1033.82 558.24L1034.3 554.304C1035.32 554.304 1036.16 554.24 1036.8 554.112C1037.44 553.952 1037.96 553.584 1038.38 553.008C1038.83 552.4 1039.24 551.456 1039.63 550.176C1040.01 548.896 1040.46 547.104 1040.97 544.8L1044.57 545.808C1044.44 546.352 1044.3 546.976 1044.14 547.68C1043.98 548.352 1043.84 549.056 1043.71 549.792C1043.58 550.496 1043.52 551.152 1043.52 551.76C1043.52 552.56 1043.82 553.184 1044.43 553.632C1045.04 554.08 1046.14 554.304 1047.74 554.304C1048.7 554.304 1049.48 554.224 1050.09 554.064C1050.7 553.904 1051.2 553.52 1051.58 552.912C1052 552.304 1052.36 551.328 1052.68 549.984C1053 548.64 1053.34 546.8 1053.69 544.464L1057.34 545.136C1057.24 545.712 1057.13 546.416 1057 547.248C1056.88 548.08 1056.75 548.912 1056.62 549.744C1056.52 550.544 1056.48 551.216 1056.48 551.76C1056.48 552.208 1056.57 552.64 1056.76 553.056C1056.99 553.44 1057.4 553.744 1058.01 553.968C1058.65 554.192 1059.6 554.304 1060.84 554.304C1061.77 554.304 1062.57 554.192 1063.24 553.968C1063.95 553.744 1064.48 553.328 1064.83 552.72C1065.21 552.112 1065.4 551.264 1065.4 550.176C1065.4 548.96 1065.12 547.44 1064.54 545.616C1064 543.76 1063.37 541.92 1062.67 540.096L1066.56 538.656C1066.97 539.68 1067.36 540.848 1067.71 542.16C1068.09 543.472 1068.41 544.768 1068.67 546.048C1068.92 547.328 1069.05 548.448 1069.05 549.408C1069.05 550.88 1068.86 552.176 1068.48 553.296C1068.09 554.416 1067.55 555.344 1066.84 556.08C1066.14 556.784 1065.28 557.328 1064.25 557.712C1063.23 558.064 1062.08 558.24 1060.8 558.24C1059.29 558.24 1058.06 558.064 1057.1 557.712C1056.14 557.36 1055.4 556.832 1054.89 556.128C1054.38 555.392 1054.04 554.464 1053.88 553.344H1055.52C1054.91 554.72 1054.27 555.76 1053.6 556.464C1052.92 557.168 1052.09 557.648 1051.1 557.904C1050.11 558.128 1048.8 558.24 1047.16 558.24C1046.36 558.24 1045.5 558.112 1044.57 557.856C1043.68 557.6 1042.89 557.104 1042.22 556.368C1041.55 555.6 1041.15 554.464 1041.02 552.96L1042.46 552.672C1041.92 554.304 1041.24 555.52 1040.44 556.32C1039.68 557.088 1038.75 557.6 1037.66 557.856C1036.57 558.112 1035.29 558.24 1033.82 558.24ZM1069.25 569.04L1067.86 565.392C1071.09 564.368 1073.57 563.136 1075.3 561.696C1077.06 560.288 1078.26 558.816 1078.9 557.28C1079.57 555.744 1079.91 554.272 1079.91 552.864C1079.91 551.968 1079.81 551.104 1079.62 550.272C1079.43 549.44 1079.09 548.496 1078.61 547.44C1078.13 546.384 1077.46 545.072 1076.6 543.504L1080.1 541.728C1081.32 543.808 1082.18 545.776 1082.69 547.632C1083.24 549.488 1083.51 551.12 1083.51 552.528C1083.51 554.544 1083.17 556.368 1082.5 558C1081.86 559.632 1081 561.072 1079.91 562.32C1078.85 563.6 1077.68 564.688 1076.4 565.584C1075.16 566.48 1073.89 567.216 1072.61 567.792C1071.36 568.368 1070.24 568.784 1069.25 569.04ZM1088.7 558L1087.74 523.728H1091.63L1092.59 558H1088.7ZM1087.41 572.544L1086.83 569.952C1087.66 569.76 1088.33 569.6 1088.85 569.472C1089.36 569.344 1089.93 569.2 1090.57 569.04L1090.33 570.048C1089.5 569.792 1088.7 569.248 1087.93 568.416C1087.2 567.584 1086.83 566.64 1086.83 565.584C1086.83 564.624 1087.05 563.808 1087.5 563.136C1087.98 562.496 1088.59 562.016 1089.33 561.696C1090.09 561.376 1090.91 561.216 1091.77 561.216C1092.13 561.216 1092.49 561.248 1092.88 561.312C1093.29 561.376 1093.68 561.472 1094.03 561.6L1093.65 564C1093.33 563.936 1093.02 563.872 1092.73 563.808C1092.45 563.744 1092.13 563.712 1091.77 563.712C1091.04 563.712 1090.46 563.856 1090.05 564.144C1089.63 564.464 1089.42 564.896 1089.42 565.44C1089.42 566.112 1089.63 566.688 1090.05 567.168C1090.49 567.648 1090.99 568.016 1091.53 568.272C1092.11 568.56 1092.57 568.704 1092.93 568.704L1090.96 568.896C1091.82 568.672 1092.62 568.432 1093.36 568.176C1094.13 567.952 1094.81 567.728 1095.42 567.504L1096.19 569.952C1095.42 570.24 1094.51 570.544 1093.45 570.864C1092.43 571.184 1091.39 571.488 1090.33 571.776C1089.28 572.064 1088.3 572.32 1087.41 572.544Z" fill="white"/>
</g>
<defs>
<linearGradient id="paint0_linear_19_1691" x1="528" y1="0" x2="528" y2="1080" gradientUnits="userSpaceOnUse">
<stop stop-color="white" stop-opacity="0"/>
<stop offset="1" stop-color="white"/>
</linearGradient>
<linearGradient id="paint1_linear_19_1691" x1="35.5" y1="491" x2="35.5" y2="589" gradientUnits="userSpaceOnUse">
<stop stop-color="#FF0E41"/>
<stop offset="1" stop-color="#FF3862"/>
</linearGradient>
<clipPath id="clip0_19_1691">
<rect width="1080" height="1080" fill="white"/>
</clipPath>
<clipPath id="clip1_19_1691">
<rect width="24" height="24" fill="white" transform="translate(312 356)"/>
</clipPath>
<clipPath id="clip2_19_1691">
<rect width="24" height="24" fill="white" transform="translate(815 356)"/>
</clipPath>
</defs>
</svg>
