<svg width="1080" height="1080" viewBox="0 0 1080 1080" fill="none" xmlns="http://www.w3.org/2000/svg">
<g clip-path="url(#clip0_40_2291)">
<path d="M24.4991 0L24.4991 1080M48.4992 0L48.4991 1080M72.4992 0L72.4992 1080M96.4993 0L96.4992 1080M120.499 0L120.499 1080M144.499 0L144.499 1080M168.499 0L168.499 1080M192.499 0L192.499 1080M216.499 0L216.499 1080M240.5 0L240.499 1080M264.5 0L264.5 1080M288.5 0L288.5 1080M312.5 0L312.5 1080M336.5 0L336.5 1080M360.5 0L360.5 1080M384.5 0L384.5 1080M408.5 0L408.5 1080M432.5 0L432.5 1080M456.5 0L456.5 1080M480.5 0L480.5 1080M504.5 0L504.5 1080M528.5 0L528.5 1080M552.5 0L552.5 1080M576.5 0L576.5 1080M600.5 0L600.5 1080M624.5 0L624.5 1080M648.501 0L648.5 1080M672.501 0L672.501 1080M696.501 0L696.501 1080M720.501 0L720.501 1080M744.501 0L744.501 1080M768.501 0L768.501 1080M792.501 0L792.501 1080M816.501 0L816.501 1080M840.501 0L840.501 1080M864.501 0L864.501 1080M888.501 0L888.501 1080M912.501 0L912.501 1080M936.501 0L936.501 1080M960.501 0L960.501 1080M984.501 0L984.501 1080M1008.5 0L1008.5 1080M1032.5 0V1080M1068 36.499L-12 36.4989M1068 60.4991L-12 60.499M1068 84.4991L-12 84.499M1068 108.499L-12 108.499M1068 132.499L-12 132.499M1068 156.499L-12 156.499M1068 180.499L-12 180.499M1068 204.499L-12 204.499M1068 228.499L-12 228.499M1068 252.499L-12 252.499M1068 276.5L-12 276.499M1068 300.5L-12 300.499M1068 324.5L-12 324.5M1068 348.5L-12 348.5M1068 372.5L-12 372.5M1068 396.5L-12 396.5M1068 420.5L-12 420.5M1068 444.5L-12 444.5M1068 468.5L-12 468.5M1068 492.5L-12 492.5M1068 516.5L-12 516.5M1068 540.5L-12 540.5M1068 564.5L-12 564.5M1068 588.5L-12 588.5M1068 612.5L-12 612.5M1068 636.5L-12 636.5M1068 660.5L-12 660.5M1068 684.5L-12 684.5M1068 708.501L-12 708.5M1068 732.501L-12 732.501M1068 756.501L-12 756.501M1068 780.501L-12 780.501M1068 804.501L-12 804.501M1068 828.501L-12 828.501M1068 852.501L-12 852.501M1068 876.501L-12 876.501M1068 900.501L-12 900.501M1068 924.501L-12 924.501M1068 948.501L-12 948.501M1068 972.501L-12 972.501M1068 996.501L-12 996.501M1068 1020.5L-12 1020.5M1068 1044.5L-12 1044.5" stroke="url(#paint0_linear_40_2291)" stroke-opacity="0.15"/>
<line x1="456" y1="1080" x2="456" y2="4.37115e-08" stroke="url(#paint1_linear_40_2291)" stroke-width="2"/>
<line x1="0.5" y1="444.5" x2="1080.5" y2="444.5" stroke="#FF0E41" stroke-width="2"/>
<line x1="624" y1="1080" x2="624" y2="4.37115e-08" stroke="url(#paint2_linear_40_2291)" stroke-width="2"/>
<line x1="0.5" y1="613.5" x2="1080.5" y2="613.5" stroke="#FF0E41" stroke-width="2"/>
<rect x="456" y="444" width="169" height="169" rx="24" fill="url(#paint3_linear_40_2291)"/>
<g filter="url(#filter0_dddddd_40_2291)">
<path fill-rule="evenodd" clip-rule="evenodd" d="M542.234 530.016L560.364 542.895C562.569 544.459 564.501 545.827 565.844 547.117C567.278 548.485 568.564 550.237 568.564 552.626C568.564 555.015 567.278 556.766 565.844 558.138C564.497 559.42 562.574 560.792 560.369 562.356L552.884 567.673C549.903 569.788 547.388 571.572 545.301 572.638C543.178 573.72 540.585 574.537 537.992 573.21C535.391 571.879 534.546 569.29 534.194 566.938C533.855 564.627 533.855 561.552 533.855 557.914V502.086C533.855 498.448 533.855 495.373 534.198 493.062C534.546 490.71 535.391 488.121 537.992 486.794C540.585 485.467 543.178 486.28 545.301 487.366C547.388 488.428 549.903 490.216 552.884 492.331L560.369 497.644C562.574 499.212 564.501 500.58 565.844 501.866C567.278 503.234 568.564 504.986 568.564 507.378C568.564 509.763 567.278 511.515 565.844 512.887C564.497 514.173 562.574 515.541 560.369 517.105L542.226 529.98L542.255 530L542.234 530.016Z" fill="url(#paint4_linear_40_2291)"/>
<path opacity="0.5" d="M533.854 524.12L518.256 513.201C517.928 512.955 517.553 512.777 517.154 512.678C516.756 512.579 516.341 512.562 515.936 512.626C515.53 512.691 515.142 512.837 514.794 513.054C514.446 513.272 514.145 513.558 513.909 513.894C513.674 514.23 513.508 514.611 513.423 515.012C513.337 515.414 513.333 515.829 513.411 516.232C513.489 516.635 513.647 517.018 513.876 517.359C514.105 517.7 514.4 517.991 514.744 518.215L531.576 530L514.744 541.784C514.079 542.25 513.626 542.961 513.484 543.761C513.343 544.561 513.525 545.384 513.991 546.05C514.457 546.715 515.168 547.168 515.967 547.31C516.767 547.451 517.591 547.269 518.256 546.803L533.854 535.884V524.12Z" fill="url(#paint5_linear_40_2291)"/>
</g>
</g>
<defs>
<filter id="filter0_dddddd_40_2291" x="434" y="461" width="214" height="214" filterUnits="userSpaceOnUse" color-interpolation-filters="sRGB">
<feFlood flood-opacity="0" result="BackgroundImageFix"/>
<feColorMatrix in="SourceAlpha" type="matrix" values="0 0 0 0 0 0 0 0 0 0 0 0 0 0 0 0 0 0 127 0" result="hardAlpha"/>
<feOffset dy="1.05156"/>
<feGaussianBlur stdDeviation="0.802504"/>
<feColorMatrix type="matrix" values="0 0 0 0 0 0 0 0 0 0 0 0 0 0 0 0 0 0 0.0646635 0"/>
<feBlend mode="normal" in2="BackgroundImageFix" result="effect1_dropShadow_40_2291"/>
<feColorMatrix in="SourceAlpha" type="matrix" values="0 0 0 0 0 0 0 0 0 0 0 0 0 0 0 0 0 0 127 0" result="hardAlpha"/>
<feOffset dy="2.52704"/>
<feGaussianBlur stdDeviation="1.92853"/>
<feColorMatrix type="matrix" values="0 0 0 0 0 0 0 0 0 0 0 0 0 0 0 0 0 0 0.0928953 0"/>
<feBlend mode="normal" in2="effect1_dropShadow_40_2291" result="effect2_dropShadow_40_2291"/>
<feColorMatrix in="SourceAlpha" type="matrix" values="0 0 0 0 0 0 0 0 0 0 0 0 0 0 0 0 0 0 127 0" result="hardAlpha"/>
<feOffset dy="4.75819"/>
<feGaussianBlur stdDeviation="3.63125"/>
<feColorMatrix type="matrix" values="0 0 0 0 0 0 0 0 0 0 0 0 0 0 0 0 0 0 0.115 0"/>
<feBlend mode="normal" in2="effect2_dropShadow_40_2291" result="effect3_dropShadow_40_2291"/>
<feColorMatrix in="SourceAlpha" type="matrix" values="0 0 0 0 0 0 0 0 0 0 0 0 0 0 0 0 0 0 127 0" result="hardAlpha"/>
<feOffset dy="8.4878"/>
<feGaussianBlur stdDeviation="6.47753"/>
<feColorMatrix type="matrix" values="0 0 0 0 0 0 0 0 0 0 0 0 0 0 0 0 0 0 0.137105 0"/>
<feBlend mode="normal" in2="effect3_dropShadow_40_2291" result="effect4_dropShadow_40_2291"/>
<feColorMatrix in="SourceAlpha" type="matrix" values="0 0 0 0 0 0 0 0 0 0 0 0 0 0 0 0 0 0 127 0" result="hardAlpha"/>
<feOffset dy="15.8755"/>
<feGaussianBlur stdDeviation="12.1155"/>
<feColorMatrix type="matrix" values="0 0 0 0 0 0 0 0 0 0 0 0 0 0 0 0 0 0 0.165337 0"/>
<feBlend mode="normal" in2="effect4_dropShadow_40_2291" result="effect5_dropShadow_40_2291"/>
<feColorMatrix in="SourceAlpha" type="matrix" values="0 0 0 0 0 0 0 0 0 0 0 0 0 0 0 0 0 0 127 0" result="hardAlpha"/>
<feOffset dy="38"/>
<feGaussianBlur stdDeviation="29"/>
<feColorMatrix type="matrix" values="0 0 0 0 0 0 0 0 0 0 0 0 0 0 0 0 0 0 0.23 0"/>
<feBlend mode="normal" in2="effect5_dropShadow_40_2291" result="effect6_dropShadow_40_2291"/>
<feBlend mode="normal" in="SourceGraphic" in2="effect6_dropShadow_40_2291" result="shape"/>
</filter>
<linearGradient id="paint0_linear_40_2291" x1="528" y1="0" x2="528" y2="1080" gradientUnits="userSpaceOnUse">
<stop stop-color="white" stop-opacity="0"/>
<stop offset="1" stop-color="white"/>
</linearGradient>
<linearGradient id="paint1_linear_40_2291" x1="457.5" y1="-2.18556e-08" x2="457.5" y2="1080" gradientUnits="userSpaceOnUse">
<stop stop-color="#990827" stop-opacity="0"/>
<stop offset="1" stop-color="#FF0E41"/>
</linearGradient>
<linearGradient id="paint2_linear_40_2291" x1="625.5" y1="-2.18556e-08" x2="625.5" y2="1080" gradientUnits="userSpaceOnUse">
<stop stop-color="#990827" stop-opacity="0"/>
<stop offset="1" stop-color="#FF0E41"/>
</linearGradient>
<linearGradient id="paint3_linear_40_2291" x1="540.5" y1="444" x2="540.5" y2="613" gradientUnits="userSpaceOnUse">
<stop stop-color="#FF0E41"/>
<stop offset="1" stop-color="#FF3862"/>
</linearGradient>
<linearGradient id="paint4_linear_40_2291" x1="551.21" y1="486.105" x2="551.21" y2="573.898" gradientUnits="userSpaceOnUse">
<stop stop-color="white"/>
<stop offset="0.421421" stop-color="#F0F0F0"/>
<stop offset="0.827347" stop-color="#BABCBD"/>
<stop offset="1" stop-color="#F2F2F2"/>
</linearGradient>
<linearGradient id="paint5_linear_40_2291" x1="523.605" y1="512.588" x2="523.605" y2="547.356" gradientUnits="userSpaceOnUse">
<stop stop-color="white"/>
<stop offset="0.421421" stop-color="#F0F0F0"/>
<stop offset="0.827347" stop-color="#BABCBD"/>
<stop offset="1" stop-color="#F2F2F2"/>
</linearGradient>
<clipPath id="clip0_40_2291">
<rect width="1080" height="1080" fill="white"/>
</clipPath>
</defs>
</svg>
