<svg width="1080" height="1080" viewBox="0 0 1080 1080" fill="none" xmlns="http://www.w3.org/2000/svg">
<g clip-path="url(#clip0_18_1234)">
<path d="M24.4991 0L24.4991 1080M48.4992 0L48.4991 1080M72.4992 0L72.4992 1080M96.4993 0L96.4992 1080M120.499 0L120.499 1080M144.499 0L144.499 1080M168.499 0L168.499 1080M192.499 0L192.499 1080M216.499 0L216.499 1080M240.5 0L240.499 1080M264.5 0L264.5 1080M288.5 0L288.5 1080M312.5 0L312.5 1080M336.5 0L336.5 1080M360.5 0L360.5 1080M384.5 0L384.5 1080M408.5 0L408.5 1080M432.5 0L432.5 1080M456.5 0L456.5 1080M480.5 0L480.5 1080M504.5 0L504.5 1080M528.5 0L528.5 1080M552.5 0L552.5 1080M576.5 0L576.5 1080M600.5 0L600.5 1080M624.5 0L624.5 1080M648.501 0L648.5 1080M672.501 0L672.501 1080M696.501 0L696.501 1080M720.501 0L720.501 1080M744.501 0L744.501 1080M768.501 0L768.501 1080M792.501 0L792.501 1080M816.501 0L816.501 1080M840.501 0L840.501 1080M864.501 0L864.501 1080M888.501 0L888.501 1080M912.501 0L912.501 1080M936.501 0L936.501 1080M960.501 0L960.501 1080M984.501 0L984.501 1080M1008.5 0L1008.5 1080M1032.5 0V1080M1068 36.499L-12 36.4989M1068 60.4991L-12 60.499M1068 84.4991L-12 84.499M1068 108.499L-12 108.499M1068 132.499L-12 132.499M1068 156.499L-12 156.499M1068 180.499L-12 180.499M1068 204.499L-12 204.499M1068 228.499L-12 228.499M1068 252.499L-12 252.499M1068 276.5L-12 276.499M1068 300.5L-12 300.499M1068 324.5L-12 324.5M1068 348.5L-12 348.5M1068 372.5L-12 372.5M1068 396.5L-12 396.5M1068 420.5L-12 420.5M1068 444.5L-12 444.5M1068 468.5L-12 468.5M1068 492.5L-12 492.5M1068 516.5L-12 516.5M1068 540.5L-12 540.5M1068 564.5L-12 564.5M1068 588.5L-12 588.5M1068 612.5L-12 612.5M1068 636.5L-12 636.5M1068 660.5L-12 660.5M1068 684.5L-12 684.5M1068 708.501L-12 708.5M1068 732.501L-12 732.501M1068 756.501L-12 756.501M1068 780.501L-12 780.501M1068 804.501L-12 804.501M1068 828.501L-12 828.501M1068 852.501L-12 852.501M1068 876.501L-12 876.501M1068 900.501L-12 900.501M1068 924.501L-12 924.501M1068 948.501L-12 948.501M1068 972.501L-12 972.501M1068 996.501L-12 996.501M1068 1020.5L-12 1020.5M1068 1044.5L-12 1044.5" stroke="url(#paint0_linear_18_1234)" stroke-opacity="0.15"/>
<rect x="456" y="444" width="169" height="169" rx="24" fill="url(#paint1_linear_18_1234)"/>
<g filter="url(#filter0_dddddd_18_1234)">
<path fill-rule="evenodd" clip-rule="evenodd" d="M540.999 567.333C562.171 567.333 579.333 550.171 579.333 529C579.333 507.828 562.171 490.667 540.999 490.667C519.828 490.667 502.666 507.828 502.666 529C502.666 535.133 504.107 540.929 506.664 546.07C507.347 547.434 507.573 548.995 507.178 550.47L504.897 559.003C504.671 559.848 504.671 560.737 504.898 561.581C505.124 562.426 505.568 563.196 506.186 563.814C506.804 564.432 507.574 564.877 508.418 565.104C509.262 565.331 510.151 565.331 510.996 565.106L519.529 562.821C521.01 562.447 522.577 562.629 523.933 563.331C529.235 565.971 535.077 567.341 540.999 567.333ZM525.666 533.792C524.904 533.792 524.172 534.095 523.633 534.634C523.094 535.173 522.791 535.904 522.791 536.667C522.791 537.429 523.094 538.16 523.633 538.7C524.172 539.239 524.904 539.542 525.666 539.542H546.749C547.512 539.542 548.243 539.239 548.782 538.7C549.321 538.16 549.624 537.429 549.624 536.667C549.624 535.904 549.321 535.173 548.782 534.634C548.243 534.095 547.512 533.792 546.749 533.792H525.666ZM522.791 523.25C522.791 522.487 523.094 521.756 523.633 521.217C524.172 520.678 524.904 520.375 525.666 520.375H556.333C557.095 520.375 557.826 520.678 558.366 521.217C558.905 521.756 559.208 522.487 559.208 523.25C559.208 524.012 558.905 524.744 558.366 525.283C557.826 525.822 557.095 526.125 556.333 526.125H525.666C524.904 526.125 524.172 525.822 523.633 525.283C523.094 524.744 522.791 524.012 522.791 523.25Z" fill="url(#paint2_linear_18_1234)"/>
</g>
<g filter="url(#filter1_d_18_1234)">
<path d="M586 588L579 556L608.5 572.5L594.5 575.5L586 588Z" fill="#FF0E41"/>
<path d="M586 588L579 556L608.5 572.5L594.5 575.5L586 588Z" stroke="white" stroke-width="3"/>
</g>
<g filter="url(#filter2_d_18_1234)">
<rect x="601" y="588" width="54" height="37" rx="3" fill="#FF0E41"/>
</g>
<path d="M611.91 619.909C611.489 619.909 611.1 619.875 610.742 619.807C610.39 619.744 610.109 619.67 609.899 619.585L610.614 617.182C611.063 617.313 611.464 617.375 611.816 617.369C612.168 617.364 612.478 617.253 612.745 617.037C613.018 616.827 613.248 616.474 613.435 615.98L613.7 615.273L608.952 601.909H612.225L615.242 611.795H615.379L618.404 601.909H621.685L616.444 616.585C616.2 617.278 615.876 617.872 615.472 618.366C615.069 618.866 614.575 619.247 613.989 619.509C613.41 619.776 612.717 619.909 611.91 619.909ZM627.885 615.256C626.607 615.256 625.499 614.974 624.561 614.412C623.624 613.849 622.897 613.062 622.38 612.051C621.868 611.04 621.613 609.858 621.613 608.506C621.613 607.153 621.868 605.969 622.38 604.952C622.897 603.935 623.624 603.145 624.561 602.582C625.499 602.02 626.607 601.739 627.885 601.739C629.164 601.739 630.272 602.02 631.209 602.582C632.147 603.145 632.871 603.935 633.382 604.952C633.9 605.969 634.158 607.153 634.158 608.506C634.158 609.858 633.9 611.04 633.382 612.051C632.871 613.062 632.147 613.849 631.209 614.412C630.272 614.974 629.164 615.256 627.885 615.256ZM627.902 612.784C628.596 612.784 629.175 612.594 629.641 612.213C630.107 611.827 630.453 611.31 630.681 610.662C630.914 610.014 631.03 609.293 631.03 608.497C631.03 607.696 630.914 606.972 630.681 606.324C630.453 605.67 630.107 605.151 629.641 604.764C629.175 604.378 628.596 604.185 627.902 604.185C627.192 604.185 626.601 604.378 626.13 604.764C625.664 605.151 625.314 605.67 625.081 606.324C624.854 606.972 624.74 607.696 624.74 608.497C624.74 609.293 624.854 610.014 625.081 610.662C625.314 611.31 625.664 611.827 626.13 612.213C626.601 612.594 627.192 612.784 627.902 612.784ZM643.92 609.494V601.909H647.006V615H644.014V612.673H643.878C643.582 613.406 643.097 614.006 642.42 614.472C641.75 614.937 640.923 615.17 639.94 615.17C639.082 615.17 638.324 614.98 637.665 614.599C637.011 614.213 636.5 613.653 636.131 612.92C635.761 612.182 635.577 611.29 635.577 610.244V601.909H638.662V609.767C638.662 610.597 638.889 611.256 639.344 611.744C639.798 612.233 640.395 612.477 641.133 612.477C641.588 612.477 642.028 612.366 642.454 612.145C642.881 611.923 643.23 611.594 643.503 611.156C643.781 610.713 643.92 610.159 643.92 609.494Z" fill="white"/>
</g>
<defs>
<filter id="filter0_dddddd_18_1234" x="437" y="463" width="208" height="208" filterUnits="userSpaceOnUse" color-interpolation-filters="sRGB">
<feFlood flood-opacity="0" result="BackgroundImageFix"/>
<feColorMatrix in="SourceAlpha" type="matrix" values="0 0 0 0 0 0 0 0 0 0 0 0 0 0 0 0 0 0 127 0" result="hardAlpha"/>
<feOffset dy="1.05156"/>
<feGaussianBlur stdDeviation="0.802504"/>
<feColorMatrix type="matrix" values="0 0 0 0 0 0 0 0 0 0 0 0 0 0 0 0 0 0 0.0646635 0"/>
<feBlend mode="normal" in2="BackgroundImageFix" result="effect1_dropShadow_18_1234"/>
<feColorMatrix in="SourceAlpha" type="matrix" values="0 0 0 0 0 0 0 0 0 0 0 0 0 0 0 0 0 0 127 0" result="hardAlpha"/>
<feOffset dy="2.52704"/>
<feGaussianBlur stdDeviation="1.92853"/>
<feColorMatrix type="matrix" values="0 0 0 0 0 0 0 0 0 0 0 0 0 0 0 0 0 0 0.0928953 0"/>
<feBlend mode="normal" in2="effect1_dropShadow_18_1234" result="effect2_dropShadow_18_1234"/>
<feColorMatrix in="SourceAlpha" type="matrix" values="0 0 0 0 0 0 0 0 0 0 0 0 0 0 0 0 0 0 127 0" result="hardAlpha"/>
<feOffset dy="4.75819"/>
<feGaussianBlur stdDeviation="3.63125"/>
<feColorMatrix type="matrix" values="0 0 0 0 0 0 0 0 0 0 0 0 0 0 0 0 0 0 0.115 0"/>
<feBlend mode="normal" in2="effect2_dropShadow_18_1234" result="effect3_dropShadow_18_1234"/>
<feColorMatrix in="SourceAlpha" type="matrix" values="0 0 0 0 0 0 0 0 0 0 0 0 0 0 0 0 0 0 127 0" result="hardAlpha"/>
<feOffset dy="8.4878"/>
<feGaussianBlur stdDeviation="6.47753"/>
<feColorMatrix type="matrix" values="0 0 0 0 0 0 0 0 0 0 0 0 0 0 0 0 0 0 0.137105 0"/>
<feBlend mode="normal" in2="effect3_dropShadow_18_1234" result="effect4_dropShadow_18_1234"/>
<feColorMatrix in="SourceAlpha" type="matrix" values="0 0 0 0 0 0 0 0 0 0 0 0 0 0 0 0 0 0 127 0" result="hardAlpha"/>
<feOffset dy="15.8755"/>
<feGaussianBlur stdDeviation="12.1155"/>
<feColorMatrix type="matrix" values="0 0 0 0 0 0 0 0 0 0 0 0 0 0 0 0 0 0 0.165337 0"/>
<feBlend mode="normal" in2="effect4_dropShadow_18_1234" result="effect5_dropShadow_18_1234"/>
<feColorMatrix in="SourceAlpha" type="matrix" values="0 0 0 0 0 0 0 0 0 0 0 0 0 0 0 0 0 0 127 0" result="hardAlpha"/>
<feOffset dy="38"/>
<feGaussianBlur stdDeviation="29"/>
<feColorMatrix type="matrix" values="0 0 0 0 0 0 0 0 0 0 0 0 0 0 0 0 0 0 0.23 0"/>
<feBlend mode="normal" in2="effect5_dropShadow_18_1234" result="effect6_dropShadow_18_1234"/>
<feBlend mode="normal" in="SourceGraphic" in2="effect6_dropShadow_18_1234" result="shape"/>
</filter>
<filter id="filter1_d_18_1234" x="574.322" y="552.563" width="40.8828" height="43.6637" filterUnits="userSpaceOnUse" color-interpolation-filters="sRGB">
<feFlood flood-opacity="0" result="BackgroundImageFix"/>
<feColorMatrix in="SourceAlpha" type="matrix" values="0 0 0 0 0 0 0 0 0 0 0 0 0 0 0 0 0 0 127 0" result="hardAlpha"/>
<feOffset dy="2"/>
<feGaussianBlur stdDeviation="1.25"/>
<feComposite in2="hardAlpha" operator="out"/>
<feColorMatrix type="matrix" values="0 0 0 0 0 0 0 0 0 0 0 0 0 0 0 0 0 0 0.19 0"/>
<feBlend mode="normal" in2="BackgroundImageFix" result="effect1_dropShadow_18_1234"/>
<feBlend mode="normal" in="SourceGraphic" in2="effect1_dropShadow_18_1234" result="shape"/>
</filter>
<filter id="filter2_d_18_1234" x="598.5" y="587.5" width="59" height="42" filterUnits="userSpaceOnUse" color-interpolation-filters="sRGB">
<feFlood flood-opacity="0" result="BackgroundImageFix"/>
<feColorMatrix in="SourceAlpha" type="matrix" values="0 0 0 0 0 0 0 0 0 0 0 0 0 0 0 0 0 0 127 0" result="hardAlpha"/>
<feOffset dy="2"/>
<feGaussianBlur stdDeviation="1.25"/>
<feComposite in2="hardAlpha" operator="out"/>
<feColorMatrix type="matrix" values="0 0 0 0 0 0 0 0 0 0 0 0 0 0 0 0 0 0 0.19 0"/>
<feBlend mode="normal" in2="BackgroundImageFix" result="effect1_dropShadow_18_1234"/>
<feBlend mode="normal" in="SourceGraphic" in2="effect1_dropShadow_18_1234" result="shape"/>
</filter>
<linearGradient id="paint0_linear_18_1234" x1="528" y1="0" x2="528" y2="1080" gradientUnits="userSpaceOnUse">
<stop stop-color="white" stop-opacity="0"/>
<stop offset="1" stop-color="white"/>
</linearGradient>
<linearGradient id="paint1_linear_18_1234" x1="540.5" y1="444" x2="540.5" y2="613" gradientUnits="userSpaceOnUse">
<stop stop-color="#FF0E41"/>
<stop offset="1" stop-color="#FF3862"/>
</linearGradient>
<linearGradient id="paint2_linear_18_1234" x1="540.999" y1="490.667" x2="540.999" y2="567.333" gradientUnits="userSpaceOnUse">
<stop stop-color="white"/>
<stop offset="0.421421" stop-color="#F0F0F0"/>
<stop offset="0.827347" stop-color="#BABCBD"/>
<stop offset="1" stop-color="#F2F2F2"/>
</linearGradient>
<clipPath id="clip0_18_1234">
<rect width="1080" height="1080" fill="white"/>
</clipPath>
</defs>
</svg>
