<svg width="1080" height="1080" viewBox="0 0 1080 1080" fill="none" xmlns="http://www.w3.org/2000/svg">
<g clip-path="url(#clip0_37_1878)">
<path d="M24.4991 0L24.4991 1080M48.4992 0L48.4991 1080M72.4992 0L72.4992 1080M96.4993 0L96.4992 1080M120.499 0L120.499 1080M144.499 0L144.499 1080M168.499 0L168.499 1080M192.499 0L192.499 1080M216.499 0L216.499 1080M240.5 0L240.499 1080M264.5 0L264.5 1080M288.5 0L288.5 1080M312.5 0L312.5 1080M336.5 0L336.5 1080M360.5 0L360.5 1080M384.5 0L384.5 1080M408.5 0L408.5 1080M432.5 0L432.5 1080M456.5 0L456.5 1080M480.5 0L480.5 1080M504.5 0L504.5 1080M528.5 0L528.5 1080M552.5 0L552.5 1080M576.5 0L576.5 1080M600.5 0L600.5 1080M624.5 0L624.5 1080M648.501 0L648.5 1080M672.501 0L672.501 1080M696.501 0L696.501 1080M720.501 0L720.501 1080M744.501 0L744.501 1080M768.501 0L768.501 1080M792.501 0L792.501 1080M816.501 0L816.501 1080M840.501 0L840.501 1080M864.501 0L864.501 1080M888.501 0L888.501 1080M912.501 0L912.501 1080M936.501 0L936.501 1080M960.501 0L960.501 1080M984.501 0L984.501 1080M1008.5 0L1008.5 1080M1032.5 0V1080M1068 36.499L-12 36.4989M1068 60.4991L-12 60.499M1068 84.4991L-12 84.499M1068 108.499L-12 108.499M1068 132.499L-12 132.499M1068 156.499L-12 156.499M1068 180.499L-12 180.499M1068 204.499L-12 204.499M1068 228.499L-12 228.499M1068 252.499L-12 252.499M1068 276.5L-12 276.499M1068 300.5L-12 300.499M1068 324.5L-12 324.5M1068 348.5L-12 348.5M1068 372.5L-12 372.5M1068 396.5L-12 396.5M1068 420.5L-12 420.5M1068 444.5L-12 444.5M1068 468.5L-12 468.5M1068 492.5L-12 492.5M1068 516.5L-12 516.5M1068 540.5L-12 540.5M1068 564.5L-12 564.5M1068 588.5L-12 588.5M1068 612.5L-12 612.5M1068 636.5L-12 636.5M1068 660.5L-12 660.5M1068 684.5L-12 684.5M1068 708.501L-12 708.5M1068 732.501L-12 732.501M1068 756.501L-12 756.501M1068 780.501L-12 780.501M1068 804.501L-12 804.501M1068 828.501L-12 828.501M1068 852.501L-12 852.501M1068 876.501L-12 876.501M1068 900.501L-12 900.501M1068 924.501L-12 924.501M1068 948.501L-12 948.501M1068 972.501L-12 972.501M1068 996.501L-12 996.501M1068 1020.5L-12 1020.5M1068 1044.5L-12 1044.5" stroke="url(#paint0_linear_37_1878)" stroke-opacity="0.15"/>
<rect x="360" y="444" width="169" height="169" rx="24" fill="url(#paint1_linear_37_1878)"/>
<g filter="url(#filter0_dddddd_37_1878)">
<path d="M462.518 558.36C458.924 561.843 455.001 561.293 451.224 559.643C447.228 557.957 443.561 557.883 439.344 559.643C434.064 561.917 431.278 561.257 428.124 558.36C410.231 539.917 412.871 511.83 433.184 510.803C438.134 511.06 441.581 513.517 444.478 513.737C448.804 512.857 452.948 510.327 457.568 510.657C463.104 511.097 467.284 513.297 470.034 517.257C458.594 524.113 461.308 539.183 471.794 543.4C469.704 548.9 466.991 554.363 462.481 558.397L462.518 558.36ZM444.111 510.583C443.561 502.407 450.198 495.66 457.824 495C458.888 504.46 449.244 511.5 444.111 510.583Z" fill="url(#paint2_linear_37_1878)"/>
</g>
<rect x="552" y="444" width="169" height="169" rx="24" fill="url(#paint3_linear_37_1878)"/>
<g filter="url(#filter1_dddddd_37_1878)">
<path d="M596.666 551C597.216 544.461 599.218 538.442 602.672 532.942C606.126 527.442 610.724 523.072 616.466 519.833L609.683 508.1C609.316 507.55 609.224 506.969 609.408 506.358C609.591 505.747 609.988 505.289 610.599 504.983C611.088 504.678 611.638 504.617 612.249 504.8C612.86 504.983 613.349 505.35 613.716 505.9L620.499 517.633C625.755 515.433 631.255 514.333 636.999 514.333C642.744 514.333 648.244 515.433 653.499 517.633L660.283 505.9C660.649 505.35 661.138 504.983 661.749 504.8C662.36 504.617 662.91 504.678 663.399 504.983C664.01 505.289 664.408 505.747 664.591 506.358C664.774 506.969 664.683 507.55 664.316 508.1L657.533 519.833C663.277 523.072 667.875 527.442 671.327 532.942C674.778 538.442 676.78 544.461 677.333 551H596.666ZM618.666 540.917C619.949 540.917 621.035 540.473 621.922 539.586C622.809 538.698 623.252 537.614 623.249 536.333C623.247 535.052 622.803 533.967 621.918 533.077C621.033 532.188 619.949 531.745 618.666 531.75C617.383 531.755 616.297 532.199 615.41 533.081C614.523 533.963 614.08 535.048 614.083 536.333C614.085 537.619 614.529 538.704 615.414 539.589C616.299 540.474 617.383 540.917 618.666 540.917ZM655.333 540.917C656.616 540.917 657.701 540.473 658.589 539.586C659.476 538.698 659.918 537.614 659.916 536.333C659.914 535.052 659.47 533.967 658.585 533.077C657.7 532.188 656.616 531.745 655.333 531.75C654.049 531.755 652.964 532.199 652.077 533.081C651.189 533.963 650.747 535.048 650.749 536.333C650.752 537.619 651.195 538.704 652.08 539.589C652.965 540.474 654.049 540.917 655.333 540.917Z" fill="url(#paint4_linear_37_1878)"/>
</g>
</g>
<defs>
<filter id="filter0_dddddd_37_1878" x="342" y="464" width="204" height="204" filterUnits="userSpaceOnUse" color-interpolation-filters="sRGB">
<feFlood flood-opacity="0" result="BackgroundImageFix"/>
<feColorMatrix in="SourceAlpha" type="matrix" values="0 0 0 0 0 0 0 0 0 0 0 0 0 0 0 0 0 0 127 0" result="hardAlpha"/>
<feOffset dy="1.05156"/>
<feGaussianBlur stdDeviation="0.802504"/>
<feColorMatrix type="matrix" values="0 0 0 0 0 0 0 0 0 0 0 0 0 0 0 0 0 0 0.0646635 0"/>
<feBlend mode="normal" in2="BackgroundImageFix" result="effect1_dropShadow_37_1878"/>
<feColorMatrix in="SourceAlpha" type="matrix" values="0 0 0 0 0 0 0 0 0 0 0 0 0 0 0 0 0 0 127 0" result="hardAlpha"/>
<feOffset dy="2.52704"/>
<feGaussianBlur stdDeviation="1.92853"/>
<feColorMatrix type="matrix" values="0 0 0 0 0 0 0 0 0 0 0 0 0 0 0 0 0 0 0.0928953 0"/>
<feBlend mode="normal" in2="effect1_dropShadow_37_1878" result="effect2_dropShadow_37_1878"/>
<feColorMatrix in="SourceAlpha" type="matrix" values="0 0 0 0 0 0 0 0 0 0 0 0 0 0 0 0 0 0 127 0" result="hardAlpha"/>
<feOffset dy="4.75819"/>
<feGaussianBlur stdDeviation="3.63125"/>
<feColorMatrix type="matrix" values="0 0 0 0 0 0 0 0 0 0 0 0 0 0 0 0 0 0 0.115 0"/>
<feBlend mode="normal" in2="effect2_dropShadow_37_1878" result="effect3_dropShadow_37_1878"/>
<feColorMatrix in="SourceAlpha" type="matrix" values="0 0 0 0 0 0 0 0 0 0 0 0 0 0 0 0 0 0 127 0" result="hardAlpha"/>
<feOffset dy="8.4878"/>
<feGaussianBlur stdDeviation="6.47753"/>
<feColorMatrix type="matrix" values="0 0 0 0 0 0 0 0 0 0 0 0 0 0 0 0 0 0 0.137105 0"/>
<feBlend mode="normal" in2="effect3_dropShadow_37_1878" result="effect4_dropShadow_37_1878"/>
<feColorMatrix in="SourceAlpha" type="matrix" values="0 0 0 0 0 0 0 0 0 0 0 0 0 0 0 0 0 0 127 0" result="hardAlpha"/>
<feOffset dy="15.8755"/>
<feGaussianBlur stdDeviation="12.1155"/>
<feColorMatrix type="matrix" values="0 0 0 0 0 0 0 0 0 0 0 0 0 0 0 0 0 0 0.165337 0"/>
<feBlend mode="normal" in2="effect4_dropShadow_37_1878" result="effect5_dropShadow_37_1878"/>
<feColorMatrix in="SourceAlpha" type="matrix" values="0 0 0 0 0 0 0 0 0 0 0 0 0 0 0 0 0 0 127 0" result="hardAlpha"/>
<feOffset dy="38"/>
<feGaussianBlur stdDeviation="29"/>
<feColorMatrix type="matrix" values="0 0 0 0 0 0 0 0 0 0 0 0 0 0 0 0 0 0 0.23 0"/>
<feBlend mode="normal" in2="effect5_dropShadow_37_1878" result="effect6_dropShadow_37_1878"/>
<feBlend mode="normal" in="SourceGraphic" in2="effect6_dropShadow_37_1878" result="shape"/>
</filter>
<filter id="filter1_dddddd_37_1878" x="535" y="465" width="204" height="204" filterUnits="userSpaceOnUse" color-interpolation-filters="sRGB">
<feFlood flood-opacity="0" result="BackgroundImageFix"/>
<feColorMatrix in="SourceAlpha" type="matrix" values="0 0 0 0 0 0 0 0 0 0 0 0 0 0 0 0 0 0 127 0" result="hardAlpha"/>
<feOffset dy="1.05156"/>
<feGaussianBlur stdDeviation="0.802504"/>
<feColorMatrix type="matrix" values="0 0 0 0 0 0 0 0 0 0 0 0 0 0 0 0 0 0 0.0646635 0"/>
<feBlend mode="normal" in2="BackgroundImageFix" result="effect1_dropShadow_37_1878"/>
<feColorMatrix in="SourceAlpha" type="matrix" values="0 0 0 0 0 0 0 0 0 0 0 0 0 0 0 0 0 0 127 0" result="hardAlpha"/>
<feOffset dy="2.52704"/>
<feGaussianBlur stdDeviation="1.92853"/>
<feColorMatrix type="matrix" values="0 0 0 0 0 0 0 0 0 0 0 0 0 0 0 0 0 0 0.0928953 0"/>
<feBlend mode="normal" in2="effect1_dropShadow_37_1878" result="effect2_dropShadow_37_1878"/>
<feColorMatrix in="SourceAlpha" type="matrix" values="0 0 0 0 0 0 0 0 0 0 0 0 0 0 0 0 0 0 127 0" result="hardAlpha"/>
<feOffset dy="4.75819"/>
<feGaussianBlur stdDeviation="3.63125"/>
<feColorMatrix type="matrix" values="0 0 0 0 0 0 0 0 0 0 0 0 0 0 0 0 0 0 0.115 0"/>
<feBlend mode="normal" in2="effect2_dropShadow_37_1878" result="effect3_dropShadow_37_1878"/>
<feColorMatrix in="SourceAlpha" type="matrix" values="0 0 0 0 0 0 0 0 0 0 0 0 0 0 0 0 0 0 127 0" result="hardAlpha"/>
<feOffset dy="8.4878"/>
<feGaussianBlur stdDeviation="6.47753"/>
<feColorMatrix type="matrix" values="0 0 0 0 0 0 0 0 0 0 0 0 0 0 0 0 0 0 0.137105 0"/>
<feBlend mode="normal" in2="effect3_dropShadow_37_1878" result="effect4_dropShadow_37_1878"/>
<feColorMatrix in="SourceAlpha" type="matrix" values="0 0 0 0 0 0 0 0 0 0 0 0 0 0 0 0 0 0 127 0" result="hardAlpha"/>
<feOffset dy="15.8755"/>
<feGaussianBlur stdDeviation="12.1155"/>
<feColorMatrix type="matrix" values="0 0 0 0 0 0 0 0 0 0 0 0 0 0 0 0 0 0 0.165337 0"/>
<feBlend mode="normal" in2="effect4_dropShadow_37_1878" result="effect5_dropShadow_37_1878"/>
<feColorMatrix in="SourceAlpha" type="matrix" values="0 0 0 0 0 0 0 0 0 0 0 0 0 0 0 0 0 0 127 0" result="hardAlpha"/>
<feOffset dy="38"/>
<feGaussianBlur stdDeviation="29"/>
<feColorMatrix type="matrix" values="0 0 0 0 0 0 0 0 0 0 0 0 0 0 0 0 0 0 0.23 0"/>
<feBlend mode="normal" in2="effect5_dropShadow_37_1878" result="effect6_dropShadow_37_1878"/>
<feBlend mode="normal" in="SourceGraphic" in2="effect6_dropShadow_37_1878" result="shape"/>
</filter>
<linearGradient id="paint0_linear_37_1878" x1="528" y1="0" x2="528" y2="1080" gradientUnits="userSpaceOnUse">
<stop stop-color="white" stop-opacity="0"/>
<stop offset="1" stop-color="white"/>
</linearGradient>
<linearGradient id="paint1_linear_37_1878" x1="444.5" y1="444" x2="444.5" y2="613" gradientUnits="userSpaceOnUse">
<stop stop-color="#3C5DFF"/>
<stop offset="1" stop-color="#388EFF"/>
</linearGradient>
<linearGradient id="paint2_linear_37_1878" x1="443.988" y1="495" x2="443.988" y2="561.008" gradientUnits="userSpaceOnUse">
<stop stop-color="white"/>
<stop offset="0.421421" stop-color="#F0F0F0"/>
<stop offset="0.827347" stop-color="#BABCBD"/>
<stop offset="1" stop-color="#F2F2F2"/>
</linearGradient>
<linearGradient id="paint3_linear_37_1878" x1="636.5" y1="444" x2="636.5" y2="613" gradientUnits="userSpaceOnUse">
<stop stop-color="#1DCC2F"/>
<stop offset="1" stop-color="#3FFA52"/>
</linearGradient>
<linearGradient id="paint4_linear_37_1878" x1="636.999" y1="504.697" x2="636.999" y2="551" gradientUnits="userSpaceOnUse">
<stop stop-color="white"/>
<stop offset="0.421421" stop-color="#F0F0F0"/>
<stop offset="0.827347" stop-color="#BABCBD"/>
<stop offset="1" stop-color="#F2F2F2"/>
</linearGradient>
<clipPath id="clip0_37_1878">
<rect width="1080" height="1080" fill="white"/>
</clipPath>
</defs>
</svg>
