<?xml version="1.0" encoding="utf-8" ?>
<svg xmlns="http://www.w3.org/2000/svg" xmlns:xlink="http://www.w3.org/1999/xlink" width="1024" height="1024">
	<path fill="#020202" d="M0 0L1024 0L1024 1024L0 1024L0 0Z"/>
	<path fill="#FDFDFC" d="M696.856 449.199C698.279 449.051 699.753 448.871 701.177 449.115C702.588 449.356 703.461 449.866 704.244 451.039C703.811 455.538 693.963 458.005 690.531 460.489C687.016 463.034 683.963 466.219 681.213 469.559C675.589 476.39 670.875 484.441 666.095 491.885Q652.689 512.532 640.017 533.637C633.991 543.463 626.831 552.895 621.542 563.124C626.135 559.946 630.241 555.529 634.339 551.728C648.805 538.309 664.055 523.012 683.124 516.518C689.477 514.355 698.565 512.669 704.786 515.99C706.696 517.01 707.996 518.703 708.501 520.805C709.805 526.231 707.904 531.972 705.11 536.622C695.315 552.919 675.728 562.257 657.981 566.693C663.772 593.38 675.454 624.719 692.417 646.224Q705.192 641.817 718.414 639.025C744.196 633.494 780.058 628.506 803.148 643.581C807.728 646.572 811.713 650.482 812.743 656.071C813.798 661.79 811.727 667.937 808.399 672.561C800.39 683.684 782.928 689.65 769.958 691.583C737.204 696.464 707.713 684.89 681.839 665.686C663.8 674.3 646.959 685.674 630.049 696.285C580.138 727.603 533.881 755.551 474.249 763.007C444.055 766.783 403.329 763.101 378.888 743.786Q378.034 743.124 377.215 742.42Q376.395 741.715 375.613 740.97Q374.831 740.224 374.087 739.44Q373.344 738.656 372.641 737.835Q371.939 737.014 371.279 736.159Q370.619 735.303 370.004 734.415Q369.388 733.527 368.819 732.608Q368.249 731.69 367.727 730.744Q367.205 729.798 366.732 728.827Q366.259 727.855 365.836 726.861Q365.413 725.867 365.041 724.852Q364.669 723.838 364.349 722.806Q364.029 721.773 363.762 720.726Q363.495 719.679 363.281 718.62Q363.068 717.561 362.909 716.492Q362.75 715.424 362.645 714.348C361.54 703.678 365.404 693.522 372.19 685.36C384.017 671.134 404.233 664.154 422.167 662.608C448.18 660.366 470.927 669.911 493.87 680.806C499.218 683.345 506.296 685.847 510.777 689.712C511.314 690.175 511.085 689.9 511.143 690.898C510.807 691.279 510.593 691.573 510.121 691.837C508.417 692.792 505.182 692.926 503.323 692.519C497.525 691.249 491.528 687.193 486.239 684.534Q477.019 679.855 467.279 676.385C445.931 669.005 423.699 668.993 403.16 679.01C392.901 684.014 382.556 691.967 378.847 703.219C376.363 710.754 376.908 719.744 380.594 726.784C386.067 737.235 397.591 743.609 408.48 746.959C421.438 750.947 434.696 750.999 448.07 749.696C506.681 743.987 563.466 710.052 614.744 683.01Q642.248 668.92 670.242 655.831C652.24 637.577 639.862 613.854 633.06 589.225C631.948 585.201 630.042 573.062 628.026 570.337C627.492 569.615 627.194 569.237 626.293 569.136C615.051 567.885 597.081 610.46 588.769 616.039C584.788 618.71 562.841 618.095 557.647 616.983L557.174 616.141C557.966 610.536 573.179 585.973 577.228 579.284C559.841 593.752 543.336 613.847 520.399 619.368C514.905 620.691 508.698 621.084 503.775 617.85C500.413 615.642 498.259 612.22 497.486 608.296C493.852 589.862 525.084 549.864 536.033 534.133C530.55 533.903 525.139 532.585 519.783 531.47C513.859 539.617 508.865 548.452 502.893 556.632C487.46 577.767 460.641 605.362 436.975 616.584C429.033 620.351 416.959 623.313 408.442 620.026C405.108 618.739 402.463 616.254 401.105 612.934C397.93 605.172 401.238 596.002 404.39 588.813C397.384 596.671 389.623 603.981 380.913 609.924C371.176 616.566 358.612 623.034 346.484 620.524C341.158 619.422 336.647 616.539 333.663 611.965C329.058 604.902 328.981 595.431 330.638 587.429C335.773 562.621 356.131 540.762 376.765 527.343C388.931 519.43 405.432 512.089 420.292 515.439C429.583 517.534 434.688 523.693 439.433 531.325C440.457 528.924 441.413 526.371 442.689 524.095C443.819 522.081 445.103 521.092 447.343 520.55C454.338 518.855 474.724 516.459 480.613 519.954C480.763 520.271 481.098 520.555 481.063 520.904C480.881 522.704 474.646 529.908 473.232 531.859C464.842 543.434 436.968 581.109 436.977 592.933C436.978 594.412 437.329 596.072 438.592 597.006C440.397 598.34 443.364 598.185 445.418 597.668C450.322 596.433 455.064 592.956 459.089 590.026C481.132 573.98 496.977 551.2 511.179 528.296C509.571 526.998 508.098 525.737 507.183 523.841C504.936 519.19 506.052 513.581 507.848 508.983C509.65 504.371 512.757 499.258 517.556 497.334C520.214 496.269 523.768 495.798 526.469 496.967C528.847 497.997 530.337 500.262 531.121 502.654C533.099 508.684 530.891 514.601 528.246 519.994C537.062 524.203 547.657 524.56 556.958 521.775C561.236 520.494 565.391 518.602 569.745 517.607C571.913 517.112 574.331 516.425 576.327 517.674C576.936 518.873 577.206 520.028 576.607 521.324C574.349 526.202 569.628 531.298 566.536 535.813C559.349 546.311 536.946 579.965 534.194 590.551C533.488 593.268 533.126 595.711 534.563 598.213C535.821 599.245 536.82 599.479 538.404 599.337C544.717 598.774 551.654 593.43 556.573 589.764C580.404 572.005 594.096 550.585 609.567 525.824C614.683 517.635 620.097 509.691 625.044 501.388C631.239 490.99 636.942 479.644 644.506 470.211C657.1 454.506 677.879 451.26 696.856 449.199Z"/>
	<path fill="#020202" d="M755.168 644.207C759.425 643.75 763.983 644.001 768.243 644.333C776.303 644.961 788.918 646.478 794.353 653.234C796.367 655.738 797.195 658.808 796.787 661.989C796.148 666.969 792.814 671.107 788.966 674.1C776.788 683.57 758.65 684.914 743.949 682.88C743.83 682.866 743.71 682.856 743.59 682.839C725.929 680.302 711.452 671.483 700.489 657.535Q707.002 654.786 713.713 652.567Q720.425 650.348 727.293 648.674Q734.161 647 741.141 645.881Q748.121 644.763 755.168 644.207Z"/>
	<path fill="#020202" d="M419.037 527.613C421.21 527.542 423.411 527.702 425.406 528.64C427.115 529.443 428.405 530.751 428.947 532.593C430.742 538.7 425.387 548.547 422.479 553.773C413.395 570.095 393.136 594.681 374.387 599.994C371.863 600.187 369.65 600.251 367.398 598.924C365.71 597.929 364.609 596.465 364.196 594.548C362.261 585.56 371.339 571.278 375.998 564.186C385.423 549.838 401.352 531.245 419.037 527.613Z"/>
	<path fill="#020202" d="M668.275 536.105C669.874 536.025 671.64 535.789 673.052 536.71C674.469 537.635 674.884 539.579 675.059 541.154C675.435 544.54 674.23 547.562 672.056 550.125C665.271 558.124 650.648 561.822 640.623 562.47L632.099 562.944C642.403 553.142 654.585 540.613 668.275 536.105Z"/>
	<path fill="#FDFDFC" d="M590.487 258.203C594.719 257.77 600.311 257.458 604.484 258.458C606.083 258.842 607.094 259.331 607.997 260.774C608.02 261.834 608.105 262.528 607.261 263.344C604.674 265.85 594.191 268.198 590.169 270.789C586.441 273.192 583.422 276.587 580.701 280.045C568.182 295.956 555.746 316.691 545.43 334.26C541.647 340.703 538.237 347.342 534.196 353.633C548.2 342.742 569.913 329.657 586.856 324.374C592.563 322.595 599.279 321.649 604.734 324.731C607.201 326.125 608.719 328.259 609.422 330.982C610.549 335.349 609.737 340.058 608.24 344.232C602.839 359.291 586.055 378.891 577.849 393.933C575.993 397.335 574.17 401.362 575.293 405.256C576.209 406.27 576.471 406.608 577.873 406.901C582.999 407.972 591.131 403.164 595.223 400.349C611.947 388.844 642.302 357.244 646.073 336.847C645.508 335.488 644.449 333.563 644.338 332.097C644.248 330.912 644.656 329.795 645.572 329.02C647.217 327.628 685.087 321.143 688.018 321.766C689.463 322.073 689.598 322.261 690.411 323.391C690.735 328.219 678.366 347.803 675.211 352.83C688.739 340.019 714.985 322.681 733.709 321.118C738.75 320.697 743.459 321.641 747.301 325.095C765.931 341.847 716.354 387.713 717.991 403.9C718.133 405.306 718.754 406.42 719.934 407.213C727.088 412.023 747.034 395.492 752.028 391.071C755.537 387.965 765.376 376.472 769.176 375.864C770.431 375.663 771.104 375.957 772.096 376.652L772.278 377.739C771.595 379.569 770.485 381.136 769.299 382.674C764.731 388.597 758.454 393.888 752.926 398.906C737.714 412.712 721.844 427.019 700.621 429.792C694.783 430.555 688.822 430.467 684.018 426.593C660.379 407.528 716.391 361.039 713.895 346.603C713.66 345.244 712.921 344.186 711.78 343.43C709.826 342.136 706.984 342.479 704.855 343.017C682.391 348.693 656.994 382.571 645.085 401.661C640.824 408.383 637.056 415.905 632.453 422.339C630.33 425.307 627.628 426.761 624.036 427.264C620.073 427.818 598.001 428.257 595.275 426.231C596.27 420.936 610.927 398.759 614.696 392.437C601.051 406.957 582.28 423.538 562.793 428.781C556.175 430.562 547.245 431.081 541.235 427.365C538.104 425.429 536.311 422.442 535.592 418.876C532.412 403.11 555.262 373.415 563.999 359.927C566.618 355.885 571.116 350.536 570.048 345.536C569.155 344.382 568.941 344.026 567.437 343.694C563.81 342.892 557.324 346.944 554.29 348.816C541.84 356.495 531.188 366.872 521.911 378.114C513.311 388.534 505.86 399.927 498.573 411.283C495.798 415.608 493.28 420.218 490.311 424.404C489.583 425.431 488.999 426.286 487.847 426.879C483.903 428.909 457.49 429.47 453.39 428.161L452.966 427.315C453.102 426.256 453.293 425.622 453.815 424.671C458.144 416.787 463.392 409.172 468.12 401.506Q478.292 384.808 488.132 367.912C477.72 372.964 466.759 375.229 456.086 379.389C453.178 383.246 450.742 387.53 447.901 391.462C439.592 402.96 429.19 413.702 416.924 420.975C404.062 428.601 387.527 433.087 372.719 429.212C365.5 427.323 359.403 423.257 355.712 416.613C350.848 407.858 351.407 396.9 354.239 387.599C361.947 362.283 383.617 339.428 406.754 327.292C418.627 321.064 433.15 317.226 446.358 321.478C453.375 323.737 459.721 328.565 462.978 335.272C468.199 346.023 464.609 358.421 460.989 369.042C467.37 368.178 473.918 367.644 479.896 365.087C485.98 362.486 492.227 358.515 496.841 353.742C501.452 348.972 504.894 342.826 508.419 337.226C515.743 325.59 522.571 313.626 529.631 301.828C534.08 294.395 538.386 286.621 543.95 279.954C555.873 265.668 572.358 259.862 590.487 258.203Z"/>
	<path fill="#020202" d="M440.926 332.085C442.398 331.981 443.895 331.86 445.364 332.056Q445.925 332.129 446.475 332.259Q447.025 332.389 447.559 332.574Q448.094 332.76 448.606 332.999Q449.118 333.239 449.603 333.529Q450.088 333.82 450.541 334.159Q450.993 334.498 451.409 334.881Q451.824 335.265 452.198 335.689Q452.572 336.113 452.901 336.573C455.953 340.906 455.636 345.888 454.84 350.825C448.908 351.321 443.87 352.264 439.185 356.321C435.265 359.716 432.208 364.977 431.926 370.231C431.796 372.656 432.413 374.995 434.071 376.814C436.997 380.023 440.229 380.125 444.249 380.201C434.742 392.765 424.942 404.408 410.776 411.908C409.16 412.64 407.5 413.374 405.806 413.904C401.728 415.179 396.166 416.384 392.274 414.123C389.965 412.782 388.692 410.339 388.111 407.807C385.232 395.264 394.534 377.704 400.976 367.51C409.521 353.989 424.548 335.847 440.926 332.085Z"/>
	<path fill="#FDFDFC" d="M385.747 244.784C394.695 244.357 404.319 243.92 413.215 245.055C414.977 245.28 417.402 245.557 418.55 247.067C418.264 250.141 414.648 251.333 412.228 252.717C402.941 258.025 395.504 265.782 388.747 273.967C373.602 292.309 359.496 317.492 347.632 338.362C338.295 354.787 328.735 371.355 320.196 388.206C327.842 386.51 334.595 383.759 341.673 380.515C343.247 379.794 345.218 379.356 346.884 379.957L346.961 380.854C340.791 388.757 324.802 392.015 315.661 394.809C312.016 399.648 308.962 405.203 305.764 410.362C313.486 413.036 329.669 419.937 333.51 427.504C334.037 428.541 334.055 428.722 333.733 429.772C330.785 430.59 318.343 423.219 314.607 421.805C310.194 420.135 305.704 418.868 301.131 417.727C275.055 457.013 243.209 496.563 200.875 519.074C192.926 522.631 185.054 525.515 176.269 525.928C166.859 526.37 155.81 524.022 148.8 517.363C144.069 512.869 141.671 506.678 141.477 500.214C140.917 481.532 152.036 464.558 164.446 451.582C171.21 444.509 178.557 437.748 186.586 432.146C210.209 415.661 241.76 404.994 270.58 404.362C273.646 399.469 276.321 394.218 279.137 389.169C269.653 386.612 261.239 382.802 253.908 376.121Q252.982 375.282 252.098 374.397Q251.215 373.513 250.377 372.585Q249.539 371.657 248.748 370.689Q247.957 369.721 247.216 368.714Q246.475 367.708 245.784 366.666Q245.094 365.623 244.457 364.548Q243.82 363.472 243.237 362.366Q242.654 361.26 242.127 360.127Q241.601 358.993 241.131 357.834Q240.662 356.676 240.25 355.495Q239.839 354.315 239.488 353.115Q239.136 351.916 238.845 350.7Q238.554 349.484 238.323 348.255Q238.093 347.027 237.925 345.788Q237.756 344.549 237.65 343.304Q237.543 342.058 237.499 340.809C236.675 321.48 246.84 303.288 259.64 289.506C292.878 253.716 339.326 246.365 385.747 244.784Z"/>
	<path fill="#020202" d="M372.281 255.127C373.208 254.972 373.438 254.958 374.298 255.142C369.525 258.496 364.761 261.744 360.479 265.729C330.742 293.402 303.913 345.153 283.296 381.211C279.105 379.262 275.711 377.011 272.244 373.954C267.324 368.632 264.01 362.227 262.696 355.087C259.462 337.52 267.981 317.252 277.752 303.055C293.833 279.688 320.471 265.002 347.82 259.025C355.87 257.265 364.165 256.606 372.281 255.127Z"/>
	<path fill="#020202" d="M260.867 414.182C262.155 414.078 263.71 413.661 264.866 414.242C264.688 414.722 264.504 415.201 264.286 415.665C251.86 442.131 216.556 500.672 188.246 510.316C182.954 512.119 178.534 512.144 173.473 509.752C173.343 509.671 173.209 509.596 173.084 509.509C169.019 506.69 166.818 502.338 166.105 497.518C164.005 483.334 171.315 467.772 179.682 456.772C199.413 430.832 229.443 418.511 260.867 414.182Z"/>
	<path fill="#FDFDFC" d="M892.118 512.171C894.416 511.932 896.575 512.061 898.779 512.82C902.247 514.015 905.685 516.426 907.145 519.897C913.887 535.939 878.076 573.578 871.838 589.799C870.974 592.045 870.588 593.754 871.598 595.987C872.477 596.853 873.207 597.415 874.393 597.751C882.163 599.957 899.277 584.52 904.351 579.302C908.045 575.504 915.804 565.77 920.141 563.644C921.328 563.062 921.885 563.042 923.118 563.428L923.763 564.684C923.76 566.947 923.156 568.649 921.871 570.523C913.703 582.431 891.678 602.144 879.058 609.794C872.518 613.758 864.406 617.365 856.857 618.719C851.239 619.728 843.216 619.448 838.557 615.923C816.479 599.22 871.823 549.985 869.252 534.118C868.769 533.537 868.64 533.126 867.849 532.962C863.706 532.103 856.493 536.68 853.038 538.811C835.818 549.431 821.268 565.142 810.021 581.879C806.035 587.81 792.754 612.975 788.723 615.587C784.762 618.155 763.337 618.234 758.531 617.068C756.984 616.693 755.868 616.204 754.988 614.809C754.845 613.322 755.462 612.35 756.162 611.088C758.566 606.759 761.843 602.759 764.615 598.634C768.113 593.432 771.12 587.988 773.99 582.42L767.872 587.911C753.107 601.606 733.278 619.229 712.235 620.059C707.798 620.234 703.172 619.504 699.873 616.278C696.995 613.465 695.931 609.554 695.875 605.628C695.645 589.539 707.684 575.86 716.261 563.26C720.784 556.615 731.577 540.636 733.59 533.585C734.452 530.567 733.423 526.309 733.411 523.124C737.142 520.207 769.253 516.025 774.896 516.251C776.523 516.316 777.443 516.508 778.584 517.678C778.997 521.142 765.552 539.433 762.905 543.799L745.739 572.454C742.152 578.401 737.806 584.541 735.204 590.996C734.308 593.219 733.651 595.269 734.235 597.638C735.163 598.64 735.615 599.02 737.025 599.103C745.369 599.594 763.887 583.438 769.743 577.82C779.77 568.201 799.704 545.662 803.145 532.861C803.965 529.81 803.367 525.734 803.442 522.523C803.762 521.986 804.055 521.662 804.617 521.366C808.906 519.111 844.533 514.258 848.214 515.375L848.624 516.216C847.458 522.489 835.492 539.912 831.252 545.389C846.357 533.874 873.332 514.535 892.118 512.171Z"/>
	<path fill="#FDFDFC" d="M353.861 445.68C360.875 444.587 369.183 445.361 375.723 448.208C379.891 450.023 383.77 452.89 385.359 457.311C387.392 462.969 385.15 469.602 382.666 474.787C371.062 499.001 343.965 520.36 321.639 534.677C314.956 538.962 307.7 543.588 300.179 546.163C298.783 546.641 298.019 546.707 296.695 546.067C296.242 543.63 302.681 539.93 304.72 538.456C327.649 521.877 356.405 498.994 367.076 472.051C368.684 467.992 370.456 461.343 368.231 457.296C367.447 455.871 366.29 455.097 364.725 454.779C361.902 454.206 358.73 454.973 356.042 455.851C330.029 464.347 303.235 512.916 289.082 535.735Q281.101 548.819 272.152 561.261C260.711 576.972 247.017 592.658 230.806 603.593L239.881 604.714C256.341 607.475 289.915 609.823 303.884 600.242C307.055 598.067 315.876 588.665 317.922 588.342C318.914 589.093 319.194 589.529 319.315 590.804C319.91 597.102 315.026 606.662 311.3 611.546C291.699 637.24 257.848 621.962 232.576 616.136C228.133 615.112 223.513 613.866 218.946 613.715C211.63 613.474 197.719 620.225 188.284 621.466C180.867 622.441 172.61 621.741 166.543 616.91C164.684 615.43 162.923 613.591 162.774 611.096C162.678 609.479 163.321 608.073 164.472 606.946C172.937 598.66 197.448 598.863 208.657 599.069C220.871 585.898 231.68 563.409 240.74 547.814Q253.754 525.755 269.29 505.394C290.284 477.938 318.122 450.458 353.861 445.68Z"/>
	<path fill="#020202" d="M202.908 603.691L203.488 603.678L203.661 604.181C203.284 604.607 202.913 605.039 202.507 605.437C195.949 611.891 187.875 615.689 178.631 615.488L177.502 613.952C177.409 612.708 177.321 612.284 178.059 611.193C181.107 606.68 197.463 604.539 202.908 603.691Z"/>
	<path fill="#FDFDFC" d="M782.919 458.142C787.437 457.817 792.091 458.032 796.177 460.217C798.947 461.698 801.006 464.049 801.906 467.078C803.383 472.054 801.894 477.859 799.294 482.204C795.042 489.308 788.35 492.568 780.706 494.643C776.01 495.33 770.918 495.091 766.814 492.458C763.786 490.516 761.812 487.438 761.088 483.932C759.997 478.652 761.951 473.364 764.989 469.084C769.455 462.79 775.43 459.411 782.919 458.142Z"/>
</svg>
