<svg width="362" height="228" viewBox="0 0 362 228" fill="none" xmlns="http://www.w3.org/2000/svg">
<path fill-rule="evenodd" clip-rule="evenodd" d="M125.427 0.316954C121.322 -0.180702 116.88 0.0109078 112.75 0.198132C91.3247 0.891342 69.887 4.11449 54.5464 19.8071C48.6386 25.85 43.9471 33.8265 44.3274 42.3016C44.3409 42.6667 44.3642 43.0313 44.3971 43.3955C44.4297 43.7595 44.472 44.1225 44.524 44.4847C44.5757 44.8468 44.6369 45.2074 44.7077 45.5664C44.7788 45.9256 44.8591 46.283 44.9486 46.6384C45.0382 46.9939 45.1371 47.3468 45.2454 47.6973C45.3534 48.0481 45.4706 48.3959 45.5971 48.7408C45.7239 49.0861 45.8594 49.4279 46.0037 49.7664C46.1483 50.1052 46.3016 50.4403 46.4634 50.7718C46.6256 51.103 46.7963 51.4302 46.9757 51.7535C47.1551 52.0768 47.3428 52.3957 47.5388 52.7103C47.7348 53.0245 47.9389 53.334 48.1513 53.6389C48.3639 53.9435 48.5842 54.2428 48.8122 54.5369C49.0402 54.8312 49.2759 55.1199 49.5193 55.4029C49.7626 55.6858 50.0133 55.9629 50.2711 56.2342C50.529 56.5054 50.7937 56.7703 51.0654 57.0287C51.3374 57.2874 51.6159 57.5393 51.9008 57.7846C55.2844 60.714 59.1678 62.3845 63.545 63.5057C63.1554 64.1692 62.7717 64.8407 62.3873 65.5135L62.3869 65.5142C61.4887 67.086 60.5864 68.6651 59.5956 70.1672C46.294 70.4443 31.732 75.1214 20.829 82.3495C17.1233 84.8058 13.7323 87.7702 10.6105 90.8715C4.88276 96.561 -0.249101 104.003 0.00936198 112.195C0.0989008 115.029 1.20567 117.744 3.38922 119.714C6.62462 122.634 11.7242 123.663 16.0673 123.469C20.1219 123.288 23.7552 122.024 27.4239 120.464C46.9628 110.594 61.661 93.2528 73.6961 76.0273C75.8068 76.5276 77.8791 77.0831 79.9158 77.8153C80.4562 78.0096 81.3913 78.4605 82.4624 78.9769C84.8091 80.1084 87.8091 81.5548 88.7433 81.3086C88.8919 80.8482 88.8836 80.7688 88.6404 80.3142C86.8676 76.9963 79.3985 73.9705 75.8345 72.798C76.2354 72.1835 76.6315 71.5562 77.0294 70.9259L77.031 70.9234L77.0313 70.923L77.0315 70.9226C78.0978 69.2336 79.1778 67.5229 80.4023 65.9786C81.0946 65.7776 81.872 65.5711 82.7005 65.351C86.9211 64.2299 92.4681 62.7564 94.8485 59.8598L94.813 59.4665C94.0441 59.203 93.1344 59.3951 92.4079 59.7112C89.1411 61.1336 86.0243 62.3398 82.4954 63.0834C86.015 56.4851 89.9104 49.9857 93.7727 43.5415L93.7728 43.5414L93.7775 43.5336L93.8111 43.4775C94.2608 42.7272 94.7101 41.9776 95.1582 41.2287L95.8291 40.107C101.162 31.1878 107.428 20.7102 114.134 12.9938C117.253 9.40499 120.686 6.00382 124.972 3.67646C125.176 3.56535 125.399 3.45707 125.628 3.34602C126.648 2.85058 127.782 2.3002 127.89 1.19915C127.372 0.552078 126.291 0.421394 125.483 0.323706L125.427 0.316954ZM207.246 6.08187C209.199 5.89201 211.78 5.75521 213.706 6.19368C214.444 6.36205 214.91 6.57645 215.327 7.20915C215.328 7.24233 215.329 7.27469 215.33 7.30631C215.341 7.71764 215.349 8.00376 214.987 8.336C214.344 8.92778 212.644 9.49946 210.922 10.0785C209.447 10.5746 207.955 11.0762 207.099 11.6004C205.378 12.654 203.985 14.1426 202.729 15.6588C196.951 22.6352 191.211 31.7267 186.45 39.4301C185.806 40.4722 185.185 41.5261 184.565 42.5796L184.564 42.5803C183.503 44.3825 182.442 46.1838 181.265 47.9244C187.728 43.1491 197.75 37.4118 205.57 35.0954C208.204 34.3154 211.303 33.9006 213.821 35.252C214.96 35.8632 215.66 36.7989 215.985 37.9928C216.505 39.9076 216.13 41.9723 215.439 43.8024C213.937 47.7831 210.524 52.4873 207.221 57.0411L207.221 57.0413C205.045 60.041 202.917 62.9753 201.413 65.5945C200.556 67.0861 199.715 68.8518 200.233 70.5592L200.278 70.6065C200.665 71.0145 200.8 71.1567 201.424 71.2805C203.79 71.7501 207.543 69.642 209.431 68.4077C217.15 63.3632 231.16 49.5077 232.901 40.5644C232.838 40.4204 232.762 40.262 232.681 40.0955L232.681 40.0954C232.429 39.5724 232.139 38.9692 232.1 38.4817C232.058 37.9621 232.247 37.4723 232.67 37.1325C233.429 36.5222 250.907 33.6787 252.26 33.9519C252.927 34.0865 252.989 34.1689 253.364 34.6641L253.365 34.6644C253.511 36.7369 248.042 45.0109 246.446 47.4254L246.349 47.5723C252.593 41.9552 264.706 34.3531 273.348 33.6678C275.675 33.4832 277.848 33.8971 279.622 35.4116C284.849 39.877 278.442 49.0603 272.784 57.1695C269.135 62.3991 265.798 67.182 266.094 69.9647C266.159 70.5811 266.446 71.0696 266.991 71.4173C270.293 73.5263 279.498 66.2781 281.803 64.3396C282.263 63.9528 282.959 63.2692 283.76 62.4826C285.778 60.5 288.462 57.8628 289.718 57.6719C290.297 57.5838 290.608 57.7127 291.066 58.0174L291.15 58.494C290.834 59.2964 290.322 59.9835 289.775 60.6578C287.994 62.851 285.651 64.8466 283.429 66.7393C283.02 67.0878 282.615 67.4329 282.218 67.775C275.197 73.8284 267.872 80.1015 258.077 81.3173C255.382 81.6519 252.631 81.6133 250.414 79.9147C243.548 74.6539 251.242 64.6307 257.601 56.3453C261.347 51.4653 264.63 47.1882 264.203 44.842C264.095 44.2462 263.754 43.7823 263.227 43.4508C262.325 42.8834 261.014 43.0338 260.031 43.2697C249.663 45.7584 237.941 60.6127 232.445 68.9829C231.668 70.1465 230.928 71.3647 230.184 72.5866L230.184 72.5871L230.184 72.5879L230.183 72.588C229.044 74.4609 227.9 76.3425 226.615 78.0495C225.635 79.3508 224.388 79.9884 222.73 80.2089C220.901 80.4518 210.714 80.6443 209.455 79.756C209.809 77.9695 213.896 71.8003 216.554 67.788L216.554 67.7874C217.35 66.5856 218.018 65.5775 218.419 64.9386C212.121 71.305 203.458 78.5752 194.464 80.8741C191.409 81.655 187.288 81.8825 184.514 80.2532C183.069 79.4043 182.241 78.0946 181.909 76.5311C180.67 70.6943 187.996 60.5036 192.734 53.9126C193.607 52.6975 194.393 51.6047 195.02 50.6841C195.208 50.4096 195.416 50.1213 195.632 49.8219L195.633 49.8209L195.635 49.818L195.635 49.8171C196.813 48.185 198.228 46.2251 197.812 44.3742L197.757 44.3061C197.39 43.8538 197.269 43.7054 196.607 43.5665C194.959 43.2204 192.033 44.9364 190.606 45.7731L190.539 45.8123C184.793 49.1793 179.877 53.7292 175.595 58.6584C171.626 63.2272 168.187 68.2226 164.824 73.2018C164.34 73.918 163.873 74.652 163.406 75.3871L163.406 75.3873C162.635 76.5985 161.863 77.8127 161.01 78.9549L160.982 78.9933L160.982 78.9934L160.982 78.9935C160.659 79.4267 160.39 79.7876 159.873 80.0401C158.053 80.9302 145.862 81.1762 143.97 80.6022L143.774 80.2313C143.837 79.7669 143.925 79.489 144.166 79.072C145.492 76.7773 147.005 74.5346 148.511 72.3028L148.511 72.3026L148.512 72.3023L148.512 72.302L148.512 72.3017L148.512 72.3015L148.512 72.3012L148.513 72.3009L148.513 72.3006C149.275 71.1711 150.035 70.0443 150.768 68.915C153.898 64.034 156.977 59.1241 160.005 54.1852C157.129 55.511 154.162 56.399 151.187 57.2894C149.191 57.8867 147.192 58.4851 145.214 59.2175C144.487 60.1337 143.824 61.1049 143.16 62.0767L143.16 62.077C142.599 62.8989 142.037 63.7212 141.436 64.5111C137.601 69.5525 132.801 74.2625 127.139 77.4514C121.203 80.7951 113.571 82.7621 106.737 81.063C103.405 80.2348 100.591 78.452 98.8875 75.5388C96.6425 71.7001 96.9005 66.8954 98.2076 62.8173C101.765 51.7171 111.767 41.696 122.445 36.3749C127.925 33.6441 134.628 31.9613 140.724 33.8256C143.963 34.8161 146.892 36.933 148.395 39.8738C150.805 44.5877 149.148 50.0238 147.477 54.6807C147.898 54.6266 148.32 54.5754 148.743 54.5242L148.744 54.5241L148.745 54.524L148.746 54.5239L148.746 54.5238L148.747 54.5237L148.748 54.5235L148.749 54.5234C151.284 54.2164 153.84 53.9068 156.203 52.9466C159.011 51.8061 161.895 50.065 164.024 47.9722C165.786 46.2409 167.178 44.0961 168.528 42.0159L168.528 42.0157L168.528 42.0154L168.528 42.0152C168.809 41.5828 169.088 41.1531 169.368 40.7306C171.654 37.2799 173.836 33.7635 176.016 30.2483C177.06 28.5661 178.103 26.8841 179.158 25.2098C179.472 24.7122 179.784 24.2112 180.096 23.7089C181.832 20.9212 183.591 18.0958 185.767 15.6189C191.27 9.355 198.878 6.80928 207.246 6.08187ZM256.339 89.8266L256.457 89.8148C257.077 89.7529 257.716 89.6892 258.334 89.7898C258.985 89.8954 259.388 90.1191 259.749 90.6334C259.613 91.9805 257.45 92.9121 255.587 93.7143C254.722 94.0868 253.922 94.4315 253.42 94.7769C251.798 95.8928 250.389 97.2893 249.119 98.7537C247.071 101.118 245.284 103.815 243.537 106.451L243.536 106.453C243.07 107.156 242.606 107.856 242.142 108.543C238.017 114.578 234.005 120.68 230.106 126.85C229.083 128.433 227.99 129.994 226.895 131.557L226.895 131.557L226.895 131.558C225.011 134.246 223.122 136.943 221.579 139.779C223.142 138.751 224.584 137.427 225.991 136.135L225.992 136.135L225.992 136.135L225.992 136.134L225.992 136.134C226.493 135.675 226.989 135.219 227.485 134.782C228.051 134.283 228.619 133.779 229.191 133.271C235.367 127.789 241.946 121.95 250.001 119.344C252.934 118.395 257.128 117.656 259.999 119.112C260.881 119.559 261.481 120.302 261.714 121.223C262.316 123.602 261.438 126.12 260.149 128.158C255.628 135.304 246.588 139.398 238.397 141.343C241.07 153.045 246.461 166.786 254.29 176.215C258.221 174.927 262.221 173.874 266.289 173.058C278.189 170.633 294.74 168.446 305.397 175.056C307.511 176.367 309.35 178.082 309.826 180.532C310.313 183.04 309.357 185.735 307.821 187.763C304.124 192.64 296.065 195.256 290.079 196.103C274.961 198.243 261.35 193.168 249.408 184.748C242.634 187.821 236.226 191.695 229.87 195.538L229.868 195.54C228.412 196.42 226.959 197.298 225.505 198.165C202.469 211.897 181.12 224.151 153.597 227.42C139.661 229.076 120.865 227.461 109.584 218.992C109.321 218.799 109.064 218.599 108.812 218.393C108.56 218.187 108.313 217.975 108.073 217.757C107.832 217.539 107.597 217.316 107.368 217.087C107.14 216.857 106.917 216.623 106.701 216.383C106.485 216.143 106.275 215.898 106.072 215.648C105.869 215.398 105.673 215.143 105.484 214.883C105.294 214.624 105.112 214.36 104.937 214.091C104.761 213.823 104.593 213.55 104.433 213.274C104.272 212.997 104.119 212.717 103.974 212.433C103.828 212.149 103.69 211.862 103.56 211.571C103.43 211.281 103.308 210.987 103.193 210.69C103.079 210.394 102.972 210.095 102.874 209.793C102.775 209.491 102.685 209.187 102.603 208.881C102.521 208.575 102.447 208.267 102.381 207.958C102.315 207.648 102.258 207.337 102.209 207.025C102.16 206.713 102.12 206.399 102.087 206.085C101.577 201.406 103.361 196.953 106.493 193.375C111.951 187.137 121.282 184.076 129.559 183.399C141.565 182.416 152.064 186.601 162.653 191.378C163.249 191.646 163.891 191.914 164.552 192.19C166.628 193.055 168.887 193.997 170.456 195.283L170.487 195.307L170.508 195.325C170.577 195.38 170.607 195.404 170.618 195.435C170.627 195.459 170.626 195.486 170.624 195.535C170.621 195.589 170.617 195.671 170.625 195.803C170.603 195.826 170.582 195.849 170.562 195.871C170.44 196.006 170.34 196.115 170.153 196.214C169.367 196.633 167.874 196.692 167.016 196.513C165.07 196.109 163.076 195.058 161.194 194.067L161.193 194.066L161.19 194.064L161.189 194.064L161.188 194.063L161.186 194.062C160.482 193.691 159.794 193.329 159.131 193.012C156.294 191.645 153.377 190.454 150.38 189.439C140.527 186.203 130.266 186.198 120.787 190.59C116.052 192.784 111.277 196.271 109.565 201.205C108.419 204.509 108.67 208.451 110.372 211.537C112.898 216.12 118.216 218.915 123.242 220.383C129.223 222.132 135.342 222.155 141.514 221.584C165.351 219.378 188.534 207.563 209.899 196.673L209.902 196.672C212.782 195.204 215.63 193.753 218.441 192.344C226.904 188.226 235.442 184.253 244.056 180.427C235.747 172.423 230.034 162.022 226.895 151.223C226.74 150.689 226.551 149.83 226.337 148.858L226.337 148.858C225.845 146.616 225.22 143.775 224.571 142.941C224.325 142.625 224.187 142.459 223.772 142.415C220.612 142.081 216.301 148.872 212.546 154.787C210.135 158.586 207.953 162.023 206.453 162.98C204.615 164.151 194.486 163.881 192.089 163.394L191.87 163.025C192.204 160.784 198.068 151.635 200.518 147.814C200.756 147.444 200.961 147.123 201.126 146.864C199.208 148.38 197.313 150.037 195.396 151.715L195.396 151.715L195.396 151.715L195.395 151.715L195.395 151.715L195.395 151.715L195.395 151.715L195.394 151.716C189.289 157.055 182.953 162.597 174.897 164.439C172.361 165.02 169.497 165.192 167.224 163.774C165.673 162.806 164.679 161.305 164.322 159.585C162.859 152.534 173.64 138.29 179.772 130.188L179.772 130.188C180.67 129.002 181.468 127.948 182.113 127.067C179.956 126.981 177.824 126.549 175.71 126.12C175.344 126.046 174.978 125.972 174.613 125.899C173.259 127.668 172.01 129.511 170.76 131.356L170.76 131.356C169.485 133.238 168.209 135.121 166.817 136.932C159.694 146.199 147.316 158.298 136.394 163.219C132.728 164.87 127.155 166.169 123.224 164.728C121.686 164.164 120.465 163.074 119.838 161.618C118.373 158.215 119.9 154.194 121.354 151.042C118.121 154.488 114.539 157.693 110.519 160.299C106.025 163.211 100.226 166.047 94.6284 164.946C92.1702 164.463 90.0882 163.199 88.7109 161.194C86.5856 158.097 86.55 153.944 87.3148 150.435C89.6848 139.558 99.0809 129.974 108.604 124.09C114.219 120.62 121.835 117.402 128.694 118.87C132.982 119.789 135.338 122.49 137.528 125.836C137.637 125.592 137.745 125.345 137.853 125.096C138.213 124.271 138.578 123.433 139.031 122.666C139.552 121.783 140.145 121.349 141.179 121.111C144.407 120.368 153.816 119.318 156.534 120.85C156.557 120.896 156.59 120.941 156.623 120.986C156.688 121.075 156.753 121.165 156.742 121.267C156.68 121.851 155.084 123.737 153.996 125.022L153.996 125.023L153.994 125.024C153.614 125.473 153.297 125.849 153.128 126.07C152.924 126.338 152.694 126.637 152.443 126.965C147.935 132.855 136.391 147.938 136.395 152.849C136.395 153.497 136.557 154.225 137.14 154.635C137.973 155.219 139.342 155.152 140.29 154.925C142.53 154.389 144.696 152.891 146.542 151.615L146.6 151.574C156.774 144.538 164.087 134.55 170.642 124.508C169.9 123.939 169.22 123.386 168.797 122.554C167.76 120.515 168.275 118.056 169.104 116.04C169.936 114.018 171.37 111.776 173.585 110.932C174.812 110.465 176.452 110.259 177.699 110.771C178.796 111.223 179.484 112.216 179.846 113.265C180.759 115.909 179.74 118.503 178.519 120.868C182.588 122.713 187.478 122.87 191.771 121.649C192.567 121.422 193.355 121.152 194.142 120.881L194.143 120.881C195.308 120.481 196.474 120.081 197.672 119.821C197.737 119.807 197.802 119.793 197.868 119.778L197.872 119.777L197.873 119.777L197.878 119.776C198.824 119.567 199.851 119.34 200.71 119.85C200.991 120.376 201.116 120.883 200.839 121.451C200.151 122.863 198.967 124.318 197.831 125.713C197.247 126.43 196.676 127.131 196.191 127.804C192.874 132.407 182.534 147.163 181.264 151.804C180.938 152.996 180.771 154.067 181.434 155.164C182.015 155.616 182.476 155.719 183.207 155.657C186.01 155.419 189.078 153.243 191.329 151.646L191.593 151.459C202.592 143.673 208.911 134.281 216.052 123.424C216.984 122.006 217.939 120.604 218.892 119.203L218.893 119.203C220.353 117.057 221.814 114.912 223.195 112.71C223.936 111.528 224.662 110.319 225.391 109.103C227.476 105.628 229.591 102.104 232.178 99.0396C237.99 92.1535 247.581 90.7303 256.339 89.8266ZM346.461 117.438C347.521 117.333 348.518 117.389 349.535 117.722C351.135 118.246 352.722 119.303 353.396 120.825C355.427 125.416 349.092 134.04 343.646 141.454C340.748 145.4 338.101 149.004 337.1 151.475C336.702 152.459 336.524 153.209 336.99 154.188C337.395 154.567 337.732 154.814 338.28 154.961C341.866 155.928 349.765 149.16 352.107 146.872C352.56 146.43 353.145 145.803 353.798 145.105L353.798 145.104C355.603 143.174 357.924 140.691 359.394 140.007C359.942 139.751 360.199 139.743 360.768 139.912L361.066 140.463C361.065 141.455 360.786 142.201 360.193 143.023C356.423 148.244 346.257 156.887 340.433 160.242C337.414 161.98 333.67 163.561 330.186 164.155C327.593 164.597 323.89 164.475 321.74 162.929C315.506 158.448 322.647 148.628 328.859 140.086C332.8 134.666 336.368 129.761 335.907 127.06C335.86 127.007 335.82 126.956 335.783 126.909C335.645 126.734 335.547 126.61 335.259 126.554C333.412 126.19 330.241 128.051 328.591 129.02L328.424 129.118C320.476 133.775 313.76 140.663 308.569 148.002C307.976 148.84 306.937 150.556 305.739 152.533C303.221 156.69 300 162.006 298.74 162.782C296.911 163.908 287.023 163.942 284.805 163.431C284.091 163.267 283.576 163.052 283.169 162.441C283.108 161.834 283.35 161.423 283.644 160.924L283.647 160.919C283.668 160.883 283.69 160.846 283.711 160.809C284.434 159.573 285.327 158.399 286.215 157.23L286.216 157.229C286.692 156.603 287.167 155.979 287.613 155.348C289.227 153.067 290.615 150.68 291.94 148.239L289.116 150.647C282.301 156.652 273.149 164.379 263.437 164.742C261.389 164.819 259.254 164.499 257.732 163.085C256.403 161.851 255.912 160.136 255.886 158.415C255.797 152.498 259.692 147.325 263.286 142.55L263.288 142.548L263.292 142.542L263.293 142.54C263.982 141.626 264.659 140.726 265.295 139.838C267.383 136.925 272.364 129.918 273.293 126.827C273.556 125.953 273.438 124.842 273.326 123.787L273.326 123.786C273.269 123.243 273.213 122.714 273.211 122.24C274.933 120.961 289.753 119.127 292.358 119.226C293.109 119.255 293.533 119.339 294.06 119.852C294.202 120.98 290.814 125.695 288.562 128.83L288.561 128.831L288.561 128.831L288.561 128.832L288.557 128.838L288.553 128.843L288.552 128.844C287.776 129.924 287.136 130.815 286.824 131.305L278.901 143.869C278.492 144.514 278.061 145.163 277.627 145.819C276.303 147.816 274.943 149.868 274.038 151.999C273.625 152.974 273.322 153.873 273.591 154.912C274.019 155.351 274.228 155.518 274.879 155.554C278.73 155.769 287.277 148.685 289.979 146.222C294.607 142.005 303.808 132.122 305.396 126.509C305.654 125.595 305.608 124.472 305.563 123.402C305.542 122.907 305.522 122.423 305.533 121.976C305.681 121.741 305.816 121.599 306.075 121.469C308.055 120.48 324.498 118.353 326.197 118.842L326.386 119.211C325.848 121.962 320.325 129.601 318.368 132.002C325.34 126.953 337.79 118.474 346.461 117.438ZM108.123 89.3921C105.105 88.1438 101.27 87.8044 98.0332 88.2837C81.5382 90.3786 68.6898 102.428 59.0002 114.466C54.2199 120.418 49.8276 126.618 45.8232 133.066C44.8272 134.694 43.7853 136.495 42.6998 138.371C39.2282 144.369 35.3101 151.14 31.0156 155.539C25.8422 155.449 14.5294 155.36 10.6225 158.993C10.0912 159.487 9.79448 160.104 9.83878 160.813C9.90755 161.906 10.7203 162.713 11.5783 163.362C14.3785 165.48 18.1894 165.787 21.6127 165.359C23.5965 165.111 26.0092 164.362 28.3674 163.63L28.3675 163.63C31.1857 162.754 33.9261 161.903 35.7644 161.961C37.5715 162.018 39.3966 162.427 41.1728 162.826C41.4684 162.892 41.7627 162.958 42.0552 163.022C43.9285 163.433 45.9039 163.95 47.9378 164.482C58.568 167.265 70.7958 170.466 78.3895 161.01C80.1092 158.868 82.3634 154.677 82.0888 151.915C82.0329 151.356 81.9037 151.165 81.4458 150.836C80.8928 150.919 79.2674 152.367 77.7213 153.744C76.6274 154.719 75.5732 155.658 74.9668 156.053C68.5195 160.254 53.0237 159.225 45.4268 158.014L41.2383 157.523C48.7203 152.728 55.0407 145.85 60.3212 138.962C63.0747 135.325 65.6793 131.594 68.135 127.769C68.8653 126.651 69.6684 125.391 70.5359 124.031C77.4277 113.222 88.3759 96.052 99.0398 92.7433C100.28 92.3583 101.744 92.022 103.047 92.2732C103.77 92.4127 104.304 92.752 104.665 93.3768C105.692 95.1513 104.875 98.0667 104.132 99.8464C99.2073 111.66 85.9353 121.693 75.3526 128.963C75.1896 129.074 74.9657 129.216 74.7079 129.378L74.7071 129.379C73.4766 130.155 71.4759 131.416 71.6487 132.3C72.2598 132.58 72.6124 132.551 73.2567 132.342C76.728 131.213 80.0769 129.184 83.1614 127.306C93.4658 121.028 105.972 111.663 111.328 101.046C112.474 98.7726 113.509 95.8643 112.571 93.3834C111.837 91.445 110.047 90.1879 108.123 89.3921ZM302.18 94.6576C300.294 93.6996 298.146 93.6053 296.061 93.7478C292.604 94.3042 289.847 95.7858 287.785 98.5455C286.383 100.422 285.481 102.741 285.985 105.056C286.319 106.593 287.23 107.943 288.628 108.794C290.522 109.949 292.872 110.053 295.039 109.752C298.567 108.842 301.656 107.413 303.618 104.298C304.818 102.393 305.506 99.8477 304.824 97.6659C304.409 96.3378 303.458 95.307 302.18 94.6576ZM106.535 4.73295C106.963 4.66499 107.069 4.65885 107.466 4.73953C107.279 4.86433 107.092 4.98881 106.905 5.11317C104.891 6.45419 102.896 7.78255 101.088 9.38154C89.2409 19.8549 78.394 38.194 69.5279 53.1844C68.1224 55.5607 66.7667 57.8528 65.4646 60.0162C63.5303 59.1616 61.9639 58.1746 60.3637 56.8343C58.0929 54.5008 56.5634 51.6924 55.9569 48.5618C54.4643 40.8593 58.3962 31.9725 62.9059 25.7476C70.3279 15.502 82.6224 9.06278 95.2451 6.44208C97.375 5.99968 99.5422 5.71594 101.71 5.43216C103.323 5.22093 104.936 5.00967 106.535 4.73295ZM138.311 38.4699L138.217 38.4762C130.658 40.1257 123.723 48.0803 119.779 54.0088C116.805 58.4785 112.512 66.1779 113.841 71.6776C114.109 72.7877 114.697 73.8589 115.762 74.4469C117.559 75.4383 120.126 74.9099 122.008 74.3509C122.79 74.1185 123.556 73.7966 124.302 73.4757C130.84 70.1872 135.363 65.0822 139.751 59.5733C137.896 59.54 136.404 59.4953 135.053 58.0883C134.288 57.2907 134.003 56.2651 134.063 55.2018C134.194 52.8982 135.604 50.5914 137.414 49.1028C139.576 47.324 141.901 46.9105 144.639 46.693C145.007 44.5283 145.153 42.3439 143.744 40.444C143.643 40.3096 143.535 40.1804 143.42 40.0564C143.305 39.9325 143.183 39.8144 143.056 39.7022C142.928 39.5902 142.794 39.4847 142.655 39.3856C142.516 39.2865 142.371 39.1944 142.222 39.1094C142.073 39.0246 141.919 38.9471 141.762 38.877C141.604 38.8071 141.443 38.745 141.279 38.6906C141.114 38.6366 140.948 38.5905 140.778 38.5525C140.609 38.5145 140.438 38.4848 140.266 38.4635C139.619 38.3815 138.96 38.426 138.311 38.4699ZM131.054 124.658C130.133 124.247 129.118 124.177 128.115 124.208C119.952 125.801 112.6 133.953 108.25 140.244C106.1 143.354 101.91 149.616 102.803 153.557C102.994 154.397 103.502 155.039 104.281 155.475C105.321 156.057 106.342 156.029 107.507 155.945C116.16 153.615 125.511 142.835 129.703 135.678C131.045 133.387 133.517 129.069 132.688 126.392C132.438 125.584 131.843 125.011 131.054 124.658ZM243.403 127.918L243.322 127.922C243.264 127.926 243.206 127.929 243.148 127.932C237.392 129.732 232.214 134.451 227.742 138.526L227.738 138.53L227.715 138.551L227.708 138.557L227.706 138.559C227.281 138.946 226.863 139.327 226.451 139.699L230.385 139.492C235.012 139.207 241.762 137.586 244.893 134.079C245.896 132.955 246.453 131.63 246.279 130.145C246.198 129.455 246.007 128.602 245.353 128.197C244.775 127.839 244.069 127.879 243.403 127.918ZM283.253 175.33C285.217 175.13 287.321 175.24 289.287 175.386C293.007 175.661 298.83 176.326 301.338 179.288C302.268 180.386 302.65 181.732 302.461 183.127C302.167 185.311 300.628 187.125 298.852 188.437C293.231 192.59 284.86 193.179 278.075 192.287C278.054 192.285 278.033 192.283 278.012 192.281C277.978 192.277 277.943 192.274 277.909 192.269C269.758 191.157 263.076 187.29 258.016 181.174C260.02 180.371 262.055 179.644 264.119 178.996C266.185 178.347 268.274 177.778 270.387 177.289C272.5 176.8 274.631 176.391 276.779 176.064C278.926 175.738 281.084 175.493 283.253 175.33ZM55.5336 74.4271C55.3894 74.4449 55.2479 74.4624 55.1128 74.4728C40.6093 76.3709 26.7493 81.7732 17.6426 93.1469C13.7809 97.97 10.407 104.793 11.3763 111.013C11.7053 113.126 12.7212 115.034 14.5974 116.27C14.6362 116.296 14.677 116.319 14.7178 116.343L14.718 116.343L14.7189 116.343C14.7383 116.354 14.7577 116.365 14.7769 116.377C17.1128 117.426 19.1528 117.415 21.5952 116.624C34.6614 112.395 50.9557 86.7274 56.6908 75.123C56.7914 74.9196 56.8763 74.7095 56.9585 74.4991C56.5462 74.3022 56.024 74.3667 55.5336 74.4271Z" fill="#EBEBEB"/>
</svg>
