<svg width="1080" height="1080" viewBox="0 0 1080 1080" fill="none" xmlns="http://www.w3.org/2000/svg">
<g clip-path="url(#clip0_18_1212)">
<path d="M24.4991 0L24.4991 1080M48.4992 0L48.4991 1080M72.4992 0L72.4992 1080M96.4993 0L96.4992 1080M120.499 0L120.499 1080M144.499 0L144.499 1080M168.499 0L168.499 1080M192.499 0L192.499 1080M216.499 0L216.499 1080M240.5 0L240.499 1080M264.5 0L264.5 1080M288.5 0L288.5 1080M312.5 0L312.5 1080M336.5 0L336.5 1080M360.5 0L360.5 1080M384.5 0L384.5 1080M408.5 0L408.5 1080M432.5 0L432.5 1080M456.5 0L456.5 1080M480.5 0L480.5 1080M504.5 0L504.5 1080M528.5 0L528.5 1080M552.5 0L552.5 1080M576.5 0L576.5 1080M600.5 0L600.5 1080M624.5 0L624.5 1080M648.501 0L648.5 1080M672.501 0L672.501 1080M696.501 0L696.501 1080M720.501 0L720.501 1080M744.501 0L744.501 1080M768.501 0L768.501 1080M792.501 0L792.501 1080M816.501 0L816.501 1080M840.501 0L840.501 1080M864.501 0L864.501 1080M888.501 0L888.501 1080M912.501 0L912.501 1080M936.501 0L936.501 1080M960.501 0L960.501 1080M984.501 0L984.501 1080M1008.5 0L1008.5 1080M1032.5 0V1080M1068 36.499L-12 36.4989M1068 60.4991L-12 60.499M1068 84.4991L-12 84.499M1068 108.499L-12 108.499M1068 132.499L-12 132.499M1068 156.499L-12 156.499M1068 180.499L-12 180.499M1068 204.499L-12 204.499M1068 228.499L-12 228.499M1068 252.499L-12 252.499M1068 276.5L-12 276.499M1068 300.5L-12 300.499M1068 324.5L-12 324.5M1068 348.5L-12 348.5M1068 372.5L-12 372.5M1068 396.5L-12 396.5M1068 420.5L-12 420.5M1068 444.5L-12 444.5M1068 468.5L-12 468.5M1068 492.5L-12 492.5M1068 516.5L-12 516.5M1068 540.5L-12 540.5M1068 564.5L-12 564.5M1068 588.5L-12 588.5M1068 612.5L-12 612.5M1068 636.5L-12 636.5M1068 660.5L-12 660.5M1068 684.5L-12 684.5M1068 708.501L-12 708.5M1068 732.501L-12 732.501M1068 756.501L-12 756.501M1068 780.501L-12 780.501M1068 804.501L-12 804.501M1068 828.501L-12 828.501M1068 852.501L-12 852.501M1068 876.501L-12 876.501M1068 900.501L-12 900.501M1068 924.501L-12 924.501M1068 948.501L-12 948.501M1068 972.501L-12 972.501M1068 996.501L-12 996.501M1068 1020.5L-12 1020.5M1068 1044.5L-12 1044.5" stroke="url(#paint0_linear_18_1212)" stroke-opacity="0.15"/>
<rect x="456" y="444" width="169" height="169" rx="24" fill="url(#paint1_linear_18_1212)"/>
<g filter="url(#filter0_dddddd_18_1212)">
<path fill-rule="evenodd" clip-rule="evenodd" d="M579.333 529C579.333 550.171 562.171 567.333 540.999 567.333C534.866 567.333 529.07 565.892 523.933 563.331C522.577 562.629 521.01 562.447 519.529 562.821L510.996 565.106C510.151 565.331 509.262 565.331 508.418 565.104C507.574 564.877 506.804 564.432 506.186 563.814C505.568 563.196 505.124 562.426 504.898 561.581C504.671 560.737 504.671 559.848 504.897 559.003L507.178 550.47C507.55 548.99 507.367 547.425 506.664 546.07C504.025 540.767 502.657 534.923 502.666 529C502.666 507.828 519.828 490.667 540.999 490.667C562.171 490.667 579.333 507.828 579.333 529ZM554.531 519.302C555.069 519.841 555.372 520.571 555.372 521.333C555.372 522.095 555.069 522.826 554.531 523.365L539.198 538.698C538.666 539.231 537.946 539.533 537.194 539.541C536.441 539.549 535.716 539.262 535.173 538.74L527.506 531.38C526.956 530.852 526.639 530.126 526.623 529.364C526.616 528.986 526.683 528.61 526.821 528.259C526.958 527.907 527.164 527.586 527.426 527.313C527.687 527.041 528 526.823 528.346 526.671C528.692 526.52 529.065 526.438 529.442 526.431C530.205 526.416 530.943 526.704 531.493 527.233L537.128 532.642L550.468 519.302C551.007 518.763 551.738 518.461 552.499 518.461C553.261 518.461 553.992 518.763 554.531 519.302Z" fill="url(#paint2_linear_18_1212)"/>
</g>
<g filter="url(#filter1_d_18_1212)">
<path d="M586 588L579 556L608.5 572.5L594.5 575.5L586 588Z" fill="black"/>
<path d="M586 588L579 556L608.5 572.5L594.5 575.5L586 588Z" stroke="white" stroke-width="3"/>
</g>
<g filter="url(#filter2_d_18_1212)">
<rect x="600" y="588" width="136" height="37" rx="3" fill="black"/>
</g>
<path d="M611.777 601.909H614.862V615.75C614.862 616.693 614.683 617.472 614.325 618.085C613.967 618.699 613.45 619.156 612.774 619.457C612.098 619.759 611.277 619.909 610.311 619.909C610.197 619.909 610.092 619.906 609.995 619.901C609.899 619.901 609.794 619.898 609.68 619.892V617.378C609.765 617.384 609.842 617.386 609.91 617.386C609.978 617.392 610.049 617.395 610.123 617.395C610.714 617.395 611.137 617.25 611.393 616.96C611.649 616.676 611.777 616.259 611.777 615.707V601.909ZM613.311 600.051C612.816 600.051 612.393 599.889 612.041 599.565C611.694 599.236 611.521 598.841 611.521 598.381C611.521 597.915 611.694 597.52 612.041 597.196C612.393 596.866 612.816 596.702 613.311 596.702C613.799 596.702 614.217 596.866 614.564 597.196C614.916 597.52 615.092 597.915 615.092 598.381C615.092 598.841 614.916 599.236 614.564 599.565C614.217 599.889 613.799 600.051 613.311 600.051ZM622.545 615.256C621.266 615.256 620.158 614.974 619.221 614.412C618.283 613.849 617.556 613.062 617.039 612.051C616.528 611.04 616.272 609.858 616.272 608.506C616.272 607.153 616.528 605.969 617.039 604.952C617.556 603.935 618.283 603.145 619.221 602.582C620.158 602.02 621.266 601.739 622.545 601.739C623.823 601.739 624.931 602.02 625.869 602.582C626.806 603.145 627.53 603.935 628.042 604.952C628.559 605.969 628.817 607.153 628.817 608.506C628.817 609.858 628.559 611.04 628.042 612.051C627.53 613.062 626.806 613.849 625.869 614.412C624.931 614.974 623.823 615.256 622.545 615.256ZM622.562 612.784C623.255 612.784 623.834 612.594 624.3 612.213C624.766 611.827 625.113 611.31 625.34 610.662C625.573 610.014 625.69 609.293 625.69 608.497C625.69 607.696 625.573 606.972 625.34 606.324C625.113 605.67 624.766 605.151 624.3 604.764C623.834 604.378 623.255 604.185 622.562 604.185C621.851 604.185 621.261 604.378 620.789 604.764C620.323 605.151 619.974 605.67 619.741 606.324C619.513 606.972 619.4 607.696 619.4 608.497C619.4 609.293 619.513 610.014 619.741 610.662C619.974 611.31 620.323 611.827 620.789 612.213C621.261 612.594 621.851 612.784 622.562 612.784ZM633.321 607.33V615H630.236V597.545H633.253V604.134H633.406C633.713 603.395 634.188 602.812 634.83 602.386C635.477 601.955 636.301 601.739 637.301 601.739C638.21 601.739 639.003 601.929 639.679 602.31C640.355 602.69 640.878 603.247 641.247 603.98C641.622 604.713 641.81 605.608 641.81 606.665V615H638.725V607.142C638.725 606.261 638.497 605.577 638.043 605.088C637.594 604.594 636.963 604.347 636.151 604.347C635.605 604.347 635.117 604.466 634.685 604.705C634.259 604.937 633.924 605.276 633.679 605.719C633.441 606.162 633.321 606.699 633.321 607.33ZM646.84 607.33V615H643.755V601.909H646.704V604.134H646.857C647.158 603.401 647.638 602.818 648.297 602.386C648.962 601.955 649.783 601.739 650.76 601.739C651.664 601.739 652.451 601.932 653.121 602.318C653.797 602.705 654.32 603.264 654.689 603.997C655.064 604.73 655.249 605.619 655.243 606.665V615H652.158V607.142C652.158 606.267 651.931 605.582 651.476 605.088C651.027 604.594 650.405 604.347 649.61 604.347C649.07 604.347 648.59 604.466 648.17 604.705C647.755 604.937 647.428 605.276 647.189 605.719C646.956 606.162 646.84 606.699 646.84 607.33ZM660.265 597.545V615H657.18V597.545H660.265ZM666.005 615.264C665.175 615.264 664.428 615.116 663.763 614.821C663.104 614.52 662.581 614.077 662.195 613.491C661.814 612.906 661.624 612.185 661.624 611.327C661.624 610.588 661.76 609.977 662.033 609.494C662.306 609.011 662.678 608.625 663.15 608.335C663.621 608.045 664.152 607.827 664.743 607.679C665.34 607.526 665.956 607.415 666.593 607.347C667.36 607.267 667.982 607.196 668.459 607.134C668.936 607.065 669.283 606.963 669.499 606.827C669.721 606.685 669.831 606.466 669.831 606.17V606.119C669.831 605.477 669.641 604.98 669.26 604.628C668.88 604.276 668.331 604.099 667.615 604.099C666.86 604.099 666.26 604.264 665.817 604.594C665.38 604.923 665.084 605.312 664.931 605.761L662.05 605.352C662.277 604.557 662.652 603.892 663.175 603.358C663.698 602.818 664.337 602.415 665.093 602.148C665.848 601.875 666.684 601.739 667.598 601.739C668.229 601.739 668.857 601.812 669.482 601.96C670.107 602.108 670.678 602.352 671.195 602.693C671.712 603.028 672.127 603.486 672.439 604.065C672.757 604.645 672.917 605.369 672.917 606.239V615H669.951V613.202H669.848C669.661 613.565 669.397 613.906 669.056 614.224C668.721 614.537 668.297 614.79 667.786 614.983C667.28 615.17 666.686 615.264 666.005 615.264ZM666.806 612.997C667.425 612.997 667.962 612.875 668.417 612.631C668.871 612.381 669.221 612.051 669.465 611.642C669.715 611.233 669.84 610.787 669.84 610.304V608.761C669.743 608.841 669.578 608.915 669.346 608.983C669.118 609.051 668.863 609.111 668.578 609.162C668.294 609.213 668.013 609.259 667.735 609.298C667.456 609.338 667.215 609.372 667.01 609.401C666.55 609.463 666.138 609.565 665.775 609.707C665.411 609.849 665.124 610.048 664.914 610.304C664.703 610.554 664.598 610.878 664.598 611.276C664.598 611.844 664.806 612.273 665.221 612.562C665.635 612.852 666.164 612.997 666.806 612.997ZM674.819 615V601.909H677.81V604.091H677.947C678.185 603.335 678.594 602.753 679.174 602.344C679.759 601.929 680.427 601.722 681.177 601.722C681.347 601.722 681.538 601.73 681.748 601.747C681.964 601.759 682.143 601.778 682.285 601.807V604.645C682.154 604.599 681.947 604.56 681.663 604.526C681.384 604.486 681.114 604.466 680.853 604.466C680.29 604.466 679.785 604.588 679.336 604.832C678.893 605.071 678.543 605.403 678.288 605.83C678.032 606.256 677.904 606.747 677.904 607.304V615H674.819ZM688.306 615.256C686.999 615.256 685.877 614.969 684.939 614.395C684.007 613.821 683.289 613.028 682.783 612.017C682.283 611 682.033 609.83 682.033 608.506C682.033 607.176 682.289 606.003 682.8 604.986C683.311 603.963 684.033 603.168 684.965 602.599C685.902 602.026 687.01 601.739 688.289 601.739C689.351 601.739 690.291 601.935 691.11 602.327C691.933 602.713 692.59 603.261 693.078 603.972C693.567 604.676 693.845 605.5 693.914 606.443H690.965C690.845 605.812 690.561 605.287 690.112 604.866C689.669 604.44 689.075 604.227 688.331 604.227C687.7 604.227 687.147 604.398 686.669 604.739C686.192 605.074 685.82 605.557 685.553 606.188C685.291 606.818 685.161 607.574 685.161 608.455C685.161 609.347 685.291 610.114 685.553 610.756C685.814 611.392 686.181 611.884 686.652 612.23C687.129 612.571 687.689 612.741 688.331 612.741C688.786 612.741 689.192 612.656 689.55 612.486C689.914 612.31 690.218 612.057 690.462 611.727C690.706 611.398 690.874 610.997 690.965 610.526H693.914C693.84 611.452 693.567 612.273 693.095 612.989C692.624 613.699 691.982 614.256 691.169 614.659C690.357 615.057 689.402 615.256 688.306 615.256ZM698.059 610.892L698.051 607.168H698.545L703.25 601.909H706.855L701.068 608.352H700.429L698.059 610.892ZM695.247 615V597.545H698.332V615H695.247ZM703.463 615L699.201 609.043L701.281 606.869L707.153 615H703.463ZM707.711 615V601.909H710.796V615H707.711ZM709.262 600.051C708.774 600.051 708.353 599.889 708.001 599.565C707.649 599.236 707.472 598.841 707.472 598.381C707.472 597.915 707.649 597.52 708.001 597.196C708.353 596.866 708.774 596.702 709.262 596.702C709.756 596.702 710.177 596.866 710.524 597.196C710.876 597.52 711.052 597.915 711.052 598.381C711.052 598.841 710.876 599.236 710.524 599.565C710.177 599.889 709.756 600.051 709.262 600.051ZM715.854 607.33V615H712.769V601.909H715.718V604.134H715.871C716.172 603.401 716.652 602.818 717.311 602.386C717.976 601.955 718.797 601.739 719.775 601.739C720.678 601.739 721.465 601.932 722.135 602.318C722.811 602.705 723.334 603.264 723.703 603.997C724.078 604.73 724.263 605.619 724.257 606.665V615H721.172V607.142C721.172 606.267 720.945 605.582 720.49 605.088C720.042 604.594 719.419 604.347 718.624 604.347C718.084 604.347 717.604 604.466 717.184 604.705C716.769 604.937 716.442 605.276 716.203 605.719C715.971 606.162 715.854 606.699 715.854 607.33Z" fill="white"/>
</g>
<defs>
<filter id="filter0_dddddd_18_1212" x="437" y="463" width="208" height="208" filterUnits="userSpaceOnUse" color-interpolation-filters="sRGB">
<feFlood flood-opacity="0" result="BackgroundImageFix"/>
<feColorMatrix in="SourceAlpha" type="matrix" values="0 0 0 0 0 0 0 0 0 0 0 0 0 0 0 0 0 0 127 0" result="hardAlpha"/>
<feOffset dy="1.05156"/>
<feGaussianBlur stdDeviation="0.802504"/>
<feColorMatrix type="matrix" values="0 0 0 0 0 0 0 0 0 0 0 0 0 0 0 0 0 0 0.0646635 0"/>
<feBlend mode="normal" in2="BackgroundImageFix" result="effect1_dropShadow_18_1212"/>
<feColorMatrix in="SourceAlpha" type="matrix" values="0 0 0 0 0 0 0 0 0 0 0 0 0 0 0 0 0 0 127 0" result="hardAlpha"/>
<feOffset dy="2.52704"/>
<feGaussianBlur stdDeviation="1.92853"/>
<feColorMatrix type="matrix" values="0 0 0 0 0 0 0 0 0 0 0 0 0 0 0 0 0 0 0.0928953 0"/>
<feBlend mode="normal" in2="effect1_dropShadow_18_1212" result="effect2_dropShadow_18_1212"/>
<feColorMatrix in="SourceAlpha" type="matrix" values="0 0 0 0 0 0 0 0 0 0 0 0 0 0 0 0 0 0 127 0" result="hardAlpha"/>
<feOffset dy="4.75819"/>
<feGaussianBlur stdDeviation="3.63125"/>
<feColorMatrix type="matrix" values="0 0 0 0 0 0 0 0 0 0 0 0 0 0 0 0 0 0 0.115 0"/>
<feBlend mode="normal" in2="effect2_dropShadow_18_1212" result="effect3_dropShadow_18_1212"/>
<feColorMatrix in="SourceAlpha" type="matrix" values="0 0 0 0 0 0 0 0 0 0 0 0 0 0 0 0 0 0 127 0" result="hardAlpha"/>
<feOffset dy="8.4878"/>
<feGaussianBlur stdDeviation="6.47753"/>
<feColorMatrix type="matrix" values="0 0 0 0 0 0 0 0 0 0 0 0 0 0 0 0 0 0 0.137105 0"/>
<feBlend mode="normal" in2="effect3_dropShadow_18_1212" result="effect4_dropShadow_18_1212"/>
<feColorMatrix in="SourceAlpha" type="matrix" values="0 0 0 0 0 0 0 0 0 0 0 0 0 0 0 0 0 0 127 0" result="hardAlpha"/>
<feOffset dy="15.8755"/>
<feGaussianBlur stdDeviation="12.1155"/>
<feColorMatrix type="matrix" values="0 0 0 0 0 0 0 0 0 0 0 0 0 0 0 0 0 0 0.165337 0"/>
<feBlend mode="normal" in2="effect4_dropShadow_18_1212" result="effect5_dropShadow_18_1212"/>
<feColorMatrix in="SourceAlpha" type="matrix" values="0 0 0 0 0 0 0 0 0 0 0 0 0 0 0 0 0 0 127 0" result="hardAlpha"/>
<feOffset dy="38"/>
<feGaussianBlur stdDeviation="29"/>
<feColorMatrix type="matrix" values="0 0 0 0 0 0 0 0 0 0 0 0 0 0 0 0 0 0 0.23 0"/>
<feBlend mode="normal" in2="effect5_dropShadow_18_1212" result="effect6_dropShadow_18_1212"/>
<feBlend mode="normal" in="SourceGraphic" in2="effect6_dropShadow_18_1212" result="shape"/>
</filter>
<filter id="filter1_d_18_1212" x="574.322" y="552.563" width="40.8828" height="43.6637" filterUnits="userSpaceOnUse" color-interpolation-filters="sRGB">
<feFlood flood-opacity="0" result="BackgroundImageFix"/>
<feColorMatrix in="SourceAlpha" type="matrix" values="0 0 0 0 0 0 0 0 0 0 0 0 0 0 0 0 0 0 127 0" result="hardAlpha"/>
<feOffset dy="2"/>
<feGaussianBlur stdDeviation="1.25"/>
<feComposite in2="hardAlpha" operator="out"/>
<feColorMatrix type="matrix" values="0 0 0 0 0 0 0 0 0 0 0 0 0 0 0 0 0 0 0.19 0"/>
<feBlend mode="normal" in2="BackgroundImageFix" result="effect1_dropShadow_18_1212"/>
<feBlend mode="normal" in="SourceGraphic" in2="effect1_dropShadow_18_1212" result="shape"/>
</filter>
<filter id="filter2_d_18_1212" x="597.5" y="587.5" width="141" height="42" filterUnits="userSpaceOnUse" color-interpolation-filters="sRGB">
<feFlood flood-opacity="0" result="BackgroundImageFix"/>
<feColorMatrix in="SourceAlpha" type="matrix" values="0 0 0 0 0 0 0 0 0 0 0 0 0 0 0 0 0 0 127 0" result="hardAlpha"/>
<feOffset dy="2"/>
<feGaussianBlur stdDeviation="1.25"/>
<feComposite in2="hardAlpha" operator="out"/>
<feColorMatrix type="matrix" values="0 0 0 0 0 0 0 0 0 0 0 0 0 0 0 0 0 0 0.19 0"/>
<feBlend mode="normal" in2="BackgroundImageFix" result="effect1_dropShadow_18_1212"/>
<feBlend mode="normal" in="SourceGraphic" in2="effect1_dropShadow_18_1212" result="shape"/>
</filter>
<linearGradient id="paint0_linear_18_1212" x1="528" y1="0" x2="528" y2="1080" gradientUnits="userSpaceOnUse">
<stop stop-color="white" stop-opacity="0"/>
<stop offset="1" stop-color="white"/>
</linearGradient>
<linearGradient id="paint1_linear_18_1212" x1="540.5" y1="444" x2="540.5" y2="613" gradientUnits="userSpaceOnUse">
<stop stop-color="#00C236"/>
<stop offset="1" stop-color="#01D13B"/>
</linearGradient>
<linearGradient id="paint2_linear_18_1212" x1="540.999" y1="490.667" x2="540.999" y2="567.333" gradientUnits="userSpaceOnUse">
<stop stop-color="white"/>
<stop offset="0.421421" stop-color="#ECF1EB"/>
<stop offset="0.827347" stop-color="#A5C7A2"/>
<stop offset="1" stop-color="#AEEBAA"/>
</linearGradient>
<clipPath id="clip0_18_1212">
<rect width="1080" height="1080" fill="white"/>
</clipPath>
</defs>
</svg>
