<svg width="1080" height="1080" viewBox="0 0 1080 1080" fill="none" xmlns="http://www.w3.org/2000/svg">
<g clip-path="url(#clip0_14_2276)">
<path d="M24.5001 0L24.5 1080M48.5001 0L48.5001 1080M72.5002 0L72.5001 1080M96.5002 0L96.5002 1080M120.5 0L120.5 1080M144.5 0L144.5 1080M168.5 0L168.5 1080M192.5 0L192.5 1080M216.5 0L216.5 1080M240.501 0L240.5 1080M264.501 0L264.501 1080M288.501 0L288.501 1080M312.501 0L312.501 1080M336.501 0L336.501 1080M360.501 0L360.501 1080M384.501 0L384.501 1080M408.501 0L408.501 1080M432.501 0L432.501 1080M456.501 0L456.501 1080M480.501 0L480.501 1080M504.501 0L504.501 1080M528.501 0L528.501 1080M552.501 0L552.501 1080M576.501 0L576.501 1080M600.501 0L600.501 1080M624.501 0L624.501 1080M648.502 0L648.501 1080M672.502 0L672.502 1080M696.502 0L696.502 1080M720.502 0L720.502 1080M744.502 0L744.502 1080M768.502 0L768.502 1080M792.502 0L792.502 1080M816.502 0L816.502 1080M840.502 0L840.502 1080M864.502 0L864.502 1080M888.502 0L888.502 1080M912.502 0L912.502 1080M936.502 0L936.502 1080M960.502 0L960.502 1080M984.502 0L984.502 1080M1008.5 0L1008.5 1080M1032.5 0V1080M1068 36.499L-11.999 36.4989M1068 60.4991L-11.999 60.499M1068 84.4991L-11.999 84.499M1068 108.499L-11.999 108.499M1068 132.499L-11.999 132.499M1068 156.499L-11.999 156.499M1068 180.499L-11.999 180.499M1068 204.499L-11.999 204.499M1068 228.499L-11.999 228.499M1068 252.499L-11.999 252.499M1068 276.5L-11.999 276.499M1068 300.5L-11.999 300.499M1068 324.5L-11.999 324.5M1068 348.5L-11.999 348.5M1068 372.5L-11.999 372.5M1068 396.5L-11.999 396.5M1068 420.5L-11.999 420.5M1068 444.5L-11.999 444.5M1068 468.5L-11.999 468.5M1068 492.5L-11.999 492.5M1068 516.5L-11.999 516.5M1068 540.5L-11.999 540.5M1068 564.5L-11.999 564.5M1068 588.5L-11.999 588.5M1068 612.5L-11.999 612.5M1068 636.5L-11.999 636.5M1068 660.5L-11.999 660.5M1068 684.5L-11.999 684.5M1068 708.501L-11.999 708.5M1068 732.501L-11.999 732.501M1068 756.501L-11.999 756.501M1068 780.501L-11.999 780.501M1068 804.501L-11.999 804.501M1068 828.501L-11.999 828.501M1068 852.501L-11.999 852.501M1068 876.501L-11.999 876.501M1068 900.501L-11.999 900.501M1068 924.501L-11.999 924.501M1068 948.501L-11.999 948.501M1068 972.501L-11.999 972.501M1068 996.501L-11.999 996.501M1068 1020.5L-11.999 1020.5M1068 1044.5L-11.999 1044.5" stroke="url(#paint0_linear_14_2276)" stroke-opacity="0.15"/>
<rect x="456" y="444" width="169" height="169" rx="24" fill="white"/>
<path d="M540.48 505.13C542.114 502.075 543.868 499.527 546.519 497.281C551.406 493.142 557.535 491.505 563.82 492.128C570.331 492.773 576.135 496.158 580.263 501.278C584.755 506.848 586.578 514.014 585.841 521.132C584.254 536.454 572.577 547.609 561.465 556.807C554.826 562.552 547.634 567.769 540.601 573C539.099 572.071 537.659 570.99 536.223 569.954C525.622 562.307 510.662 550.776 502.896 540.129C499.233 535.107 496.368 529.209 495.377 523.002C494.234 515.848 495.678 508.264 499.892 502.341C503.908 496.697 509.809 493.335 516.509 492.244C519.609 491.927 522.822 492.042 525.844 492.853C532.573 494.661 537.097 499.139 540.48 505.13Z" fill="#FD325D"/>
<line x1="456" y1="1080" x2="456" y2="4.37115e-08" stroke="url(#paint1_linear_14_2276)" stroke-width="2"/>
<line x1="0.5" y1="444.5" x2="1080.5" y2="444.5" stroke="#FF0E41" stroke-width="2"/>
<line x1="624" y1="1080" x2="624" y2="4.37115e-08" stroke="url(#paint2_linear_14_2276)" stroke-width="2"/>
<line x1="0.5" y1="613.5" x2="1080.5" y2="613.5" stroke="#FF0E41" stroke-width="2"/>
<path d="M642.04 425V423.248H646.84V409.736H646.672L642.448 413.672L641.272 412.4L645.712 408.248H648.856V423.248H653.272V425H642.04ZM667.279 425H656.095V422.936L661.687 417.896C662.503 417.16 663.175 416.408 663.703 415.64C664.231 414.856 664.495 414.032 664.495 413.168V412.88C664.495 411.872 664.231 411.096 663.703 410.552C663.175 409.992 662.391 409.712 661.351 409.712C660.327 409.712 659.535 409.976 658.975 410.504C658.431 411.016 658.023 411.704 657.751 412.568L655.951 411.896C656.111 411.4 656.327 410.92 656.599 410.456C656.887 409.976 657.247 409.552 657.679 409.184C658.111 408.816 658.631 408.52 659.239 408.296C659.863 408.072 660.583 407.96 661.399 407.96C662.231 407.96 662.967 408.08 663.607 408.32C664.263 408.56 664.807 408.896 665.239 409.328C665.687 409.76 666.023 410.272 666.247 410.864C666.487 411.456 666.607 412.104 666.607 412.808C666.607 413.448 666.511 414.048 666.319 414.608C666.143 415.168 665.887 415.704 665.551 416.216C665.231 416.728 664.839 417.232 664.375 417.728C663.927 418.208 663.423 418.688 662.863 419.168L658.183 423.248H667.279V425ZM675.981 425.288C675.005 425.288 674.149 425.168 673.413 424.928C672.677 424.672 672.061 424.328 671.565 423.896C671.085 423.464 670.717 422.952 670.461 422.36C670.221 421.768 670.101 421.128 670.101 420.44C670.101 419.288 670.413 418.376 671.037 417.704C671.661 417.032 672.485 416.56 673.509 416.288V416.096C672.613 415.792 671.901 415.304 671.373 414.632C670.861 413.944 670.605 413.12 670.605 412.16C670.605 410.88 671.077 409.864 672.021 409.112C672.965 408.344 674.285 407.96 675.981 407.96C677.677 407.96 678.997 408.344 679.941 409.112C680.885 409.864 681.357 410.88 681.357 412.16C681.357 413.12 681.093 413.944 680.565 414.632C680.053 415.304 679.349 415.792 678.453 416.096V416.288C679.477 416.56 680.301 417.032 680.925 417.704C681.549 418.376 681.861 419.288 681.861 420.44C681.861 421.128 681.733 421.768 681.477 422.36C681.237 422.952 680.869 423.464 680.373 423.896C679.877 424.328 679.261 424.672 678.525 424.928C677.805 425.168 676.957 425.288 675.981 425.288ZM675.981 423.584C677.165 423.584 678.093 423.32 678.765 422.792C679.437 422.264 679.773 421.52 679.773 420.56V420.032C679.773 419.072 679.437 418.328 678.765 417.8C678.109 417.272 677.181 417.008 675.981 417.008C674.781 417.008 673.845 417.272 673.173 417.8C672.517 418.328 672.189 419.072 672.189 420.032V420.56C672.189 421.52 672.525 422.264 673.197 422.792C673.869 423.32 674.797 423.584 675.981 423.584ZM675.981 415.376C677.069 415.376 677.893 415.144 678.453 414.68C679.029 414.216 679.317 413.552 679.317 412.688V412.352C679.317 411.488 679.021 410.824 678.429 410.36C677.853 409.896 677.037 409.664 675.981 409.664C674.925 409.664 674.101 409.896 673.509 410.36C672.933 410.824 672.645 411.488 672.645 412.352V412.688C672.645 413.552 672.925 414.216 673.485 414.68C674.061 415.144 674.893 415.376 675.981 415.376ZM699.843 412.616H701.763V414.632H701.859C702.659 413.096 703.931 412.328 705.675 412.328C707.195 412.328 708.379 412.896 709.227 414.032C710.091 415.168 710.523 416.76 710.523 418.808C710.523 420.856 710.091 422.448 709.227 423.584C708.379 424.72 707.195 425.288 705.675 425.288C703.931 425.288 702.659 424.52 701.859 422.984H701.763V429.8H699.843V412.616ZM704.931 423.584C706.051 423.584 706.915 423.248 707.523 422.576C708.147 421.888 708.459 420.984 708.459 419.864V417.752C708.459 416.632 708.147 415.736 707.523 415.064C706.915 414.376 706.051 414.032 704.931 414.032C704.499 414.032 704.091 414.088 703.707 414.2C703.323 414.312 702.987 414.48 702.699 414.704C702.411 414.912 702.179 415.176 702.003 415.496C701.843 415.8 701.763 416.16 701.763 416.576V421.04C701.763 421.456 701.843 421.824 702.003 422.144C702.179 422.448 702.411 422.712 702.699 422.936C702.987 423.144 703.323 423.304 703.707 423.416C704.091 423.528 704.499 423.584 704.931 423.584ZM713.417 425L718.025 418.712L713.537 412.616H715.841L717.713 415.232L719.201 417.296H719.297L720.737 415.232L722.585 412.616H724.793L720.257 418.688L724.913 425H722.609L720.521 422.096L719.105 420.128H719.009L717.641 422.096L715.625 425H713.417Z" fill="white"/>
</g>
<defs>
<linearGradient id="paint0_linear_14_2276" x1="528.001" y1="0" x2="528.001" y2="1080" gradientUnits="userSpaceOnUse">
<stop stop-color="white" stop-opacity="0"/>
<stop offset="1" stop-color="white"/>
</linearGradient>
<linearGradient id="paint1_linear_14_2276" x1="457.5" y1="-2.18556e-08" x2="457.5" y2="1080" gradientUnits="userSpaceOnUse">
<stop stop-color="#990827" stop-opacity="0"/>
<stop offset="1" stop-color="#FF0E41"/>
</linearGradient>
<linearGradient id="paint2_linear_14_2276" x1="625.5" y1="-2.18556e-08" x2="625.5" y2="1080" gradientUnits="userSpaceOnUse">
<stop stop-color="#990827" stop-opacity="0"/>
<stop offset="1" stop-color="#FF0E41"/>
</linearGradient>
<clipPath id="clip0_14_2276">
<rect width="1080" height="1080" fill="white"/>
</clipPath>
</defs>
</svg>
